<?xml version="1.0" encoding="UTF-8" standalone="no"?>
<svg
   xmlns:dc="http://purl.org/dc/elements/1.1/"
   xmlns:cc="http://creativecommons.org/ns#"
   xmlns:rdf="http://www.w3.org/1999/02/22-rdf-syntax-ns#"
   xmlns:svg="http://www.w3.org/2000/svg"
   xmlns="http://www.w3.org/2000/svg"
   xmlns:sodipodi="http://sodipodi.sourceforge.net/DTD/sodipodi-0.dtd"
   xmlns:inkscape="http://www.inkscape.org/namespaces/inkscape"
   viewBox="0 0 920 1081"
   height="1081"
   width="920"
   id="svg111"
   version="1.1"
   sodipodi:docname="bamboo2.svg"
   inkscape:version="0.92.5 (2060ec1f9f, 2020-04-08)">
  <sodipodi:namedview
     pagecolor="#ffffff"
     bordercolor="#666666"
     borderopacity="1"
     objecttolerance="10"
     gridtolerance="10"
     guidetolerance="10"
     inkscape:pageopacity="0"
     inkscape:pageshadow="2"
     inkscape:window-width="1922"
     inkscape:window-height="1365"
     id="namedview188"
     showgrid="false"
     inkscape:zoom="4.9399356"
     inkscape:cx="409.17893"
     inkscape:cy="485.69556"
     inkscape:window-x="0"
     inkscape:window-y="44"
     inkscape:window-maximized="0"
     inkscape:current-layer="svg111" />
  <metadata
     id="metadata117">
    <rdf:RDF>
      <cc:Work
         rdf:about="">
        <dc:format>image/svg+xml</dc:format>
        <dc:type
           rdf:resource="http://purl.org/dc/dcmitype/StillImage" />
        <dc:title></dc:title>
      </cc:Work>
    </rdf:RDF>
  </metadata>
  <defs
     id="defs115" />
  <path
     style="fill:#000000;stroke-width:1.22924292"
     d="m 680.24323,1025.7822 c 0.9527,-0.5136 2.24148,-5.6518 3.04919,-12.1567 3.37101,-27.149 9.90386,-114.50015 12.06488,-161.32037 1.16799,-25.30345 2.08329,-35.21129 3.42279,-37.04875 3.08848,-4.23662 2.10134,-6.48664 -5.17647,-11.79932 -13.30164,-9.70991 -25.22343,-13.85467 -27.21034,-9.46003 -0.42597,0.94223 0.0437,2.55339 1.04259,3.58037 2.4701,2.53817 1.90091,88.64873 -0.8969,135.69977 -2.72089,45.7564 -5.72396,68.39263 -11.02241,83.08283 -2.17754,6.0377 -2.17199,6.0874 0.91707,8.2105 2.40368,1.652 5.26625,2.1321 12.6336,2.1187 5.23911,-0.012 10.26837,-0.4178 11.176,-0.907 z m -40.698,-0.3871 c 2.1169,-1.3897 2.19334,-2.7159 0.89371,-15.4948 -1.98537,-19.52112 -0.85207,-137.25106 1.38079,-143.43922 0.89903,-2.49145 1.95223,-5.92465 2.34069,-7.62936 0.69211,-3.03757 0.62239,-3.07463 -3.49451,-1.85653 -6.00685,1.77728 -17.46526,0.2616 -26.15855,-3.46019 -4.05497,-1.736 -7.69317,-2.71628 -8.08482,-2.17836 -0.39176,0.5379 0.50549,2.88694 1.99363,5.22004 5.95329,9.33325 6.97051,16.10048 8.2127,54.6372 1.8838,58.44668 1.70048,94.35972 -0.53073,103.93242 -1.83709,7.8821 -1.80819,8.2891 0.66769,9.4137 4.39365,1.9958 20.14144,2.5869 22.7794,0.8551 z m 3.52495,-173.48804 c 1.45948,-1.49267 1.36145,-2.66226 -0.58582,-6.99 -2.08883,-4.64222 -2.24325,-8.00298 -1.4458,-31.46335 3.39849,-99.97667 4.45972,-117.54133 7.72927,-127.91672 1.50478,-4.77529 1.41736,-5.49437 -0.93606,-7.70305 -3.476,-3.26219 -11.19418,-6.50836 -23.12906,-9.72784 -11.56175,-3.11882 -16.88451,-3.37531 -18.01804,-0.86819 -1.25092,2.76669 -0.95872,7.05673 0.53391,7.8397 4.0315,2.11478 5.57933,8.50653 8.03633,33.18728 4.59526,46.1576 4.76289,87.06777 0.44073,107.51789 -1.38799,6.56749 2.53311,7.13298 -15.7224,-29.97099 -15.04093,-30.57023 -18.42818,-50.4176 -20.07074,-55.08933 -1.34328,-3.82033 -10.10671,-1.34314 -13.43973,-1.62399 -2.17364,-0.18315 -5.05532,0.35223 -6.40379,1.18974 -2.32665,1.44509 -2.24384,1.71166 1.62486,5.22673 7.25221,6.58928 27.22768,44.57655 41.41961,78.76721 4.88227,11.76223 6.51952,21.73746 4.17754,25.45178 -1.28902,2.04417 -1.20102,3.04232 0.45794,5.19118 4.27875,5.54264 31.48213,10.91839 35.33125,6.98195 z m -48.53675,-43.90977 c -1.46773,-0.75751 -5.81738,-4.035 -9.66591,-7.2833 -14.75463,-12.45349 -39.64587,-19.85925 -75.72785,-22.5309 -5.13708,-0.38037 -11.7417,-0.98304 -14.67711,-1.33927 -7.82081,-0.94912 -5.39186,0.44462 18.67994,10.7185 33.38492,14.24878 55.04789,20.66398 72.05096,21.33695 9.8352,0.38927 11.52553,0.22602 9.33997,-0.90198 z m 108.74365,-9.71326 c 0,-2.83694 -9.00636,-52.11898 -12.16904,-66.58761 -1.49758,-6.85148 -4.49204,-18.57261 -6.65424,-26.04695 -4.69954,-16.2453 -14.72372,-55.70288 -24.53344,-96.56932 -5.4964,-22.89699 -6.86835,-30.56352 -5.95399,-33.26956 2.00377,-5.92999 -2.09379,-9.06492 -13.3867,-10.24191 -1.99799,-0.20823 -3.51386,-1.19959 -3.80323,-2.4872 -0.44343,-1.97298 0.14522,-2.08082 7.50159,-1.37442 7.82046,0.75095 8.00083,0.70582 8.86552,-2.21826 0.73304,-2.47909 -0.10499,-3.88091 -4.94621,-8.27377 -3.85466,-3.49775 -7.10546,-8.12483 -9.59867,-13.66255 l -3.76985,-8.37358 0.90893,-21.48992 c 0.81043,-19.15905 1.20738,-21.84546 3.65931,-24.76805 2.57119,-3.06482 2.61059,-3.4589 0.60576,-6.0559 -3.9803,-5.156 -20.74531,-10.69303 -32.46019,-10.7208 -3.11891,-0.008 -5.67063,0.48886 -5.67063,1.10277 0,0.61392 2.10145,4.47834 4.66993,8.58763 4.5975,7.3555 5.71511,10.68073 3.58971,10.68073 -1.04518,0 -6.81798,-9.48891 -29.51657,-48.51705 -11.82199,-20.32689 -16.8457,-32.4169 -15.62416,-37.60079 1.82423,-7.74205 -3.32724,-8.72994 -15.81515,-3.03281 -10.12763,4.62035 -10.83366,6.90953 -3.00896,9.7563 4.23404,1.54045 7.03551,3.67792 10.05544,7.6724 8.00944,10.59379 36.42657,62.59381 51.52448,94.2836 l 3.46514,7.27323 -0.0118,60.67533 c -0.0118,61.0357 -0.7137,72.26051 -4.78412,76.07808 -3.87708,3.63614 -1.2613,5.2846 15.06488,9.49357 8.6599,2.23259 18.36982,5.08438 21.57732,6.33731 3.20762,1.25292 6.10157,2.04931 6.43093,1.76974 0.32937,-0.27957 -0.59112,-2.48807 -2.04553,-4.9078 -5.73233,-9.53694 -8.08918,-22.54119 -8.82624,-48.69992 l -0.69552,-24.69468 2.70083,10.19228 c 1.48543,5.60576 4.75133,17.32689 7.25752,26.04695 6.26319,21.79312 14.17931,64.86296 22.7144,123.58592 2.27345,15.64105 1.9317,17.9352 -3.64669,24.48532 -2.36829,2.78076 -0.21198,5.29737 7.55621,8.81865 3.48603,1.58024 10.4819,5.52975 15.5463,8.77669 9.59172,6.14949 13.22284,7.24146 13.22284,3.97635 z M 395.8005,737.54334 c 53.521,-33.73678 74.37357,-50.7861 95.50297,-78.0844 7.51723,-9.71195 7.74742,-9.889 9.5704,-7.3611 1.02734,1.42462 6.56838,9.72481 12.31346,18.44488 5.74519,8.72006 13.82316,20.44119 17.95128,26.04694 4.12811,5.60576 9.95601,17.77765 14.17554,24.16199 4.21966,6.38433 1.43255,15.96234 7.02307,11.0817 0.50902,-0.0138 4.83229,-2.7665 6.4581,-3.84266 l 3.95811,-2.67235 -10.03172,-9.47658 c -10.92627,-12.33313 20.96123,17.26264 -49.56169,-75.24087 l -23.09659,-30.29534 -0.1304,-10.28637 c 4.11462,-14.64711 4.43061,-25.27053 1.3046,-43.85654 -4.19764,-24.95744 -5.91962,-36.17266 -6.83501,-44.51676 -0.49945,-4.55264 -1.14309,-8.07806 -1.43033,-7.83426 -0.57912,0.49153 -1.54866,4.10284 -6.45386,24.03912 -5.80335,23.58655 -4.07266,50.37826 4.7917,74.17718 2.29451,6.16028 -8.64832,10.40006 -3.3581,18.5493 5.08148,7.82767 25.84339,20.96261 25.84339,21.316 0,0.35338 -3.75266,-1.03707 -8.33923,-3.0899 -26.00878,-11.64082 -78.35242,-17.90283 -117.68285,-14.07871 -16.37462,1.5921 -30.67156,4.44083 -29.07748,5.7938 2.09687,1.77974 29.33674,9.55494 44.64459,12.74311 36.6908,7.64158 78.86722,8.5134 104.9507,2.16939 6.00205,-1.45982 7.35845,-1.49359 8.3188,-0.20721 1.90048,2.54571 1.48868,2.81925 -6.4838,4.30708 -9.28414,1.7326 -18.42364,4.9117 -28.71245,9.98734 -15.7216,7.75574 -22.02141,13.44156 -43.46598,39.22971 -25.67034,30.8699 -38.90022,47.10737 -38.90022,47.74355 0,1.31141 3.12527,-0.35786 16.753,-8.94804 z m 182.8972,-13.05759 c 0.28925,-0.39724 -5.74213,-5.74191 -7.80465,-11.0023 -2.06252,-5.26037 -3.66143,-13.94475 -5.30269,-20.17337 -3.47151,-13.17531 -7.88009,-12.4379 -11.08936,-12.97305 -1.84736,-0.30805 -2.16846,0.0757 -1.42103,1.69871 2.67807,5.81513 8.6231,28.36725 9.44839,35.84191 0.91825,8.31659 1.02383,8.5122 4.85561,8.98953 2.15442,0.26837 11.02447,-1.98419 11.31373,-2.38143 z m -16.75771,-48.73201 c -1.50182,-3.08581 -10.13834,-19.71203 -12.96434,-31.47268 -1.34694,-5.60576 -3.97837,-8.95835 -4.27293,-7.71262 -0.6093,2.57599 5.16798,39.25342 6.35708,40.35874 0.42716,0.39713 2.21848,1.09296 3.98066,1.54627 2.763,0.71077 7.78617,-0.89798 6.89953,-2.71971 z m -7.05112,-33.03596 c 0.15583,-0.97789 2.32441,-3.80182 4.81892,-6.27539 6.70744,-6.65092 12.1057,-15.8426 14.55845,-24.78843 1.36239,-4.96917 2.93017,-20.39385 4.20137,-41.33537 1.11549,-18.37443 2.38068,-37.48496 2.81173,-42.46785 0.56482,-6.52834 0.37749,-8.72349 -0.67029,-7.85614 -0.79981,0.662 -4.70992,11.71796 -8.68927,24.56877 -3.97936,12.85081 -9.05486,28.18684 -11.27899,34.08006 -4.70084,12.45556 -7.23629,33.29976 -6.49487,53.3951 0.25268,6.85148 0.58712,11.65714 0.74295,10.67925 z m -14.14474,-18.32346 c 1.40509,-12.36781 -3.25823,-22.60846 -24.42763,-53.64425 -8.87142,-13.00599 -18.22219,-26.83055 -20.77958,-30.72128 -5.1303,-7.80496 -7.54058,-9.95667 -5.73749,-5.12193 0.6433,1.7249 2.97398,7.9775 5.17928,13.89468 7.4011,19.85838 9.15577,24.3032 13.4114,33.97428 6.22154,14.13842 14.32547,26.50762 27.98596,42.7154 2.90822,3.4504 3.8792,3.20655 4.36806,-1.0969 z m -72.04912,-25.11976 c -2.95602,-4.64933 -48.59134,-47.48895 -61.0549,-57.8483 -4.0237,-3.34439 -8.90862,-3.90996 -9.63071,-3.53117 -0.7221,0.37878 -1.59971,-0.24217 -1.95025,-1.37992 -0.35053,-1.13773 -5.18737,-6.17039 -9.87376,-8.38447 -16.87784,-7.97398 -70.39621,-28.67466 -70.97158,-28.18632 -0.32349,0.27456 -4.3455,9.80414 0.99552,12.17419 5.34102,2.37007 30.80614,8.35754 33.37463,9.70552 2.56848,1.34797 11.31865,6.38845 16.45562,8.75799 5.13697,2.36953 22.08436,13.87987 27.22133,16.75385 5.13697,2.87398 3.04293,-5.35826 3.77679,-5.11305 2.33385,0.7799 9.41468,8.16436 22.62674,20.02425 23.10347,20.73902 30.20554,37.2614 36.06555,47.41123 3.80489,6.59026 15.30244,-6.70742 12.96502,-10.3838 z m -92.31607,-20.4473 c 4.77005,-0.91731 15.5177,-3.50904 23.88369,-5.7594 8.36599,-2.25033 17.82758,-4.12511 21.02578,-4.16614 3.19818,-0.0411 -6.58213,-9.24948 -6.79532,-9.43043 -2.01771,-1.71253 -11.50969,-0.86373 -18.20751,-2.43358 -12.78218,-2.99592 -41.02128,-2.72799 -55.26502,0.52433 -16.7303,3.8201 -34.15596,6.6306 -58.37467,9.415 -33.75052,3.88024 -31.02071,5.08254 23.0163,10.13715 33.66949,3.14942 59.93856,3.78578 70.71675,1.71307 z m 48.42891,-30.16043 c -3.183,-6.68848 -3.2734,-7.50166 -1.92479,-17.31451 0.77831,-5.66304 1.79527,-14.42079 2.25997,-19.46164 0.90889,-9.8597 -1.49361,-45.68376 -3.56251,-53.12098 -0.69308,-2.49145 -1.63136,-11.86015 -2.08507,-20.81935 -0.99062,-19.5609 -1.3473,-19.3062 -10.12452,7.22964 -10.15216,30.69261 -11.64955,37.25849 -11.62215,50.96142 0.0429,21.48132 3.65984,30.88747 18.3102,47.6186 10.97989,12.53936 12.89131,13.61139 8.74887,4.90682 z M 396.39312,527.1384 c 0,-2.21526 -6.40261,-16.45369 -10.48619,-23.31974 -4.96129,-8.34178 -22.03981,-28.65773 -38.68473,-46.0179 -7.08017,-7.38439 -16.60077,-17.57669 -21.15689,-22.64952 -4.55613,-5.07284 -8.78384,-9.73296 -9.39491,-10.35582 -0.61106,-0.62286 -3.71024,-4.06276 -6.88706,-7.64421 -3.17683,-3.58146 -5.98925,-6.51174 -6.24984,-6.51174 -0.57315,0 1.1884,3.86707 3.86901,8.49357 1.08267,1.86858 4.5761,8.23876 7.76316,14.15595 11.57707,21.49433 29.24054,50.59951 36.00567,59.32868 9.12927,11.7797 21.60326,22.85972 33.77758,30.00291 10.49124,6.1557 11.4442,6.53188 11.4442,4.51782 z m -94.73377,-21.37025 c 6.9716,-0.38479 11.88325,-0.79718 10.91477,-0.9164 -0.96847,-0.11923 -9.07421,-2.448 -18.01275,-5.17505 -24.23337,-7.39333 -34.68511,-9.04629 -52.2774,-8.2677 -25.45878,1.12675 -48.55305,3.53688 -46.94765,4.89947 1.14761,0.97405 52.53327,8.17485 62.95899,8.8226 18.3848,1.14226 30.88405,1.3259 43.36404,0.63708 z m 3.17236,-8.21115 c -3.76482,-5.39435 -16.79986,-19.27628 -24.87742,-26.49373 -9.05111,-8.08734 -60.02237,-47.27242 -66.50137,-51.12412 -4.38699,-2.60803 -2.60267,-0.48384 12.16501,14.48231 7.06793,7.16292 18.03216,18.69134 24.36497,25.61876 13.9055,15.2111 34.88054,32.15334 44.68472,36.09332 7.76459,3.12032 11.7366,3.67661 10.16409,1.42346 z m 75.28994,-27.46254 c -0.0272,-1.86859 -0.32623,-2.49591 -0.66451,-1.39404 -0.33829,1.10186 -0.31606,2.6307 0.0494,3.39742 0.36549,0.76673 0.64229,-0.1348 0.61508,-2.00338 z m 263.11297,0.0349 c 0,-0.91511 -1.35095,-3.8454 -3.00212,-6.51174 -2.89666,-4.67757 -3.00956,-6.00175 -3.2134,-37.6897 -0.23299,-36.21852 -2.51233,-104.04554 -4.4675,-132.93881 -0.69069,-10.2073 -0.96733,-18.95498 -0.61461,-19.43928 0.761,-1.04523 35.27923,-21.49841 37.54642,-22.24756 0.86056,-0.28437 1.8772,-1.20831 2.25917,-2.05322 0.49239,-1.08899 -1.80807,-0.73382 -7.90244,1.22004 -4.72832,1.51592 -12.49982,4.00742 -17.2699,5.53668 -4.76997,1.52923 -8.67277,2.54422 -8.67277,2.25554 0,-0.28869 3.99776,-5.62114 8.88381,-11.84987 4.88616,-6.22874 8.59891,-11.56684 8.25067,-11.86244 -0.34835,-0.29561 -4.49616,2.24973 -9.21741,5.65631 -4.72136,3.40658 -8.88828,6.20084 -9.26011,6.20947 -2.26731,0.0526 -3.9941,-10.8257 -3.99434,-25.16408 -1.2e-4,-8.88558 -0.89595,-25.83829 -1.99056,-37.67266 C 627.67051,152.2376 617.26294,57.3884 615.76807,48.685758 c -0.72054,-4.194975 -4.91802,-7.792497 -7.94255,-6.807396 -1.83839,0.598726 -2.03799,2.143848 -1.37124,10.612751 8.40014,106.696837 9.05733,117.781417 8.20797,138.448017 -1.3211,32.14823 -2.39483,46.82894 -3.62911,49.62443 -0.63796,1.44466 -0.79356,3.86533 -0.34588,5.37926 0.71476,2.41741 1.56801,2.75448 7.00708,2.76806 7.89619,0.0197 12.45287,1.05562 11.77468,2.67679 -0.31049,0.74229 -2.89347,1.13918 -6.20644,0.95365 -6.82812,-0.38236 -9.23192,1.04028 -8.35284,4.94334 0.90893,4.03567 -8.39613,11.92331 -19.46549,16.50033 -4.64728,1.92159 -13.05792,6.43025 -18.69022,10.01923 -11.00967,7.01562 -30.60634,23.29264 -29.33856,24.36869 0.42444,0.36026 6.29362,-1.19831 13.04259,-3.46349 6.74896,-2.26516 12.58428,-3.85245 12.96732,-3.5273 0.38315,0.32517 -2.59255,5.10425 -6.6126,10.6202 -7.63006,10.46936 -14.78636,21.82881 -13.75192,21.82881 1.06276,0 21.04105,-13.68973 34.80111,-23.84679 7.33856,-5.41694 16.32936,-13.22414 19.97959,-17.34933 3.65011,-4.1252 7.10263,-7.50035 7.67205,-7.50035 0.56943,0 1.0446,3.6947 1.05568,8.21045 0.0118,4.51575 0.61449,23.75368 1.34057,42.75097 1.09154,28.55581 0.97381,37.48381 -0.67913,51.52766 -3.7492,31.85354 -9.27274,60.82993 -12.60198,66.10983 -2.19417,3.47982 -0.56647,6.81952 3.66993,7.53026 7.52554,1.26248 18.55291,4.47377 25.89147,7.53986 8.84865,3.69697 9.04447,3.73 9.04447,1.52567 z M 378.88974,458.19603 c 0.0867,-4.67557 0.77059,-10.28133 1.51962,-12.45724 4.17592,-12.13083 5.58468,-26.20379 5.64145,-56.35638 0.032,-16.98575 -0.23189,-31.12938 -0.58643,-31.4303 -0.60672,-0.51495 -9.23063,24.41113 -13.81507,39.93022 -3.44548,11.66354 -2.99068,30.31036 1.09834,45.03275 1.90293,6.85148 4.02789,15.00531 4.72212,18.11962 l 1.26225,5.66238 z m 307.7843,-2.75575 c 22.10582,-4.85121 41.95069,-12.48406 60.51374,-23.2752 6.31922,-3.67354 13.28453,-8.30268 15.47847,-10.28698 l 3.98903,-3.60782 -12.00849,0.73468 c -26.00602,1.59106 -54.71027,9.22067 -77.38811,20.56988 -11.77456,5.89261 -26.0184,15.51902 -26.0184,17.58402 0,2.11605 23.0558,0.99782 35.43376,-1.71858 z m -32.98796,-5.83124 c 13.55644,-9.84882 26.18603,-29.58287 31.46301,-49.16181 1.93064,-7.16291 4.08989,-15.06193 4.79852,-17.55338 3.97334,-13.97111 11.99516,-45.29438 11.99516,-46.83839 0,-2.04977 -11.46538,15.18514 -23.82045,35.80732 -14.28713,23.84684 -24.39035,47.61241 -30.20597,71.0523 -3.13908,12.65193 -2.86646,12.96819 5.76973,6.69396 z M 549.16798,393.673 c 8.56517,-3.50162 14.00991,-6.98582 14.00991,-8.9653 0,-0.6713 -1.85314,-6.13052 -4.11797,-12.13161 -4.08635,-10.82746 -12.10581,-42.55886 -13.92839,-55.11251 -0.99139,-6.82847 -3.7951,-9.87938 -9.0788,-9.87938 -1.86222,0 -2.27133,0.51411 -1.57733,1.98183 1.48472,3.14018 6.93382,22.58311 9.27946,33.11034 2.70461,12.13847 4.3132,33.88687 2.38823,32.29015 -0.75086,-0.62286 -4.22107,-5.719 -7.71157,-11.32476 -3.49039,-5.60576 -13.36051,-20.63938 -21.93371,-33.40804 -33.9261,-50.52916 -39.97015,-60.05193 -40.0129,-63.04293 -0.0608,-4.25115 -1.54481,-6.03812 -5.01454,-6.03812 -3.62371,0 -19.03757,5.46688 -19.03757,6.7521 0,1.22157 6.00885,5.70513 7.64597,5.70513 2.36133,0 8.6374,7.47875 19.00726,22.64954 5.3219,7.78577 10.84906,15.55682 12.28258,17.26898 5.11899,6.11406 14.68376,21.01169 27.68152,43.11535 10.60399,18.03304 13.38316,23.79137 14.1346,29.28705 0.85962,6.28601 3.97204,11.22305 6.97688,11.06701 0.55031,-0.0285 4.60328,-1.52475 9.00637,-3.32483 z m -6.00425,-87.6978 c 0,-0.82702 -0.89194,-3.64923 -1.98195,-6.27159 -1.09013,-2.62235 -2.65459,-8.04579 -3.47658,-12.0521 l -1.49452,-7.28418 8.48012,-7.69144 c 9.94786,-9.02277 29.40298,-31.80275 37.72608,-44.1736 8.44721,-12.55526 24.75522,-40.23695 24.05486,-40.83141 -0.3283,-0.27865 -0.7892,-0.29429 -1.02419,-0.0348 -9.587,10.58849 -28.80771,30.31942 -35.52435,36.46736 -4.90988,4.49409 -10.89832,10.63082 -13.30778,13.6372 -5.53427,6.90541 -13.79037,21.92365 -16.91707,30.7731 -2.87495,8.13671 -3.01026,8.31925 -4.59242,6.19582 -2.8503,-3.82525 -1.0164,-12.16297 7.9567,-36.17512 9.78283,-26.17884 13.30872,-38.41525 16.69353,-57.93293 3.80689,-21.9506 2.56152,-23.07277 -7.06512,-6.3664 -10.11018,17.5458 -18.42538,39.90841 -20.72419,55.73497 -1.05875,7.28908 -2.20255,13.4885 -2.54182,13.77647 -0.33927,0.28798 -1.03811,-1.86051 -1.55291,-4.77443 -0.51492,-2.91391 -1.44981,-6.37734 -2.07762,-7.69652 -1.71382,-3.60109 -1.62935,4.13174 0.20844,19.06518 1.17117,9.5167 1.15914,12.50784 -0.0519,12.85049 -1.19818,0.339 -1.18072,0.85345 0.0731,2.13529 1.67335,1.7113 4.91105,22.45881 5.05367,32.38398 0.0602,4.14145 0.62699,5.55323 2.41288,6.0034 1.28419,0.32371 3.98608,1.30324 6.00425,2.17672 3,1.2985 3.66922,1.31391 3.66922,0.0845 z M 300.32507,280.77328 c 2.56849,-0.22083 15.17742,-1.17514 28.01985,-2.12071 43.72724,-3.21953 63.97738,-6.16418 82.53151,-12.00122 4.66352,-1.46711 8.56629,-3.15469 8.67281,-3.75016 0.10664,-0.59547 -2.50817,-1.78093 -5.81051,-2.63437 -12.29301,-3.17687 -42.07507,-0.0218 -72.05104,7.63288 -7.70545,1.96769 -22.11565,5.38096 -32.02267,7.58504 -24.27628,5.40096 -26.71605,6.78241 -9.33995,5.28854 z M 462.3253,259.70519 c 4.34009,-2.00679 7.91201,-4.15833 7.93758,-4.78119 0.0256,-0.62286 -3.74124,-3.37505 -8.3707,-6.11596 -5.84344,-3.45968 -13.34129,-10.03906 -24.52077,-21.51704 -33.00906,-33.89047 -48.51761,-49.55082 -55.61999,-56.16447 -12.98016,-12.08692 -21.38382,-16.96387 -21.38382,-12.4098 0,0.96355 11.27515,13.83131 25.05588,28.59502 46.25639,49.55585 57.29214,62.37263 59.67944,69.31097 1.28413,3.73218 4.5544,6.80265 7.20311,6.76301 1.1705,-0.0176 5.67917,-1.67375 10.01927,-3.68054 z m -29.87132,1.79423 c -1.8152,-1.12503 -7.51924,-5.28431 -12.67563,-9.24285 -9.5825,-7.35641 -24.60861,-17.37184 -35.46363,-23.63779 -9.75607,-5.63159 -53.8335,-27.41312 -54.43703,-26.90087 -0.80426,0.68261 24.13281,23.31743 36.03222,32.70563 12.2756,9.68501 25.39735,15.85912 47.96984,22.57099 9.09559,2.70456 17.73831,5.28481 19.20601,5.73388 2.04198,0.62479 1.89365,0.33622 -0.63178,-1.22899 z m 92.0298,0.28418 c 0,-0.27583 -1.16634,-2.18688 -2.59184,-4.24679 -1.42551,-2.0599 -4.49463,-8.58662 -6.8201,-14.50381 -8.61708,-21.92557 -20.03059,-40.37167 -47.29835,-76.44213 -14.7679,-19.53536 -19.34352,-25.20463 -19.34352,-23.96691 0,1.03519 11.17127,24.18685 20.30781,42.08653 8.92379,17.48282 16.63828,28.8408 39.42112,58.0394 13.79568,17.68048 16.32488,20.62945 16.32488,19.03371 z"
     id="path74"
     inkscape:connector-curvature="0"
     sodipodi:nodetypes="cccscccccccccccccccccccccccccscccccccccccccccsccscccccccccccccccccsssccsccccccccccccccccccccssccccccccsccsscsscscscssccsssscccscsccccccccscccccsccsccccscccsccccccccsccssscccssssssccccscsssccscsscsccsscsscsscscsccccccccsssccccccsccccccccscccccccccccccsccsccccccsccccsccccscccsssssccsccsssccsccccccssssccccsccsccccccccccccccccscccccccccccccccsccscssccsccscscccsccssccs" />
</svg>
