<?xml version="1.0" encoding="UTF-8" standalone="no"?>
<!-- Generator: Adobe Illustrator 22.1.0, SVG Export Plug-In . SVG Version: 6.00 Build 0)  -->

<svg
   xmlns:dc="http://purl.org/dc/elements/1.1/"
   xmlns:cc="http://creativecommons.org/ns#"
   xmlns:rdf="http://www.w3.org/1999/02/22-rdf-syntax-ns#"
   xmlns:svg="http://www.w3.org/2000/svg"
   xmlns="http://www.w3.org/2000/svg"
   xmlns:sodipodi="http://sodipodi.sourceforge.net/DTD/sodipodi-0.dtd"
   xmlns:inkscape="http://www.inkscape.org/namespaces/inkscape"
   version="1.1"
   id="Layer_1"
   x="0px"
   y="0px"
   width="300"
   height="500"
   viewBox="0 0 300 500"
   enable-background="new 0 0 500 500"
   xml:space="preserve"
   sodipodi:docname="birds.svg"
   inkscape:version="0.92.5 (2060ec1f9f, 2020-04-08)"><metadata
   id="metadata78"><rdf:RDF><cc:Work
       rdf:about=""><dc:format>image/svg+xml</dc:format><dc:type
         rdf:resource="http://purl.org/dc/dcmitype/StillImage" /><dc:title></dc:title></cc:Work></rdf:RDF></metadata><defs
   id="defs76" /><sodipodi:namedview
   pagecolor="#ffffff"
   bordercolor="#666666"
   borderopacity="1"
   objecttolerance="10"
   gridtolerance="10"
   guidetolerance="10"
   inkscape:pageopacity="0"
   inkscape:pageshadow="2"
   inkscape:window-width="2779"
   inkscape:window-height="1750"
   id="namedview74"
   showgrid="false"
   inkscape:zoom="1.3350176"
   inkscape:cx="474.38038"
   inkscape:cy="171.43955"
   inkscape:window-x="0"
   inkscape:window-y="44"
   inkscape:window-maximized="0"
   inkscape:current-layer="g40" />
<g
   id="Layer_2_1_">
	<g
   id="g40">
		<path
   d="m 40.656,418.554 c -0.949,0.542 -1.492,0.746 -1.492,0.746 0.542,-0.17 1.017,-0.441 1.492,-0.746 z"
   id="path2"
   inkscape:connector-curvature="0"
   style="fill:#444444" />
		<path
   d="m 89.757885,394.88521 c -0.10222,-0.63584 -0.45053,-2.15988 -2.87796,-1.66634 -2.42744,0.49354 -3.87478,3.02636 -4.805,3.00473 -0.93039,-0.0226 -1.46008,-0.96752 -1.87536,-2.47977 -0.41545,-1.51325 -1.29079,-3.32933 -5.74188,-5.60167 -4.45108,-2.27233 -12.4012,-8.7891 -12.65646,-8.02693 -0.24987,0.79575 1.69672,2.43963 1.69672,2.43963 0,0 -2.23962,-1.11669 -1.90751,0.30664 0.33212,1.42333 5.27615,3.34093 5.27615,3.34093 0,0 -6.07333,-1.25597 -6.49104,-0.43324 -0.41672,0.82256 1.44637,1.51868 1.41312,2.38291 -0.0386,0.83067 3.42535,3.36398 4.08174,4.4607 0.65738,1.09656 1.22624,1.86299 2.21681,2.25372 0.98943,0.3899 3.54375,4.10051 3.98353,5.12875 0.44517,1.0618 1.50308,1.23509 1.50308,1.23509 0,0 -1.84108,2.21934 -3.0134,2.61341 -1.20049,0.43303 -6.16432,0.95652 -7.48155,1.30602 -1.28365,0.3441 -0.44339,1.51356 -0.44339,1.51356 0,0 -0.75396,1.28901 0.96796,1.32111 1.72192,0.0321 4.45859,-0.88792 5.83097,-1.10854 1.37238,-0.22062 1.28786,-0.10372 2.7596,-0.1347 1.47713,0.003 3.95179,0.017 7.15359,-1.42447 3.2018,-1.44146 5.50004,-2.73868 6.98095,-5.2769 1.45257,-2.50025 1.77918,-3.03284 2.7079,-3.66323 0.92871,-0.6304 1.98409,-0.0445 2.05377,-0.46791 0.0685,-0.42425 -1.22997,-0.38668 -1.33234,-1.0235 z"
   id="path4"
   inkscape:connector-curvature="0"
   style="fill:#444444" />
		<path
   d="m 135.75071,296.57879 c -2.12376,0.0325 -4.0875,2.33942 -5.02546,2.49021 -0.93697,0.15062 -1.48253,-0.0362 -1.54054,-0.61124 -0.0243,-0.57949 1.45424,-1.84723 1.27124,-2.98561 -0.183,-1.13839 -18.06502,4.89531 -18.56912,5.38857 -0.50949,0.4597 0.0567,0.78091 0.95312,1.01459 0.89645,0.23368 2.94768,0.17841 3.11859,0.39097 0.17729,0.24598 -0.30999,3.41449 -0.56795,3.73145 -0.25812,0.31597 -3.87224,2.61373 -5.26744,3.97138 -0.20717,0.20448 -0.48672,0.38716 -0.8334,0.58064 -0.20174,-0.82646 -0.49763,-1.60233 -0.8242,-2.13424 -0.78931,-1.28096 -1.22333,-2.48128 -1.33265,-2.7392 0.25963,0.33605 3.05847,2.15285 2.48441,1.1462 -0.61841,-1.06839 -2.08253,-2.2753 -2.08253,-2.2753 0,0 2.84844,1.91112 2.97903,1.44448 0.13043,-0.46763 -6.3706,-5.87737 -7.51756,-7.03297 -1.1468,-1.15462 -1.34027,-1.50131 -1.34027,-1.50131 0,0 0.59385,-1.43443 1.24842,-1.84858 0.62099,-0.40874 1.7862,-0.42489 1.7862,-0.42489 l -0.83082,-0.89649 c 0,0 -0.57016,-1.62511 -2.09841,-1.51718 -1.52824,0.10793 -2.288794,1.57018 -3.260684,1.93202 -0.97189,0.36185 -1.44238,-0.21479 -4.324,1.72517 -2.88162,1.93996 -5.78621,5.01597 -8.00783,5.51085 -2.22161,0.49489 -4.27995,0.92808 -4.27995,0.92808 0,0 -0.97459,-0.0834 -0.41112,0.64948 0.56346,0.73286 -1.17335,1.45873 -0.90988,2.24082 0.26348,0.7821 -0.24701,1.24195 0.51382,1.70304 0.76083,0.46109 1.37794,0.6708 2.36855,-0.003 0.99046,-0.67476 2.26451,-2.14967 3.20148,-2.3003 0.93697,-0.15062 4.88575,-1.43768 5.35525,-0.86089 0.47049,0.57663 3.35789,2.51593 4.49945,3.63797 1.136,1.08748 2.1011,1.96239 2.06063,1.28219 -0.0405,-0.6802 1.19806,1.90195 1.39257,1.18398 0.193524,-0.71781 0.128924,-1.11965 0.128924,-1.11965 0,0 1.32727,2.70563 1.4371,2.10357 0.1144,-0.56735 -0.0148,-1.37103 -0.0148,-1.37103 0,0 1.27714,2.81599 1.83775,2.24578 0.56584,-0.53763 0.48521,-1.03919 0.48521,-1.03919 0,0 0.41954,0.68814 0.78932,1.28096 -0.48636,0.1815 -0.83762,0.34026 -0.98927,0.46795 0,0 -1.0401,2.5018 0.18058,3.47337 1.18711,0.97696 7.36422,-4.17173 9.02673,-4.30124 1.66252,-0.12952 10.01648,-3.0525 11.01111,-2.42238 0.99462,0.63012 1.23995,5.36318 2.21465,6.51204 0.9747,1.14886 1.9883,0.1959 2.04734,0.56319 0.0591,0.36728 -0.65968,2.30391 0.98026,2.04028 1.33881,-0.21523 1.60995,-1.73553 1.65721,-2.29209 -0.0133,0.3455 0.11706,0.94237 0.95431,0.80777 1.13838,-0.183 4.32749,-6.18931 4.62149,-9.91115 0.294,-3.72184 -0.73725,-4.58612 -0.68745,-5.55531 0.0498,-0.96919 2.44756,-2.07579 2.81583,-2.13499 0.36828,-0.0592 0.86984,-0.13983 0.86984,-0.13983 l -0.8644,-0.8911 c -0.0259,0.0406 -0.58152,-2.13679 -2.71068,-2.13787 z m -30.48367,15.64871 c -0.0108,-0.0671 -0.0216,-0.13428 -0.0658,-0.19503 0.0444,0.0617 0.0552,0.12888 0.0994,0.18963 0,0 0,0 -0.0336,0.005 z m 1.36278,-0.49457 c -0.043,-0.26756 -0.10356,-0.43001 -0.10356,-0.43001 0,0 0.0941,0.15705 0.19887,0.38025 0.005,0.0336 -0.0282,0.039 -0.0953,0.0498 z"
   id="path6"
   inkscape:connector-curvature="0"
   style="fill:#444444" />
		<path
   d="m 182.82038,231.3878 c -1.57785,0.0136 -3.02011,1.72117 -3.72308,1.83418 -0.70297,0.11301 -1.10347,-0.0282 -1.1345,-0.43546 -0.031,-0.40723 1.08328,-1.37638 0.94884,-2.21264 -0.13443,-0.83627 -13.32553,3.61889 -13.68337,3.95089 -0.3924,0.33756 0.0578,0.5741 0.70329,0.74583 0.64528,0.17074 2.18432,0.12995 2.27828,0.28602 0.13293,0.18424 -0.21483,2.50687 -0.4176,2.74508 -0.20177,0.23804 -2.84805,1.93456 -3.89096,2.92565 -1.04276,0.99208 -4.31321,1.79231 -4.79453,2.21304 0,0 -0.76865,1.84033 0.13606,2.55377 0.87114,0.71885 5.41266,-3.06798 6.66794,-3.16646 1.2543,-0.0983 7.3645,-2.24839 8.12532,-1.7873 0.72726,0.46648 0.91324,3.97342 1.62831,4.78623 0.71932,0.84554 1.46515,0.14225 1.50816,0.40982 0.043,0.26756 -0.4837,1.69121 0.72182,1.49741 1.00411,-0.16142 1.20017,-1.29186 1.24168,-1.67632 0.004,0.23939 0.0794,0.70837 0.71527,0.60615 0.83725,-0.13459 3.18097,-4.56373 3.42533,-7.31539 0.21079,-2.74627 -0.54345,-3.3806 -0.52218,-4.10516 0.0213,-0.72456 1.81457,-1.52737 2.08214,-1.57038 0.26756,-0.043 0.63584,-0.10222 0.63584,-0.10222 l -0.62096,-0.65575 c -0.0562,0.0789 -0.4531,-1.5396 -2.0311,-1.52699 z"
   id="path8"
   inkscape:connector-curvature="0"
   style="fill:#444444" />
		<path
   d="m 102.54545,253.13532 2.39807,-0.24776 -1.1468,-1.15462 c 0,0 -0.29859,-0.36423 -0.69094,-1.09117 -0.39676,-0.76067 -3.261084,-1.91366 -3.261084,-1.91366 1.924784,-2.3351 2.653714,-7.84362 1.934594,-8.89582 -0.71813,-1.05236 -1.46472,2.63893 -1.46472,2.63893 0,0 -0.654684,-1.50821 -1.263854,-2.09699 -0.60917,-0.58877 -1.32505,2.65092 -1.32505,2.65092 0,0 -0.0755,-1.32683 -0.585,-1.93164 -0.50945,-0.6048 -2.16666,1.68728 -3.25668,3.23592 -1.09541,1.51507 -13.22249,10.8816 -13.07187,11.81857 0.15063,0.93697 3.45718,-0.28129 3.06744,0.70913 -0.38991,0.98942 -11.39486,7.08539 -14.17986,9.83427 -2.78615,2.74805 -4.32642,4.06015 -4.32642,4.06015 0.90081,1.33191 8.58728,-4.47063 8.58728,-4.47063 0,0 1.19353,-0.0541 2.77325,0.37863 1.54713,0.43799 3.59145,-0.30287 3.71525,0.46724 0.1292,0.80368 8.11606,9.47696 9.40776,9.81928 1.25798,0.34673 1.28366,-0.3441 1.28366,-0.3441 0,0 1.60125,1.63153 2.40493,1.50234 0.80368,-0.1292 0.59644,-2.91158 0.59644,-2.91158 0,0 0.49473,2.22063 2.0031,1.56694 1.5082,-0.65468 0.74775,-7.94946 0.31159,-11.51948 -0.43616,-3.57003 -1.90397,-5.222 -1.90397,-5.222 0.86039,-0.4128 3.83839,-4.53167 4.4432,-5.04113 0.53227,-0.53222 3.549684,-1.84174 3.549684,-1.84174 z"
   id="path10"
   inkscape:connector-curvature="0"
   style="fill:#444444" />
		<path
   d="m 263.07175,202.08483 c -0.24864,-0.47557 -2.0446,-1.18247 -2.0446,-1.18247 1.20691,-1.46412 1.65003,-4.90102 1.23049,-5.58915 -0.41954,-0.68814 -0.90157,1.65609 -0.90157,1.65609 0,0 -0.39542,-0.9665 -0.79472,-1.31453 -0.3993,-0.34804 -0.83444,1.6453 -0.83444,1.6453 0,0 -0.0674,-0.84805 -0.36589,-1.21128 -0.29859,-0.36423 -1.33849,1.07405 -2.04572,2.01118 -0.70265,0.97185 -8.27679,6.82419 -8.1852,7.39388 0.0916,0.56968 2.16947,-0.17658 1.92619,0.44593 -0.24328,0.6225 -7.14895,4.44603 -8.89758,6.16942 -1.74864,1.72338 -2.71227,2.565 -2.71227,2.565 0.54707,0.8388 5.3833,-2.82221 5.3833,-2.82221 0,0 0.74734,-0.0513 1.72073,0.23892 0.968,0.25661 2.23662,-0.18737 2.31725,0.31419 0.0808,0.50255 5.11008,5.94327 5.90043,6.15957 0.79035,0.2163 0.82646,-0.20173 0.82646,-0.20173 0,0 1.02025,1.00379 1.48824,0.92856 0.50255,-0.0808 0.38959,-1.84827 0.38959,-1.84827 0,0 0.29315,1.39516 1.25425,0.96618 0.96649,-0.39542 0.46863,-4.98558 0.18056,-7.20601 -0.28808,-2.22042 -1.21286,-3.27298 -1.21286,-3.27298 0.54171,-0.25927 2.42986,-2.82852 2.78869,-3.16068 0.36422,-0.2986 2.25808,-1.11858 2.25808,-1.11858 l 1.48388,-0.16968 -0.73686,-0.74043 c 0.0365,0.0255 -0.16895,-0.18148 -0.41643,-0.65622 z"
   id="path12"
   inkscape:connector-curvature="0"
   style="fill:#444444" />
		<path
   d="m 250.53202,258.08837 c -0.5132,-0.9839 -4.21811,-2.47528 -4.21811,-2.47528 2.48964,-3.02039 3.43251,-10.14552 2.50234,-11.50652 -0.92889,-1.36119 -1.89457,3.41339 -1.89457,3.41339 0,0 -0.84682,-1.95083 -1.63477,-2.71239 -0.83137,-0.75459 -1.71391,3.42888 -1.71391,3.42888 0,0 -0.0977,-1.71621 -0.75668,-2.49851 -0.65898,-0.78231 -2.80253,2.18244 -4.21245,4.18557 -1.41688,1.95971 -17.10295,14.07507 -16.90813,15.28701 0.18786,1.16853 4.47178,-0.36383 3.96766,0.91725 -0.50432,1.2798 -14.73896,9.16477 -18.34129,12.72037 -3.60381,3.55454 -5.59611,5.25172 -5.59611,5.25172 1.16519,1.72278 11.10743,-5.78266 11.10743,-5.78266 0,0 1.54381,-0.07 3.58713,0.48975 2.00117,0.56654 4.64544,-0.39175 4.80557,0.60436 0.16712,1.03955 10.49812,12.25949 12.16871,12.70099 1.67058,0.44151 1.66037,-0.44509 1.66037,-0.44509 0,0 2.07118,2.11035 3.11073,1.94324 1.03954,-0.16711 0.77148,-3.76605 0.77148,-3.76605 0,0 0.63991,2.87232 2.59095,2.0268 1.95104,-0.84555 0.96719,-10.28242 0.40303,-14.90016 -0.56416,-4.61774 -2.46274,-6.75452 -2.46274,-6.75452 1.1129,-0.53393 4.96487,-5.8616 5.74717,-6.52056 0.78231,-0.65897 4.69222,-2.30938 4.69222,-2.30938 l 3.10185,-0.32047 -1.48335,-1.49346 c -0.10076,-0.0728 -0.48133,-0.50039 -0.99453,-1.48428 z"
   id="path14"
   inkscape:connector-curvature="0"
   style="fill:#444444;stroke-width:1.29347444" />
		<path
   d="m 190.73979,328.37708 c -0.29185,-0.53648 -2.38874,-1.40163 -2.38874,-1.40163 1.40853,-1.70315 1.93347,-5.70216 1.43076,-6.47922 -0.50287,-0.77805 -1.06439,1.92231 -1.06439,1.92231 0,0 -0.48413,-1.08998 -0.93303,-1.53234 -0.44367,-0.40977 -0.95829,1.93969 -0.95829,1.93969 0,0 -0.0553,-0.98673 -0.43184,-1.4073 -0.37652,-0.42057 -1.58463,1.25036 -2.37097,2.33796 -0.81452,1.12656 -9.64346,7.93721 -9.53585,8.60661 0.10761,0.66941 2.50942,-0.19779 2.24876,0.53081 -0.26066,0.72861 -8.30103,5.1802 -10.35215,7.15782 -0.0336,0.005 -0.0282,0.039 -0.0617,0.0444 -0.1707,-0.41922 -0.38462,-0.89935 -0.59968,-1.38032 -1.90381,-4.36415 -3.74414,-5.13279 -3.94202,-5.51321 -0.19888,-0.38025 1.06843,-1.68291 1.28199,-1.85398 0.21241,-0.17189 2.05662,-0.0217 1.95187,-0.2449 -0.10476,-0.2232 -1.58221,-1.08462 -1.58221,-1.08462 -1.18862,-1.629 -2.91697,-0.63001 -3.52582,-0.35995 -0.60886,0.27006 -1.01459,0.95312 -3.16284,1.46963 -2.18265,0.52306 -7.83605,3.80091 -9.903,5.47216 -2.03238,1.66569 -6.53339,5.06822 -6.53339,5.06822 -0.33983,1.94357 3.54844,-0.57044 4.41422,-0.94966 0.86579,-0.37922 4.08326,-1.5153 4.08326,-1.5153 0,0 0.42493,0.72171 0.73547,2.01076 0.3441,1.28366 1.90238,1.58312 2.08626,1.65586 0.18844,0.10745 1.69814,5.22065 1.84508,5.71256 0.15316,0.52434 0.80773,0.1102 0.80773,0.1102 l 0.60508,1.41388 c 0.0297,0.61306 0.71658,1.46484 0.71658,1.46484 0,0 0.26466,0.57528 0.51096,1.25683 0.24728,0.68139 1.25683,-0.51096 1.25683,-0.51096 0,0 0.44124,2.74476 1.08247,2.67611 0.64663,-0.0351 1.51318,-3.40229 1.50929,-2.78384 -0.0375,0.62386 0.43029,1.81978 0.43029,1.81978 1.51868,-1.44638 0.90754,-9.51972 0.90754,-9.51972 0,0 1.33337,0.81571 2.32026,1.61824 0.98787,0.80238 1.82414,0.66794 1.82414,0.66794 0,0 0.59972,0.31582 1.28651,0.1021 0.68678,-0.21371 0.43291,-0.72186 0.43291,-0.72186 0,0 0.20547,0.20702 0.7325,-0.35779 0.37621,-0.43827 0.0495,-1.82803 -1.0168,-4.40344 1.33731,-0.86725 2.56311,-1.78544 2.56311,-1.78544 0,0 0.88602,-0.0391 1.99893,0.26205 1.11307,0.30216 2.61012,-0.21399 2.7017,0.3557 0.0916,0.56968 5.91814,6.9123 6.84816,7.14058 0.92903,0.22844 0.95435,-0.25673 0.95435,-0.25673 0,0 1.18576,1.18279 1.75545,1.09121 0.56968,-0.0916 0.44727,-2.13202 0.44727,-2.13202 0,0 0.36434,1.62376 1.45333,1.13978 1.08998,-0.48414 0.54625,-5.78807 0.2327,-8.38117 -0.31371,-2.5941 -1.39975,-3.79292 -1.39975,-3.79292 0.63718,-0.30803 2.80067,-3.30035 3.25382,-3.68212 0.42057,-0.37652 2.6385,-1.31646 2.6385,-1.31646 l 1.75684,-0.17912 -0.85899,-0.85753 c 0.0249,0.16718 -0.19042,-0.10713 -0.48342,-0.64444 z"
   id="path16"
   inkscape:connector-curvature="0"
   style="fill:#444444" />
		<path
   d="m 117.31247,361.95289 c 0.69325,-2.3093 1.68506,-3.18989 2.13282,-3.60522 0.44775,-0.41533 2.49203,-0.0917 2.49203,-0.0917 l -1.77163,-1.19192 c 0,0 -1.31242,-2.39911 -3.25449,-2.0869 -1.94207,0.3122 -4.64239,3.80203 -5.88164,3.14337 -1.26759,-0.62068 -3.3077,-6.26745 -4.25946,-7.48786 -0.9182,-1.2258 -2.91876,-3.20537 -10.188284,-5.91693 -7.23596,-2.71696 -14.10364,-5.49312 -14.60909,-4.79403 -0.50545,0.69908 3.13909,2.65441 3.13909,2.65441 0,0 -4.5002,-0.64997 -4.28498,0.68884 0.21522,1.33881 10.26021,9.78555 11.45391,10.58928 1.1991,0.8373 3.52113,5.0309 4.04963,6.18262 0.50017,1.18969 2.11217,3.95287 2.11217,3.95287 0,0 -0.67448,0.93287 -2.21372,1.18032 -1.54022,0.2476 -10.57327,0.0174 -10.57327,0.0174 0,0 -0.36244,2.87395 -0.24694,4.22879 0.11452,1.35501 2.04245,5.4408 3.14628,5.26335 1.13838,-0.183 3.90057,-1.79485 6.49621,-2.52103 2.59565,-0.72618 4.87241,-1.09219 7.231524,-1.36812 2.35911,-0.27593 8.22333,-2.2487 10.93457,-3.74905 2.69764,-1.39586 3.40284,-2.78034 4.09527,-5.0885 z"
   id="path18"
   inkscape:connector-curvature="0"
   style="fill:#444444" />
		<path
   d="m 293.85815,164.8433 c -1.88747,-1.47698 -6.10754,-1.06321 -8.65335,0.33647 -2.60023,1.47262 -4.72274,1.81383 -4.72274,1.81383 0,0 -0.72822,-0.0154 0.74358,-2.75803 1.4718,-2.7428 1.38375,-6.15909 0.8977,-9.18254 -0.48602,-3.02346 -3.6021,-17.89238 -3.6021,-17.89238 0,0 -0.87742,3.57148 -0.31424,6.25176 0,0 -3.8228,-7.36711 -4.05226,-6.73675 -0.16502,0.61999 0.89433,6.38632 0.89433,6.38632 l -4.08634,-6.13782 0.414,6.26702 c 0,0 -2.76603,-3.2504 -3.1096,-2.93056 -0.40807,0.33023 0.26366,4.50884 0.26366,4.50884 0,0 -1.8152,-1.02744 -1.95754,-0.27877 -0.14428,0.74895 -0.0202,3.56598 -0.0202,3.56598 0,0 -17.25781,-19.12757 -19.03505,-22.79962 -1.77723,-3.67205 -1.8861,-5.17226 -2.62958,-4.45927 -0.74348,0.71299 2.09284,6.45829 2.98634,7.50158 0.8935,1.0433 0.0211,1.77702 0.0211,1.77702 0,0 -6.51118,-7.26573 -7.22355,-6.35927 -0.72275,0.84198 4.01409,5.68828 4.01409,5.68828 0,0 -5.58046,-3.5218 -5.84401,-2.29251 -0.26354,1.2293 4.27921,4.45678 4.27921,4.45678 0,0 -5.05876,-1.09948 -4.25277,0.2225 0.80599,1.32199 4.34629,4.051 4.34629,4.051 0,0 -2.85849,-0.13391 -2.40157,0.6507 0.39243,0.79501 3.43204,2.8787 3.43204,2.8787 0,0 -2.44304,0.39274 -1.58552,2.03531 0.85751,1.64254 1.60648,1.78676 1.60648,1.78676 0,0 -0.39191,2.89997 0.75956,3.9018 1.21406,0.99178 -0.40776,1.97829 1.66351,2.96456 2.07127,0.98628 1.29173,4.34356 2.50798,5.33692 1.21406,0.99176 2.38625,2.12258 2.66557,3.86003 0.27929,1.73745 3.43577,9.47436 5.05263,11.32562 1.60649,1.78679 2.91543,3.35678 2.91543,3.35678 0,0 0.24302,2.33478 -5.04328,1.86536 -5.22182,-0.47981 -12.46817,-2.87767 -12.63312,-2.25768 0,0 -2.14552,0.60954 -2.57401,2.45882 -0.42851,1.84928 -2.05231,4.88113 -1.45055,6.56675 0.53698,1.69409 2.28052,3.92193 4.80133,4.83595 2.52079,0.914 3.43702,0.0409 4.30758,-0.69247 0.93505,-0.74379 5.61631,-2.81559 7.37261,-2.96561 1.75628,-0.15005 7.90956,-1.27152 8.78231,-0.3572 0.87277,0.91432 1.92156,0.87803 3.20758,0.6713 1.286,-0.20673 1.78677,-1.60649 1.78677,-1.60649 0,0 9.34759,-1.76732 13.21609,-4.36807 3.88076,-2.53659 8.9595,-8.69618 11.47482,-8.63939 2.51532,0.0569 4.18111,0.9779 4.18111,0.9779 l -1.67876,-2.23631 c -0.11488,0.0847 0.16387,-1.87291 -1.7235,-3.3499 z"
   id="path20"
   inkscape:connector-curvature="0"
   style="fill:#444444;stroke-width:1.9211309" />
		<path
   d="m 266.25247,66.613262 c -0.46166,-0.282344 -1.3475,-0.974259 -1.84661,-1.489464 -0.59474,-0.738707 -1.59287,-3.615169 -4.65596,-3.777916 -3.06307,-0.162754 -5.61542,1.737036 -7.29825,3.495282 -1.68256,1.759959 -4.39786,4.875063 -5.13954,4.69745 -0.69453,-0.244911 -2.18597,-11.379978 -4.05766,-13.757682 -1.872,-2.379421 -26.80932,-15.638325 -34.40916,-22.159067 -7.59984,-6.520744 -9.65887,-7.856621 -9.24316,-6.37425 0.40805,1.423879 5.04791,6.216104 5.04791,6.216104 0,0 -8.34331,-4.852029 -8.34338,-3.00598 -0.0583,1.85541 3.69752,4.109393 3.69752,4.109393 0,0 -4.84651,-0.887768 -3.59906,0.578576 1.24744,1.466343 3.57145,2.582219 3.57145,2.582219 0,0 0.67872,1.26093 -0.77152,1.494066 -1.45195,0.233412 -2.61284,0.420031 -1.21855,1.685366 1.39429,1.265337 6.42742,3.313984 6.42742,3.313984 0,0 -5.41057,-0.321092 -4.0072,1.000746 1.40338,1.321839 6.82116,3.905846 6.82116,3.905846 0,0 -3.32608,0.05868 -2.07692,1.524758 1.24745,1.466344 4.22154,2.179116 4.22154,2.179116 0,0 0.18924,2.291619 1.96998,3.731952 1.71317,1.391475 1.71317,1.391475 1.71317,1.391475 0,0 -1.17699,1.200929 0.30559,4.118947 1.48084,2.918297 3.68349,3.279087 3.86074,4.381751 0.18662,1.160878 -0.11879,0.375654 1.2292,4.685352 1.34797,4.309698 2.21715,4.526534 3.91485,6.575657 1.69939,2.048846 4.84699,4.223212 5.16435,6.197383 0.31735,1.974189 -4.80806,5.655881 -7.05288,6.136201 -2.23546,0.538519 -20.56641,4.676221 -20.50557,5.797601 0,0 -0.20665,3.90445 1.62528,4.920272 1.83022,1.0161 2.33372,0.81573 2.33372,0.81573 0,0 0.66495,1.91829 1.79713,1.9137 1.18895,-0.0121 1.18895,-0.0121 1.18895,-0.0121 0,0 1.72748,2.22349 3.59954,2.75686 1.87206,0.53337 12.97811,-7.803592 14.83379,-7.743592 1.85541,0.0583 2.27786,0.46815 6.54337,-0.0402 4.2658,-0.50659 5.89069,-0.7678 5.89069,-0.7678 0,0 2.46627,-0.21731 4.32428,0.97172 1.85831,1.19074 2.81397,4.906572 6.70233,6.127532 3.88836,1.22096 2.16079,0.84353 5.8584,3.10686 3.69931,2.26307 2.958,1.72709 6.31043,1.84333 3.35416,0.11602 3.44054,-1.56482 3.44054,-1.56482 0,0 3.83246,0.87338 4.26579,-0.50659 0.42395,-1.4382 1.3475,0.97425 1.77146,-0.46393 0.42396,-1.4382 -1.7638,-10.971842 -4.78319,-15.309682 -3.02873,-4.39608 -7.4717,-6.838188 -7.70484,-8.288442 -0.23313,-1.450237 1.29294,-4.555085 1.55402,-8.109964 0.2628,-3.555164 -0.57857,-3.599067 0.65437,-6.298466 1.23292,-2.6994 3.41244,-1.739453 3.41244,-1.739453 l 2.59411,-0.536461 c 0.10544,-0.07665 0.13544,-0.260661 0.068,-0.309518 z"
   id="path22"
   inkscape:connector-curvature="0"
   style="fill:#444444;stroke-width:1.73419333" />
		<path
   d="m 66.078186,317.50004 c -0.13293,-0.18424 -0.37383,-0.83222 -1.06482,-0.85888 -0.69099,-0.0267 -1.27302,0.41025 -1.65463,0.81495 -0.3816,0.4047 -0.98776,1.11997 -1.16541,1.07966 -0.14507,-0.0455 -0.48679,-2.59969 -0.91847,-3.14914 -0.43152,-0.54846 -6.09908,-3.55199 -7.84659,-5.02226 -1.71394,-1.47567 -2.20856,-1.77395 -2.08761,-1.45004 0.0874,0.32931 1.15624,1.42758 1.15624,1.42758 0,0 -1.89413,-1.10335 -1.89667,-0.69072 -0.003,0.41264 0.83622,0.93007 0.83622,0.93007 0,0 -1.09688,-0.20146 -0.80369,0.1292 0.2932,0.33065 0.81599,0.58996 0.81599,0.58996 0,0 0.14911,0.28495 -0.18559,0.33875 -0.3347,0.0538 -0.60227,0.0968 -0.2809,0.38851 0.32137,0.29169 1.46127,0.76071 1.46127,0.76071 0,0 -1.24755,-0.0739 -0.92618,0.21777 0.32137,0.29169 1.54998,0.88419 1.54998,0.88419 0,0 -0.75273,0.0177 -0.49211,0.35359 0.2932,0.33066 0.97205,0.49601 0.97205,0.49601 0,0 0.0524,0.54052 0.44636,0.85499 0.3939,0.31447 0.3939,0.31447 0.3939,0.31447 0,0 -0.26352,0.2824 0.0835,0.94776 0.347,0.66536 0.8428,0.75682 0.88058,0.99181 0.0378,0.23498 -0.0228,0.0725 0.27292,1.05505 0.29569,0.98253 0.50691,1.01744 0.89407,1.50416 0.38716,0.48672 1.11458,0.95419 1.18981,1.42219 0.0754,0.46897 -1.09946,1.27567 -1.59662,1.39003 -0.52973,0.11959 -4.67099,1.05981 -4.66155,1.33277 0,0 -0.0606,0.90205 0.38343,1.10617 0.44402,0.20411 0.51199,0.19217 0.51199,0.19217 0,0 0.13713,0.42462 0.4101,0.41517 0.27296,-0.009 0.27296,-0.009 0.27296,-0.009 0,0 0.39255,0.52029 0.82138,0.62353 0.43406,0.13583 2.94217,-1.77751 3.38837,-1.78036 0.41263,0.003 0.5012,0.12503 1.47713,0.003 0.97594,-0.12245 1.34421,-0.18165 1.34421,-0.18165 0,0 0.5741,-0.0579 0.99617,0.21764 0.42208,0.2755 0.62905,1.13454 1.52991,1.40195 0.86828,0.27264 0.47842,0.19757 1.34976,0.70976 0.83876,0.51744 0.67766,0.37216 1.44103,0.42062 0.75813,0.0159 0.76607,-0.3632 0.76607,-0.3632 0,0 0.85748,0.20551 0.97593,-0.12245 0.0859,-0.32272 0.31058,0.22455 0.39645,-0.0982 0.0859,-0.32272 -0.39823,-2.47719 -1.11097,-3.49598 -0.70734,-0.98522 -1.69116,-1.54821 -1.74497,-1.88291 -0.0538,-0.3347 0.27939,-1.04053 0.35602,-1.84287 0.0766,-0.80233 -0.1292,-0.80368 0.14765,-1.43158 0.27685,-0.6279 0.76067,-0.39676 0.76067,-0.39676 l 0.59687,-0.13039 c 0.0336,-0.005 0.0282,-0.039 0.0228,-0.0725 -0.149,-0.0763 -0.34284,-0.21734 -0.46497,-0.33444 z"
   id="path24"
   inkscape:connector-curvature="0"
   style="fill:#444444" />
		<path
   d="m 149.89799,167.98445 c 0,0 -1.50666,0.2422 -1.34675,0.59429 0.15991,0.35208 2.94407,2.7202 2.94407,2.7202 0,0 -1.45587,-0.72714 -1.15458,0.0823 0.30244,0.81026 4.60825,4.10056 5.72029,5.46738 1.07946,1.37207 1.82187,3.00392 2.95093,4.4703 1.09549,1.47178 4.03162,4.57105 4.20673,5.024 0.17511,0.45295 -0.0174,1.1706 -3.9825,0.43461 -3.99227,-0.69719 -4.51795,-0.33821 -4.51795,-0.33821 0,0 -1.82403,1.25441 -1.49953,3.91564 0.32451,2.66123 0.23288,3.15605 0.68345,4.25142 0.45057,1.09537 1.30282,2.12515 2.77725,1.68252 1.47444,-0.44263 3.68249,-3.57986 5.18915,-3.82206 1.50665,-0.24221 5.38746,-0.66047 7.72332,-2.58055 2.30212,-1.91568 6.72941,-5.13417 7.30053,-7.56057 0.57113,-2.42641 0.75489,-4.27602 1.22387,-4.35141 0.46897,-0.0754 1.43816,-0.0256 1.43816,-0.0256 l -0.69499,-1.33056 c 0,0 -0.66968,-1.81573 -1.67109,-2.06596 -0.99617,-0.21764 -3.27044,0.80023 -3.66657,1.75723 -0.43411,0.92868 -0.77944,1.77319 -1.42187,2.04865 -0.63718,0.30804 -0.35818,-4.57818 -1.42835,-6.53513 -0.58485,-1.07379 -5.37194,-5.00786 -9.70608,-8.26017 0.87372,-0.75829 1.70811,-1.33909 2.27681,-1.43051 1.60637,-0.25823 4.41827,-0.71027 6.41824,-1.51287 1.99996,-0.80261 3.35599,-1.98178 5.10609,-1.98864 1.75009,-0.007 3.17989,-2.43457 4.17845,-3.48741 1.00379,-1.02025 2.31042,-2.5004 3.04697,-2.61881 0.77011,-0.1238 2.19915,0.43649 2.19915,0.43649 0,0 -1.04454,-1.58329 -1.40352,-2.10897 -0.35899,-0.52569 -0.22602,-1.40595 -1.90779,-1.61669 -1.68176,-0.21075 -6.6612,2.99421 -7.23156,2.43262 -0.57659,-0.59401 -0.28064,-8.36752 -1.03484,-10.06635 -0.7542,-1.69883 -15.82428,-15.34592 -16.87966,-15.93184 -1.05537,-0.58592 -0.28817,6.5366 1.80944,12.96313 2.09776,6.42753 2.28199,6.2946 2.68272,9.42366 0.39973,3.12922 0.37437,4.67889 1.04238,5.8416 0.66802,1.16272 0.12531,1.42214 -0.29427,1.79851 -0.42597,0.34296 -9.32643,-4.6132 -9.83981,-3.53505 0,0 -0.64512,0.68711 -0.52672,1.42365 0.1238,0.77011 -0.62742,1.43984 -0.4122,2.77865 0.20983,1.30524 -0.7271,0.39136 -0.52795,2.69495 0.16542,2.30801 -0.51981,2.10925 0.0745,3.45599 0.27006,0.60886 0.59969,1.38032 0.95748,2.11281 -1.60633,-0.80626 -2.97363,-1.41091 -3.14806,-1.21068 -0.49331,0.5604 3.22901,2.57108 3.22901,2.57108 0,0 -3.74644,-1.73233 -3.99226,-0.69719 -0.36355,0.95177 3.10994,2.69354 3.10994,2.69354 z"
   id="path26"
   inkscape:connector-curvature="0"
   style="fill:#444444" />
		<path
   d="m 122.62498,238.99074 c 0,0 1.05283,0.99855 2.05793,0.83697 1.00509,-0.16157 1.2998,0.82111 2.16963,0.68128 0.86983,-0.13983 2.09948,-0.61199 3.17617,-1.81513 1.11025,-1.20854 2.50649,-3.63085 3.77915,-3.83544 1.27266,-0.20459 2.55377,-0.13606 5.57657,-1.41201 3.0228,-1.27595 2.71762,-1.46693 5.50544,-2.70511 2.75524,-1.23293 4.04028,-2.84736 4.57391,-3.58541 0.53362,-0.73805 1.0157,-4.14678 2.23336,-4.47926 1.25009,-0.3387 2.27578,-0.36585 2.27578,-0.36585 l -0.62634,-0.68932 c 0,0 -0.42505,-2.64405 -2.84082,-3.14903 -2.41562,-0.50398 -4.98769,2.72519 -6.01089,3.4042 -1.0576,0.68555 -1.65042,1.05533 -1.83191,0.56897 -0.21507,-0.48096 1.20767,-4.45212 -1.19242,-10.62442 -2.40008,-6.1723 -10.21836,-21.05505 -11.00741,-20.41267 -0.78904,0.64238 -0.57906,2.80547 -0.57906,2.80547 0,0 -2.21038,-3.28481 -2.43326,-2.32122 -0.22289,0.96359 0.8149,2.71913 0.8149,2.71913 0,0 -2.50834,-1.93136 -2.56099,-1.40837 -0.0527,0.52298 1.93742,3.29425 1.93742,3.29425 0,0 -3.29755,-1.28997 -3.15216,-0.38558 0.14523,0.9034 2.03392,3.03768 2.03392,3.03768 0,0 -2.2017,-0.0238 -1.906,0.95867 0.29569,0.98253 1.58502,2.59533 1.58502,2.59533 0,0 -1.07426,-1.13184 -0.81063,0.5081 0.26363,1.63995 0.72252,6.20194 1.12614,8.71271 0.40363,2.51076 2.31704,8.00572 2.68682,8.59855 0.36978,0.59282 -3.90787,-2.73644 -3.80565,-2.1006 0.10221,0.63583 2.46139,3.34675 2.46139,3.34675 0,0 -2.75852,-1.99445 -2.64012,-1.25791 0.1238,0.77011 1.81902,2.55771 1.81902,2.55771 0,0 -1.94135,-1.61129 -1.80136,-0.74047 0.13999,0.87082 1.67136,3.98929 4.15827,5.78736 2.48691,1.79807 4.57021,1.08538 4.53275,1.70923 -0.0321,0.65743 -3.01233,0.48426 -5.54468,0.7536 -2.53235,0.26935 -2.90213,-0.32348 -3.63867,-0.20507 0,0 -1.46364,0.50977 -1.53202,1.79187 -0.0684,1.28211 -1.82521,1.46122 -1.64237,2.59862 0.18285,1.1374 -1.37631,1.90358 -0.96875,2.73138 0.37626,0.86626 2.02192,1.49504 2.02192,1.49504 z"
   id="path28"
   inkscape:connector-curvature="0"
   style="fill:#444444" />
		<path
   d="m 76.821401,363.02174 c -0.856303,-0.22444 -2.302621,0.82829 -5.422163,-0.57531 -3.119548,-1.40359 -8.287918,-4.74571 -9.66074,-4.8864 -1.372822,-0.1407 -1.37363,-0.14128 -1.37363,-0.14128 0,0 -0.727313,-2.87373 -0.06363,-3.24577 0.663672,-0.37203 1.669164,-0.26833 1.669164,-0.26833 l -0.969678,-0.92969 c 0,0 -0.456257,-1.63894 -1.937489,-1.40083 -1.48124,0.23812 -2.953896,2.47669 -3.805128,3.33701 -0.851231,0.86031 -3.232306,1.79797 -4.134881,2.93188 -0.902574,1.13392 -2.697961,2.8695 -3.78537,4.05731 -1.091194,1.16425 -1.798146,2.91763 -3.282033,4.33849 -1.483993,1.42017 -3.486373,2.46555 -2.150425,2.97426 0,0 0.288868,0.14635 1.556849,-0.51562 1.24509,-0.65829 3.062298,-2.8555 3.696822,-2.9575 0.610939,-0.0982 0.735461,0.0745 1.706727,-0.63647 0.971273,-0.71102 1.991929,-0.513 2.303681,-0.37033 0.288876,0.14635 1.693993,1.53673 2.860882,1.44518 1.167001,-0.0908 1.385949,0.66927 2.128988,0.79098 0.743047,0.12171 0.894097,0.45952 2.131721,0.3566 1.261308,-0.10601 1.82412,0.69558 2.717297,0.552 0.893177,-0.14358 2.00538,1.22132 3.179742,0.57441 1.174361,-0.64692 1.850423,0.25741 3.582997,-0.2139 1.733262,-0.47142 1.417858,-0.78281 2.584859,-0.87367 1.167001,-0.0908 4.899883,-0.42559 4.584479,-0.73698 -0.315404,-0.31139 -1.471842,-0.75221 -1.213182,-0.7938 0.258668,-0.0416 3.173975,-0.51023 2.12311,-0.89618 -1.050865,-0.38595 -1.618186,-0.46334 -1.618186,-0.46334 0,0 3.444849,-1.22818 2.589235,-1.45272 z"
   id="path30"
   inkscape:connector-curvature="0"
   style="fill:#444444;stroke-width:0.70236534" />
		<path
   d="m 183.41926,286.66351 c -1.3135,-0.26994 -2.07131,0.57302 -2.07131,0.57302 0,0 0.60842,-3.05124 -1.63283,-6.7423 -2.27498,-3.68665 -3.4405,-4.52934 -3.4405,-4.52934 0,0 0.21808,1.78501 0.83768,2.64659 0.6196,0.86158 -2.89415,-1.76704 -2.91848,-1.28203 0.008,0.47977 0.68706,1.70962 0.68706,1.70962 l -2.19662,-0.84912 c 0,0 0.69655,0.91808 0.87265,1.37087 0.14253,0.45819 -2.20709,-0.0574 -2.20709,-0.0574 0,0 -1.4882,-1.99306 -4.86923,-4.23079 -3.38103,-2.23773 -4.88657,-5.18919 -5.32774,-4.9471 -0.44199,0.24324 2.5852,4.11687 2.5852,4.11687 0,0 -4.55449,-2.70136 -4.38613,-2.07616 0.16936,0.62504 2.28395,2.24293 2.28395,2.24293 0,0 -2.63607,-1.01852 -2.43315,-0.39887 0.16935,0.62504 2.6119,2.36137 2.6119,2.36137 0,0 -1.40745,-0.42601 -1.31603,0.14269 0.086,0.53513 3.36761,4.71223 4.39342,6.60744 1.02581,1.89521 3.2486,7.82153 4.16406,9.66662 0.94788,1.83886 2.56532,3.5711 2.56532,3.5711 0,0 -0.56029,1.42905 -1.93926,1.82291 -1.37896,0.39386 -7.57971,0.90957 -7.50432,1.37855 0,0 -0.69472,0.59278 -0.0643,1.5215 0.63039,0.92871 0.004,1.09823 0.77038,1.79953 0.75964,0.6679 2.03635,0.7027 2.03635,0.7027 0,0 0.39541,0.9665 2.92895,0.49034 2.53354,-0.47616 4.67997,-2.50354 6.01878,-2.71876 1.33881,-0.21522 2.21368,-0.11582 4.26765,-1.64724 2.05381,-1.5324 1.34663,-2.51663 2.6502,-3.37947 1.30374,-0.86186 2.17476,-1.2085 2.31551,-3.32567 0.14075,-2.11718 -0.14701,-3.47877 0.57469,-3.9037 0.72171,-0.42494 2.12766,-0.65095 2.12766,-0.65095 l -1.32258,-0.74857 c -0.0375,0.006 0.28623,-0.97277 -1.06182,-1.23716 z"
   id="path32"
   inkscape:connector-curvature="0"
   style="fill:#444444" />
		<path
   d="m 216.68262,211.6897 c 0.25662,-0.968 0.17583,-1.47055 0.17583,-1.47055 0,0 1.74104,3.56586 1.8902,2.78631 0.12099,-0.74059 -0.0512,-1.81184 -0.0512,-1.81184 0,0 1.69548,3.71093 2.43477,2.97324 0.73929,-0.73769 0.63822,-1.37269 0.63822,-1.37269 0,0 1.73854,2.91399 2.06245,2.79305 0.18964,-0.0994 0.0282,-1.10347 -0.14015,-1.72867 0.59564,1.14093 2.28022,3.71923 2.39561,3.15173 0.12638,-0.70703 -0.66186,-4.11714 -0.66186,-4.11714 0,0 2.39323,4.4222 2.66349,3.96754 0.2701,-0.45564 -0.42942,-3.74228 -0.42942,-3.74228 0,0 1.06914,3.02161 1.65502,3.03074 0.58489,0.009 -0.12705,-5.062 -1.37471,-7.05828 -1.06073,-1.68399 -1.63089,-3.3091 -1.75183,-3.63301 0.34295,0.42597 4.03015,2.85453 3.26802,1.53476 -0.80551,-1.38166 -2.75309,-3.02538 -2.75309,-3.02538 0,0 3.77053,2.51847 3.94667,1.90676 0.14257,-0.60632 -8.4275,-7.77901 -9.94003,-9.28705 -1.51793,-1.54162 -1.76116,-1.98362 -1.76116,-1.98362 0,0 0.79142,-1.91286 1.63022,-2.45993 0.83881,-0.54707 2.34951,-0.54988 2.34951,-0.54988 l -1.11323,-1.16002 c 0,0 -0.75705,-2.14503 -2.75852,-1.99445 -2.00163,0.1496 -3.02705,2.10007 -4.32908,2.55044 -1.26762,0.44382 -1.89921,-0.27809 -5.7151,2.25771 -3.8105,2.56937 -7.62342,6.61686 -10.57634,7.26273 -2.95177,0.6467 -5.63614,1.2494 -5.63614,1.2494 0,0 -1.29191,-0.13567 -0.551,0.84416 0.74091,0.97982 -1.54416,1.93056 -1.2041,2.97482 0.34005,1.04426 -0.31586,1.66423 0.70595,2.25555 1.0218,0.59131 1.82294,0.87475 3.12668,0.0129 1.30373,-0.86185 3.00935,-2.8528 4.24844,-3.05199 1.23909,-0.19919 6.45974,-1.89734 7.0959,-1.14071 0.63714,0.75646 4.41747,3.34223 5.91921,4.78314 1.50173,1.44091 2.7882,2.60751 2.70472,1.65975 -0.0773,-0.91534 1.57946,2.56077 1.83607,1.59277 z"
   id="path34"
   inkscape:connector-curvature="0"
   style="fill:#444444" />
		<path
   d="m 163.34475,109.12735 c 0.36859,0.79963 -1.24318,1.0243 -1.10081,1.4815 0.14793,0.49175 3.11962,-0.67368 3.84958,-0.61885 0.72995,0.0548 4.57278,-0.39175 7.41695,-1.70786 2.84416,-1.3161 4.24201,-2.0209 4.68286,-3.12183 0.44085,-1.10093 1.52111,-3.78136 2.09656,-4.04504 0.57528,-0.26466 1.64653,-0.43687 1.64653,-0.43687 l -0.69655,-0.918083 c 0,0 -0.43303,-1.20049 -1.54205,-1.26326 -1.10886,-0.0618 -3.17871,2.227763 -4.40062,2.527503 -1.22731,0.26617 -1.50713,-1.474483 -1.65776,-2.411453 -0.14523,-0.9034 -0.49246,-4.556598 -2.90954,-6.77711 -2.41723,-2.221499 -14.56809,-10.946528 -14.99846,-10.6373 -0.43136,0.309388 0.53001,1.803743 0.53001,1.803743 0,0 -0.71091,0.492072 0.0904,1.633358 0.8013,1.141285 1.64438,3.821447 1.64438,3.821447 0,0 -1.827,-1.114144 -1.73018,-0.511877 0.0968,0.602268 0.66428,1.782157 0.66428,1.782157 0,0 -1.91032,-1.204059 -1.73017,-0.511877 0.18014,0.692182 2.38481,3.084586 2.50861,3.854698 0.1238,0.770113 -0.44085,1.100927 -0.22138,1.615617 0.25387,0.508147 1.02026,1.003794 1.37536,2.147934 0.35084,1.1114 2.32846,3.16252 2.88767,3.862633 0.59278,0.69472 0.51663,3.21374 0.94141,3.93446 0.42493,0.7217 1.56094,1.80918 1.56094,1.80918 0,0 -10.22032,5.41986 -9.86154,6.1522 0,0 1.25139,0.51997 2.4895,0.32094 1.30965,-0.1761 6.09544,-4.5856 6.46403,-3.78596 z"
   id="path36"
   inkscape:connector-curvature="0"
   style="fill:#444444" />
		
	</g>
</g>
<g
   id="g43">
</g>
<g
   id="g45">
</g>
<g
   id="g47">
</g>
<g
   id="g49">
</g>
<g
   id="g51">
</g>
<g
   id="g53">
</g>
<g
   id="g55">
</g>
<g
   id="g57">
</g>
<g
   id="g59">
</g>
<g
   id="g61">
</g>
<g
   id="g63">
</g>
<g
   id="g65">
</g>
<g
   id="g67">
</g>
<g
   id="g69">
</g>
<g
   id="g71">
</g>
</svg>