<?xml version="1.0" encoding="UTF-8" standalone="no"?>
<svg
   xmlns:dc="http://purl.org/dc/elements/1.1/"
   xmlns:cc="http://creativecommons.org/ns#"
   xmlns:rdf="http://www.w3.org/1999/02/22-rdf-syntax-ns#"
   xmlns:svg="http://www.w3.org/2000/svg"
   xmlns="http://www.w3.org/2000/svg"
   version="1.1"
   id="svg2"
   xml:space="preserve"
   width="700"
   height="1000"
   viewBox="0 0 700.00001 1000"><metadata
     id="metadata8"><rdf:RDF><cc:Work
         rdf:about=""><dc:format>image/svg+xml</dc:format><dc:type
           rdf:resource="http://purl.org/dc/dcmitype/StillImage" /><dc:title></dc:title></cc:Work></rdf:RDF></metadata><defs
     id="defs6" /><g
     id="g10"
     transform="matrix(1.3333333,0,0,-1.3333333,0,1000)"><path
       style="fill:#b3b3b3;fill-opacity:1;fill-rule:nonzero;stroke:none;stroke-width:0.47491765"
       d="m 299.25391,567.85156 -18.92969,7.4336 -26.54688,2.41406 -13.67187,8.04297 -8.84766,6.43554 -9.65039,6.4336 -12.06836,9.65039 -6.43554,4.02148 -6.42774,4.82813 -23.32617,16.08398 -4.82813,2.41407 -12.06445,8.04101 -18.50391,12.0625 0.0703,0.14649 c -10.93772,6.91375 -28.30505,18.20537 -30.63086,19.72265 l -1.24023,0.82813 -0.36719,0.23632 -7.054691,4.50782 0.125,0.24414 -31.681641,20.16015 -9.648437,4.82813 -30.210938,16.21289 V 913.90234 H 345.26562 v 2.60157 h 311.04493 v -2.59571 h 40.64843 V 760.28125 l -2.40625,-1.60742 -27.34765,-12.07031 -67.56446,-28.95313 -26.53906,-16.08398 -24.9414,-13.67774 -25.66211,-11.73633 -12.94141,-6.76172 -1.30078,-0.25 -12.36133,-6.18554 -41.83789,-24.125 -24.13281,-9.65625 -23.32031,-9.65039 h -1.61329 l -13.66992,-6.4336 -42.63281,-23.32617 -12.86914,-6.43555 -13.66992,-7.24218 -8.04297,-1.60742 -4.75977,-1.98047 -5.07031,-2.53907 z m -7.80322,11.56591 8.82578,-1.39491 6.62694,2.70209 5.78524,2.91808 6.6425,2.80653 20.25855,12.0088 17.94741,10.61026 24.93359,13.66992 19.30469,8.84961 10.625,10.42969 16.14649,4.92773 6.94921,2.91407 18.56055,6.6621 -26.54102,-15.28515 -14.47656,-8.04102 -12.07812,-7.8125 4.02929,0.57617 4.82813,1.60743 -6.43555,-4.02149 h 0.80664 l 1.60743,0.80078 21.83203,10.22461 24.50195,10.3418 39.09766,22.32617 19.0664,10.43164 0.0195,0.25 -12.02148,-4.50781 9.64844,9.65625 -29.75391,-12.87109 -5.63477,-0.80665 20.91797,16.89063 10.45703,8.04297 -24.13281,-14.47656 -4.02148,1.60546 -20.10547,-12.0625 2.40625,4.02149 -9.64844,-4.02149 -7.24219,-0.80664 3.22071,6.43555 h -5.63477 l -12.0625,-10.45703 0.80664,-1.60742 -14.47656,-9.64844 -36.19727,-23.32617 h -4.01953 l 8.04102,7.23437 -24.13281,-9.64843 -2.40625,-1.60743 0.79882,1.60743 0.80664,1.60742 72.40039,45.8457 2.40626,0.80664 -7.24805,-0.80664 -4.82227,-1.60742 1.60742,4.02148 -15.2832,-2.41406 -7.23633,-2.41406 -6.43359,-1.60742 -12.85742,-2.41407 0.78711,2.41407 -3.21485,-1.60743 -20.91211,-12.07031 -36.19531,-23.32617 1.38672,-7.67773 -13.45117,-4.38477 4.84179,4.82813 -0.80664,2.41406 5.6211,9.64844 12.86328,14.47656 1.61328,3.22265 h -4.82617 l 4.01953,4.82032 4.02148,2.41406 v -4.02148 l 0.80664,3.2207 1.60743,4.02148 -2.41407,2.41406 -12.0625,-12.86914 -1.60742,-0.80859 h -0.80664 l 0.80664,6.43555 v 7.24218 l -1.61328,4.02149 -0.80078,1.60742 -7.22852,0.80664 -12.07617,1.60742 -4.81445,4.01953 -28.96875,2.41407 -19.30469,4.82812 2.41406,-5.63476 6.43555,-7.23438 4.02149,-5.63476 -6.43555,4.01953 -1.60742,-4.01953 0.80078,-3.21485 8.84765,-5.63476 0.82227,-2.40625 3.19922,-1.61524 10.64532,-14.22819 -5.58489,-9.13159 -9.08192,20.14689 -5.62695,4.01953 -0.80664,1.60743 -6.43555,7.24218 -3.20117,1.60742 -7.25586,3.22071 0.8086,-2.41407 -2.41407,-1.61328 4.01954,-4.82226 0.80859,-1.61328 v 4.02148 h 2.41211 l 1.62109,-1.60742 3.20117,-2.41406 -3.20117,-1.60742 1.59375,-7.23438 8.08399,-9.90625 12.01172,-21.3443 -0.53137,-9.6625 -14.2279,10.45872 -5.08716,13.78732 -3.15553,9.54396 -2.7207,6.31641 -1.60742,-1.60742 -2.41407,4.02148 -7.24218,3.21289 -2.41407,0.80664 -0.80078,3.21485 -7.24218,2.41406 -2.41407,0.80664 -0.79882,3.21484 v 1.61328 l -0.80665,-1.61328 -2.41406,-4.02148 6.4336,-6.43555 4.02148,1.61524 -2.41406,-4.02149 0.80664,-3.2207 -4.82813,2.41406 -4.8125,0.80664 1.59961,-3.2207 -2.40039,1.60547 -4.03515,3.22265 v 3.2129 l 1.60742,3.2207 1.60742,3.21484 v 12.86914 l -1.60742,-4.01953 -4.02149,-12.06445 -4.82812,1.60742 -2.40625,-1.60742 v -4.01953 l -6.43555,6.42773 h -4.82812 l -30.56836,24.13281 -6.42774,4.02149 14.47656,-16.08399 -32.17578,27.34571 9.65039,-10.45508 17.69727,-21.71875 -4.82812,0.80664 h -2.35743 l -1.14062,-1.03711 0.28515,-0.57031 0.79883,-2.41407 4.02149,-4.02734 -0.27735,0.20899 1.89258,-1.85743 v 0.0488 l 11.98633,-11.25 -11.1875,2.40039 8.84961,-8.04297 14.42509,-7.21171 24.00589,-17.54108 6.21392,-5.80669 13.08981,-8.90743 8.78692,-5.18138 9.49506,-8.5147 3.96378,-2.7706 13.1474,-6.45003 20.64403,-0.96583 z m -120.90811,75.91358 -0.25335,-7.16211 9.15153,3.97738 z m 111.94765,-69.0205 5.48243,2.7207 0.73242,7.41797 16.59375,15.75 -8.89063,-18.41406 -0.80664,-1.60743 -1.59375,4.02149 -2.42773,-4.02149 1.0293,-9.80468 z m 20.11558,27.90004 9.06411,8.08824 -3.27735,-7.98243 z m 4.31791,-29.00987 3.024,12.36638 22.37949,8.98767 12.79637,8.23089 7.16576,8.03572 12.48996,2.33096 4.82031,1.60743 -5.62695,-4.82227 z m -31.42763,1.34225 0.0391,7.41601 2.33203,10.29883 6.28906,7.21485 22.70703,17.70117 1.60742,1.60742 -4.02148,-4.82227 -14.47656,-17.69726 -5.62891,-8.84961 -5.62109,-7.23438 z m 23.32618,7.24219 6.43359,10.45507 7.23633,11.26368 16.10547,13.66992 4.00586,4.02148 -1.60743,1.60547 4.82227,4.82813 4.82812,3.2207 26.53907,12.86328 8.04297,4.02149 5.63476,1.61523 v -2.41406 l 20.10547,7.24023 4.02148,1.60742 h 1.61329 l -20.11133,-12.07031 -16.08594,-10.45508 -10.45508,-6.42773 -6.43555,-7.24219 -5.62695,-7.24219 -0.80664,1.61328 -4.22584,-5.712 -0.19321,-3.19841 -4.34217,-2.49717 -12.18645,-3.5852 16.92619,16.60021 5.62695,12.0625 -8.42215,-5.87569 -18.80722,-22.58034 -5.52228,-5.77949 -8.2464,-3.1473 z m -40.33202,8.59855 -22.82945,6.77267 -18.8815,17.60339 -7.24024,3.2207 0.82032,-5.63477 -2.42774,2.41407 -6.43555,3.2207 1.60743,0.80078 v 2.41406 h 2.41406 l 1.61328,1.60547 -13.27629,4.8626 -10.01681,14.58796 22.01694,-9.74464 3.68436,-7.29186 1.55664,7.97657 9.1564,-7.4909 8.99073,-5.93343 5.70771,-5.40693 -16.56382,2.81368 8.86328,-6.43555 18.29655,-4.86798 z m 33.08983,31.61824 1.61328,9.64844 -5.63477,5.63477 v 10.44922 l 2.41407,2.41406 0.80664,3.2207 4.03515,-8.04102 1.59375,-4.02148 -0.80664,4.82031 -1.59375,10.45703 5.6211,-1.60742 2.40625,2.41406 v -6.43554 l -1.60547,-18.49805 -0.80078,-1.60742 -5.6211,-7.24023 z m 6.43554,0.79883 v 0.8086 l 5.63477,6.43359 2.41406,30.5625 4.01953,-0.80078 6.43555,-8.84961 1.60742,-9.64844 -4.82812,-14.47656 -2.40039,-0.80664 2.40039,4.01953 1.60742,12.87109 -3.20117,4.82032 -3.23438,-16.88477 -2.40625,-3.2207 -5.63476,-2.41407 z"
       transform="matrix(0.75000002,0,0,-0.75000002,0,750.00002)"
       id="path18" /></g></svg>