<?xml version="1.0" encoding="UTF-8" standalone="no"?>
<svg
   xmlns:dc="http://purl.org/dc/elements/1.1/"
   xmlns:cc="http://creativecommons.org/ns#"
   xmlns:rdf="http://www.w3.org/1999/02/22-rdf-syntax-ns#"
   xmlns:svg="http://www.w3.org/2000/svg"
   xmlns="http://www.w3.org/2000/svg"
   xmlns:sodipodi="http://sodipodi.sourceforge.net/DTD/sodipodi-0.dtd"
   xmlns:inkscape="http://www.inkscape.org/namespaces/inkscape"
   viewBox="0 0 700.00001 1000"
   height="1000"
   width="700"
   xml:space="preserve"
   id="svg2"
   version="1.1"
   sodipodi:docname="fuji-ground.svg"
   inkscape:version="0.92.5 (2060ec1f9f, 2020-04-08)"><sodipodi:namedview
     pagecolor="#ffffff"
     bordercolor="#666666"
     borderopacity="1"
     objecttolerance="10"
     gridtolerance="10"
     guidetolerance="10"
     inkscape:pageopacity="0"
     inkscape:pageshadow="2"
     inkscape:window-width="1690"
     inkscape:window-height="1601"
     id="namedview202"
     showgrid="false"
     inkscape:zoom="0.6675088"
     inkscape:cx="202.13086"
     inkscape:cy="728.19976"
     inkscape:window-x="1862"
     inkscape:window-y="300"
     inkscape:window-maximized="0"
     inkscape:current-layer="g10" /><metadata
     id="metadata8"><rdf:RDF><cc:Work
         rdf:about=""><dc:format>image/svg+xml</dc:format><dc:type
           rdf:resource="http://purl.org/dc/dcmitype/StillImage" /><dc:title></dc:title></cc:Work></rdf:RDF></metadata><defs
     id="defs6" /><g
     transform="matrix(1.3333333,0,0,-1.3333333,0,1000)"
     id="g10"><path
       id="path145"
       d="m 299.42016,91.957883 c 0,3.846698 0.0139,3.952476 0.51719,3.952476 0.31417,0 0.56934,-0.199429 0.65004,-0.508045 0.0895,-0.342479 0.26314,-0.459599 0.5327,-0.359373 1.60133,0.595266 10.18845,3.954299 10.81241,4.229518 0.42813,0.188827 0.85599,0.343344 0.95078,0.343344 0.0948,0 0.52265,0.155999 0.95079,0.346681 0.42813,0.190656 2.86273,1.162846 5.41022,2.160396 4.16212,1.6298 4.63182,1.87194 4.63182,2.38784 0,0.79323 1.07599,0.66708 1.19057,-0.1396 0.0748,-0.5262 0.18988,-0.55582 2.1615,-0.55582 h 2.08258 v 16.42748 16.42747 h -1.48219 c -1.31244,0 -1.48217,0.056 -1.48217,0.48908 0,0.79879 -0.76787,2.47528 -1.13375,2.47528 -0.18647,0 -0.40876,0.2779 -0.49402,0.61757 -0.15297,0.60944 -0.18895,0.61757 -2.73615,0.61757 -1.41965,0 -3.10284,0.11803 -3.74042,0.26228 -1.19784,0.27099 -2.49264,0.55814 -4.3089,0.95557 -2.82178,0.61749 -3.62374,0.91054 -4.88957,1.78672 -0.75316,0.52136 -1.5591,0.94791 -1.79098,0.94791 -0.23185,0 -0.42155,0.1612 -0.42155,0.35827 0,0.51049 -0.64717,0.80509 -1.49514,0.68063 -0.56028,-0.0823 -0.72813,-0.23579 -0.72813,-0.66616 0,-0.30759 0.16674,-0.69766 0.37054,-0.8668 0.42797,-0.35518 0.49781,-2.01797 0.11483,-2.73356 -0.33277,-0.62176 -1.37907,-0.62176 -1.71183,0 -0.38297,0.71559 -0.31313,2.37838 0.11484,2.73356 0.42869,0.3558 0.52407,2.95905 0.12308,3.36002 -0.13608,0.1361 -0.30948,0.74194 -0.38532,1.34632 -0.0758,0.60436 -0.24287,1.42259 -0.37123,1.81827 -0.12835,0.39563 -0.17842,0.77433 -0.11125,0.84147 0.0671,0.0671 0.55724,-0.074 1.08908,-0.31392 1.11313,-0.50197 5.22644,-0.59381 6.69434,-0.1495 0.47464,0.14366 1.16778,0.2612 1.54031,0.2612 0.76934,0 12.33218,3.75246 15.47995,5.02367 1.65259,0.66737 2.56379,1.25776 4.48998,2.90917 l 2.41662,2.07185 0.0183,3.89073 0.0183,3.89072 h 0.61756 0.61759 v 7.41087 7.41091 h -1.47747 c -1.41078,0 -1.48424,0.0306 -1.6273,0.67933 -0.33129,1.502 -0.53113,1.92445 -1.01401,2.14328 -0.36793,0.16673 -0.59334,0.65259 -0.8309,1.79096 -0.1793,0.85918 -0.40529,1.56216 -0.50221,1.56216 -0.097,0 -0.24598,0.27791 -0.33124,0.61757 -0.1485,0.5917 -0.23501,0.61773 -2.06477,0.6212 -2.80736,0.004 -9.94841,1.49424 -11.14552,2.32384 -0.50546,0.3503 -0.99641,0.6369 -1.09102,0.6369 -0.0947,0 -0.39431,0.22232 -0.66605,0.49405 -0.27448,0.27449 -0.82344,0.49406 -1.23516,0.49406 -0.56564,0 -0.74108,0.11208 -0.74108,0.47348 0,0.56015 -0.32089,0.70151 -1.27467,0.56154 -0.52545,-0.0771 -0.70157,-0.23858 -0.70157,-0.6431 0,-0.29707 0.11753,-0.65767 0.26116,-0.8013 0.14365,-0.14365 0.22702,-0.84918 0.18528,-1.5679 -0.0856,-1.47252 -0.59945,-2.06321 -1.3728,-1.57782 -0.59701,0.37474 -0.74407,2.8443 -0.19642,3.29882 0.43021,0.35704 0.54848,2.87524 0.14159,3.01478 -0.26704,0.0916 -1.06374,3.92495 -0.85839,4.13029 0.0714,0.0714 0.49793,-0.0684 0.94775,-0.31055 1.43386,-0.7722 5.99666,-0.5846 9.66138,0.3972 1.69771,0.45483 12.00934,3.90462 14.017,4.68943 1.42119,0.55556 2.3959,1.16816 3.79411,2.38457 1.03489,0.90032 2.20152,1.85927 2.59252,2.13101 l 0.71093,0.49404 0.003,3.89073 c 0.003,3.72494 0.0243,3.89072 0.4973,3.89072 0.48308,0 0.49407,0.16469 0.49407,7.41089 v 7.41088 h -1.36641 c -0.88123,0 -1.39786,0.10961 -1.45496,0.30879 -0.41814,1.45837 -0.98106,2.65557 -1.24861,2.65557 -0.40418,0 -0.56186,0.40408 -0.77001,1.97321 -0.0903,0.681 -0.2536,1.23818 -0.36281,1.23818 -0.10917,0 -0.26912,0.22232 -0.35536,0.49405 -0.14266,0.44944 -0.37377,0.49406 -2.55855,0.49406 -1.32097,0 -3.00873,0.15368 -3.75057,0.3415 -0.74183,0.18783 -2.67177,0.6497 -4.28873,1.02635 -2.62717,0.61199 -3.08009,0.79902 -4.25776,1.75825 -0.72483,0.59038 -1.48618,1.0734 -1.6919,1.0734 -0.20572,0 -0.37403,0.15486 -0.37403,0.34413 0,0.40594 -0.59778,0.69067 -1.54396,0.73539 -0.58132,0.0275 -0.67934,-0.0641 -0.67932,-0.63493 1e-5,-0.36688 0.17325,-0.76401 0.38499,-0.88249 0.55535,-0.31081 0.39963,-2.74131 -0.1997,-3.11733 -0.77339,-0.48518 -1.28728,0.10544 -1.3728,1.57796 -0.0417,0.7187 0.0417,1.42426 0.18528,1.56789 0.31881,0.31881 0.34647,2.72227 0.0382,3.31534 -0.32484,0.62486 -0.85145,3.75984 -0.6632,3.94812 0.0882,0.0882 0.49682,-0.0385 0.90811,-0.28143 0.58932,-0.34812 1.2814,-0.44021 3.26555,-0.43457 1.38475,0.004 2.90608,0.12521 3.38072,0.26945 0.47463,0.14426 1.19844,0.26228 1.60849,0.26228 0.76874,0 14.38778,4.4826 16.50335,5.43194 0.65377,0.29339 1.93216,1.20837 2.84084,2.0333 0.9087,0.82494 1.95785,1.7269 2.33148,2.00436 l 0.67933,0.50448 v 3.90603 3.90602 h 0.61758 0.61758 v 7.41089 7.4109 h -1.46254 c -1.45285,0 -1.4636,0.004 -1.62114,0.80284 -0.26651,1.34918 -0.64103,2.10892 -1.09859,2.22858 -0.44298,0.11583 -0.75833,1.11707 -0.75833,2.40768 0,0.37991 -0.16465,0.74696 -0.37053,0.82597 -0.2038,0.0782 -0.37055,0.29843 -0.37055,0.48939 0,0.27042 -0.61465,0.37435 -2.77909,0.46988 -1.62915,0.0718 -3.59679,0.33573 -4.75531,0.63763 -1.08694,0.28323 -2.97672,0.74736 -4.19952,1.03138 -1.22279,0.28402 -2.52446,0.73365 -2.89259,0.99915 -0.36812,0.26551 -0.79678,0.48273 -0.95256,0.48273 -0.15578,0 -0.48742,0.25959 -0.737,0.57686 -0.34743,0.44169 -0.63072,0.55089 -1.20894,0.46603 -0.67085,-0.0984 -0.75519,-0.0417 -0.75519,0.50835 0,0.34054 -0.16674,0.68316 -0.37053,0.76137 -0.20381,0.0782 -0.37056,0.0345 -0.37056,-0.0972 0,-0.13161 -0.2779,-0.23927 -0.61758,-0.23927 -0.47972,0 -0.61757,-0.12682 -0.61757,-0.56817 0,-0.31251 0.11753,-0.6857 0.26118,-0.82935 0.14363,-0.14363 0.22701,-0.84919 0.18526,-1.5679 -0.0856,-1.47252 -0.59945,-2.06321 -1.37279,-1.5778 -0.59703,0.37472 -0.74408,2.8443 -0.19643,3.29881 0.4505,0.37387 0.53328,2.72322 0.11085,3.14565 -0.29401,0.29399 -1.03124,3.79584 -0.8395,3.98755 0.0644,0.0645 0.54442,-0.0754 1.0666,-0.3109 1.61901,-0.73008 6.09655,-0.5387 9.55439,0.40838 1.02668,0.28119 12.53244,4.1176 13.83366,4.61261 1.7018,0.64738 2.82889,1.38234 4.7902,3.12364 1.14009,1.01219 2.16835,1.84033 2.28502,1.84033 0.11669,0 0.21216,1.77862 0.21216,3.95248 0,3.78779 0.0206,3.95246 0.49405,3.95246 0.48308,0 0.49406,0.16471 0.49406,7.4109 v 7.41089 h -1.36642 c -0.88122,0 -1.39784,0.10961 -1.45495,0.30878 -0.41814,1.45838 -0.98106,2.65559 -1.24861,2.65559 -0.39634,0 -0.53223,0.33377 -0.76333,1.87489 -0.23471,1.56514 -0.5426,1.83026 -2.12763,1.83198 -1.61254,9.7e-4 -3.44885,0.3157 -5.8846,1.00606 -1.01899,0.28882 -2.68645,0.75019 -3.70544,1.02529 -1.32133,0.35672 -2.26093,0.81004 -3.27591,1.58048 -0.78275,0.59417 -1.64426,1.0803 -1.91447,1.0803 -0.30423,0 -0.4913,0.1655 -0.4913,0.43463 0,0.23905 -0.22234,0.57348 -0.49407,0.7432 -0.29286,0.18288 -0.49405,0.20708 -0.49405,0.0593 0,-0.13702 -0.27791,-0.24911 -0.61758,-0.24911 -0.49007,0 -0.61757,-0.12449 -0.61757,-0.603 0,-0.33164 0.11116,-0.67169 0.24702,-0.75567 0.34842,-0.21532 0.30834,-2.68073 -0.0494,-3.03845 -0.44512,-0.44512 -1.13588,-0.35714 -1.42408,0.18137 -0.38297,0.71561 -0.31313,2.3784 0.11481,2.73357 0.44554,0.36977 0.51704,2.96609 0.0935,3.38977 -0.15246,0.15245 -0.31727,0.64714 -0.36626,1.09929 -0.0905,0.83565 -0.26481,1.70946 -0.49656,2.48954 -0.16427,0.55292 0.44998,0.5721 1.26296,0.0393 0.71106,-0.4659 5.13629,-0.54459 6.54523,-0.1164 0.47462,0.14426 1.15929,0.26229 1.52148,0.26229 0.57775,0 8.07441,2.34914 8.33923,2.61316 0.0557,0.0556 -0.0831,0.30509 -0.30879,0.5544 -0.55031,0.60807 -0.53748,1.13636 0.0221,0.9096 0.23777,-0.0963 1.12087,-0.23414 1.96245,-0.30618 1.38836,-0.11884 1.7775,-0.0317 4.1995,0.93867 1.46815,0.5883 3.4475,1.57556 4.39857,2.19387 0.95107,0.61834 1.92594,1.23555 2.1664,1.37162 0.24044,0.13605 1.74114,1.07621 3.33489,2.08923 3.66033,2.32658 9.93804,7.89375 9.93804,8.81319 0,0.33017 0.17151,0.66612 0.38112,0.74655 0.29982,0.11504 0.34653,0.37686 0.21897,1.22739 l -0.16212,1.08116 h 1.75727 c 1.39731,0 1.75724,0.0759 1.75724,0.37055 0,0.27996 -0.30191,0.37054 -1.23515,0.37054 -1.07045,0 -1.23515,0.0659 -1.23515,0.49404 0,0.4282 0.1647,0.49408 1.23515,0.49408 0.93324,0 1.23515,0.0906 1.23515,0.37053 0,0.27998 -0.30191,0.37056 -1.23515,0.37056 -1.07045,0 -1.23515,0.0659 -1.23515,0.49404 0,0.4282 0.1647,0.49407 1.23515,0.49407 0.93324,0 1.23515,0.0906 1.23515,0.37055 0,0.27996 -0.30191,0.37054 -1.23515,0.37054 -1.07045,0 -1.23515,0.0659 -1.23515,0.49407 0,0.42817 0.1647,0.49405 1.23515,0.49405 0.93324,0 1.23515,0.0906 1.23515,0.37055 0,0.27996 -0.30191,0.37054 -1.23515,0.37054 -1.1528,0 -1.23515,0.0412 -1.23515,0.61757 0,0.57641 0.0824,0.61758 1.23515,0.61758 0.93324,0 1.23515,0.0906 1.23515,0.37054 0,0.27996 -0.30191,0.37055 -1.23515,0.37055 -1.07045,0 -1.23515,0.0658 -1.23515,0.49405 0,0.4282 0.1647,0.49407 1.23515,0.49407 0.93324,0 1.23515,0.0906 1.23515,0.37054 0,0.27997 -0.30191,0.37055 -1.23515,0.37055 -1.07045,0 -1.23515,0.0659 -1.23515,0.49405 0,0.42819 0.1647,0.49406 1.23515,0.49406 0.93324,0 1.23515,0.0906 1.23515,0.37054 0,0.27998 -0.30191,0.37055 -1.23515,0.37055 -1.07045,0 -1.23515,0.0659 -1.23515,0.49406 0,0.42818 0.1647,0.49405 1.23515,0.49405 0.93324,0 1.23515,0.0906 1.23515,0.37054 0,0.27999 -0.30191,0.37056 -1.23515,0.37056 -1.1528,0 -1.23515,0.0412 -1.23515,0.61757 0,0.5764 0.0824,0.61758 1.23515,0.61758 0.93324,0 1.23515,0.0906 1.23515,0.37055 0,0.27996 -0.30191,0.37053 -1.23515,0.37053 -1.07045,0 -1.23515,0.0659 -1.23515,0.49406 0,0.42819 0.1647,0.49406 1.23515,0.49406 0.93324,0 1.23515,0.0906 1.23515,0.37055 0,0.27996 -0.30191,0.37054 -1.23515,0.37054 -1.07045,0 -1.23515,0.0659 -1.23515,0.49406 0,0.42819 0.1647,0.49406 1.23515,0.49406 0.93324,0 1.23515,0.0906 1.23515,0.37054 0,0.27997 -0.30191,0.37056 -1.23515,0.37056 -1.07045,0 -1.23515,0.0659 -1.23515,0.49405 0,0.42818 0.1647,0.49406 1.23515,0.49406 0.93324,0 1.23515,0.0906 1.23515,0.37054 0,0.27997 -0.30191,0.37054 -1.23515,0.37054 -1.07045,0 -1.23515,0.0659 -1.23515,0.49407 0,0.42818 0.1647,0.49406 1.23515,0.49406 0.91243,0 1.23515,0.0933 1.23515,0.357 0,0.25065 -0.34957,0.37945 -1.17339,0.43231 -1.00133,0.0642 -1.18496,0.15679 -1.25232,0.6311 -0.073,0.5137 0.0159,0.55582 1.17339,0.55582 0.94849,0 1.25232,0.0899 1.25232,0.37055 0,0.27997 -0.30191,0.37055 -1.23515,0.37055 -1.07045,0 -1.23515,0.0659 -1.23515,0.49404 0,0.42819 0.1647,0.49407 1.23515,0.49407 0.93324,0 1.23515,0.0906 1.23515,0.37054 0,0.27997 -0.30191,0.37054 -1.23515,0.37054 -1.07045,0 -1.23515,0.0659 -1.23515,0.49407 0,0.42819 0.1647,0.49406 1.23515,0.49406 0.93324,0 1.23515,0.0906 1.23515,0.37054 0,0.27996 -0.30191,0.37055 -1.23515,0.37055 -1.07045,0 -1.23515,0.0658 -1.23515,0.49406 0,0.42819 0.1647,0.49405 1.23515,0.49405 h 1.23515 v 1.6743 c 0,1.36861 -0.0903,1.75155 -0.49406,2.09733 -0.63571,0.54432 -0.65927,1.93099 -0.0424,2.48934 0.64662,0.58519 1.89632,0.51937 2.50299,-0.1318 0.67392,-0.72339 0.63514,-1.50609 -0.10961,-2.21252 -0.53522,-0.50767 -0.61387,-0.7964 -0.61758,-2.26751 l -0.004,-1.68577 1.29692,0.0689 c 1.14562,0.0609 1.29689,0.0124 1.29689,-0.41399 0,-0.40828 -0.20021,-0.49434 -1.29689,-0.55748 -0.93294,-0.0538 -1.29692,-0.17503 -1.29692,-0.4323 0,-0.26939 0.33974,-0.35763 1.37678,-0.35763 1.17784,0 1.3649,-0.0625 1.2946,-0.4323 -0.0635,-0.33412 -0.37624,-0.44928 -1.37679,-0.50697 -0.90729,-0.0523 -1.29459,-0.1778 -1.29459,-0.4194 0,-0.2416 0.3873,-0.36706 1.29459,-0.41939 1.00055,-0.0577 1.31327,-0.17286 1.37679,-0.50697 0.0703,-0.36983 -0.11676,-0.4323 -1.2946,-0.4323 -1.03704,0 -1.37678,-0.0883 -1.37678,-0.35764 0,-0.25727 0.36398,-0.37859 1.29692,-0.4323 1.10731,-0.0637 1.29689,-0.14689 1.29689,-0.56872 0,-0.42184 -0.18958,-0.50498 -1.29689,-0.56873 -0.96371,-0.0556 -1.29692,-0.17127 -1.29692,-0.45062 0,-0.29758 0.27036,-0.36159 1.29692,-0.30711 1.14562,0.0609 1.29689,0.0125 1.29689,-0.41398 0,-0.4083 -0.20021,-0.49436 -1.29689,-0.55749 -0.93294,-0.0538 -1.29692,-0.17504 -1.29692,-0.43231 0,-0.26938 0.33974,-0.35764 1.37678,-0.35764 1.17784,0 1.3649,-0.0625 1.2946,-0.43229 -0.0635,-0.33412 -0.37624,-0.44928 -1.37679,-0.50697 -0.90729,-0.0523 -1.29459,-0.1778 -1.29459,-0.41941 0,-0.24158 0.3873,-0.36705 1.29459,-0.41939 1.00055,-0.0577 1.31327,-0.17285 1.37679,-0.50695 0.0703,-0.36985 -0.11676,-0.43232 -1.2946,-0.43232 -1.03704,0 -1.37678,-0.0883 -1.37678,-0.35763 0,-0.25716 0.36369,-0.37861 1.29459,-0.43231 1.00055,-0.0576 1.31327,-0.17284 1.37679,-0.50696 0.0703,-0.36984 -0.11676,-0.43231 -1.2946,-0.43231 -1.03704,0 -1.37678,-0.0883 -1.37678,-0.35763 0,-0.25726 0.36398,-0.37859 1.29692,-0.4323 1.10731,-0.0637 1.29689,-0.14689 1.29689,-0.56871 0,-0.42185 -0.18958,-0.50499 -1.29689,-0.56874 -0.93294,-0.0538 -1.29692,-0.17504 -1.29692,-0.4323 0,-0.26939 0.33974,-0.35763 1.37678,-0.35763 1.17784,0 1.3649,-0.0625 1.2946,-0.43231 -0.0635,-0.33412 -0.37624,-0.44927 -1.37679,-0.50696 -0.9309,-0.0537 -1.29459,-0.17513 -1.29459,-0.43231 0,-0.26939 0.33974,-0.35764 1.37678,-0.35764 1.17784,0 1.3649,-0.0625 1.2946,-0.4323 -0.0635,-0.3341 -0.37624,-0.44927 -1.37679,-0.50697 -0.90729,-0.0523 -1.29459,-0.17779 -1.29459,-0.41939 0,-0.24159 0.3873,-0.36707 1.29459,-0.41939 1.00055,-0.0577 1.31327,-0.17285 1.37679,-0.50696 0.0703,-0.36985 -0.11676,-0.43231 -1.2946,-0.43231 -1.03704,0 -1.37678,-0.0883 -1.37678,-0.35763 0,-0.25726 0.36398,-0.37859 1.29692,-0.43231 1.10731,-0.0637 1.29689,-0.14688 1.29689,-0.56872 0,-0.42185 -0.18958,-0.50498 -1.29689,-0.56873 -0.96371,-0.0555 -1.29692,-0.17126 -1.29692,-0.45063 0,-0.29756 0.27036,-0.36158 1.29692,-0.3071 1.14562,0.0607 1.29689,0.0124 1.29689,-0.41398 0,-0.40829 -0.20021,-0.49436 -1.29689,-0.5575 -0.93294,-0.0538 -1.29692,-0.17503 -1.29692,-0.4323 0,-0.26938 0.33974,-0.35764 1.37678,-0.35764 1.17784,0 1.3649,-0.0625 1.2946,-0.43229 -0.0635,-0.33412 -0.37624,-0.44927 -1.37679,-0.50698 -0.90729,-0.0523 -1.29459,-0.1778 -1.29459,-0.4194 0,-0.24158 0.3873,-0.36705 1.29459,-0.41937 1.00055,-0.0577 1.31327,-0.17286 1.37679,-0.50697 0.0703,-0.36983 -0.11676,-0.4323 -1.2946,-0.4323 -1.05911,0 -1.37678,-0.0854 -1.37678,-0.37055 0,-0.29425 0.35768,-0.37055 1.73696,-0.37055 1.3492,0 1.77013,-0.0864 1.88553,-0.38715 0.0817,-0.21294 0.0227,-0.51307 -0.13127,-0.66698 -0.40358,-0.40359 -0.34419,-1.16914 0.0907,-1.16914 0.24437,0 0.37055,-0.24444 0.37055,-0.71788 0,-0.59116 0.38151,-1.0575 2.16151,-2.64216 1.18883,-1.05839 2.77291,-2.49654 3.52017,-3.19592 0.74727,-0.69936 2.41471,-1.91971 3.70544,-2.71188 1.29073,-0.79216 3.53043,-2.20378 4.97711,-3.13693 3.06949,-1.97993 7.58027,-3.89918 9.16416,-3.89918 0.57987,0 1.43529,0.10928 1.90093,0.24281 1.06867,0.30649 1.20468,0.16557 0.68662,-0.71146 l -0.41379,-0.70047 3.51464,-1.143 c 6.07079,-1.97427 11.28587,-2.52521 13.20195,-1.3947 0.48054,0.28353 0.92183,0.46738 0.98065,0.40857 0.19047,-0.19048 -0.66731,-4.23349 -0.91621,-4.3185 -0.13261,-0.0453 -0.24111,-0.72817 -0.24111,-1.5175 0,-1.06851 0.0979,-1.47272 0.38296,-1.58214 0.56322,-0.21612 0.40198,-2.83757 -0.19769,-3.21396 -0.77334,-0.4854 -1.28727,0.10532 -1.3728,1.57781 -0.0417,0.71872 0.0417,1.42427 0.18528,1.56791 0.14363,0.14364 0.26115,0.51683 0.26115,0.82934 0,0.46306 -0.13334,0.56816 -0.72087,0.56816 -0.97015,0 -1.50238,-0.22815 -1.50238,-0.644 0,-0.19488 -0.24763,-0.34412 -0.571,-0.34412 -0.31404,0 -0.78649,-0.19453 -1.04988,-0.43231 -0.2634,-0.23777 -0.81237,-0.59425 -1.21996,-0.79218 -0.4076,-0.19795 -0.90898,-0.49675 -1.11416,-0.66402 -0.32184,-0.26235 -2.76133,-0.86179 -7.53188,-1.85076 -0.67933,-0.14083 -1.62422,-0.34828 -2.09976,-0.46095 -0.47553,-0.1127 -1.35836,-0.28317 -1.96184,-0.37883 -1.32096,-0.20941 -1.7436,-0.58323 -1.7436,-1.54218 0,-1.01574 -0.48112,-2.27779 -0.86835,-2.27779 -0.26942,0 -0.83176,-1.19379 -1.25088,-2.65556 -0.0571,-0.19914 -0.57373,-0.30878 -1.45495,-0.30878 h -1.36641 v -7.4109 c 0,-7.2462 0.011,-7.41089 0.49405,-7.41089 0.47348,0 0.49407,-0.16468 0.49407,-3.95248 0,-2.2782 0.0975,-3.95247 0.23023,-3.95247 0.12664,0 1.22799,-0.87955 2.44744,-1.95455 1.21945,-1.07501 2.7555,-2.19624 3.41345,-2.49161 2.43192,-1.09177 15.10291,-5.1952 17.25318,-5.58736 3.23051,-0.58917 6.46184,-0.52062 7.61811,0.16159 0.85213,0.50276 0.90441,0.5072 0.90441,0.0768 0,-0.25124 -0.18114,-1.23489 -0.40253,-2.1859 -0.5588,-2.40022 -0.69161,-4.28083 -0.34774,-4.92337 0.42412,-0.79247 0.22973,-2.87004 -0.29961,-3.20195 -0.31381,-0.19677 -0.55079,-0.19669 -0.86461,2.5e-4 -0.59703,0.37472 -0.74406,2.84429 -0.19642,3.29881 0.25576,0.21226 0.36949,0.69397 0.34469,1.45991 -0.0246,0.76129 -0.072,0.91063 -0.14154,0.4471 -0.0868,-0.57812 -0.21658,-0.68879 -0.76584,-0.65316 -1.11605,0.0725 -1.27888,0.008 -1.27888,-0.50349 0,-0.34735 -0.16504,-0.49438 -0.55581,-0.49512 -0.3057,-4.9e-4 -1.12949,-0.43601 -1.83063,-0.9676 -1.96178,-1.48738 -1.81796,-1.44262 -7.24772,-2.25599 -1.01899,-0.15264 -2.39736,-0.38124 -3.06306,-0.508 -0.66568,-0.12675 -2.17377,-0.29884 -3.3513,-0.38242 -2.4166,-0.17155 -2.35259,-0.11239 -3.0056,-2.77787 -0.2139,-0.8731 -0.47474,-1.37342 -0.7541,-1.44649 -0.40213,-0.10511 -0.69998,-0.77128 -1.04831,-2.3446 -0.1436,-0.6486 -0.21724,-0.67934 -1.62788,-0.67934 h -1.47746 v -7.41086 -7.41089 h 0.61758 0.61757 l 0.0158,-3.89071 0.0157,-3.89073 1.15764,-0.95973 c 0.63671,-0.52786 1.72997,-1.46185 2.42946,-2.07553 0.6995,-0.61369 1.92229,-1.38291 2.71733,-1.70941 2.80541,-1.15205 15.33705,-5.26003 16.04609,-5.26003 0.39519,0 1.10685,-0.11802 1.58149,-0.26227 0.47464,-0.14426 2.00395,-0.26548 3.39847,-0.26941 2.11673,-0.005 2.67657,0.0761 3.38975,0.4969 0.97074,0.57276 1.21066,0.40476 0.87988,-0.61617 -0.12611,-0.38924 -0.29134,-1.20221 -0.36718,-1.80658 -0.0758,-0.60439 -0.24922,-1.21023 -0.3853,-1.34631 -0.40098,-0.40097 -0.30561,-3.00424 0.12308,-3.36002 0.53975,-0.44794 0.4864,-2.28888 -0.0813,-2.80255 -0.99548,-0.90091 -1.77151,-0.23465 -1.77151,1.52091 0,0.56453 0.15581,1.10343 0.37054,1.28164 0.2038,0.16914 0.37055,0.57183 0.37055,0.89486 0,0.48789 -0.12547,0.58732 -0.74109,0.58732 -0.41172,0 -0.96067,-0.21958 -1.23514,-0.49406 -0.27175,-0.27174 -0.55603,-0.49406 -0.63176,-0.49406 -0.0757,0 -0.88166,-0.52006 -1.79096,-1.15568 -1.43799,-1.00519 -1.95886,-1.21277 -4.00006,-1.59403 -1.29072,-0.24108 -3.56322,-0.66592 -5.05,-0.94407 -1.48676,-0.27815 -3.34127,-0.50571 -4.12109,-0.50571 -1.20095,0 -1.44189,-0.0756 -1.5747,-0.49407 -0.0862,-0.27173 -0.26048,-0.49406 -0.3872,-0.49406 -0.1267,0 -0.23099,-0.30569 -0.23176,-0.67933 -0.002,-1.09375 -0.48756,-2.53205 -0.85439,-2.53205 -0.27982,0 -0.83907,-1.17544 -1.26344,-2.65558 -0.0571,-0.19914 -0.57373,-0.30878 -1.45496,-0.30878 h -1.36641 v -7.4109 c 0,-7.24619 0.011,-7.41088 0.49406,-7.41088 0.47273,0 0.49446,-0.16787 0.50356,-3.89072 l 0.009,-3.89072 0.71677,-0.49405 c 0.39424,-0.27174 1.54296,-1.21663 2.5527,-2.09975 1.33686,-1.1692 2.33139,-1.79835 3.65849,-2.31438 1.98978,-0.77369 12.58316,-4.35462 14.17403,-4.79132 2.00062,-0.54917 4.75058,-0.8909 6.87375,-0.85418 1.76691,0.0305 2.34569,0.13999 3.05324,0.57729 l 0.87305,0.53959 -0.14061,-0.96328 c -0.0773,-0.52981 -0.26803,-1.5191 -0.42378,-2.19842 -0.45425,-1.98124 -0.55506,-3.84092 -0.24013,-4.42941 0.42414,-0.79246 0.22972,-2.87005 -0.2996,-3.20196 -0.31382,-0.19676 -0.5508,-0.19669 -0.8646,2.6e-4 -0.59703,0.37473 -0.74408,2.8443 -0.19642,3.29882 0.25573,0.21225 0.36946,0.69396 0.34467,1.45991 -0.0236,0.72818 -0.0744,0.89655 -0.13992,0.46381 -0.0788,-0.51934 -0.23972,-0.67933 -0.68386,-0.67933 -0.83724,3e-5 -1.36246,-0.24823 -1.36246,-0.64398 0,-0.18926 -0.16644,-0.34412 -0.36986,-0.34412 -0.20341,0 -1.031,-0.4867 -1.83907,-1.08157 -0.82992,-0.61096 -1.87824,-1.15101 -2.40924,-1.24112 -3.6067,-0.61214 -6.75547,-1.1971 -7.51659,-1.39642 -0.49219,-0.12889 -1.75779,-0.30728 -2.81242,-0.39643 -1.57452,-0.1331 -1.93881,-0.24348 -2.03651,-0.61708 -0.0655,-0.25025 -0.21717,-0.455 -0.33721,-0.455 -0.12,0 -0.21821,-0.22074 -0.21821,-0.49052 0,-1.07265 -0.59613,-2.68992 -1.03368,-2.80436 -0.2453,-0.0641 -0.48945,-0.26614 -0.54255,-0.44888 -0.0532,-0.18272 -0.22488,-0.80467 -0.38171,-1.38211 l -0.28515,-1.04987 h -1.47227 -1.47226 v -7.41088 -7.4109 h 0.61757 0.61757 l 0.013,-3.89072 0.013,-3.89072 1.52135,-1.23515 c 0.83673,-0.67933 1.97034,-1.63348 2.51911,-2.12036 0.54876,-0.48686 1.7759,-1.19348 2.72696,-1.57027 3.06358,-1.2137 14.97506,-5.0789 15.65185,-5.0789 0.36045,0 1.0437,-0.11841 1.51834,-0.26311 0.47464,-0.14472 2.0569,-0.26422 3.51615,-0.26557 2.33404,-0.003 2.74431,0.0625 3.41087,0.5371 0.94809,0.67509 1.1336,0.50261 0.76884,-0.71483 -0.15763,-0.52613 -0.28661,-1.28373 -0.28661,-1.68358 0,-0.39985 -0.1632,-0.94274 -0.36268,-1.20649 -0.50492,-0.66756 -0.51081,-3.28505 -0.008,-3.47805 0.45996,-0.17651 0.51875,-2.55964 0.074,-3.00429 -0.42352,-0.4235 -1.35313,-0.36619 -1.52985,0.0943 -0.24246,0.63182 -0.17169,2.77804 0.0971,2.94415 0.13588,0.084 0.24704,0.42403 0.24704,0.75566 0,0.47853 -0.1275,0.60299 -0.61758,0.60299 -0.33966,0 -0.61757,0.12839 -0.61757,0.28533 0,0.16179 -0.21388,0.0918 -0.49407,-0.1618 -0.27173,-0.24592 -0.49405,-0.59663 -0.49405,-0.77938 0,-0.18274 -0.21846,-0.33226 -0.48546,-0.33226 -0.267,0 -0.85062,-0.31279 -1.29692,-0.69506 -1.45218,-1.24397 -2.35755,-1.77523 -3.0252,-1.77523 -0.36043,0 -1.12141,-0.10258 -1.69107,-0.22786 -0.56968,-0.1253 -1.81389,-0.35121 -2.76495,-0.50197 -0.95108,-0.15076 -2.71646,-0.43731 -3.9231,-0.63677 -1.20662,-0.19942 -2.72763,-0.36261 -3.37999,-0.36261 -0.9692,0 -1.21483,-0.0903 -1.34296,-0.49406 -0.0862,-0.27173 -0.30257,-0.49407 -0.48072,-0.49407 -0.34742,0 -0.7493,-0.86383 -1.00564,-2.1615 -0.15752,-0.7975 -0.1683,-0.80284 -1.62113,-0.80284 h -1.46255 V 120.24268 103.8152 h 2.08256 c 1.97163,0 2.08679,0.0297 2.16151,0.55582 0.11445,0.80578 1.18998,0.9327 1.19212,0.14071 9.8e-4,-0.51439 0.47517,-0.75772 4.63181,-2.37875 2.54664,-0.99319 5.01934,-1.96174 5.49486,-2.152368 4.62702,-1.854874 12.93038,-5.058477 13.11104,-5.058477 0.1257,0 0.22857,0.222327 0.22857,0.494059 0,0.329366 0.16469,0.494059 0.49404,0.494059 0.47348,0 0.49407,-0.164693 0.49407,-3.952473 v -3.952475 h -74.76764 c -41.12219,0 -74.71698,0.05064 -74.65507,0.112549 0.10181,0.101844 3.12699,1.30982 12.07424,4.821347 8.53685,3.350462 10.15046,3.959171 10.49522,3.959171 0.28422,0 0.37408,0.29671 0.37408,1.235148 0,0.679331 -0.0524,1.235149 -0.1165,1.235149 -0.0641,0 -1.36536,-0.508292 -2.89177,-1.129517 -1.52641,-0.621231 -6.11507,-2.463872 -10.19701,-4.094789 -4.08193,-1.630918 -7.75519,-3.111216 -8.16278,-3.289545 -0.4076,-0.178355 -0.99121,-0.399693 -1.2969,-0.49191 -0.4676,-0.141033 -0.55582,-0.341422 -0.55582,-1.262616 0,-1.003291 -0.0517,-1.094987 -0.61757,-1.094987 h -0.61758 z m 149.94701,-2.7441 c 0,0.839722 -0.0849,0.982629 -0.67075,1.129687 -0.36894,0.0926 -1.14098,0.382553 -1.71567,0.644356 -0.57469,0.261797 -1.13437,0.479779 -1.24372,0.484371 -0.10939,0.0048 -0.64349,0.22317 -1.18694,0.485686 -0.54347,0.262518 -1.06137,0.481064 -1.1509,0.485689 -0.16508,0.0083 -12.02125,4.764803 -12.92979,5.187005 -0.67328,0.312863 -4.33475,1.738195 -4.46521,1.738195 -0.0577,0 -0.10324,-0.472443 -0.10126,-1.049875 l 0.003,-1.049875 1.5403,-0.586003 c 0.84717,-0.322299 3.93031,-1.520716 6.85144,-2.663152 2.92113,-1.142443 6.47836,-2.527807 7.90495,-3.078606 1.4266,-0.550807 3.48312,-1.373264 4.57006,-1.827676 1.08692,-0.454437 2.11518,-0.834096 2.28502,-0.843703 0.19711,-0.0111 0.30878,0.330203 0.30878,0.943901 z m -0.0454,4.0792 c -0.0429,0.02772 -2.96841,1.201203 -6.50092,2.607742 -3.53253,1.406559 -6.86743,2.749021 -7.4109,2.983279 -0.54347,0.234254 -1.26602,0.508333 -1.60569,0.609074 -0.33966,0.100767 -0.72874,0.266272 -0.86461,0.36781 -0.13585,0.101525 -0.69168,0.324712 -1.23514,0.496002 -0.54348,0.17129 -1.09928,0.39448 -1.23516,0.49601 -0.13585,0.10152 -0.52492,0.26704 -0.8646,0.36781 -0.33966,0.10071 -1.06222,0.37901 -1.60569,0.61836 -2.03163,0.89479 -2.09975,0.88865 -2.09975,-0.18877 v -0.96318 l 3.02611,-1.184608 c 1.66437,-0.65154 4.58241,-1.7899 6.48453,-2.529707 4.06059,-1.579281 5.74326,-2.244037 6.42277,-2.53729 0.27174,-0.117289 2.05035,-0.81023 3.95248,-1.539879 l 3.4584,-1.326625 0.0781,0.836786 c 0.0429,0.460245 0.0429,0.859465 0,0.887186 z M 304.17258,92.967961 c 1.80182,0.691388 3.62631,1.41395 4.05445,1.605692 0.42813,0.191723 0.85597,0.348588 0.95077,0.348588 0.0948,0 0.52267,0.15748 0.95079,0.349944 0.42813,0.192483 2.39029,0.975863 4.36035,1.740865 1.97006,0.764976 4.8881,1.905361 6.48453,2.534154 l 2.90259,1.143246 v 0.96152 c 0,1.07554 -0.0686,1.08164 -2.09974,0.1871 -0.54347,-0.23935 -1.26603,-0.51762 -1.60569,-0.61836 -0.33967,-0.10077 -0.72875,-0.26628 -0.8646,-0.36781 -0.13588,-0.10153 -0.69169,-0.32472 -1.23516,-0.49601 -0.54346,-0.17129 -1.09929,-0.394474 -1.23514,-0.496002 -0.13587,-0.101536 -0.52494,-0.267044 -0.8646,-0.36781 -0.33967,-0.100745 -1.06224,-0.37482 -1.6057,-0.609074 -0.54347,-0.234258 -3.85058,-1.572788 -7.34913,-2.97451 l -6.36102,-2.548605 v -0.825031 c 0,-0.453746 0.0543,-0.825004 0.12065,-0.825004 0.0663,0 1.59484,0.565698 3.39665,1.257107 z m 25.13786,5.350936 2.8e-4,1.296906 h -2.09974 -2.09976 v -1.19397 c 0,-0.656701 0.0737,-1.267757 0.16394,-1.357922 0.0902,-0.09017 1.03491,-0.136483 2.09946,-0.102931 l 1.93553,0.061 2.5e-4,1.296906 z m 95.30488,0 0.0747,1.296906 h -2.11267 -2.11265 V 98.258547 96.90129 l 2.03799,0.06032 2.03799,0.06032 z m -95.3046,3.396663 v 1.11163 h -2.09974 -2.09976 v -1.11163 -1.11164 h 2.09976 2.09974 z m 95.35344,0 v 1.11163 h -2.09974 -2.09976 v -1.11163 -1.11164 h 2.09976 2.09974 z m -95.3534,36.93093 v 0.98812 h -1.09106 c -1.17345,0 -1.33979,-0.17981 -1.1791,-1.27468 0.0952,-0.64845 0.185,-0.70157 1.18657,-0.70157 h 1.08359 z m 93.4241,-0.28656 c 0.1607,1.09487 -0.004,1.27468 -1.17911,1.27468 h -1.09105 v -0.98812 -0.98813 h 1.0836 c 1.00157,0 1.0914,0.0531 1.18656,0.70157 z m -94.22041,2.44237 c -0.5059,0.053 -1.39521,0.0538 -1.97623,0.003 -0.58104,-0.0522 -0.16711,-0.0957 0.91983,-0.0965 1.08692,0 1.5623,0.0419 1.0564,0.0949 z m 7.21907,45.27387 v 0.98813 h -1.09498 c -0.87803,0 -1.12604,-0.098 -1.2518,-0.49406 -0.32279,-1.01705 0.0701,-1.48218 1.2518,-1.48218 h 1.09498 z m 80.65519,-0.49405 c 0.3228,1.01705 -0.0701,1.48218 -1.2518,1.48218 h -1.09497 v -0.98813 -0.98811 h 1.09497 c 0.87804,0 1.12606,0.098 1.2518,0.49406 z m -80.65519,3.58192 v 1.11164 h -2.13062 -2.13064 l 0.1544,-0.77197 c 0.085,-0.42457 0.1544,-0.92481 0.1544,-1.11164 0,-0.25988 0.46412,-0.33965 1.97624,-0.33965 h 1.97622 z m 82.26089,-0.77197 c 0,0.18683 0.0694,0.68707 0.1544,1.11164 l 0.15438,0.77197 h -2.13063 -2.13062 v -1.11164 -1.11162 h 1.97623 c 1.51212,0 1.97624,0.0798 1.97624,0.33965 z m -86.02808,3.04202 c -0.23777,0.062 -0.62683,0.062 -0.86461,0 -0.23776,-0.0622 -0.0433,-0.11298 0.4323,-0.11298 0.47554,0 0.67009,0.0508 0.43231,0.11298 z m 9.94295,45.29736 v 1.00232 l -1.04988,-0.076 c -1.02973,-0.0745 -1.05036,-0.0937 -1.07539,-1.00233 l -0.0255,-0.92636 h 1.07539 1.07538 z m 68.13333,-0.076 c -0.0744,0.89921 -0.10741,0.9286 -1.12654,1.00233 l -1.04988,0.076 v -1.00232 -1.00231 h 1.12654 1.12655 z m -68.13333,3.14963 v 1.11164 h -1.97624 -1.97625 v -0.72089 c 0,-1.40099 0.1435,-1.50238 2.12618,-1.50238 h 1.82631 z m 69.75944,-0.72087 c 0.0825,0.21491 0.14995,0.71514 0.14995,1.11162 v 0.72089 h -1.97625 -1.97623 v -1.11164 -1.11163 h 1.82629 c 1.43746,0 1.85823,0.0832 1.97624,0.39076 z m -63.33668,48.27408 v 0.98812 h -1.11164 c -1.07661,0 -1.17339,-0.0713 -1.17339,-0.86461 0,-1.05932 0.0553,-1.11163 1.17339,-1.11163 h 1.11164 z m 55.43115,-0.39017 c 0.26064,1.03842 -0.0437,1.37829 -1.23457,1.37829 h -1.08521 v -0.98812 -0.98812 h 1.08485 c 0.94165,0 1.10467,0.079 1.23493,0.59795 z m -55.43115,3.47804 v 1.11163 h -2.09976 c -1.15486,0 -2.09913,-0.0834 -2.09837,-0.18527 6.8e-4,-0.10192 0.11715,-0.60214 0.25864,-1.11163 l 0.25728,-0.92637 h 1.84108 1.84113 z m 57.06385,-0.77197 c 0,0.18681 0.0695,0.68705 0.15439,1.11164 l 0.1544,0.77196 h -2.13064 -2.13063 v -1.11163 -1.11164 h 1.97623 c 1.51213,0 1.97625,0.0799 1.97625,0.33967 z m -52.12326,48.33938 v 1.00233 l -1.04987,-0.076 c -1.02973,-0.0745 -1.05038,-0.0938 -1.0754,-1.00234 l -0.0255,-0.92636 h 1.07538 1.07538 z m 45.40661,-0.076 c -0.0743,0.89921 -0.10741,0.92859 -1.12654,1.00233 l -1.04987,0.076 v -1.00231 -1.00234 h 1.12653 1.12654 z m -45.40661,3.14965 v 1.11162 h -1.97624 -1.97623 v -0.72089 c 0,-1.40098 0.14349,-1.50238 2.12618,-1.50238 h 1.82629 z m 47.03272,-0.7209 c 0.0824,0.21491 0.14995,0.71514 0.14995,1.11163 v 0.72089 h -1.97624 -1.97623 v -1.11162 -1.11165 h 1.82628 c 1.43745,0 1.85822,0.0833 1.97624,0.39075 z"
       style="fill:#000000;stroke-width:0.24702965"
       inkscape:connector-curvature="0" /><rect
       transform="scale(1,-1)"
       y="-88.076271"
       x="20.485283"
       height="87"
       width="504"
       id="rect163"
       style="fill:#000000;stroke:none;stroke-width:4.56597519;stroke-miterlimit:4;stroke-dasharray:none;stroke-opacity:1" /><path
       style="color:#000000;display:inline;overflow:visible;visibility:visible;fill:#000000;fill-opacity:1;fill-rule:nonzero;stroke:none;stroke-width:0.28426215;stroke-linecap:butt;stroke-linejoin:miter;stroke-miterlimit:4;stroke-dashoffset:0;stroke-opacity:1;marker:none;marker-start:none;marker-mid:none;marker-end:none"
       d="m 98.830318,219.0475 c -0.41872,-0.018 -0.783428,-0.11541 -1.04807,-0.32867 -3.202506,-2.57962 -1.226031,-4.87688 -1.226031,-4.87688 0,0 5.280463,-5.27407 5.889633,-9.13193 0.60918,-3.85782 0.81726,-8.73344 7.92381,-11.77908 7.10656,-3.04567 6.49368,-6.69793 6.49368,-6.69793 0,0 -1.62427,-4.46954 7.10655,-4.67255 4.66958,0.0272 9.33888,0.0386 14.00873,0.0444 1.75163,-3.25474 6.54344,-4.87688 2.99358,-4.87685 -3.87052,0 -4.59255,-3.38451 -4.59255,-3.38451 h -14.90586 c 0,0 -0.73737,0.11533 -0.73737,0.85279 0,0.73746 -1.37697,0.73732 -1.37697,0.73732 0,0 -2.39832,0.18568 -2.39832,-1.01269 0,-1.19839 0,-12.99612 0,-12.99612 0,0 -0.37153,-2.76265 2.76246,-2.76265 3.13428,0 20.92881,0 20.92881,0 v -12.35654 c 0,0 -3.40944,-0.27071 -5.16107,-1.37689 -1.75134,-1.1062 -1.8423,-1.57421 -1.01254,-3.23347 0.82947,-1.6593 3.87307,-7.46111 3.87307,-11.14843 0,-3.6873 0,-54.116398 0,-54.116398 0,0 -0.28171,-4.743627 5.75631,-4.743627 6.96044,0 6.68015,4.37943 6.68015,4.37943 v 82.409335 h 53.53879 V 75.566208 c 0,0 -0.28,-4.37943 6.68017,-4.37943 6.03801,0 5.7654,4.743627 5.7654,4.743627 0,0 0,50.429095 0,54.116395 0,3.68732 3.04331,9.48913 3.87307,11.14843 0.82948,1.65926 0.7388,2.12727 -1.01282,3.23348 -1.75135,1.10618 -5.16988,1.37689 -5.16988,1.37689 v 12.35653 c 0,0 17.79453,0 20.9288,0 3.13399,0 2.76246,2.76265 2.76246,2.76265 0,0 0,11.79774 0,12.99612 0,1.19838 -2.38951,1.01269 -2.38951,1.01269 0,0 -1.38577,1.4e-4 -1.38577,-0.73732 0,-0.73746 -0.73737,-0.85279 -0.73737,-0.85279 h -14.90587 c 0,0 -0.72202,3.38449 -4.59253,3.38451 -3.50382,0 1.11771,1.58159 2.92249,4.7525 4.69346,0.0161 9.38663,0.0384 14.0798,0.08 8.73082,0.20301 7.10655,4.67256 7.10655,4.67256 0,0 -0.60406,3.65226 6.50249,6.69793 7.10656,3.04563 7.30583,7.92125 7.915,11.77907 0.60918,3.85787 5.88963,9.13193 5.88963,9.13193 0,0 1.98529,2.29727 -1.21721,4.87688 -1.41193,1.13739 -5.68525,-1.01268 -5.68525,-1.01268 -30.16476,-16.96437 -122.83764,-16.78414 -148.18927,0 0,0 -2.82187,1.41853 -4.637172,1.34136 z m 56.328542,-37.45152 c 5.02689,-0.012 10.05634,-0.0258 15.08352,-0.0445 v -9.66492 h -12.0277 c 0,0 -2.17006,4.84136 -6.04057,4.84136 -3.54589,-3e-5 1.22829,1.62024 2.98475,4.86798 z m 29.72302,-0.0978 c 5.04935,-0.0165 10.0967,-0.0299 15.14577,-0.0354 1.81331,-3.15934 6.42005,-4.73472 2.92278,-4.73472 -3.87051,-2e-5 -6.04967,-4.84135 -6.04967,-4.84135 h -12.01888 z"
       id="path2051"
       inkscape:connector-curvature="0" /></g></svg>