solid OpenSCAD_Model
  facet normal -0.707107 0 0.707107
    outer loop
      vertex -29.7 45 0.3
      vertex -28.5 -45 1.5
      vertex -28.5 45 1.5
    endloop
  endfacet
  facet normal -0.707107 0 0.707107
    outer loop
      vertex -28.5 -45 1.5
      vertex -29.7 45 0.3
      vertex -29.7 -45 0.3
    endloop
  endfacet
  facet normal 0 1 0
    outer loop
      vertex 28.5 45 0
      vertex 28.5 45 1.5
      vertex 29.7 45 0.3
    endloop
  endfacet
  facet normal 0 1 0
    outer loop
      vertex 28.5 45 1.5
      vertex 28.5 45 0
      vertex -28.5 45 1.5
    endloop
  endfacet
  facet normal 0 1 0
    outer loop
      vertex 28.5 45 0
      vertex 29.7 45 0.3
      vertex 29.7 45 0
    endloop
  endfacet
  facet normal 0 1 0
    outer loop
      vertex -28.5 45 0
      vertex -28.5 45 1.5
      vertex 28.5 45 0
    endloop
  endfacet
  facet normal 0 1 0
    outer loop
      vertex -28.5 45 1.5
      vertex -28.5 45 0
      vertex -29.7 45 0.3
    endloop
  endfacet
  facet normal 0 1 0
    outer loop
      vertex -29.7 45 0.3
      vertex -28.5 45 0
      vertex -29.7 45 0
    endloop
  endfacet
  facet normal 0 -1 0
    outer loop
      vertex -28.5 -45 0
      vertex -28.5 -45 1.5
      vertex -29.7 -45 0.3
    endloop
  endfacet
  facet normal 0 -1 0
    outer loop
      vertex -28.5 -45 1.5
      vertex -28.5 -45 0
      vertex 28.5 -45 1.5
    endloop
  endfacet
  facet normal 0 -1 0
    outer loop
      vertex -28.5 -45 0
      vertex -29.7 -45 0.3
      vertex -29.7 -45 0
    endloop
  endfacet
  facet normal 0 -1 0
    outer loop
      vertex 28.5 -45 0
      vertex 28.5 -45 1.5
      vertex -28.5 -45 0
    endloop
  endfacet
  facet normal 0 -1 0
    outer loop
      vertex 28.5 -45 1.5
      vertex 28.5 -45 0
      vertex 29.7 -45 0.3
    endloop
  endfacet
  facet normal 0 -1 -0
    outer loop
      vertex 29.7 -45 0.3
      vertex 28.5 -45 0
      vertex 29.7 -45 0
    endloop
  endfacet
  facet normal 0 0 -1
    outer loop
      vertex -28.5 -45 0
      vertex 28.5 45 0
      vertex 28.5 -45 0
    endloop
  endfacet
  facet normal -0 0 -1
    outer loop
      vertex 28.5 45 0
      vertex -28.5 -45 0
      vertex -28.5 45 0
    endloop
  endfacet
  facet normal 0 0 -1
    outer loop
      vertex 28.5 -45 0
      vertex 29.7 45 0
      vertex 29.7 -45 0
    endloop
  endfacet
  facet normal -0 0 -1
    outer loop
      vertex 29.7 45 0
      vertex 28.5 -45 0
      vertex 28.5 45 0
    endloop
  endfacet
  facet normal 0 0 -1
    outer loop
      vertex -29.7 -45 0
      vertex -28.5 45 0
      vertex -28.5 -45 0
    endloop
  endfacet
  facet normal -0 0 -1
    outer loop
      vertex -28.5 45 0
      vertex -29.7 -45 0
      vertex -29.7 45 0
    endloop
  endfacet
  facet normal -1 0 0
    outer loop
      vertex -29.7 -45 0
      vertex -29.7 45 0.3
      vertex -29.7 45 0
    endloop
  endfacet
  facet normal -1 -0 0
    outer loop
      vertex -29.7 45 0.3
      vertex -29.7 -45 0
      vertex -29.7 -45 0.3
    endloop
  endfacet
  facet normal 0.707107 0 0.707107
    outer loop
      vertex 28.5 45 1.5
      vertex 29.7 -45 0.3
      vertex 29.7 45 0.3
    endloop
  endfacet
  facet normal 0.707107 0 0.707107
    outer loop
      vertex 29.7 -45 0.3
      vertex 28.5 45 1.5
      vertex 28.5 -45 1.5
    endloop
  endfacet
  facet normal 1 -0 0
    outer loop
      vertex 29.7 -45 0.3
      vertex 29.7 45 0
      vertex 29.7 45 0.3
    endloop
  endfacet
  facet normal 1 0 0
    outer loop
      vertex 29.7 45 0
      vertex 29.7 -45 0.3
      vertex 29.7 -45 0
    endloop
  endfacet
  facet normal -0 0 1
    outer loop
      vertex -26 -9.25 1.5
      vertex -18.75 -10.75 1.5
      vertex -18.75 -9.25 1.5
    endloop
  endfacet
  facet normal 0 0 1
    outer loop
      vertex -18.75 -10.75 1.5
      vertex -26 -9.25 1.5
      vertex -26 -10.75 1.5
    endloop
  endfacet
  facet normal -0 0 1
    outer loop
      vertex -26 10.75 1.5
      vertex -18.75 9.25 1.5
      vertex -18.75 10.75 1.5
    endloop
  endfacet
  facet normal 0 0 1
    outer loop
      vertex -18.75 9.25 1.5
      vertex -26 10.75 1.5
      vertex -26 9.25 1.5
    endloop
  endfacet
  facet normal 0 0 1
    outer loop
      vertex -18.75 10.75 1.5
      vertex -17.25 10.75 1.5
      vertex -17.25 15 1.5
    endloop
  endfacet
  facet normal 0 0 1
    outer loop
      vertex -17.25 10.75 1.5
      vertex -18.75 10.75 1.5
      vertex -17.25 9.25 1.5
    endloop
  endfacet
  facet normal 0 0 1
    outer loop
      vertex -17.25 9.25 1.5
      vertex -18.75 9.25 1.5
      vertex -17.25 -9.25 1.5
    endloop
  endfacet
  facet normal 0 0 1
    outer loop
      vertex -18.75 -9.25 1.5
      vertex -17.25 -9.25 1.5
      vertex -18.75 9.25 1.5
    endloop
  endfacet
  facet normal 0 0 1
    outer loop
      vertex -18.75 10.75 1.5
      vertex -17.25 15 1.5
      vertex -18.75 15 1.5
    endloop
  endfacet
  facet normal 0 0 1
    outer loop
      vertex -17.25 9.25 1.5
      vertex -18.75 10.75 1.5
      vertex -18.75 9.25 1.5
    endloop
  endfacet
  facet normal 0 0 1
    outer loop
      vertex -17.25 -9.25 1.5
      vertex -18.75 -9.25 1.5
      vertex -17.25 -10.75 1.5
    endloop
  endfacet
  facet normal 0 0 1
    outer loop
      vertex -18.75 -10.75 1.5
      vertex -17.25 -10.75 1.5
      vertex -18.75 -9.25 1.5
    endloop
  endfacet
  facet normal 0 0 1
    outer loop
      vertex -17.25 -10.75 1.5
      vertex -18.75 -10.75 1.5
      vertex -17.25 -15 1.5
    endloop
  endfacet
  facet normal 0 0 1
    outer loop
      vertex -17.25 -15 1.5
      vertex -18.75 -10.75 1.5
      vertex -18.75 -15 1.5
    endloop
  endfacet
  facet normal -0 0 1
    outer loop
      vertex -17.25 -9.25 1.5
      vertex -14.75 -10.75 1.5
      vertex -14.75 -9.25 1.5
    endloop
  endfacet
  facet normal 0 0 1
    outer loop
      vertex -14.75 -10.75 1.5
      vertex -17.25 -9.25 1.5
      vertex -17.25 -10.75 1.5
    endloop
  endfacet
  facet normal -0 0 1
    outer loop
      vertex -17.25 10.75 1.5
      vertex -14.75 9.25 1.5
      vertex -14.75 10.75 1.5
    endloop
  endfacet
  facet normal 0 0 1
    outer loop
      vertex -14.75 9.25 1.5
      vertex -17.25 10.75 1.5
      vertex -17.25 9.25 1.5
    endloop
  endfacet
  facet normal 0 0 1
    outer loop
      vertex -14.75 10.75 1.5
      vertex -13.25 10.75 1.5
      vertex -13.25 15 1.5
    endloop
  endfacet
  facet normal 0 0 1
    outer loop
      vertex -13.25 10.75 1.5
      vertex -14.75 10.75 1.5
      vertex -13.25 9.25 1.5
    endloop
  endfacet
  facet normal 0 0 1
    outer loop
      vertex -13.25 9.25 1.5
      vertex -14.75 9.25 1.5
      vertex -13.25 -9.25 1.5
    endloop
  endfacet
  facet normal 0 0 1
    outer loop
      vertex -14.75 -9.25 1.5
      vertex -13.25 -9.25 1.5
      vertex -14.75 9.25 1.5
    endloop
  endfacet
  facet normal 0 0 1
    outer loop
      vertex -14.75 10.75 1.5
      vertex -13.25 15 1.5
      vertex -14.75 15 1.5
    endloop
  endfacet
  facet normal 0 0 1
    outer loop
      vertex -13.25 9.25 1.5
      vertex -14.75 10.75 1.5
      vertex -14.75 9.25 1.5
    endloop
  endfacet
  facet normal 0 0 1
    outer loop
      vertex -13.25 -9.25 1.5
      vertex -14.75 -9.25 1.5
      vertex -13.25 -10.75 1.5
    endloop
  endfacet
  facet normal 0 0 1
    outer loop
      vertex -14.75 -10.75 1.5
      vertex -13.25 -10.75 1.5
      vertex -14.75 -9.25 1.5
    endloop
  endfacet
  facet normal 0 0 1
    outer loop
      vertex -13.25 -10.75 1.5
      vertex -14.75 -10.75 1.5
      vertex -13.25 -15 1.5
    endloop
  endfacet
  facet normal 0 0 1
    outer loop
      vertex -13.25 -15 1.5
      vertex -14.75 -10.75 1.5
      vertex -14.75 -15 1.5
    endloop
  endfacet
  facet normal -0 0 1
    outer loop
      vertex -13.25 -9.25 1.5
      vertex -10.75 -10.75 1.5
      vertex -10.75 -9.25 1.5
    endloop
  endfacet
  facet normal 0 0 1
    outer loop
      vertex -10.75 -10.75 1.5
      vertex -13.25 -9.25 1.5
      vertex -13.25 -10.75 1.5
    endloop
  endfacet
  facet normal -0 0 1
    outer loop
      vertex -13.25 10.75 1.5
      vertex -10.75 9.25 1.5
      vertex -10.75 10.75 1.5
    endloop
  endfacet
  facet normal 0 0 1
    outer loop
      vertex -10.75 9.25 1.5
      vertex -13.25 10.75 1.5
      vertex -13.25 9.25 1.5
    endloop
  endfacet
  facet normal 0 0 1
    outer loop
      vertex -10.75 10.75 1.5
      vertex -9.25 10.75 1.5
      vertex -9.25 15 1.5
    endloop
  endfacet
  facet normal 0 0 1
    outer loop
      vertex -9.25 10.75 1.5
      vertex -10.75 10.75 1.5
      vertex -9.25 9.25 1.5
    endloop
  endfacet
  facet normal 0 0 1
    outer loop
      vertex -9.25 9.25 1.5
      vertex -10.75 9.25 1.5
      vertex -9.25 -9.25 1.5
    endloop
  endfacet
  facet normal 0 0 1
    outer loop
      vertex -10.75 -9.25 1.5
      vertex -9.25 -9.25 1.5
      vertex -10.75 9.25 1.5
    endloop
  endfacet
  facet normal 0 0 1
    outer loop
      vertex -10.75 10.75 1.5
      vertex -9.25 15 1.5
      vertex -10.75 15 1.5
    endloop
  endfacet
  facet normal 0 0 1
    outer loop
      vertex -9.25 9.25 1.5
      vertex -10.75 10.75 1.5
      vertex -10.75 9.25 1.5
    endloop
  endfacet
  facet normal 0 0 1
    outer loop
      vertex -9.25 -9.25 1.5
      vertex -10.75 -9.25 1.5
      vertex -9.25 -10.75 1.5
    endloop
  endfacet
  facet normal 0 0 1
    outer loop
      vertex -10.75 -10.75 1.5
      vertex -9.25 -10.75 1.5
      vertex -10.75 -9.25 1.5
    endloop
  endfacet
  facet normal 0 0 1
    outer loop
      vertex -9.25 -10.75 1.5
      vertex -10.75 -10.75 1.5
      vertex -9.25 -15 1.5
    endloop
  endfacet
  facet normal 0 0 1
    outer loop
      vertex -9.25 -15 1.5
      vertex -10.75 -10.75 1.5
      vertex -10.75 -15 1.5
    endloop
  endfacet
  facet normal -0 0 1
    outer loop
      vertex -9.25 -9.25 1.5
      vertex -6.75 -10.75 1.5
      vertex -6.75 -9.25 1.5
    endloop
  endfacet
  facet normal 0 0 1
    outer loop
      vertex -6.75 -10.75 1.5
      vertex -9.25 -9.25 1.5
      vertex -9.25 -10.75 1.5
    endloop
  endfacet
  facet normal -0 0 1
    outer loop
      vertex -9.25 10.75 1.5
      vertex -6.75 9.25 1.5
      vertex -6.75 10.75 1.5
    endloop
  endfacet
  facet normal 0 0 1
    outer loop
      vertex -6.75 9.25 1.5
      vertex -9.25 10.75 1.5
      vertex -9.25 9.25 1.5
    endloop
  endfacet
  facet normal 0 0 1
    outer loop
      vertex -6.75 10.75 1.5
      vertex -5.25 10.75 1.5
      vertex -5.25 15 1.5
    endloop
  endfacet
  facet normal 0 0 1
    outer loop
      vertex -5.25 10.75 1.5
      vertex -6.75 10.75 1.5
      vertex -5.25 9.25 1.5
    endloop
  endfacet
  facet normal 0 0 1
    outer loop
      vertex -5.25 9.25 1.5
      vertex -6.75 9.25 1.5
      vertex -5.25 -9.25 1.5
    endloop
  endfacet
  facet normal 0 0 1
    outer loop
      vertex -6.75 -9.25 1.5
      vertex -5.25 -9.25 1.5
      vertex -6.75 9.25 1.5
    endloop
  endfacet
  facet normal 0 0 1
    outer loop
      vertex -6.75 10.75 1.5
      vertex -5.25 15 1.5
      vertex -6.75 15 1.5
    endloop
  endfacet
  facet normal 0 0 1
    outer loop
      vertex -5.25 9.25 1.5
      vertex -6.75 10.75 1.5
      vertex -6.75 9.25 1.5
    endloop
  endfacet
  facet normal 0 0 1
    outer loop
      vertex -5.25 -9.25 1.5
      vertex -6.75 -9.25 1.5
      vertex -5.25 -10.75 1.5
    endloop
  endfacet
  facet normal 0 0 1
    outer loop
      vertex -6.75 -10.75 1.5
      vertex -5.25 -10.75 1.5
      vertex -6.75 -9.25 1.5
    endloop
  endfacet
  facet normal 0 0 1
    outer loop
      vertex -5.25 -10.75 1.5
      vertex -6.75 -10.75 1.5
      vertex -5.25 -15 1.5
    endloop
  endfacet
  facet normal 0 0 1
    outer loop
      vertex -5.25 -15 1.5
      vertex -6.75 -10.75 1.5
      vertex -6.75 -15 1.5
    endloop
  endfacet
  facet normal -0 0 1
    outer loop
      vertex -5.25 -9.25 1.5
      vertex -2.75 -10.75 1.5
      vertex -2.75 -9.25 1.5
    endloop
  endfacet
  facet normal 0 0 1
    outer loop
      vertex -2.75 -10.75 1.5
      vertex -5.25 -9.25 1.5
      vertex -5.25 -10.75 1.5
    endloop
  endfacet
  facet normal -0 0 1
    outer loop
      vertex -5.25 10.75 1.5
      vertex -2.75 9.25 1.5
      vertex -2.75 10.75 1.5
    endloop
  endfacet
  facet normal 0 0 1
    outer loop
      vertex -2.75 9.25 1.5
      vertex -5.25 10.75 1.5
      vertex -5.25 9.25 1.5
    endloop
  endfacet
  facet normal 0 0 1
    outer loop
      vertex -2.75 10.75 1.5
      vertex -1.25 10.75 1.5
      vertex -1.25 15 1.5
    endloop
  endfacet
  facet normal 0 0 1
    outer loop
      vertex -1.25 10.75 1.5
      vertex -2.75 10.75 1.5
      vertex -1.25 9.25 1.5
    endloop
  endfacet
  facet normal 0 0 1
    outer loop
      vertex -1.25 9.25 1.5
      vertex -2.75 9.25 1.5
      vertex -1.25 -9.25 1.5
    endloop
  endfacet
  facet normal 0 0 1
    outer loop
      vertex -2.75 -9.25 1.5
      vertex -1.25 -9.25 1.5
      vertex -2.75 9.25 1.5
    endloop
  endfacet
  facet normal 0 0 1
    outer loop
      vertex -2.75 10.75 1.5
      vertex -1.25 15 1.5
      vertex -2.75 15 1.5
    endloop
  endfacet
  facet normal 0 0 1
    outer loop
      vertex -1.25 9.25 1.5
      vertex -2.75 10.75 1.5
      vertex -2.75 9.25 1.5
    endloop
  endfacet
  facet normal 0 0 1
    outer loop
      vertex -1.25 -9.25 1.5
      vertex -2.75 -9.25 1.5
      vertex -1.25 -10.75 1.5
    endloop
  endfacet
  facet normal 0 0 1
    outer loop
      vertex -2.75 -10.75 1.5
      vertex -1.25 -10.75 1.5
      vertex -2.75 -9.25 1.5
    endloop
  endfacet
  facet normal 0 0 1
    outer loop
      vertex -1.25 -10.75 1.5
      vertex -2.75 -10.75 1.5
      vertex -1.25 -15 1.5
    endloop
  endfacet
  facet normal 0 0 1
    outer loop
      vertex -1.25 -15 1.5
      vertex -2.75 -10.75 1.5
      vertex -2.75 -15 1.5
    endloop
  endfacet
  facet normal -0 0 1
    outer loop
      vertex -1.25 -9.25 1.5
      vertex 1.25 -10.75 1.5
      vertex 1.25 -9.25 1.5
    endloop
  endfacet
  facet normal 0 0 1
    outer loop
      vertex 1.25 -10.75 1.5
      vertex -1.25 -9.25 1.5
      vertex -1.25 -10.75 1.5
    endloop
  endfacet
  facet normal -0 0 1
    outer loop
      vertex -1.25 10.75 1.5
      vertex 1.25 9.25 1.5
      vertex 1.25 10.75 1.5
    endloop
  endfacet
  facet normal 0 0 1
    outer loop
      vertex 1.25 9.25 1.5
      vertex -1.25 10.75 1.5
      vertex -1.25 9.25 1.5
    endloop
  endfacet
  facet normal 0 0 1
    outer loop
      vertex 1.25 10.75 1.5
      vertex 2.75 10.75 1.5
      vertex 2.75 15 1.5
    endloop
  endfacet
  facet normal 0 0 1
    outer loop
      vertex 2.75 10.75 1.5
      vertex 1.25 10.75 1.5
      vertex 2.75 9.25 1.5
    endloop
  endfacet
  facet normal 0 0 1
    outer loop
      vertex 2.75 9.25 1.5
      vertex 1.25 9.25 1.5
      vertex 2.75 -9.25 1.5
    endloop
  endfacet
  facet normal 0 0 1
    outer loop
      vertex 1.25 -9.25 1.5
      vertex 2.75 -9.25 1.5
      vertex 1.25 9.25 1.5
    endloop
  endfacet
  facet normal 0 0 1
    outer loop
      vertex 1.25 10.75 1.5
      vertex 2.75 15 1.5
      vertex 1.25 15 1.5
    endloop
  endfacet
  facet normal 0 0 1
    outer loop
      vertex 2.75 9.25 1.5
      vertex 1.25 10.75 1.5
      vertex 1.25 9.25 1.5
    endloop
  endfacet
  facet normal 0 0 1
    outer loop
      vertex 2.75 -9.25 1.5
      vertex 1.25 -9.25 1.5
      vertex 2.75 -10.75 1.5
    endloop
  endfacet
  facet normal 0 0 1
    outer loop
      vertex 1.25 -10.75 1.5
      vertex 2.75 -10.75 1.5
      vertex 1.25 -9.25 1.5
    endloop
  endfacet
  facet normal 0 0 1
    outer loop
      vertex 2.75 -10.75 1.5
      vertex 1.25 -10.75 1.5
      vertex 2.75 -15 1.5
    endloop
  endfacet
  facet normal 0 0 1
    outer loop
      vertex 2.75 -15 1.5
      vertex 1.25 -10.75 1.5
      vertex 1.25 -15 1.5
    endloop
  endfacet
  facet normal -0 0 1
    outer loop
      vertex 2.75 -9.25 1.5
      vertex 5.25 -10.75 1.5
      vertex 5.25 -9.25 1.5
    endloop
  endfacet
  facet normal 0 0 1
    outer loop
      vertex 5.25 -10.75 1.5
      vertex 2.75 -9.25 1.5
      vertex 2.75 -10.75 1.5
    endloop
  endfacet
  facet normal -0 0 1
    outer loop
      vertex 2.75 10.75 1.5
      vertex 5.25 9.25 1.5
      vertex 5.25 10.75 1.5
    endloop
  endfacet
  facet normal 0 0 1
    outer loop
      vertex 5.25 9.25 1.5
      vertex 2.75 10.75 1.5
      vertex 2.75 9.25 1.5
    endloop
  endfacet
  facet normal 0 0 1
    outer loop
      vertex 5.25 10.75 1.5
      vertex 6.75 10.75 1.5
      vertex 6.75 15 1.5
    endloop
  endfacet
  facet normal 0 0 1
    outer loop
      vertex 6.75 10.75 1.5
      vertex 5.25 10.75 1.5
      vertex 6.75 9.25 1.5
    endloop
  endfacet
  facet normal 0 0 1
    outer loop
      vertex 6.75 9.25 1.5
      vertex 5.25 9.25 1.5
      vertex 6.75 -9.25 1.5
    endloop
  endfacet
  facet normal 0 0 1
    outer loop
      vertex 5.25 -9.25 1.5
      vertex 6.75 -9.25 1.5
      vertex 5.25 9.25 1.5
    endloop
  endfacet
  facet normal 0 0 1
    outer loop
      vertex 5.25 10.75 1.5
      vertex 6.75 15 1.5
      vertex 5.25 15 1.5
    endloop
  endfacet
  facet normal 0 0 1
    outer loop
      vertex 6.75 9.25 1.5
      vertex 5.25 10.75 1.5
      vertex 5.25 9.25 1.5
    endloop
  endfacet
  facet normal 0 0 1
    outer loop
      vertex 6.75 -9.25 1.5
      vertex 5.25 -9.25 1.5
      vertex 6.75 -10.75 1.5
    endloop
  endfacet
  facet normal 0 0 1
    outer loop
      vertex 5.25 -10.75 1.5
      vertex 6.75 -10.75 1.5
      vertex 5.25 -9.25 1.5
    endloop
  endfacet
  facet normal 0 0 1
    outer loop
      vertex 6.75 -10.75 1.5
      vertex 5.25 -10.75 1.5
      vertex 6.75 -15 1.5
    endloop
  endfacet
  facet normal 0 0 1
    outer loop
      vertex 6.75 -15 1.5
      vertex 5.25 -10.75 1.5
      vertex 5.25 -15 1.5
    endloop
  endfacet
  facet normal -0 0 1
    outer loop
      vertex 6.75 -9.25 1.5
      vertex 9.25 -10.75 1.5
      vertex 9.25 -9.25 1.5
    endloop
  endfacet
  facet normal 0 0 1
    outer loop
      vertex 9.25 -10.75 1.5
      vertex 6.75 -9.25 1.5
      vertex 6.75 -10.75 1.5
    endloop
  endfacet
  facet normal -0 0 1
    outer loop
      vertex 6.75 10.75 1.5
      vertex 9.25 9.25 1.5
      vertex 9.25 10.75 1.5
    endloop
  endfacet
  facet normal 0 0 1
    outer loop
      vertex 9.25 9.25 1.5
      vertex 6.75 10.75 1.5
      vertex 6.75 9.25 1.5
    endloop
  endfacet
  facet normal 0 0 1
    outer loop
      vertex 9.25 10.75 1.5
      vertex 10.75 10.75 1.5
      vertex 10.75 15 1.5
    endloop
  endfacet
  facet normal 0 0 1
    outer loop
      vertex 10.75 10.75 1.5
      vertex 9.25 10.75 1.5
      vertex 10.75 9.25 1.5
    endloop
  endfacet
  facet normal 0 0 1
    outer loop
      vertex 10.75 9.25 1.5
      vertex 9.25 9.25 1.5
      vertex 10.75 -9.25 1.5
    endloop
  endfacet
  facet normal 0 0 1
    outer loop
      vertex 9.25 -9.25 1.5
      vertex 10.75 -9.25 1.5
      vertex 9.25 9.25 1.5
    endloop
  endfacet
  facet normal 0 0 1
    outer loop
      vertex 9.25 10.75 1.5
      vertex 10.75 15 1.5
      vertex 9.25 15 1.5
    endloop
  endfacet
  facet normal 0 0 1
    outer loop
      vertex 10.75 9.25 1.5
      vertex 9.25 10.75 1.5
      vertex 9.25 9.25 1.5
    endloop
  endfacet
  facet normal 0 0 1
    outer loop
      vertex 10.75 -9.25 1.5
      vertex 9.25 -9.25 1.5
      vertex 10.75 -10.75 1.5
    endloop
  endfacet
  facet normal 0 0 1
    outer loop
      vertex 9.25 -10.75 1.5
      vertex 10.75 -10.75 1.5
      vertex 9.25 -9.25 1.5
    endloop
  endfacet
  facet normal 0 0 1
    outer loop
      vertex 10.75 -10.75 1.5
      vertex 9.25 -10.75 1.5
      vertex 10.75 -15 1.5
    endloop
  endfacet
  facet normal 0 0 1
    outer loop
      vertex 10.75 -15 1.5
      vertex 9.25 -10.75 1.5
      vertex 9.25 -15 1.5
    endloop
  endfacet
  facet normal -0 0 1
    outer loop
      vertex 10.75 -9.25 1.5
      vertex 13.25 -10.75 1.5
      vertex 13.25 -9.25 1.5
    endloop
  endfacet
  facet normal 0 0 1
    outer loop
      vertex 13.25 -10.75 1.5
      vertex 10.75 -9.25 1.5
      vertex 10.75 -10.75 1.5
    endloop
  endfacet
  facet normal -0 0 1
    outer loop
      vertex 10.75 10.75 1.5
      vertex 13.25 9.25 1.5
      vertex 13.25 10.75 1.5
    endloop
  endfacet
  facet normal 0 0 1
    outer loop
      vertex 13.25 9.25 1.5
      vertex 10.75 10.75 1.5
      vertex 10.75 9.25 1.5
    endloop
  endfacet
  facet normal 0 0 1
    outer loop
      vertex 13.25 10.75 1.5
      vertex 14.75 10.75 1.5
      vertex 14.75 15 1.5
    endloop
  endfacet
  facet normal 0 0 1
    outer loop
      vertex 14.75 10.75 1.5
      vertex 13.25 10.75 1.5
      vertex 14.75 9.25 1.5
    endloop
  endfacet
  facet normal 0 0 1
    outer loop
      vertex 14.75 9.25 1.5
      vertex 13.25 9.25 1.5
      vertex 14.75 -9.25 1.5
    endloop
  endfacet
  facet normal 0 0 1
    outer loop
      vertex 13.25 -9.25 1.5
      vertex 14.75 -9.25 1.5
      vertex 13.25 9.25 1.5
    endloop
  endfacet
  facet normal 0 0 1
    outer loop
      vertex 13.25 10.75 1.5
      vertex 14.75 15 1.5
      vertex 13.25 15 1.5
    endloop
  endfacet
  facet normal 0 0 1
    outer loop
      vertex 14.75 9.25 1.5
      vertex 13.25 10.75 1.5
      vertex 13.25 9.25 1.5
    endloop
  endfacet
  facet normal 0 0 1
    outer loop
      vertex 14.75 -9.25 1.5
      vertex 13.25 -9.25 1.5
      vertex 14.75 -10.75 1.5
    endloop
  endfacet
  facet normal 0 0 1
    outer loop
      vertex 13.25 -10.75 1.5
      vertex 14.75 -10.75 1.5
      vertex 13.25 -9.25 1.5
    endloop
  endfacet
  facet normal 0 0 1
    outer loop
      vertex 14.75 -10.75 1.5
      vertex 13.25 -10.75 1.5
      vertex 14.75 -15 1.5
    endloop
  endfacet
  facet normal 0 0 1
    outer loop
      vertex 14.75 -15 1.5
      vertex 13.25 -10.75 1.5
      vertex 13.25 -15 1.5
    endloop
  endfacet
  facet normal -0 0 1
    outer loop
      vertex 14.75 -9.25 1.5
      vertex 17.25 -10.75 1.5
      vertex 17.25 -9.25 1.5
    endloop
  endfacet
  facet normal 0 0 1
    outer loop
      vertex 17.25 -10.75 1.5
      vertex 14.75 -9.25 1.5
      vertex 14.75 -10.75 1.5
    endloop
  endfacet
  facet normal -0 0 1
    outer loop
      vertex 14.75 10.75 1.5
      vertex 17.25 9.25 1.5
      vertex 17.25 10.75 1.5
    endloop
  endfacet
  facet normal 0 0 1
    outer loop
      vertex 17.25 9.25 1.5
      vertex 14.75 10.75 1.5
      vertex 14.75 9.25 1.5
    endloop
  endfacet
  facet normal 0 0 1
    outer loop
      vertex 17.25 10.75 1.5
      vertex 18.75 10.75 1.5
      vertex 18.75 15 1.5
    endloop
  endfacet
  facet normal 0 0 1
    outer loop
      vertex 18.75 10.75 1.5
      vertex 17.25 10.75 1.5
      vertex 18.75 9.25 1.5
    endloop
  endfacet
  facet normal 0 0 1
    outer loop
      vertex 18.75 9.25 1.5
      vertex 17.25 9.25 1.5
      vertex 18.75 -9.25 1.5
    endloop
  endfacet
  facet normal 0 0 1
    outer loop
      vertex 17.25 -9.25 1.5
      vertex 18.75 -9.25 1.5
      vertex 17.25 9.25 1.5
    endloop
  endfacet
  facet normal 0 0 1
    outer loop
      vertex 17.25 10.75 1.5
      vertex 18.75 15 1.5
      vertex 17.25 15 1.5
    endloop
  endfacet
  facet normal 0 0 1
    outer loop
      vertex 18.75 9.25 1.5
      vertex 17.25 10.75 1.5
      vertex 17.25 9.25 1.5
    endloop
  endfacet
  facet normal 0 0 1
    outer loop
      vertex 18.75 -9.25 1.5
      vertex 17.25 -9.25 1.5
      vertex 18.75 -10.75 1.5
    endloop
  endfacet
  facet normal 0 0 1
    outer loop
      vertex 17.25 -10.75 1.5
      vertex 18.75 -10.75 1.5
      vertex 17.25 -9.25 1.5
    endloop
  endfacet
  facet normal 0 0 1
    outer loop
      vertex 18.75 -10.75 1.5
      vertex 17.25 -10.75 1.5
      vertex 18.75 -15 1.5
    endloop
  endfacet
  facet normal 0 0 1
    outer loop
      vertex 18.75 -15 1.5
      vertex 17.25 -10.75 1.5
      vertex 17.25 -15 1.5
    endloop
  endfacet
  facet normal -0 0 1
    outer loop
      vertex 18.75 -9.25 1.5
      vertex 26 -10.75 1.5
      vertex 26 -9.25 1.5
    endloop
  endfacet
  facet normal 0 0 1
    outer loop
      vertex 26 -10.75 1.5
      vertex 18.75 -9.25 1.5
      vertex 18.75 -10.75 1.5
    endloop
  endfacet
  facet normal -0 0 1
    outer loop
      vertex 18.75 10.75 1.5
      vertex 26 9.25 1.5
      vertex 26 10.75 1.5
    endloop
  endfacet
  facet normal 0 0 1
    outer loop
      vertex 26 9.25 1.5
      vertex 18.75 10.75 1.5
      vertex 18.75 9.25 1.5
    endloop
  endfacet
  facet normal 0 0 1
    outer loop
      vertex 26 10.75 1.5
      vertex 28.5 45 1.5
      vertex 26 42 1.5
    endloop
  endfacet
  facet normal 0 0 1
    outer loop
      vertex 28.5 45 1.5
      vertex -26 42 1.5
      vertex 26 42 1.5
    endloop
  endfacet
  facet normal 0 0 1
    outer loop
      vertex -28.5 45 1.5
      vertex -26 10.75 1.5
      vertex -26 42 1.5
    endloop
  endfacet
  facet normal 0 0 1
    outer loop
      vertex -26 10.75 1.5
      vertex -28.5 45 1.5
      vertex -26 9.25 1.5
    endloop
  endfacet
  facet normal 0 0 1
    outer loop
      vertex -26 9.25 1.5
      vertex -28.5 45 1.5
      vertex -26 -9.25 1.5
    endloop
  endfacet
  facet normal 0 0 1
    outer loop
      vertex -28.5 -45 1.5
      vertex -26 -9.25 1.5
      vertex -28.5 45 1.5
    endloop
  endfacet
  facet normal 0 0 1
    outer loop
      vertex -26 -9.25 1.5
      vertex -28.5 -45 1.5
      vertex -26 -10.75 1.5
    endloop
  endfacet
  facet normal -0 0 1
    outer loop
      vertex -28.5 45 1.5
      vertex -26 42 1.5
      vertex 28.5 45 1.5
    endloop
  endfacet
  facet normal 0 0 1
    outer loop
      vertex 26 9.25 1.5
      vertex 28.5 45 1.5
      vertex 26 10.75 1.5
    endloop
  endfacet
  facet normal 0 0 1
    outer loop
      vertex 28.5 45 1.5
      vertex 26 9.25 1.5
      vertex 28.5 -45 1.5
    endloop
  endfacet
  facet normal -0 0 1
    outer loop
      vertex 26 -9.25 1.5
      vertex 28.5 -45 1.5
      vertex 26 9.25 1.5
    endloop
  endfacet
  facet normal -0 0 1
    outer loop
      vertex 26 -10.75 1.5
      vertex 28.5 -45 1.5
      vertex 26 -9.25 1.5
    endloop
  endfacet
  facet normal -0 0 1
    outer loop
      vertex 26 -42 1.5
      vertex 28.5 -45 1.5
      vertex 26 -10.75 1.5
    endloop
  endfacet
  facet normal -0 0 1
    outer loop
      vertex -26 -42 1.5
      vertex 28.5 -45 1.5
      vertex 26 -42 1.5
    endloop
  endfacet
  facet normal 0 0 1
    outer loop
      vertex -26 -42 1.5
      vertex -28.5 -45 1.5
      vertex 28.5 -45 1.5
    endloop
  endfacet
  facet normal 0 0 1
    outer loop
      vertex -26 -10.75 1.5
      vertex -28.5 -45 1.5
      vertex -26 -42 1.5
    endloop
  endfacet
  facet normal -1 0 0
    outer loop
      vertex 26 10.75 0.15
      vertex 26 42 1.5
      vertex 26 42 0.15
    endloop
  endfacet
  facet normal -1 -0 0
    outer loop
      vertex 26 42 1.5
      vertex 26 10.75 0.15
      vertex 26 10.75 1.5
    endloop
  endfacet
  facet normal -1 0 0
    outer loop
      vertex 26 -42 0.15
      vertex 26 -10.75 1.5
      vertex 26 -10.75 0.15
    endloop
  endfacet
  facet normal -1 -0 0
    outer loop
      vertex 26 -10.75 1.5
      vertex 26 -42 0.15
      vertex 26 -42 1.5
    endloop
  endfacet
  facet normal -1 0 0
    outer loop
      vertex 26 -9.25 0.15
      vertex 26 9.25 1.5
      vertex 26 9.25 0.15
    endloop
  endfacet
  facet normal -1 -0 0
    outer loop
      vertex 26 9.25 1.5
      vertex 26 -9.25 0.15
      vertex 26 -9.25 1.5
    endloop
  endfacet
  facet normal 1 -0 0
    outer loop
      vertex -26 10.75 1.5
      vertex -26 42 0.15
      vertex -26 42 1.5
    endloop
  endfacet
  facet normal 1 0 0
    outer loop
      vertex -26 42 0.15
      vertex -26 10.75 1.5
      vertex -26 10.75 0.15
    endloop
  endfacet
  facet normal 1 -0 0
    outer loop
      vertex -26 -42 1.5
      vertex -26 -10.75 0.15
      vertex -26 -10.75 1.5
    endloop
  endfacet
  facet normal 1 0 0
    outer loop
      vertex -26 -10.75 0.15
      vertex -26 -42 1.5
      vertex -26 -42 0.15
    endloop
  endfacet
  facet normal 1 -0 0
    outer loop
      vertex -26 -9.25 1.5
      vertex -26 9.25 0.15
      vertex -26 9.25 1.5
    endloop
  endfacet
  facet normal 1 0 0
    outer loop
      vertex -26 9.25 0.15
      vertex -26 -9.25 1.5
      vertex -26 -9.25 0.15
    endloop
  endfacet
  facet normal 0 -1 0
    outer loop
      vertex -26 42 0.15
      vertex 26 42 1.5
      vertex -26 42 1.5
    endloop
  endfacet
  facet normal 0 -1 -0
    outer loop
      vertex 26 42 1.5
      vertex -26 42 0.15
      vertex 26 42 0.15
    endloop
  endfacet
  facet normal 0 1 -0
    outer loop
      vertex 26 -42 0.15
      vertex -26 -42 1.5
      vertex 26 -42 1.5
    endloop
  endfacet
  facet normal 0 1 0
    outer loop
      vertex -26 -42 1.5
      vertex 26 -42 0.15
      vertex -26 -42 0.15
    endloop
  endfacet
  facet normal 1 -0 0
    outer loop
      vertex -17.25 10.75 1.5
      vertex -17.25 15 0.15
      vertex -17.25 15 1.5
    endloop
  endfacet
  facet normal 1 0 0
    outer loop
      vertex -17.25 15 0.15
      vertex -17.25 10.75 1.5
      vertex -17.25 10.75 0.15
    endloop
  endfacet
  facet normal 1 -0 0
    outer loop
      vertex -17.25 -15 1.5
      vertex -17.25 -10.75 0.15
      vertex -17.25 -10.75 1.5
    endloop
  endfacet
  facet normal 1 0 0
    outer loop
      vertex -17.25 -10.75 0.15
      vertex -17.25 -15 1.5
      vertex -17.25 -15 0.15
    endloop
  endfacet
  facet normal 1 -0 0
    outer loop
      vertex -17.25 -9.25 1.5
      vertex -17.25 9.25 0.15
      vertex -17.25 9.25 1.5
    endloop
  endfacet
  facet normal 1 0 0
    outer loop
      vertex -17.25 9.25 0.15
      vertex -17.25 -9.25 1.5
      vertex -17.25 -9.25 0.15
    endloop
  endfacet
  facet normal -1 0 0
    outer loop
      vertex -18.75 10.75 0.15
      vertex -18.75 15 1.5
      vertex -18.75 15 0.15
    endloop
  endfacet
  facet normal -1 -0 0
    outer loop
      vertex -18.75 15 1.5
      vertex -18.75 10.75 0.15
      vertex -18.75 10.75 1.5
    endloop
  endfacet
  facet normal -1 0 0
    outer loop
      vertex -18.75 -15 0.15
      vertex -18.75 -10.75 1.5
      vertex -18.75 -10.75 0.15
    endloop
  endfacet
  facet normal -1 -0 0
    outer loop
      vertex -18.75 -10.75 1.5
      vertex -18.75 -15 0.15
      vertex -18.75 -15 1.5
    endloop
  endfacet
  facet normal -1 0 0
    outer loop
      vertex -18.75 -9.25 0.15
      vertex -18.75 9.25 1.5
      vertex -18.75 9.25 0.15
    endloop
  endfacet
  facet normal -1 -0 0
    outer loop
      vertex -18.75 9.25 1.5
      vertex -18.75 -9.25 0.15
      vertex -18.75 -9.25 1.5
    endloop
  endfacet
  facet normal 0 1 -0
    outer loop
      vertex -17.25 15 0.15
      vertex -18.75 15 1.5
      vertex -17.25 15 1.5
    endloop
  endfacet
  facet normal 0 1 0
    outer loop
      vertex -18.75 15 1.5
      vertex -17.25 15 0.15
      vertex -18.75 15 0.15
    endloop
  endfacet
  facet normal 0 -1 0
    outer loop
      vertex -18.75 -15 0.15
      vertex -17.25 -15 1.5
      vertex -18.75 -15 1.5
    endloop
  endfacet
  facet normal 0 -1 -0
    outer loop
      vertex -17.25 -15 1.5
      vertex -18.75 -15 0.15
      vertex -17.25 -15 0.15
    endloop
  endfacet
  facet normal 1 -0 0
    outer loop
      vertex -13.25 10.75 1.5
      vertex -13.25 15 0.15
      vertex -13.25 15 1.5
    endloop
  endfacet
  facet normal 1 0 0
    outer loop
      vertex -13.25 15 0.15
      vertex -13.25 10.75 1.5
      vertex -13.25 10.75 0.15
    endloop
  endfacet
  facet normal 1 -0 0
    outer loop
      vertex -13.25 -15 1.5
      vertex -13.25 -10.75 0.15
      vertex -13.25 -10.75 1.5
    endloop
  endfacet
  facet normal 1 0 0
    outer loop
      vertex -13.25 -10.75 0.15
      vertex -13.25 -15 1.5
      vertex -13.25 -15 0.15
    endloop
  endfacet
  facet normal 1 -0 0
    outer loop
      vertex -13.25 -9.25 1.5
      vertex -13.25 9.25 0.15
      vertex -13.25 9.25 1.5
    endloop
  endfacet
  facet normal 1 0 0
    outer loop
      vertex -13.25 9.25 0.15
      vertex -13.25 -9.25 1.5
      vertex -13.25 -9.25 0.15
    endloop
  endfacet
  facet normal -1 0 0
    outer loop
      vertex -14.75 10.75 0.15
      vertex -14.75 15 1.5
      vertex -14.75 15 0.15
    endloop
  endfacet
  facet normal -1 -0 0
    outer loop
      vertex -14.75 15 1.5
      vertex -14.75 10.75 0.15
      vertex -14.75 10.75 1.5
    endloop
  endfacet
  facet normal -1 0 0
    outer loop
      vertex -14.75 -15 0.15
      vertex -14.75 -10.75 1.5
      vertex -14.75 -10.75 0.15
    endloop
  endfacet
  facet normal -1 -0 0
    outer loop
      vertex -14.75 -10.75 1.5
      vertex -14.75 -15 0.15
      vertex -14.75 -15 1.5
    endloop
  endfacet
  facet normal -1 0 0
    outer loop
      vertex -14.75 -9.25 0.15
      vertex -14.75 9.25 1.5
      vertex -14.75 9.25 0.15
    endloop
  endfacet
  facet normal -1 -0 0
    outer loop
      vertex -14.75 9.25 1.5
      vertex -14.75 -9.25 0.15
      vertex -14.75 -9.25 1.5
    endloop
  endfacet
  facet normal 0 1 -0
    outer loop
      vertex -13.25 15 0.15
      vertex -14.75 15 1.5
      vertex -13.25 15 1.5
    endloop
  endfacet
  facet normal 0 1 0
    outer loop
      vertex -14.75 15 1.5
      vertex -13.25 15 0.15
      vertex -14.75 15 0.15
    endloop
  endfacet
  facet normal 0 -1 0
    outer loop
      vertex -14.75 -15 0.15
      vertex -13.25 -15 1.5
      vertex -14.75 -15 1.5
    endloop
  endfacet
  facet normal 0 -1 -0
    outer loop
      vertex -13.25 -15 1.5
      vertex -14.75 -15 0.15
      vertex -13.25 -15 0.15
    endloop
  endfacet
  facet normal 1 -0 0
    outer loop
      vertex -9.25 10.75 1.5
      vertex -9.25 15 0.15
      vertex -9.25 15 1.5
    endloop
  endfacet
  facet normal 1 0 0
    outer loop
      vertex -9.25 15 0.15
      vertex -9.25 10.75 1.5
      vertex -9.25 10.75 0.15
    endloop
  endfacet
  facet normal 1 -0 0
    outer loop
      vertex -9.25 -15 1.5
      vertex -9.25 -10.75 0.15
      vertex -9.25 -10.75 1.5
    endloop
  endfacet
  facet normal 1 0 0
    outer loop
      vertex -9.25 -10.75 0.15
      vertex -9.25 -15 1.5
      vertex -9.25 -15 0.15
    endloop
  endfacet
  facet normal 1 -0 0
    outer loop
      vertex -9.25 -9.25 1.5
      vertex -9.25 9.25 0.15
      vertex -9.25 9.25 1.5
    endloop
  endfacet
  facet normal 1 0 0
    outer loop
      vertex -9.25 9.25 0.15
      vertex -9.25 -9.25 1.5
      vertex -9.25 -9.25 0.15
    endloop
  endfacet
  facet normal -1 0 0
    outer loop
      vertex -10.75 10.75 0.15
      vertex -10.75 15 1.5
      vertex -10.75 15 0.15
    endloop
  endfacet
  facet normal -1 -0 0
    outer loop
      vertex -10.75 15 1.5
      vertex -10.75 10.75 0.15
      vertex -10.75 10.75 1.5
    endloop
  endfacet
  facet normal -1 0 0
    outer loop
      vertex -10.75 -15 0.15
      vertex -10.75 -10.75 1.5
      vertex -10.75 -10.75 0.15
    endloop
  endfacet
  facet normal -1 -0 0
    outer loop
      vertex -10.75 -10.75 1.5
      vertex -10.75 -15 0.15
      vertex -10.75 -15 1.5
    endloop
  endfacet
  facet normal -1 0 0
    outer loop
      vertex -10.75 -9.25 0.15
      vertex -10.75 9.25 1.5
      vertex -10.75 9.25 0.15
    endloop
  endfacet
  facet normal -1 -0 0
    outer loop
      vertex -10.75 9.25 1.5
      vertex -10.75 -9.25 0.15
      vertex -10.75 -9.25 1.5
    endloop
  endfacet
  facet normal 0 1 -0
    outer loop
      vertex -9.25 15 0.15
      vertex -10.75 15 1.5
      vertex -9.25 15 1.5
    endloop
  endfacet
  facet normal 0 1 0
    outer loop
      vertex -10.75 15 1.5
      vertex -9.25 15 0.15
      vertex -10.75 15 0.15
    endloop
  endfacet
  facet normal 0 -1 0
    outer loop
      vertex -10.75 -15 0.15
      vertex -9.25 -15 1.5
      vertex -10.75 -15 1.5
    endloop
  endfacet
  facet normal 0 -1 -0
    outer loop
      vertex -9.25 -15 1.5
      vertex -10.75 -15 0.15
      vertex -9.25 -15 0.15
    endloop
  endfacet
  facet normal 1 -0 0
    outer loop
      vertex -5.25 10.75 1.5
      vertex -5.25 15 0.15
      vertex -5.25 15 1.5
    endloop
  endfacet
  facet normal 1 0 0
    outer loop
      vertex -5.25 15 0.15
      vertex -5.25 10.75 1.5
      vertex -5.25 10.75 0.15
    endloop
  endfacet
  facet normal 1 -0 0
    outer loop
      vertex -5.25 -15 1.5
      vertex -5.25 -10.75 0.15
      vertex -5.25 -10.75 1.5
    endloop
  endfacet
  facet normal 1 0 0
    outer loop
      vertex -5.25 -10.75 0.15
      vertex -5.25 -15 1.5
      vertex -5.25 -15 0.15
    endloop
  endfacet
  facet normal 1 -0 0
    outer loop
      vertex -5.25 -9.25 1.5
      vertex -5.25 9.25 0.15
      vertex -5.25 9.25 1.5
    endloop
  endfacet
  facet normal 1 0 0
    outer loop
      vertex -5.25 9.25 0.15
      vertex -5.25 -9.25 1.5
      vertex -5.25 -9.25 0.15
    endloop
  endfacet
  facet normal -1 0 0
    outer loop
      vertex -6.75 10.75 0.15
      vertex -6.75 15 1.5
      vertex -6.75 15 0.15
    endloop
  endfacet
  facet normal -1 -0 0
    outer loop
      vertex -6.75 15 1.5
      vertex -6.75 10.75 0.15
      vertex -6.75 10.75 1.5
    endloop
  endfacet
  facet normal -1 0 0
    outer loop
      vertex -6.75 -15 0.15
      vertex -6.75 -10.75 1.5
      vertex -6.75 -10.75 0.15
    endloop
  endfacet
  facet normal -1 -0 0
    outer loop
      vertex -6.75 -10.75 1.5
      vertex -6.75 -15 0.15
      vertex -6.75 -15 1.5
    endloop
  endfacet
  facet normal -1 0 0
    outer loop
      vertex -6.75 -9.25 0.15
      vertex -6.75 9.25 1.5
      vertex -6.75 9.25 0.15
    endloop
  endfacet
  facet normal -1 -0 0
    outer loop
      vertex -6.75 9.25 1.5
      vertex -6.75 -9.25 0.15
      vertex -6.75 -9.25 1.5
    endloop
  endfacet
  facet normal 0 1 -0
    outer loop
      vertex -5.25 15 0.15
      vertex -6.75 15 1.5
      vertex -5.25 15 1.5
    endloop
  endfacet
  facet normal 0 1 0
    outer loop
      vertex -6.75 15 1.5
      vertex -5.25 15 0.15
      vertex -6.75 15 0.15
    endloop
  endfacet
  facet normal 0 -1 0
    outer loop
      vertex -6.75 -15 0.15
      vertex -5.25 -15 1.5
      vertex -6.75 -15 1.5
    endloop
  endfacet
  facet normal 0 -1 -0
    outer loop
      vertex -5.25 -15 1.5
      vertex -6.75 -15 0.15
      vertex -5.25 -15 0.15
    endloop
  endfacet
  facet normal 1 -0 0
    outer loop
      vertex -1.25 10.75 1.5
      vertex -1.25 15 0.15
      vertex -1.25 15 1.5
    endloop
  endfacet
  facet normal 1 0 0
    outer loop
      vertex -1.25 15 0.15
      vertex -1.25 10.75 1.5
      vertex -1.25 10.75 0.15
    endloop
  endfacet
  facet normal 1 -0 0
    outer loop
      vertex -1.25 -15 1.5
      vertex -1.25 -10.75 0.15
      vertex -1.25 -10.75 1.5
    endloop
  endfacet
  facet normal 1 0 0
    outer loop
      vertex -1.25 -10.75 0.15
      vertex -1.25 -15 1.5
      vertex -1.25 -15 0.15
    endloop
  endfacet
  facet normal 1 -0 0
    outer loop
      vertex -1.25 -9.25 1.5
      vertex -1.25 9.25 0.15
      vertex -1.25 9.25 1.5
    endloop
  endfacet
  facet normal 1 0 0
    outer loop
      vertex -1.25 9.25 0.15
      vertex -1.25 -9.25 1.5
      vertex -1.25 -9.25 0.15
    endloop
  endfacet
  facet normal -1 0 0
    outer loop
      vertex -2.75 10.75 0.15
      vertex -2.75 15 1.5
      vertex -2.75 15 0.15
    endloop
  endfacet
  facet normal -1 -0 0
    outer loop
      vertex -2.75 15 1.5
      vertex -2.75 10.75 0.15
      vertex -2.75 10.75 1.5
    endloop
  endfacet
  facet normal -1 0 0
    outer loop
      vertex -2.75 -15 0.15
      vertex -2.75 -10.75 1.5
      vertex -2.75 -10.75 0.15
    endloop
  endfacet
  facet normal -1 -0 0
    outer loop
      vertex -2.75 -10.75 1.5
      vertex -2.75 -15 0.15
      vertex -2.75 -15 1.5
    endloop
  endfacet
  facet normal -1 0 0
    outer loop
      vertex -2.75 -9.25 0.15
      vertex -2.75 9.25 1.5
      vertex -2.75 9.25 0.15
    endloop
  endfacet
  facet normal -1 -0 0
    outer loop
      vertex -2.75 9.25 1.5
      vertex -2.75 -9.25 0.15
      vertex -2.75 -9.25 1.5
    endloop
  endfacet
  facet normal 0 1 -0
    outer loop
      vertex -1.25 15 0.15
      vertex -2.75 15 1.5
      vertex -1.25 15 1.5
    endloop
  endfacet
  facet normal 0 1 0
    outer loop
      vertex -2.75 15 1.5
      vertex -1.25 15 0.15
      vertex -2.75 15 0.15
    endloop
  endfacet
  facet normal 0 -1 0
    outer loop
      vertex -2.75 -15 0.15
      vertex -1.25 -15 1.5
      vertex -2.75 -15 1.5
    endloop
  endfacet
  facet normal 0 -1 -0
    outer loop
      vertex -1.25 -15 1.5
      vertex -2.75 -15 0.15
      vertex -1.25 -15 0.15
    endloop
  endfacet
  facet normal 1 -0 0
    outer loop
      vertex 2.75 10.75 1.5
      vertex 2.75 15 0.15
      vertex 2.75 15 1.5
    endloop
  endfacet
  facet normal 1 0 0
    outer loop
      vertex 2.75 15 0.15
      vertex 2.75 10.75 1.5
      vertex 2.75 10.75 0.15
    endloop
  endfacet
  facet normal 1 -0 0
    outer loop
      vertex 2.75 -15 1.5
      vertex 2.75 -10.75 0.15
      vertex 2.75 -10.75 1.5
    endloop
  endfacet
  facet normal 1 0 0
    outer loop
      vertex 2.75 -10.75 0.15
      vertex 2.75 -15 1.5
      vertex 2.75 -15 0.15
    endloop
  endfacet
  facet normal 1 -0 0
    outer loop
      vertex 2.75 -9.25 1.5
      vertex 2.75 9.25 0.15
      vertex 2.75 9.25 1.5
    endloop
  endfacet
  facet normal 1 0 0
    outer loop
      vertex 2.75 9.25 0.15
      vertex 2.75 -9.25 1.5
      vertex 2.75 -9.25 0.15
    endloop
  endfacet
  facet normal -1 0 0
    outer loop
      vertex 1.25 10.75 0.15
      vertex 1.25 15 1.5
      vertex 1.25 15 0.15
    endloop
  endfacet
  facet normal -1 -0 0
    outer loop
      vertex 1.25 15 1.5
      vertex 1.25 10.75 0.15
      vertex 1.25 10.75 1.5
    endloop
  endfacet
  facet normal -1 0 0
    outer loop
      vertex 1.25 -15 0.15
      vertex 1.25 -10.75 1.5
      vertex 1.25 -10.75 0.15
    endloop
  endfacet
  facet normal -1 -0 0
    outer loop
      vertex 1.25 -10.75 1.5
      vertex 1.25 -15 0.15
      vertex 1.25 -15 1.5
    endloop
  endfacet
  facet normal -1 0 0
    outer loop
      vertex 1.25 -9.25 0.15
      vertex 1.25 9.25 1.5
      vertex 1.25 9.25 0.15
    endloop
  endfacet
  facet normal -1 -0 0
    outer loop
      vertex 1.25 9.25 1.5
      vertex 1.25 -9.25 0.15
      vertex 1.25 -9.25 1.5
    endloop
  endfacet
  facet normal 0 1 -0
    outer loop
      vertex 2.75 15 0.15
      vertex 1.25 15 1.5
      vertex 2.75 15 1.5
    endloop
  endfacet
  facet normal 0 1 0
    outer loop
      vertex 1.25 15 1.5
      vertex 2.75 15 0.15
      vertex 1.25 15 0.15
    endloop
  endfacet
  facet normal 0 -1 0
    outer loop
      vertex 1.25 -15 0.15
      vertex 2.75 -15 1.5
      vertex 1.25 -15 1.5
    endloop
  endfacet
  facet normal 0 -1 -0
    outer loop
      vertex 2.75 -15 1.5
      vertex 1.25 -15 0.15
      vertex 2.75 -15 0.15
    endloop
  endfacet
  facet normal 1 -0 0
    outer loop
      vertex 6.75 10.75 1.5
      vertex 6.75 15 0.15
      vertex 6.75 15 1.5
    endloop
  endfacet
  facet normal 1 0 0
    outer loop
      vertex 6.75 15 0.15
      vertex 6.75 10.75 1.5
      vertex 6.75 10.75 0.15
    endloop
  endfacet
  facet normal 1 -0 0
    outer loop
      vertex 6.75 -15 1.5
      vertex 6.75 -10.75 0.15
      vertex 6.75 -10.75 1.5
    endloop
  endfacet
  facet normal 1 0 0
    outer loop
      vertex 6.75 -10.75 0.15
      vertex 6.75 -15 1.5
      vertex 6.75 -15 0.15
    endloop
  endfacet
  facet normal 1 -0 0
    outer loop
      vertex 6.75 -9.25 1.5
      vertex 6.75 9.25 0.15
      vertex 6.75 9.25 1.5
    endloop
  endfacet
  facet normal 1 0 0
    outer loop
      vertex 6.75 9.25 0.15
      vertex 6.75 -9.25 1.5
      vertex 6.75 -9.25 0.15
    endloop
  endfacet
  facet normal -1 0 0
    outer loop
      vertex 5.25 10.75 0.15
      vertex 5.25 15 1.5
      vertex 5.25 15 0.15
    endloop
  endfacet
  facet normal -1 -0 0
    outer loop
      vertex 5.25 15 1.5
      vertex 5.25 10.75 0.15
      vertex 5.25 10.75 1.5
    endloop
  endfacet
  facet normal -1 0 0
    outer loop
      vertex 5.25 -15 0.15
      vertex 5.25 -10.75 1.5
      vertex 5.25 -10.75 0.15
    endloop
  endfacet
  facet normal -1 -0 0
    outer loop
      vertex 5.25 -10.75 1.5
      vertex 5.25 -15 0.15
      vertex 5.25 -15 1.5
    endloop
  endfacet
  facet normal -1 0 0
    outer loop
      vertex 5.25 -9.25 0.15
      vertex 5.25 9.25 1.5
      vertex 5.25 9.25 0.15
    endloop
  endfacet
  facet normal -1 -0 0
    outer loop
      vertex 5.25 9.25 1.5
      vertex 5.25 -9.25 0.15
      vertex 5.25 -9.25 1.5
    endloop
  endfacet
  facet normal 0 1 -0
    outer loop
      vertex 6.75 15 0.15
      vertex 5.25 15 1.5
      vertex 6.75 15 1.5
    endloop
  endfacet
  facet normal 0 1 0
    outer loop
      vertex 5.25 15 1.5
      vertex 6.75 15 0.15
      vertex 5.25 15 0.15
    endloop
  endfacet
  facet normal 0 -1 0
    outer loop
      vertex 5.25 -15 0.15
      vertex 6.75 -15 1.5
      vertex 5.25 -15 1.5
    endloop
  endfacet
  facet normal 0 -1 -0
    outer loop
      vertex 6.75 -15 1.5
      vertex 5.25 -15 0.15
      vertex 6.75 -15 0.15
    endloop
  endfacet
  facet normal 1 -0 0
    outer loop
      vertex 10.75 10.75 1.5
      vertex 10.75 15 0.15
      vertex 10.75 15 1.5
    endloop
  endfacet
  facet normal 1 0 0
    outer loop
      vertex 10.75 15 0.15
      vertex 10.75 10.75 1.5
      vertex 10.75 10.75 0.15
    endloop
  endfacet
  facet normal 1 -0 0
    outer loop
      vertex 10.75 -15 1.5
      vertex 10.75 -10.75 0.15
      vertex 10.75 -10.75 1.5
    endloop
  endfacet
  facet normal 1 0 0
    outer loop
      vertex 10.75 -10.75 0.15
      vertex 10.75 -15 1.5
      vertex 10.75 -15 0.15
    endloop
  endfacet
  facet normal 1 -0 0
    outer loop
      vertex 10.75 -9.25 1.5
      vertex 10.75 9.25 0.15
      vertex 10.75 9.25 1.5
    endloop
  endfacet
  facet normal 1 0 0
    outer loop
      vertex 10.75 9.25 0.15
      vertex 10.75 -9.25 1.5
      vertex 10.75 -9.25 0.15
    endloop
  endfacet
  facet normal -1 0 0
    outer loop
      vertex 9.25 10.75 0.15
      vertex 9.25 15 1.5
      vertex 9.25 15 0.15
    endloop
  endfacet
  facet normal -1 -0 0
    outer loop
      vertex 9.25 15 1.5
      vertex 9.25 10.75 0.15
      vertex 9.25 10.75 1.5
    endloop
  endfacet
  facet normal -1 0 0
    outer loop
      vertex 9.25 -15 0.15
      vertex 9.25 -10.75 1.5
      vertex 9.25 -10.75 0.15
    endloop
  endfacet
  facet normal -1 -0 0
    outer loop
      vertex 9.25 -10.75 1.5
      vertex 9.25 -15 0.15
      vertex 9.25 -15 1.5
    endloop
  endfacet
  facet normal -1 0 0
    outer loop
      vertex 9.25 -9.25 0.15
      vertex 9.25 9.25 1.5
      vertex 9.25 9.25 0.15
    endloop
  endfacet
  facet normal -1 -0 0
    outer loop
      vertex 9.25 9.25 1.5
      vertex 9.25 -9.25 0.15
      vertex 9.25 -9.25 1.5
    endloop
  endfacet
  facet normal 0 1 -0
    outer loop
      vertex 10.75 15 0.15
      vertex 9.25 15 1.5
      vertex 10.75 15 1.5
    endloop
  endfacet
  facet normal 0 1 0
    outer loop
      vertex 9.25 15 1.5
      vertex 10.75 15 0.15
      vertex 9.25 15 0.15
    endloop
  endfacet
  facet normal 0 -1 0
    outer loop
      vertex 9.25 -15 0.15
      vertex 10.75 -15 1.5
      vertex 9.25 -15 1.5
    endloop
  endfacet
  facet normal 0 -1 -0
    outer loop
      vertex 10.75 -15 1.5
      vertex 9.25 -15 0.15
      vertex 10.75 -15 0.15
    endloop
  endfacet
  facet normal 1 -0 0
    outer loop
      vertex 14.75 10.75 1.5
      vertex 14.75 15 0.15
      vertex 14.75 15 1.5
    endloop
  endfacet
  facet normal 1 0 0
    outer loop
      vertex 14.75 15 0.15
      vertex 14.75 10.75 1.5
      vertex 14.75 10.75 0.15
    endloop
  endfacet
  facet normal 1 -0 0
    outer loop
      vertex 14.75 -15 1.5
      vertex 14.75 -10.75 0.15
      vertex 14.75 -10.75 1.5
    endloop
  endfacet
  facet normal 1 0 0
    outer loop
      vertex 14.75 -10.75 0.15
      vertex 14.75 -15 1.5
      vertex 14.75 -15 0.15
    endloop
  endfacet
  facet normal 1 -0 0
    outer loop
      vertex 14.75 -9.25 1.5
      vertex 14.75 9.25 0.15
      vertex 14.75 9.25 1.5
    endloop
  endfacet
  facet normal 1 0 0
    outer loop
      vertex 14.75 9.25 0.15
      vertex 14.75 -9.25 1.5
      vertex 14.75 -9.25 0.15
    endloop
  endfacet
  facet normal -1 0 0
    outer loop
      vertex 13.25 10.75 0.15
      vertex 13.25 15 1.5
      vertex 13.25 15 0.15
    endloop
  endfacet
  facet normal -1 -0 0
    outer loop
      vertex 13.25 15 1.5
      vertex 13.25 10.75 0.15
      vertex 13.25 10.75 1.5
    endloop
  endfacet
  facet normal -1 0 0
    outer loop
      vertex 13.25 -15 0.15
      vertex 13.25 -10.75 1.5
      vertex 13.25 -10.75 0.15
    endloop
  endfacet
  facet normal -1 -0 0
    outer loop
      vertex 13.25 -10.75 1.5
      vertex 13.25 -15 0.15
      vertex 13.25 -15 1.5
    endloop
  endfacet
  facet normal -1 0 0
    outer loop
      vertex 13.25 -9.25 0.15
      vertex 13.25 9.25 1.5
      vertex 13.25 9.25 0.15
    endloop
  endfacet
  facet normal -1 -0 0
    outer loop
      vertex 13.25 9.25 1.5
      vertex 13.25 -9.25 0.15
      vertex 13.25 -9.25 1.5
    endloop
  endfacet
  facet normal 0 1 -0
    outer loop
      vertex 14.75 15 0.15
      vertex 13.25 15 1.5
      vertex 14.75 15 1.5
    endloop
  endfacet
  facet normal 0 1 0
    outer loop
      vertex 13.25 15 1.5
      vertex 14.75 15 0.15
      vertex 13.25 15 0.15
    endloop
  endfacet
  facet normal 0 -1 0
    outer loop
      vertex 13.25 -15 0.15
      vertex 14.75 -15 1.5
      vertex 13.25 -15 1.5
    endloop
  endfacet
  facet normal 0 -1 -0
    outer loop
      vertex 14.75 -15 1.5
      vertex 13.25 -15 0.15
      vertex 14.75 -15 0.15
    endloop
  endfacet
  facet normal 1 -0 0
    outer loop
      vertex 18.75 10.75 1.5
      vertex 18.75 15 0.15
      vertex 18.75 15 1.5
    endloop
  endfacet
  facet normal 1 0 0
    outer loop
      vertex 18.75 15 0.15
      vertex 18.75 10.75 1.5
      vertex 18.75 10.75 0.15
    endloop
  endfacet
  facet normal 1 -0 0
    outer loop
      vertex 18.75 -15 1.5
      vertex 18.75 -10.75 0.15
      vertex 18.75 -10.75 1.5
    endloop
  endfacet
  facet normal 1 0 0
    outer loop
      vertex 18.75 -10.75 0.15
      vertex 18.75 -15 1.5
      vertex 18.75 -15 0.15
    endloop
  endfacet
  facet normal 1 -0 0
    outer loop
      vertex 18.75 -9.25 1.5
      vertex 18.75 9.25 0.15
      vertex 18.75 9.25 1.5
    endloop
  endfacet
  facet normal 1 0 0
    outer loop
      vertex 18.75 9.25 0.15
      vertex 18.75 -9.25 1.5
      vertex 18.75 -9.25 0.15
    endloop
  endfacet
  facet normal -1 0 0
    outer loop
      vertex 17.25 10.75 0.15
      vertex 17.25 15 1.5
      vertex 17.25 15 0.15
    endloop
  endfacet
  facet normal -1 -0 0
    outer loop
      vertex 17.25 15 1.5
      vertex 17.25 10.75 0.15
      vertex 17.25 10.75 1.5
    endloop
  endfacet
  facet normal -1 0 0
    outer loop
      vertex 17.25 -15 0.15
      vertex 17.25 -10.75 1.5
      vertex 17.25 -10.75 0.15
    endloop
  endfacet
  facet normal -1 -0 0
    outer loop
      vertex 17.25 -10.75 1.5
      vertex 17.25 -15 0.15
      vertex 17.25 -15 1.5
    endloop
  endfacet
  facet normal -1 0 0
    outer loop
      vertex 17.25 -9.25 0.15
      vertex 17.25 9.25 1.5
      vertex 17.25 9.25 0.15
    endloop
  endfacet
  facet normal -1 -0 0
    outer loop
      vertex 17.25 9.25 1.5
      vertex 17.25 -9.25 0.15
      vertex 17.25 -9.25 1.5
    endloop
  endfacet
  facet normal 0 1 -0
    outer loop
      vertex 18.75 15 0.15
      vertex 17.25 15 1.5
      vertex 18.75 15 1.5
    endloop
  endfacet
  facet normal 0 1 0
    outer loop
      vertex 17.25 15 1.5
      vertex 18.75 15 0.15
      vertex 17.25 15 0.15
    endloop
  endfacet
  facet normal 0 -1 0
    outer loop
      vertex 17.25 -15 0.15
      vertex 18.75 -15 1.5
      vertex 17.25 -15 1.5
    endloop
  endfacet
  facet normal 0 -1 -0
    outer loop
      vertex 18.75 -15 1.5
      vertex 17.25 -15 0.15
      vertex 18.75 -15 0.15
    endloop
  endfacet
  facet normal 0 1 -0
    outer loop
      vertex -18.75 -9.25 0.15
      vertex -26 -9.25 1.5
      vertex -18.75 -9.25 1.5
    endloop
  endfacet
  facet normal 0 1 0
    outer loop
      vertex -26 -9.25 1.5
      vertex -18.75 -9.25 0.15
      vertex -26 -9.25 0.15
    endloop
  endfacet
  facet normal 0 1 -0
    outer loop
      vertex -14.75 -9.25 0.15
      vertex -17.25 -9.25 1.5
      vertex -14.75 -9.25 1.5
    endloop
  endfacet
  facet normal 0 1 0
    outer loop
      vertex -17.25 -9.25 1.5
      vertex -14.75 -9.25 0.15
      vertex -17.25 -9.25 0.15
    endloop
  endfacet
  facet normal 0 1 -0
    outer loop
      vertex -10.75 -9.25 0.15
      vertex -13.25 -9.25 1.5
      vertex -10.75 -9.25 1.5
    endloop
  endfacet
  facet normal 0 1 0
    outer loop
      vertex -13.25 -9.25 1.5
      vertex -10.75 -9.25 0.15
      vertex -13.25 -9.25 0.15
    endloop
  endfacet
  facet normal 0 1 -0
    outer loop
      vertex -6.75 -9.25 0.15
      vertex -9.25 -9.25 1.5
      vertex -6.75 -9.25 1.5
    endloop
  endfacet
  facet normal 0 1 0
    outer loop
      vertex -9.25 -9.25 1.5
      vertex -6.75 -9.25 0.15
      vertex -9.25 -9.25 0.15
    endloop
  endfacet
  facet normal 0 1 -0
    outer loop
      vertex -2.75 -9.25 0.15
      vertex -5.25 -9.25 1.5
      vertex -2.75 -9.25 1.5
    endloop
  endfacet
  facet normal 0 1 0
    outer loop
      vertex -5.25 -9.25 1.5
      vertex -2.75 -9.25 0.15
      vertex -5.25 -9.25 0.15
    endloop
  endfacet
  facet normal 0 1 -0
    outer loop
      vertex 1.25 -9.25 0.15
      vertex -1.25 -9.25 1.5
      vertex 1.25 -9.25 1.5
    endloop
  endfacet
  facet normal 0 1 0
    outer loop
      vertex -1.25 -9.25 1.5
      vertex 1.25 -9.25 0.15
      vertex -1.25 -9.25 0.15
    endloop
  endfacet
  facet normal 0 1 -0
    outer loop
      vertex 5.25 -9.25 0.15
      vertex 2.75 -9.25 1.5
      vertex 5.25 -9.25 1.5
    endloop
  endfacet
  facet normal 0 1 0
    outer loop
      vertex 2.75 -9.25 1.5
      vertex 5.25 -9.25 0.15
      vertex 2.75 -9.25 0.15
    endloop
  endfacet
  facet normal 0 1 -0
    outer loop
      vertex 9.25 -9.25 0.15
      vertex 6.75 -9.25 1.5
      vertex 9.25 -9.25 1.5
    endloop
  endfacet
  facet normal 0 1 0
    outer loop
      vertex 6.75 -9.25 1.5
      vertex 9.25 -9.25 0.15
      vertex 6.75 -9.25 0.15
    endloop
  endfacet
  facet normal 0 1 -0
    outer loop
      vertex 13.25 -9.25 0.15
      vertex 10.75 -9.25 1.5
      vertex 13.25 -9.25 1.5
    endloop
  endfacet
  facet normal 0 1 0
    outer loop
      vertex 10.75 -9.25 1.5
      vertex 13.25 -9.25 0.15
      vertex 10.75 -9.25 0.15
    endloop
  endfacet
  facet normal 0 1 -0
    outer loop
      vertex 17.25 -9.25 0.15
      vertex 14.75 -9.25 1.5
      vertex 17.25 -9.25 1.5
    endloop
  endfacet
  facet normal 0 1 0
    outer loop
      vertex 14.75 -9.25 1.5
      vertex 17.25 -9.25 0.15
      vertex 14.75 -9.25 0.15
    endloop
  endfacet
  facet normal 0 1 -0
    outer loop
      vertex 26 -9.25 0.15
      vertex 18.75 -9.25 1.5
      vertex 26 -9.25 1.5
    endloop
  endfacet
  facet normal 0 1 0
    outer loop
      vertex 18.75 -9.25 1.5
      vertex 26 -9.25 0.15
      vertex 18.75 -9.25 0.15
    endloop
  endfacet
  facet normal 0 -1 0
    outer loop
      vertex -26 -10.75 0.15
      vertex -18.75 -10.75 1.5
      vertex -26 -10.75 1.5
    endloop
  endfacet
  facet normal 0 -1 -0
    outer loop
      vertex -18.75 -10.75 1.5
      vertex -26 -10.75 0.15
      vertex -18.75 -10.75 0.15
    endloop
  endfacet
  facet normal 0 -1 0
    outer loop
      vertex -17.25 -10.75 0.15
      vertex -14.75 -10.75 1.5
      vertex -17.25 -10.75 1.5
    endloop
  endfacet
  facet normal 0 -1 -0
    outer loop
      vertex -14.75 -10.75 1.5
      vertex -17.25 -10.75 0.15
      vertex -14.75 -10.75 0.15
    endloop
  endfacet
  facet normal 0 -1 0
    outer loop
      vertex -13.25 -10.75 0.15
      vertex -10.75 -10.75 1.5
      vertex -13.25 -10.75 1.5
    endloop
  endfacet
  facet normal 0 -1 -0
    outer loop
      vertex -10.75 -10.75 1.5
      vertex -13.25 -10.75 0.15
      vertex -10.75 -10.75 0.15
    endloop
  endfacet
  facet normal 0 -1 0
    outer loop
      vertex -9.25 -10.75 0.15
      vertex -6.75 -10.75 1.5
      vertex -9.25 -10.75 1.5
    endloop
  endfacet
  facet normal 0 -1 -0
    outer loop
      vertex -6.75 -10.75 1.5
      vertex -9.25 -10.75 0.15
      vertex -6.75 -10.75 0.15
    endloop
  endfacet
  facet normal 0 -1 0
    outer loop
      vertex -5.25 -10.75 0.15
      vertex -2.75 -10.75 1.5
      vertex -5.25 -10.75 1.5
    endloop
  endfacet
  facet normal 0 -1 -0
    outer loop
      vertex -2.75 -10.75 1.5
      vertex -5.25 -10.75 0.15
      vertex -2.75 -10.75 0.15
    endloop
  endfacet
  facet normal 0 -1 0
    outer loop
      vertex -1.25 -10.75 0.15
      vertex 1.25 -10.75 1.5
      vertex -1.25 -10.75 1.5
    endloop
  endfacet
  facet normal 0 -1 -0
    outer loop
      vertex 1.25 -10.75 1.5
      vertex -1.25 -10.75 0.15
      vertex 1.25 -10.75 0.15
    endloop
  endfacet
  facet normal 0 -1 0
    outer loop
      vertex 2.75 -10.75 0.15
      vertex 5.25 -10.75 1.5
      vertex 2.75 -10.75 1.5
    endloop
  endfacet
  facet normal 0 -1 -0
    outer loop
      vertex 5.25 -10.75 1.5
      vertex 2.75 -10.75 0.15
      vertex 5.25 -10.75 0.15
    endloop
  endfacet
  facet normal 0 -1 0
    outer loop
      vertex 6.75 -10.75 0.15
      vertex 9.25 -10.75 1.5
      vertex 6.75 -10.75 1.5
    endloop
  endfacet
  facet normal 0 -1 -0
    outer loop
      vertex 9.25 -10.75 1.5
      vertex 6.75 -10.75 0.15
      vertex 9.25 -10.75 0.15
    endloop
  endfacet
  facet normal 0 -1 0
    outer loop
      vertex 10.75 -10.75 0.15
      vertex 13.25 -10.75 1.5
      vertex 10.75 -10.75 1.5
    endloop
  endfacet
  facet normal 0 -1 -0
    outer loop
      vertex 13.25 -10.75 1.5
      vertex 10.75 -10.75 0.15
      vertex 13.25 -10.75 0.15
    endloop
  endfacet
  facet normal 0 -1 0
    outer loop
      vertex 14.75 -10.75 0.15
      vertex 17.25 -10.75 1.5
      vertex 14.75 -10.75 1.5
    endloop
  endfacet
  facet normal 0 -1 -0
    outer loop
      vertex 17.25 -10.75 1.5
      vertex 14.75 -10.75 0.15
      vertex 17.25 -10.75 0.15
    endloop
  endfacet
  facet normal 0 -1 0
    outer loop
      vertex 18.75 -10.75 0.15
      vertex 26 -10.75 1.5
      vertex 18.75 -10.75 1.5
    endloop
  endfacet
  facet normal 0 -1 -0
    outer loop
      vertex 26 -10.75 1.5
      vertex 18.75 -10.75 0.15
      vertex 26 -10.75 0.15
    endloop
  endfacet
  facet normal 0 1 -0
    outer loop
      vertex -18.75 10.75 0.15
      vertex -26 10.75 1.5
      vertex -18.75 10.75 1.5
    endloop
  endfacet
  facet normal 0 1 0
    outer loop
      vertex -26 10.75 1.5
      vertex -18.75 10.75 0.15
      vertex -26 10.75 0.15
    endloop
  endfacet
  facet normal 0 1 -0
    outer loop
      vertex -14.75 10.75 0.15
      vertex -17.25 10.75 1.5
      vertex -14.75 10.75 1.5
    endloop
  endfacet
  facet normal 0 1 0
    outer loop
      vertex -17.25 10.75 1.5
      vertex -14.75 10.75 0.15
      vertex -17.25 10.75 0.15
    endloop
  endfacet
  facet normal 0 1 -0
    outer loop
      vertex -10.75 10.75 0.15
      vertex -13.25 10.75 1.5
      vertex -10.75 10.75 1.5
    endloop
  endfacet
  facet normal 0 1 0
    outer loop
      vertex -13.25 10.75 1.5
      vertex -10.75 10.75 0.15
      vertex -13.25 10.75 0.15
    endloop
  endfacet
  facet normal 0 1 -0
    outer loop
      vertex -6.75 10.75 0.15
      vertex -9.25 10.75 1.5
      vertex -6.75 10.75 1.5
    endloop
  endfacet
  facet normal 0 1 0
    outer loop
      vertex -9.25 10.75 1.5
      vertex -6.75 10.75 0.15
      vertex -9.25 10.75 0.15
    endloop
  endfacet
  facet normal 0 1 -0
    outer loop
      vertex -2.75 10.75 0.15
      vertex -5.25 10.75 1.5
      vertex -2.75 10.75 1.5
    endloop
  endfacet
  facet normal 0 1 0
    outer loop
      vertex -5.25 10.75 1.5
      vertex -2.75 10.75 0.15
      vertex -5.25 10.75 0.15
    endloop
  endfacet
  facet normal 0 1 -0
    outer loop
      vertex 1.25 10.75 0.15
      vertex -1.25 10.75 1.5
      vertex 1.25 10.75 1.5
    endloop
  endfacet
  facet normal 0 1 0
    outer loop
      vertex -1.25 10.75 1.5
      vertex 1.25 10.75 0.15
      vertex -1.25 10.75 0.15
    endloop
  endfacet
  facet normal 0 1 -0
    outer loop
      vertex 5.25 10.75 0.15
      vertex 2.75 10.75 1.5
      vertex 5.25 10.75 1.5
    endloop
  endfacet
  facet normal 0 1 0
    outer loop
      vertex 2.75 10.75 1.5
      vertex 5.25 10.75 0.15
      vertex 2.75 10.75 0.15
    endloop
  endfacet
  facet normal 0 1 -0
    outer loop
      vertex 9.25 10.75 0.15
      vertex 6.75 10.75 1.5
      vertex 9.25 10.75 1.5
    endloop
  endfacet
  facet normal 0 1 0
    outer loop
      vertex 6.75 10.75 1.5
      vertex 9.25 10.75 0.15
      vertex 6.75 10.75 0.15
    endloop
  endfacet
  facet normal 0 1 -0
    outer loop
      vertex 13.25 10.75 0.15
      vertex 10.75 10.75 1.5
      vertex 13.25 10.75 1.5
    endloop
  endfacet
  facet normal 0 1 0
    outer loop
      vertex 10.75 10.75 1.5
      vertex 13.25 10.75 0.15
      vertex 10.75 10.75 0.15
    endloop
  endfacet
  facet normal 0 1 -0
    outer loop
      vertex 17.25 10.75 0.15
      vertex 14.75 10.75 1.5
      vertex 17.25 10.75 1.5
    endloop
  endfacet
  facet normal 0 1 0
    outer loop
      vertex 14.75 10.75 1.5
      vertex 17.25 10.75 0.15
      vertex 14.75 10.75 0.15
    endloop
  endfacet
  facet normal 0 1 -0
    outer loop
      vertex 26 10.75 0.15
      vertex 18.75 10.75 1.5
      vertex 26 10.75 1.5
    endloop
  endfacet
  facet normal 0 1 0
    outer loop
      vertex 18.75 10.75 1.5
      vertex 26 10.75 0.15
      vertex 18.75 10.75 0.15
    endloop
  endfacet
  facet normal 0 -1 0
    outer loop
      vertex -26 9.25 0.15
      vertex -18.75 9.25 1.5
      vertex -26 9.25 1.5
    endloop
  endfacet
  facet normal 0 -1 -0
    outer loop
      vertex -18.75 9.25 1.5
      vertex -26 9.25 0.15
      vertex -18.75 9.25 0.15
    endloop
  endfacet
  facet normal 0 -1 0
    outer loop
      vertex -17.25 9.25 0.15
      vertex -14.75 9.25 1.5
      vertex -17.25 9.25 1.5
    endloop
  endfacet
  facet normal 0 -1 -0
    outer loop
      vertex -14.75 9.25 1.5
      vertex -17.25 9.25 0.15
      vertex -14.75 9.25 0.15
    endloop
  endfacet
  facet normal 0 -1 0
    outer loop
      vertex -13.25 9.25 0.15
      vertex -10.75 9.25 1.5
      vertex -13.25 9.25 1.5
    endloop
  endfacet
  facet normal 0 -1 -0
    outer loop
      vertex -10.75 9.25 1.5
      vertex -13.25 9.25 0.15
      vertex -10.75 9.25 0.15
    endloop
  endfacet
  facet normal 0 -1 0
    outer loop
      vertex -9.25 9.25 0.15
      vertex -6.75 9.25 1.5
      vertex -9.25 9.25 1.5
    endloop
  endfacet
  facet normal 0 -1 -0
    outer loop
      vertex -6.75 9.25 1.5
      vertex -9.25 9.25 0.15
      vertex -6.75 9.25 0.15
    endloop
  endfacet
  facet normal 0 -1 0
    outer loop
      vertex -5.25 9.25 0.15
      vertex -2.75 9.25 1.5
      vertex -5.25 9.25 1.5
    endloop
  endfacet
  facet normal 0 -1 -0
    outer loop
      vertex -2.75 9.25 1.5
      vertex -5.25 9.25 0.15
      vertex -2.75 9.25 0.15
    endloop
  endfacet
  facet normal 0 -1 0
    outer loop
      vertex -1.25 9.25 0.15
      vertex 1.25 9.25 1.5
      vertex -1.25 9.25 1.5
    endloop
  endfacet
  facet normal 0 -1 -0
    outer loop
      vertex 1.25 9.25 1.5
      vertex -1.25 9.25 0.15
      vertex 1.25 9.25 0.15
    endloop
  endfacet
  facet normal 0 -1 0
    outer loop
      vertex 2.75 9.25 0.15
      vertex 5.25 9.25 1.5
      vertex 2.75 9.25 1.5
    endloop
  endfacet
  facet normal 0 -1 -0
    outer loop
      vertex 5.25 9.25 1.5
      vertex 2.75 9.25 0.15
      vertex 5.25 9.25 0.15
    endloop
  endfacet
  facet normal 0 -1 0
    outer loop
      vertex 6.75 9.25 0.15
      vertex 9.25 9.25 1.5
      vertex 6.75 9.25 1.5
    endloop
  endfacet
  facet normal 0 -1 -0
    outer loop
      vertex 9.25 9.25 1.5
      vertex 6.75 9.25 0.15
      vertex 9.25 9.25 0.15
    endloop
  endfacet
  facet normal 0 -1 0
    outer loop
      vertex 10.75 9.25 0.15
      vertex 13.25 9.25 1.5
      vertex 10.75 9.25 1.5
    endloop
  endfacet
  facet normal 0 -1 -0
    outer loop
      vertex 13.25 9.25 1.5
      vertex 10.75 9.25 0.15
      vertex 13.25 9.25 0.15
    endloop
  endfacet
  facet normal 0 -1 0
    outer loop
      vertex 14.75 9.25 0.15
      vertex 17.25 9.25 1.5
      vertex 14.75 9.25 1.5
    endloop
  endfacet
  facet normal 0 -1 -0
    outer loop
      vertex 17.25 9.25 1.5
      vertex 14.75 9.25 0.15
      vertex 17.25 9.25 0.15
    endloop
  endfacet
  facet normal 0 -1 0
    outer loop
      vertex 18.75 9.25 0.15
      vertex 26 9.25 1.5
      vertex 18.75 9.25 1.5
    endloop
  endfacet
  facet normal 0 -1 -0
    outer loop
      vertex 26 9.25 1.5
      vertex 18.75 9.25 0.15
      vertex 26 9.25 0.15
    endloop
  endfacet
  facet normal 0 0 1
    outer loop
      vertex 26 42 0.15
      vertex 18.75 15 0.15
      vertex 26 10.75 0.15
    endloop
  endfacet
  facet normal 0 0 1
    outer loop
      vertex 26 42 0.15
      vertex 17.25 15 0.15
      vertex 18.75 15 0.15
    endloop
  endfacet
  facet normal 0 0 1
    outer loop
      vertex 17.25 15 0.15
      vertex 14.75 15 0.15
      vertex 17.25 10.75 0.15
    endloop
  endfacet
  facet normal 0 0 1
    outer loop
      vertex 26 42 0.15
      vertex 14.75 15 0.15
      vertex 17.25 15 0.15
    endloop
  endfacet
  facet normal 0 0 1
    outer loop
      vertex 26 42 0.15
      vertex 13.25 15 0.15
      vertex 14.75 15 0.15
    endloop
  endfacet
  facet normal 0 0 1
    outer loop
      vertex 13.25 15 0.15
      vertex 10.75 15 0.15
      vertex 13.25 10.75 0.15
    endloop
  endfacet
  facet normal 0 0 1
    outer loop
      vertex 26 42 0.15
      vertex 10.75 15 0.15
      vertex 13.25 15 0.15
    endloop
  endfacet
  facet normal 0 0 1
    outer loop
      vertex 26 42 0.15
      vertex 9.25 15 0.15
      vertex 10.75 15 0.15
    endloop
  endfacet
  facet normal 0 0 1
    outer loop
      vertex 9.25 15 0.15
      vertex 6.75 15 0.15
      vertex 9.25 10.75 0.15
    endloop
  endfacet
  facet normal 0 0 1
    outer loop
      vertex 26 42 0.15
      vertex 6.75 15 0.15
      vertex 9.25 15 0.15
    endloop
  endfacet
  facet normal 0 0 1
    outer loop
      vertex 26 42 0.15
      vertex 5.25 15 0.15
      vertex 6.75 15 0.15
    endloop
  endfacet
  facet normal 0 0 1
    outer loop
      vertex 5.25 15 0.15
      vertex 2.75 15 0.15
      vertex 5.25 10.75 0.15
    endloop
  endfacet
  facet normal 0 0 1
    outer loop
      vertex 26 42 0.15
      vertex 2.75 15 0.15
      vertex 5.25 15 0.15
    endloop
  endfacet
  facet normal 0 0 1
    outer loop
      vertex 26 42 0.15
      vertex 1.25 15 0.15
      vertex 2.75 15 0.15
    endloop
  endfacet
  facet normal 0 0 1
    outer loop
      vertex 1.25 15 0.15
      vertex -1.25 15 0.15
      vertex 1.25 10.75 0.15
    endloop
  endfacet
  facet normal 0 0 1
    outer loop
      vertex 26 42 0.15
      vertex -1.25 15 0.15
      vertex 1.25 15 0.15
    endloop
  endfacet
  facet normal -0 0 1
    outer loop
      vertex -26 42 0.15
      vertex -1.25 15 0.15
      vertex 26 42 0.15
    endloop
  endfacet
  facet normal 0 0 1
    outer loop
      vertex -2.75 15 0.15
      vertex -5.25 15 0.15
      vertex -2.75 10.75 0.15
    endloop
  endfacet
  facet normal 0 0 1
    outer loop
      vertex -1.25 15 0.15
      vertex -26 42 0.15
      vertex -2.75 15 0.15
    endloop
  endfacet
  facet normal 0 0 1
    outer loop
      vertex -2.75 15 0.15
      vertex -26 42 0.15
      vertex -5.25 15 0.15
    endloop
  endfacet
  facet normal 0 0 1
    outer loop
      vertex -6.75 15 0.15
      vertex -9.25 15 0.15
      vertex -6.75 10.75 0.15
    endloop
  endfacet
  facet normal 0 0 1
    outer loop
      vertex -5.25 15 0.15
      vertex -26 42 0.15
      vertex -6.75 15 0.15
    endloop
  endfacet
  facet normal 0 0 1
    outer loop
      vertex -6.75 15 0.15
      vertex -26 42 0.15
      vertex -9.25 15 0.15
    endloop
  endfacet
  facet normal 0 0 1
    outer loop
      vertex -10.75 15 0.15
      vertex -13.25 15 0.15
      vertex -10.75 10.75 0.15
    endloop
  endfacet
  facet normal 0 0 1
    outer loop
      vertex -9.25 15 0.15
      vertex -26 42 0.15
      vertex -10.75 15 0.15
    endloop
  endfacet
  facet normal 0 0 1
    outer loop
      vertex -10.75 15 0.15
      vertex -26 42 0.15
      vertex -13.25 15 0.15
    endloop
  endfacet
  facet normal 0 0 1
    outer loop
      vertex -14.75 15 0.15
      vertex -17.25 15 0.15
      vertex -14.75 10.75 0.15
    endloop
  endfacet
  facet normal 0 0 1
    outer loop
      vertex -13.25 15 0.15
      vertex -26 42 0.15
      vertex -14.75 15 0.15
    endloop
  endfacet
  facet normal 0 0 1
    outer loop
      vertex -14.75 15 0.15
      vertex -26 42 0.15
      vertex -17.25 15 0.15
    endloop
  endfacet
  facet normal 0 0 1
    outer loop
      vertex -17.25 15 0.15
      vertex -26 42 0.15
      vertex -18.75 15 0.15
    endloop
  endfacet
  facet normal 0 0 1
    outer loop
      vertex -26 10.75 0.15
      vertex -18.75 15 0.15
      vertex -26 42 0.15
    endloop
  endfacet
  facet normal 0 0 1
    outer loop
      vertex -18.75 15 0.15
      vertex -26 10.75 0.15
      vertex -18.75 10.75 0.15
    endloop
  endfacet
  facet normal 0 0 1
    outer loop
      vertex 26 10.75 0.15
      vertex 18.75 15 0.15
      vertex 18.75 10.75 0.15
    endloop
  endfacet
  facet normal 0 0 1
    outer loop
      vertex 17.25 10.75 0.15
      vertex 14.75 15 0.15
      vertex 14.75 10.75 0.15
    endloop
  endfacet
  facet normal 0 0 1
    outer loop
      vertex 13.25 10.75 0.15
      vertex 10.75 15 0.15
      vertex 10.75 10.75 0.15
    endloop
  endfacet
  facet normal 0 0 1
    outer loop
      vertex 9.25 10.75 0.15
      vertex 6.75 15 0.15
      vertex 6.75 10.75 0.15
    endloop
  endfacet
  facet normal 0 0 1
    outer loop
      vertex 5.25 10.75 0.15
      vertex 2.75 15 0.15
      vertex 2.75 10.75 0.15
    endloop
  endfacet
  facet normal 0 0 1
    outer loop
      vertex 1.25 10.75 0.15
      vertex -1.25 15 0.15
      vertex -1.25 10.75 0.15
    endloop
  endfacet
  facet normal 0 0 1
    outer loop
      vertex -2.75 10.75 0.15
      vertex -5.25 15 0.15
      vertex -5.25 10.75 0.15
    endloop
  endfacet
  facet normal 0 0 1
    outer loop
      vertex -6.75 10.75 0.15
      vertex -9.25 15 0.15
      vertex -9.25 10.75 0.15
    endloop
  endfacet
  facet normal 0 0 1
    outer loop
      vertex -10.75 10.75 0.15
      vertex -13.25 15 0.15
      vertex -13.25 10.75 0.15
    endloop
  endfacet
  facet normal 0 0 1
    outer loop
      vertex -14.75 10.75 0.15
      vertex -17.25 15 0.15
      vertex -17.25 10.75 0.15
    endloop
  endfacet
  facet normal 0 0 1
    outer loop
      vertex -18.75 -10.75 0.15
      vertex -26 -10.75 0.15
      vertex -18.75 -15 0.15
    endloop
  endfacet
  facet normal 0 0 1
    outer loop
      vertex -14.75 -10.75 0.15
      vertex -17.25 -10.75 0.15
      vertex -14.75 -15 0.15
    endloop
  endfacet
  facet normal 0 0 1
    outer loop
      vertex -10.75 -10.75 0.15
      vertex -13.25 -10.75 0.15
      vertex -10.75 -15 0.15
    endloop
  endfacet
  facet normal 0 0 1
    outer loop
      vertex -6.75 -10.75 0.15
      vertex -9.25 -10.75 0.15
      vertex -6.75 -15 0.15
    endloop
  endfacet
  facet normal 0 0 1
    outer loop
      vertex -2.75 -10.75 0.15
      vertex -5.25 -10.75 0.15
      vertex -2.75 -15 0.15
    endloop
  endfacet
  facet normal 0 0 1
    outer loop
      vertex 1.25 -10.75 0.15
      vertex -1.25 -10.75 0.15
      vertex 1.25 -15 0.15
    endloop
  endfacet
  facet normal 0 0 1
    outer loop
      vertex 5.25 -10.75 0.15
      vertex 2.75 -10.75 0.15
      vertex 5.25 -15 0.15
    endloop
  endfacet
  facet normal 0 0 1
    outer loop
      vertex 9.25 -10.75 0.15
      vertex 6.75 -10.75 0.15
      vertex 9.25 -15 0.15
    endloop
  endfacet
  facet normal 0 0 1
    outer loop
      vertex 13.25 -10.75 0.15
      vertex 10.75 -10.75 0.15
      vertex 13.25 -15 0.15
    endloop
  endfacet
  facet normal 0 0 1
    outer loop
      vertex 17.25 -10.75 0.15
      vertex 14.75 -10.75 0.15
      vertex 17.25 -15 0.15
    endloop
  endfacet
  facet normal 0 0 1
    outer loop
      vertex 18.75 -15 0.15
      vertex 26 -10.75 0.15
      vertex 18.75 -10.75 0.15
    endloop
  endfacet
  facet normal 0 0 1
    outer loop
      vertex 26 -10.75 0.15
      vertex 18.75 -15 0.15
      vertex 26 -42 0.15
    endloop
  endfacet
  facet normal -0 0 1
    outer loop
      vertex 17.25 -15 0.15
      vertex 26 -42 0.15
      vertex 18.75 -15 0.15
    endloop
  endfacet
  facet normal 0 0 1
    outer loop
      vertex 14.75 -15 0.15
      vertex 17.25 -15 0.15
      vertex 14.75 -10.75 0.15
    endloop
  endfacet
  facet normal 0 0 1
    outer loop
      vertex 17.25 -15 0.15
      vertex 14.75 -15 0.15
      vertex 26 -42 0.15
    endloop
  endfacet
  facet normal -0 0 1
    outer loop
      vertex 13.25 -15 0.15
      vertex 26 -42 0.15
      vertex 14.75 -15 0.15
    endloop
  endfacet
  facet normal 0 0 1
    outer loop
      vertex 10.75 -15 0.15
      vertex 13.25 -15 0.15
      vertex 10.75 -10.75 0.15
    endloop
  endfacet
  facet normal 0 0 1
    outer loop
      vertex 13.25 -15 0.15
      vertex 10.75 -15 0.15
      vertex 26 -42 0.15
    endloop
  endfacet
  facet normal -0 0 1
    outer loop
      vertex 9.25 -15 0.15
      vertex 26 -42 0.15
      vertex 10.75 -15 0.15
    endloop
  endfacet
  facet normal 0 0 1
    outer loop
      vertex 6.75 -15 0.15
      vertex 9.25 -15 0.15
      vertex 6.75 -10.75 0.15
    endloop
  endfacet
  facet normal -0 0 1
    outer loop
      vertex 6.75 -15 0.15
      vertex 26 -42 0.15
      vertex 9.25 -15 0.15
    endloop
  endfacet
  facet normal -0 0 1
    outer loop
      vertex 5.25 -15 0.15
      vertex 26 -42 0.15
      vertex 6.75 -15 0.15
    endloop
  endfacet
  facet normal 0 0 1
    outer loop
      vertex 2.75 -15 0.15
      vertex 5.25 -15 0.15
      vertex 2.75 -10.75 0.15
    endloop
  endfacet
  facet normal -0 0 1
    outer loop
      vertex 2.75 -15 0.15
      vertex 26 -42 0.15
      vertex 5.25 -15 0.15
    endloop
  endfacet
  facet normal -0 0 1
    outer loop
      vertex 1.25 -15 0.15
      vertex 26 -42 0.15
      vertex 2.75 -15 0.15
    endloop
  endfacet
  facet normal 0 0 1
    outer loop
      vertex -1.25 -15 0.15
      vertex 1.25 -15 0.15
      vertex -1.25 -10.75 0.15
    endloop
  endfacet
  facet normal -0 0 1
    outer loop
      vertex -1.25 -15 0.15
      vertex 26 -42 0.15
      vertex 1.25 -15 0.15
    endloop
  endfacet
  facet normal 0 0 1
    outer loop
      vertex -26 -42 0.15
      vertex -1.25 -15 0.15
      vertex -2.75 -15 0.15
    endloop
  endfacet
  facet normal 0 0 1
    outer loop
      vertex -5.25 -15 0.15
      vertex -2.75 -15 0.15
      vertex -5.25 -10.75 0.15
    endloop
  endfacet
  facet normal 0 0 1
    outer loop
      vertex -26 -42 0.15
      vertex -2.75 -15 0.15
      vertex -5.25 -15 0.15
    endloop
  endfacet
  facet normal 0 0 1
    outer loop
      vertex -26 -42 0.15
      vertex -5.25 -15 0.15
      vertex -6.75 -15 0.15
    endloop
  endfacet
  facet normal 0 0 1
    outer loop
      vertex -9.25 -15 0.15
      vertex -6.75 -15 0.15
      vertex -9.25 -10.75 0.15
    endloop
  endfacet
  facet normal 0 0 1
    outer loop
      vertex -26 -42 0.15
      vertex -6.75 -15 0.15
      vertex -9.25 -15 0.15
    endloop
  endfacet
  facet normal 0 0 1
    outer loop
      vertex -26 -42 0.15
      vertex -9.25 -15 0.15
      vertex -10.75 -15 0.15
    endloop
  endfacet
  facet normal 0 0 1
    outer loop
      vertex -13.25 -15 0.15
      vertex -10.75 -15 0.15
      vertex -13.25 -10.75 0.15
    endloop
  endfacet
  facet normal 0 0 1
    outer loop
      vertex -26 -42 0.15
      vertex -10.75 -15 0.15
      vertex -13.25 -15 0.15
    endloop
  endfacet
  facet normal 0 0 1
    outer loop
      vertex -26 -42 0.15
      vertex -13.25 -15 0.15
      vertex -14.75 -15 0.15
    endloop
  endfacet
  facet normal 0 0 1
    outer loop
      vertex -17.25 -15 0.15
      vertex -14.75 -15 0.15
      vertex -17.25 -10.75 0.15
    endloop
  endfacet
  facet normal 0 0 1
    outer loop
      vertex -26 -42 0.15
      vertex -14.75 -15 0.15
      vertex -17.25 -15 0.15
    endloop
  endfacet
  facet normal 0 0 1
    outer loop
      vertex -26 -42 0.15
      vertex -17.25 -15 0.15
      vertex -18.75 -15 0.15
    endloop
  endfacet
  facet normal 0 0 1
    outer loop
      vertex -26 -42 0.15
      vertex -18.75 -15 0.15
      vertex -26 -10.75 0.15
    endloop
  endfacet
  facet normal 0 0 1
    outer loop
      vertex -1.25 -15 0.15
      vertex -26 -42 0.15
      vertex 26 -42 0.15
    endloop
  endfacet
  facet normal -0 0 1
    outer loop
      vertex -26 9.25 0.15
      vertex -18.75 -9.25 0.15
      vertex -18.75 9.25 0.15
    endloop
  endfacet
  facet normal 0 0 1
    outer loop
      vertex -18.75 -9.25 0.15
      vertex -26 9.25 0.15
      vertex -26 -9.25 0.15
    endloop
  endfacet
  facet normal -0 0 1
    outer loop
      vertex -17.25 9.25 0.15
      vertex -14.75 -9.25 0.15
      vertex -14.75 9.25 0.15
    endloop
  endfacet
  facet normal 0 0 1
    outer loop
      vertex -14.75 -9.25 0.15
      vertex -17.25 9.25 0.15
      vertex -17.25 -9.25 0.15
    endloop
  endfacet
  facet normal -0 0 1
    outer loop
      vertex -13.25 9.25 0.15
      vertex -10.75 -9.25 0.15
      vertex -10.75 9.25 0.15
    endloop
  endfacet
  facet normal 0 0 1
    outer loop
      vertex -10.75 -9.25 0.15
      vertex -13.25 9.25 0.15
      vertex -13.25 -9.25 0.15
    endloop
  endfacet
  facet normal -0 0 1
    outer loop
      vertex -9.25 9.25 0.15
      vertex -6.75 -9.25 0.15
      vertex -6.75 9.25 0.15
    endloop
  endfacet
  facet normal 0 0 1
    outer loop
      vertex -6.75 -9.25 0.15
      vertex -9.25 9.25 0.15
      vertex -9.25 -9.25 0.15
    endloop
  endfacet
  facet normal -0 0 1
    outer loop
      vertex -5.25 9.25 0.15
      vertex -2.75 -9.25 0.15
      vertex -2.75 9.25 0.15
    endloop
  endfacet
  facet normal 0 0 1
    outer loop
      vertex -2.75 -9.25 0.15
      vertex -5.25 9.25 0.15
      vertex -5.25 -9.25 0.15
    endloop
  endfacet
  facet normal -0 0 1
    outer loop
      vertex -1.25 9.25 0.15
      vertex 1.25 -9.25 0.15
      vertex 1.25 9.25 0.15
    endloop
  endfacet
  facet normal 0 0 1
    outer loop
      vertex 1.25 -9.25 0.15
      vertex -1.25 9.25 0.15
      vertex -1.25 -9.25 0.15
    endloop
  endfacet
  facet normal -0 0 1
    outer loop
      vertex 2.75 9.25 0.15
      vertex 5.25 -9.25 0.15
      vertex 5.25 9.25 0.15
    endloop
  endfacet
  facet normal 0 0 1
    outer loop
      vertex 5.25 -9.25 0.15
      vertex 2.75 9.25 0.15
      vertex 2.75 -9.25 0.15
    endloop
  endfacet
  facet normal -0 0 1
    outer loop
      vertex 6.75 9.25 0.15
      vertex 9.25 -9.25 0.15
      vertex 9.25 9.25 0.15
    endloop
  endfacet
  facet normal 0 0 1
    outer loop
      vertex 9.25 -9.25 0.15
      vertex 6.75 9.25 0.15
      vertex 6.75 -9.25 0.15
    endloop
  endfacet
  facet normal -0 0 1
    outer loop
      vertex 10.75 9.25 0.15
      vertex 13.25 -9.25 0.15
      vertex 13.25 9.25 0.15
    endloop
  endfacet
  facet normal 0 0 1
    outer loop
      vertex 13.25 -9.25 0.15
      vertex 10.75 9.25 0.15
      vertex 10.75 -9.25 0.15
    endloop
  endfacet
  facet normal -0 0 1
    outer loop
      vertex 14.75 9.25 0.15
      vertex 17.25 -9.25 0.15
      vertex 17.25 9.25 0.15
    endloop
  endfacet
  facet normal 0 0 1
    outer loop
      vertex 17.25 -9.25 0.15
      vertex 14.75 9.25 0.15
      vertex 14.75 -9.25 0.15
    endloop
  endfacet
  facet normal -0 0 1
    outer loop
      vertex 18.75 9.25 0.15
      vertex 26 -9.25 0.15
      vertex 26 9.25 0.15
    endloop
  endfacet
  facet normal 0 0 1
    outer loop
      vertex 26 -9.25 0.15
      vertex 18.75 9.25 0.15
      vertex 18.75 -9.25 0.15
    endloop
  endfacet
endsolid OpenSCAD_Model
