solid OpenSCAD_Model
  facet normal -0.707107 0 0.707107
    outer loop
      vertex -29.7 45 0.3
      vertex -28.5 -45 1.5
      vertex -28.5 45 1.5
    endloop
  endfacet
  facet normal -0.707107 0 0.707107
    outer loop
      vertex -28.5 -45 1.5
      vertex -29.7 45 0.3
      vertex -29.7 -45 0.3
    endloop
  endfacet
  facet normal 0 1 0
    outer loop
      vertex 28.5 45 0
      vertex 28.5 45 1.5
      vertex 29.7 45 0.3
    endloop
  endfacet
  facet normal 0 1 0
    outer loop
      vertex 28.5 45 1.5
      vertex 28.5 45 0
      vertex -28.5 45 1.5
    endloop
  endfacet
  facet normal 0 1 0
    outer loop
      vertex 28.5 45 0
      vertex 29.7 45 0.3
      vertex 29.7 45 0
    endloop
  endfacet
  facet normal 0 1 0
    outer loop
      vertex -28.5 45 0
      vertex -28.5 45 1.5
      vertex 28.5 45 0
    endloop
  endfacet
  facet normal 0 1 0
    outer loop
      vertex -28.5 45 1.5
      vertex -28.5 45 0
      vertex -29.7 45 0.3
    endloop
  endfacet
  facet normal 0 1 0
    outer loop
      vertex -29.7 45 0.3
      vertex -28.5 45 0
      vertex -29.7 45 0
    endloop
  endfacet
  facet normal 0 -1 0
    outer loop
      vertex -28.5 -45 0
      vertex -28.5 -45 1.5
      vertex -29.7 -45 0.3
    endloop
  endfacet
  facet normal 0 -1 0
    outer loop
      vertex -28.5 -45 1.5
      vertex -28.5 -45 0
      vertex 28.5 -45 1.5
    endloop
  endfacet
  facet normal 0 -1 0
    outer loop
      vertex -28.5 -45 0
      vertex -29.7 -45 0.3
      vertex -29.7 -45 0
    endloop
  endfacet
  facet normal 0 -1 0
    outer loop
      vertex 28.5 -45 0
      vertex 28.5 -45 1.5
      vertex -28.5 -45 0
    endloop
  endfacet
  facet normal 0 -1 0
    outer loop
      vertex 28.5 -45 1.5
      vertex 28.5 -45 0
      vertex 29.7 -45 0.3
    endloop
  endfacet
  facet normal 0 -1 -0
    outer loop
      vertex 29.7 -45 0.3
      vertex 28.5 -45 0
      vertex 29.7 -45 0
    endloop
  endfacet
  facet normal 0 0 -1
    outer loop
      vertex -28.5 -45 0
      vertex 28.5 45 0
      vertex 28.5 -45 0
    endloop
  endfacet
  facet normal -0 0 -1
    outer loop
      vertex 28.5 45 0
      vertex -28.5 -45 0
      vertex -28.5 45 0
    endloop
  endfacet
  facet normal 0 0 -1
    outer loop
      vertex 28.5 -45 0
      vertex 29.7 45 0
      vertex 29.7 -45 0
    endloop
  endfacet
  facet normal -0 0 -1
    outer loop
      vertex 29.7 45 0
      vertex 28.5 -45 0
      vertex 28.5 45 0
    endloop
  endfacet
  facet normal 0 0 -1
    outer loop
      vertex -29.7 -45 0
      vertex -28.5 45 0
      vertex -28.5 -45 0
    endloop
  endfacet
  facet normal -0 0 -1
    outer loop
      vertex -28.5 45 0
      vertex -29.7 -45 0
      vertex -29.7 45 0
    endloop
  endfacet
  facet normal -1 0 0
    outer loop
      vertex -29.7 -45 0
      vertex -29.7 45 0.3
      vertex -29.7 45 0
    endloop
  endfacet
  facet normal -1 -0 0
    outer loop
      vertex -29.7 45 0.3
      vertex -29.7 -45 0
      vertex -29.7 -45 0.3
    endloop
  endfacet
  facet normal 0.707107 0 0.707107
    outer loop
      vertex 28.5 45 1.5
      vertex 29.7 -45 0.3
      vertex 29.7 45 0.3
    endloop
  endfacet
  facet normal 0.707107 0 0.707107
    outer loop
      vertex 29.7 -45 0.3
      vertex 28.5 45 1.5
      vertex 28.5 -45 1.5
    endloop
  endfacet
  facet normal 1 -0 0
    outer loop
      vertex 29.7 -45 0.3
      vertex 29.7 45 0
      vertex 29.7 45 0.3
    endloop
  endfacet
  facet normal 1 0 0
    outer loop
      vertex 29.7 45 0
      vertex 29.7 -45 0.3
      vertex 29.7 -45 0
    endloop
  endfacet
  facet normal -0 0 1
    outer loop
      vertex -26 -9.25 1.5
      vertex -20.75 -10.75 1.5
      vertex -20.75 -9.25 1.5
    endloop
  endfacet
  facet normal 0 0 1
    outer loop
      vertex -20.75 -10.75 1.5
      vertex -26 -9.25 1.5
      vertex -26 -10.75 1.5
    endloop
  endfacet
  facet normal -0 0 1
    outer loop
      vertex -26 10.75 1.5
      vertex -20.75 9.25 1.5
      vertex -20.75 10.75 1.5
    endloop
  endfacet
  facet normal 0 0 1
    outer loop
      vertex -20.75 9.25 1.5
      vertex -26 10.75 1.5
      vertex -26 9.25 1.5
    endloop
  endfacet
  facet normal 0 0 1
    outer loop
      vertex -20.75 10.75 1.5
      vertex -19.25 10.75 1.5
      vertex -19.25 15 1.5
    endloop
  endfacet
  facet normal 0 0 1
    outer loop
      vertex -19.25 10.75 1.5
      vertex -20.75 10.75 1.5
      vertex -19.25 9.25 1.5
    endloop
  endfacet
  facet normal 0 0 1
    outer loop
      vertex -19.25 9.25 1.5
      vertex -20.75 9.25 1.5
      vertex -19.25 -9.25 1.5
    endloop
  endfacet
  facet normal 0 0 1
    outer loop
      vertex -20.75 -9.25 1.5
      vertex -19.25 -9.25 1.5
      vertex -20.75 9.25 1.5
    endloop
  endfacet
  facet normal 0 0 1
    outer loop
      vertex -20.75 10.75 1.5
      vertex -19.25 15 1.5
      vertex -20.75 15 1.5
    endloop
  endfacet
  facet normal 0 0 1
    outer loop
      vertex -19.25 9.25 1.5
      vertex -20.75 10.75 1.5
      vertex -20.75 9.25 1.5
    endloop
  endfacet
  facet normal 0 0 1
    outer loop
      vertex -19.25 -9.25 1.5
      vertex -20.75 -9.25 1.5
      vertex -19.25 -10.75 1.5
    endloop
  endfacet
  facet normal 0 0 1
    outer loop
      vertex -20.75 -10.75 1.5
      vertex -19.25 -10.75 1.5
      vertex -20.75 -9.25 1.5
    endloop
  endfacet
  facet normal 0 0 1
    outer loop
      vertex -19.25 -10.75 1.5
      vertex -20.75 -10.75 1.5
      vertex -19.25 -15 1.5
    endloop
  endfacet
  facet normal 0 0 1
    outer loop
      vertex -19.25 -15 1.5
      vertex -20.75 -10.75 1.5
      vertex -20.75 -15 1.5
    endloop
  endfacet
  facet normal -0 0 1
    outer loop
      vertex -19.25 -9.25 1.5
      vertex -15.75 -10.75 1.5
      vertex -15.75 -9.25 1.5
    endloop
  endfacet
  facet normal 0 0 1
    outer loop
      vertex -15.75 -10.75 1.5
      vertex -19.25 -9.25 1.5
      vertex -19.25 -10.75 1.5
    endloop
  endfacet
  facet normal -0 0 1
    outer loop
      vertex -19.25 10.75 1.5
      vertex -15.75 9.25 1.5
      vertex -15.75 10.75 1.5
    endloop
  endfacet
  facet normal 0 0 1
    outer loop
      vertex -15.75 9.25 1.5
      vertex -19.25 10.75 1.5
      vertex -19.25 9.25 1.5
    endloop
  endfacet
  facet normal 0 0 1
    outer loop
      vertex -15.75 10.75 1.5
      vertex -14.25 10.75 1.5
      vertex -14.25 15 1.5
    endloop
  endfacet
  facet normal 0 0 1
    outer loop
      vertex -14.25 10.75 1.5
      vertex -15.75 10.75 1.5
      vertex -14.25 9.25 1.5
    endloop
  endfacet
  facet normal 0 0 1
    outer loop
      vertex -14.25 9.25 1.5
      vertex -15.75 9.25 1.5
      vertex -14.25 -9.25 1.5
    endloop
  endfacet
  facet normal 0 0 1
    outer loop
      vertex -15.75 -9.25 1.5
      vertex -14.25 -9.25 1.5
      vertex -15.75 9.25 1.5
    endloop
  endfacet
  facet normal 0 0 1
    outer loop
      vertex -15.75 10.75 1.5
      vertex -14.25 15 1.5
      vertex -15.75 15 1.5
    endloop
  endfacet
  facet normal 0 0 1
    outer loop
      vertex -14.25 9.25 1.5
      vertex -15.75 10.75 1.5
      vertex -15.75 9.25 1.5
    endloop
  endfacet
  facet normal 0 0 1
    outer loop
      vertex -14.25 -9.25 1.5
      vertex -15.75 -9.25 1.5
      vertex -14.25 -10.75 1.5
    endloop
  endfacet
  facet normal 0 0 1
    outer loop
      vertex -15.75 -10.75 1.5
      vertex -14.25 -10.75 1.5
      vertex -15.75 -9.25 1.5
    endloop
  endfacet
  facet normal 0 0 1
    outer loop
      vertex -14.25 -10.75 1.5
      vertex -15.75 -10.75 1.5
      vertex -14.25 -15 1.5
    endloop
  endfacet
  facet normal 0 0 1
    outer loop
      vertex -14.25 -15 1.5
      vertex -15.75 -10.75 1.5
      vertex -15.75 -15 1.5
    endloop
  endfacet
  facet normal -0 0 1
    outer loop
      vertex -14.25 -9.25 1.5
      vertex -10.75 -10.75 1.5
      vertex -10.75 -9.25 1.5
    endloop
  endfacet
  facet normal 0 0 1
    outer loop
      vertex -10.75 -10.75 1.5
      vertex -14.25 -9.25 1.5
      vertex -14.25 -10.75 1.5
    endloop
  endfacet
  facet normal -0 0 1
    outer loop
      vertex -14.25 10.75 1.5
      vertex -10.75 9.25 1.5
      vertex -10.75 10.75 1.5
    endloop
  endfacet
  facet normal 0 0 1
    outer loop
      vertex -10.75 9.25 1.5
      vertex -14.25 10.75 1.5
      vertex -14.25 9.25 1.5
    endloop
  endfacet
  facet normal 0 0 1
    outer loop
      vertex -10.75 10.75 1.5
      vertex -9.25 10.75 1.5
      vertex -9.25 15 1.5
    endloop
  endfacet
  facet normal 0 0 1
    outer loop
      vertex -9.25 10.75 1.5
      vertex -10.75 10.75 1.5
      vertex -9.25 9.25 1.5
    endloop
  endfacet
  facet normal 0 0 1
    outer loop
      vertex -9.25 9.25 1.5
      vertex -10.75 9.25 1.5
      vertex -9.25 -9.25 1.5
    endloop
  endfacet
  facet normal 0 0 1
    outer loop
      vertex -10.75 -9.25 1.5
      vertex -9.25 -9.25 1.5
      vertex -10.75 9.25 1.5
    endloop
  endfacet
  facet normal 0 0 1
    outer loop
      vertex -10.75 10.75 1.5
      vertex -9.25 15 1.5
      vertex -10.75 15 1.5
    endloop
  endfacet
  facet normal 0 0 1
    outer loop
      vertex -9.25 9.25 1.5
      vertex -10.75 10.75 1.5
      vertex -10.75 9.25 1.5
    endloop
  endfacet
  facet normal 0 0 1
    outer loop
      vertex -9.25 -9.25 1.5
      vertex -10.75 -9.25 1.5
      vertex -9.25 -10.75 1.5
    endloop
  endfacet
  facet normal 0 0 1
    outer loop
      vertex -10.75 -10.75 1.5
      vertex -9.25 -10.75 1.5
      vertex -10.75 -9.25 1.5
    endloop
  endfacet
  facet normal 0 0 1
    outer loop
      vertex -9.25 -10.75 1.5
      vertex -10.75 -10.75 1.5
      vertex -9.25 -15 1.5
    endloop
  endfacet
  facet normal 0 0 1
    outer loop
      vertex -9.25 -15 1.5
      vertex -10.75 -10.75 1.5
      vertex -10.75 -15 1.5
    endloop
  endfacet
  facet normal -0 0 1
    outer loop
      vertex -9.25 -9.25 1.5
      vertex -5.75 -10.75 1.5
      vertex -5.75 -9.25 1.5
    endloop
  endfacet
  facet normal 0 0 1
    outer loop
      vertex -5.75 -10.75 1.5
      vertex -9.25 -9.25 1.5
      vertex -9.25 -10.75 1.5
    endloop
  endfacet
  facet normal -0 0 1
    outer loop
      vertex -9.25 10.75 1.5
      vertex -5.75 9.25 1.5
      vertex -5.75 10.75 1.5
    endloop
  endfacet
  facet normal 0 0 1
    outer loop
      vertex -5.75 9.25 1.5
      vertex -9.25 10.75 1.5
      vertex -9.25 9.25 1.5
    endloop
  endfacet
  facet normal 0 0 1
    outer loop
      vertex -5.75 10.75 1.5
      vertex -4.25 10.75 1.5
      vertex -4.25 15 1.5
    endloop
  endfacet
  facet normal 0 0 1
    outer loop
      vertex -4.25 10.75 1.5
      vertex -5.75 10.75 1.5
      vertex -4.25 9.25 1.5
    endloop
  endfacet
  facet normal 0 0 1
    outer loop
      vertex -4.25 9.25 1.5
      vertex -5.75 9.25 1.5
      vertex -4.25 -9.25 1.5
    endloop
  endfacet
  facet normal 0 0 1
    outer loop
      vertex -5.75 -9.25 1.5
      vertex -4.25 -9.25 1.5
      vertex -5.75 9.25 1.5
    endloop
  endfacet
  facet normal 0 0 1
    outer loop
      vertex -5.75 10.75 1.5
      vertex -4.25 15 1.5
      vertex -5.75 15 1.5
    endloop
  endfacet
  facet normal 0 0 1
    outer loop
      vertex -4.25 9.25 1.5
      vertex -5.75 10.75 1.5
      vertex -5.75 9.25 1.5
    endloop
  endfacet
  facet normal 0 0 1
    outer loop
      vertex -4.25 -9.25 1.5
      vertex -5.75 -9.25 1.5
      vertex -4.25 -10.75 1.5
    endloop
  endfacet
  facet normal 0 0 1
    outer loop
      vertex -5.75 -10.75 1.5
      vertex -4.25 -10.75 1.5
      vertex -5.75 -9.25 1.5
    endloop
  endfacet
  facet normal 0 0 1
    outer loop
      vertex -4.25 -10.75 1.5
      vertex -5.75 -10.75 1.5
      vertex -4.25 -15 1.5
    endloop
  endfacet
  facet normal 0 0 1
    outer loop
      vertex -4.25 -15 1.5
      vertex -5.75 -10.75 1.5
      vertex -5.75 -15 1.5
    endloop
  endfacet
  facet normal -0 0 1
    outer loop
      vertex -4.25 -9.25 1.5
      vertex -0.75 -10.75 1.5
      vertex -0.75 -9.25 1.5
    endloop
  endfacet
  facet normal 0 0 1
    outer loop
      vertex -0.75 -10.75 1.5
      vertex -4.25 -9.25 1.5
      vertex -4.25 -10.75 1.5
    endloop
  endfacet
  facet normal -0 0 1
    outer loop
      vertex -4.25 10.75 1.5
      vertex -0.75 9.25 1.5
      vertex -0.75 10.75 1.5
    endloop
  endfacet
  facet normal 0 0 1
    outer loop
      vertex -0.75 9.25 1.5
      vertex -4.25 10.75 1.5
      vertex -4.25 9.25 1.5
    endloop
  endfacet
  facet normal 0 0 1
    outer loop
      vertex -0.75 10.75 1.5
      vertex 0.75 10.75 1.5
      vertex 0.75 15 1.5
    endloop
  endfacet
  facet normal 0 0 1
    outer loop
      vertex 0.75 10.75 1.5
      vertex -0.75 10.75 1.5
      vertex 0.75 9.25 1.5
    endloop
  endfacet
  facet normal 0 0 1
    outer loop
      vertex 0.75 9.25 1.5
      vertex -0.75 9.25 1.5
      vertex 0.75 -9.25 1.5
    endloop
  endfacet
  facet normal 0 0 1
    outer loop
      vertex -0.75 -9.25 1.5
      vertex 0.75 -9.25 1.5
      vertex -0.75 9.25 1.5
    endloop
  endfacet
  facet normal 0 0 1
    outer loop
      vertex -0.75 10.75 1.5
      vertex 0.75 15 1.5
      vertex -0.75 15 1.5
    endloop
  endfacet
  facet normal 0 0 1
    outer loop
      vertex 0.75 9.25 1.5
      vertex -0.75 10.75 1.5
      vertex -0.75 9.25 1.5
    endloop
  endfacet
  facet normal 0 0 1
    outer loop
      vertex 0.75 -9.25 1.5
      vertex -0.75 -9.25 1.5
      vertex 0.75 -10.75 1.5
    endloop
  endfacet
  facet normal 0 0 1
    outer loop
      vertex -0.75 -10.75 1.5
      vertex 0.75 -10.75 1.5
      vertex -0.75 -9.25 1.5
    endloop
  endfacet
  facet normal 0 0 1
    outer loop
      vertex 0.75 -10.75 1.5
      vertex -0.75 -10.75 1.5
      vertex 0.75 -15 1.5
    endloop
  endfacet
  facet normal 0 0 1
    outer loop
      vertex 0.75 -15 1.5
      vertex -0.75 -10.75 1.5
      vertex -0.75 -15 1.5
    endloop
  endfacet
  facet normal -0 0 1
    outer loop
      vertex 0.75 -9.25 1.5
      vertex 4.25 -10.75 1.5
      vertex 4.25 -9.25 1.5
    endloop
  endfacet
  facet normal 0 0 1
    outer loop
      vertex 4.25 -10.75 1.5
      vertex 0.75 -9.25 1.5
      vertex 0.75 -10.75 1.5
    endloop
  endfacet
  facet normal -0 0 1
    outer loop
      vertex 0.75 10.75 1.5
      vertex 4.25 9.25 1.5
      vertex 4.25 10.75 1.5
    endloop
  endfacet
  facet normal 0 0 1
    outer loop
      vertex 4.25 9.25 1.5
      vertex 0.75 10.75 1.5
      vertex 0.75 9.25 1.5
    endloop
  endfacet
  facet normal 0 0 1
    outer loop
      vertex 4.25 10.75 1.5
      vertex 5.75 10.75 1.5
      vertex 5.75 15 1.5
    endloop
  endfacet
  facet normal 0 0 1
    outer loop
      vertex 5.75 10.75 1.5
      vertex 4.25 10.75 1.5
      vertex 5.75 9.25 1.5
    endloop
  endfacet
  facet normal 0 0 1
    outer loop
      vertex 5.75 9.25 1.5
      vertex 4.25 9.25 1.5
      vertex 5.75 -9.25 1.5
    endloop
  endfacet
  facet normal 0 0 1
    outer loop
      vertex 4.25 -9.25 1.5
      vertex 5.75 -9.25 1.5
      vertex 4.25 9.25 1.5
    endloop
  endfacet
  facet normal 0 0 1
    outer loop
      vertex 4.25 10.75 1.5
      vertex 5.75 15 1.5
      vertex 4.25 15 1.5
    endloop
  endfacet
  facet normal 0 0 1
    outer loop
      vertex 5.75 9.25 1.5
      vertex 4.25 10.75 1.5
      vertex 4.25 9.25 1.5
    endloop
  endfacet
  facet normal 0 0 1
    outer loop
      vertex 5.75 -9.25 1.5
      vertex 4.25 -9.25 1.5
      vertex 5.75 -10.75 1.5
    endloop
  endfacet
  facet normal 0 0 1
    outer loop
      vertex 4.25 -10.75 1.5
      vertex 5.75 -10.75 1.5
      vertex 4.25 -9.25 1.5
    endloop
  endfacet
  facet normal 0 0 1
    outer loop
      vertex 5.75 -10.75 1.5
      vertex 4.25 -10.75 1.5
      vertex 5.75 -15 1.5
    endloop
  endfacet
  facet normal 0 0 1
    outer loop
      vertex 5.75 -15 1.5
      vertex 4.25 -10.75 1.5
      vertex 4.25 -15 1.5
    endloop
  endfacet
  facet normal -0 0 1
    outer loop
      vertex 5.75 -9.25 1.5
      vertex 9.25 -10.75 1.5
      vertex 9.25 -9.25 1.5
    endloop
  endfacet
  facet normal 0 0 1
    outer loop
      vertex 9.25 -10.75 1.5
      vertex 5.75 -9.25 1.5
      vertex 5.75 -10.75 1.5
    endloop
  endfacet
  facet normal -0 0 1
    outer loop
      vertex 5.75 10.75 1.5
      vertex 9.25 9.25 1.5
      vertex 9.25 10.75 1.5
    endloop
  endfacet
  facet normal 0 0 1
    outer loop
      vertex 9.25 9.25 1.5
      vertex 5.75 10.75 1.5
      vertex 5.75 9.25 1.5
    endloop
  endfacet
  facet normal 0 0 1
    outer loop
      vertex 9.25 10.75 1.5
      vertex 10.75 10.75 1.5
      vertex 10.75 15 1.5
    endloop
  endfacet
  facet normal 0 0 1
    outer loop
      vertex 10.75 10.75 1.5
      vertex 9.25 10.75 1.5
      vertex 10.75 9.25 1.5
    endloop
  endfacet
  facet normal 0 0 1
    outer loop
      vertex 10.75 9.25 1.5
      vertex 9.25 9.25 1.5
      vertex 10.75 -9.25 1.5
    endloop
  endfacet
  facet normal 0 0 1
    outer loop
      vertex 9.25 -9.25 1.5
      vertex 10.75 -9.25 1.5
      vertex 9.25 9.25 1.5
    endloop
  endfacet
  facet normal 0 0 1
    outer loop
      vertex 9.25 10.75 1.5
      vertex 10.75 15 1.5
      vertex 9.25 15 1.5
    endloop
  endfacet
  facet normal 0 0 1
    outer loop
      vertex 10.75 9.25 1.5
      vertex 9.25 10.75 1.5
      vertex 9.25 9.25 1.5
    endloop
  endfacet
  facet normal 0 0 1
    outer loop
      vertex 10.75 -9.25 1.5
      vertex 9.25 -9.25 1.5
      vertex 10.75 -10.75 1.5
    endloop
  endfacet
  facet normal 0 0 1
    outer loop
      vertex 9.25 -10.75 1.5
      vertex 10.75 -10.75 1.5
      vertex 9.25 -9.25 1.5
    endloop
  endfacet
  facet normal 0 0 1
    outer loop
      vertex 10.75 -10.75 1.5
      vertex 9.25 -10.75 1.5
      vertex 10.75 -15 1.5
    endloop
  endfacet
  facet normal 0 0 1
    outer loop
      vertex 10.75 -15 1.5
      vertex 9.25 -10.75 1.5
      vertex 9.25 -15 1.5
    endloop
  endfacet
  facet normal -0 0 1
    outer loop
      vertex 10.75 -9.25 1.5
      vertex 14.25 -10.75 1.5
      vertex 14.25 -9.25 1.5
    endloop
  endfacet
  facet normal 0 0 1
    outer loop
      vertex 14.25 -10.75 1.5
      vertex 10.75 -9.25 1.5
      vertex 10.75 -10.75 1.5
    endloop
  endfacet
  facet normal -0 0 1
    outer loop
      vertex 10.75 10.75 1.5
      vertex 14.25 9.25 1.5
      vertex 14.25 10.75 1.5
    endloop
  endfacet
  facet normal 0 0 1
    outer loop
      vertex 14.25 9.25 1.5
      vertex 10.75 10.75 1.5
      vertex 10.75 9.25 1.5
    endloop
  endfacet
  facet normal 0 0 1
    outer loop
      vertex 14.25 10.75 1.5
      vertex 15.75 10.75 1.5
      vertex 15.75 15 1.5
    endloop
  endfacet
  facet normal 0 0 1
    outer loop
      vertex 15.75 10.75 1.5
      vertex 14.25 10.75 1.5
      vertex 15.75 9.25 1.5
    endloop
  endfacet
  facet normal 0 0 1
    outer loop
      vertex 15.75 9.25 1.5
      vertex 14.25 9.25 1.5
      vertex 15.75 -9.25 1.5
    endloop
  endfacet
  facet normal 0 0 1
    outer loop
      vertex 14.25 -9.25 1.5
      vertex 15.75 -9.25 1.5
      vertex 14.25 9.25 1.5
    endloop
  endfacet
  facet normal 0 0 1
    outer loop
      vertex 14.25 10.75 1.5
      vertex 15.75 15 1.5
      vertex 14.25 15 1.5
    endloop
  endfacet
  facet normal 0 0 1
    outer loop
      vertex 15.75 9.25 1.5
      vertex 14.25 10.75 1.5
      vertex 14.25 9.25 1.5
    endloop
  endfacet
  facet normal 0 0 1
    outer loop
      vertex 15.75 -9.25 1.5
      vertex 14.25 -9.25 1.5
      vertex 15.75 -10.75 1.5
    endloop
  endfacet
  facet normal 0 0 1
    outer loop
      vertex 14.25 -10.75 1.5
      vertex 15.75 -10.75 1.5
      vertex 14.25 -9.25 1.5
    endloop
  endfacet
  facet normal 0 0 1
    outer loop
      vertex 15.75 -10.75 1.5
      vertex 14.25 -10.75 1.5
      vertex 15.75 -15 1.5
    endloop
  endfacet
  facet normal 0 0 1
    outer loop
      vertex 15.75 -15 1.5
      vertex 14.25 -10.75 1.5
      vertex 14.25 -15 1.5
    endloop
  endfacet
  facet normal -0 0 1
    outer loop
      vertex 15.75 -9.25 1.5
      vertex 19.25 -10.75 1.5
      vertex 19.25 -9.25 1.5
    endloop
  endfacet
  facet normal 0 0 1
    outer loop
      vertex 19.25 -10.75 1.5
      vertex 15.75 -9.25 1.5
      vertex 15.75 -10.75 1.5
    endloop
  endfacet
  facet normal -0 0 1
    outer loop
      vertex 15.75 10.75 1.5
      vertex 19.25 9.25 1.5
      vertex 19.25 10.75 1.5
    endloop
  endfacet
  facet normal 0 0 1
    outer loop
      vertex 19.25 9.25 1.5
      vertex 15.75 10.75 1.5
      vertex 15.75 9.25 1.5
    endloop
  endfacet
  facet normal 0 0 1
    outer loop
      vertex 19.25 10.75 1.5
      vertex 20.75 10.75 1.5
      vertex 20.75 15 1.5
    endloop
  endfacet
  facet normal 0 0 1
    outer loop
      vertex 20.75 10.75 1.5
      vertex 19.25 10.75 1.5
      vertex 20.75 9.25 1.5
    endloop
  endfacet
  facet normal 0 0 1
    outer loop
      vertex 20.75 9.25 1.5
      vertex 19.25 9.25 1.5
      vertex 20.75 -9.25 1.5
    endloop
  endfacet
  facet normal 0 0 1
    outer loop
      vertex 19.25 -9.25 1.5
      vertex 20.75 -9.25 1.5
      vertex 19.25 9.25 1.5
    endloop
  endfacet
  facet normal 0 0 1
    outer loop
      vertex 19.25 10.75 1.5
      vertex 20.75 15 1.5
      vertex 19.25 15 1.5
    endloop
  endfacet
  facet normal 0 0 1
    outer loop
      vertex 20.75 9.25 1.5
      vertex 19.25 10.75 1.5
      vertex 19.25 9.25 1.5
    endloop
  endfacet
  facet normal 0 0 1
    outer loop
      vertex 20.75 -9.25 1.5
      vertex 19.25 -9.25 1.5
      vertex 20.75 -10.75 1.5
    endloop
  endfacet
  facet normal 0 0 1
    outer loop
      vertex 19.25 -10.75 1.5
      vertex 20.75 -10.75 1.5
      vertex 19.25 -9.25 1.5
    endloop
  endfacet
  facet normal 0 0 1
    outer loop
      vertex 20.75 -10.75 1.5
      vertex 19.25 -10.75 1.5
      vertex 20.75 -15 1.5
    endloop
  endfacet
  facet normal 0 0 1
    outer loop
      vertex 20.75 -15 1.5
      vertex 19.25 -10.75 1.5
      vertex 19.25 -15 1.5
    endloop
  endfacet
  facet normal -0 0 1
    outer loop
      vertex 20.75 -9.25 1.5
      vertex 26 -10.75 1.5
      vertex 26 -9.25 1.5
    endloop
  endfacet
  facet normal 0 0 1
    outer loop
      vertex 26 -10.75 1.5
      vertex 20.75 -9.25 1.5
      vertex 20.75 -10.75 1.5
    endloop
  endfacet
  facet normal -0 0 1
    outer loop
      vertex 20.75 10.75 1.5
      vertex 26 9.25 1.5
      vertex 26 10.75 1.5
    endloop
  endfacet
  facet normal 0 0 1
    outer loop
      vertex 26 9.25 1.5
      vertex 20.75 10.75 1.5
      vertex 20.75 9.25 1.5
    endloop
  endfacet
  facet normal 0 0 1
    outer loop
      vertex 26 10.75 1.5
      vertex 28.5 45 1.5
      vertex 26 42 1.5
    endloop
  endfacet
  facet normal 0 0 1
    outer loop
      vertex 28.5 45 1.5
      vertex -26 42 1.5
      vertex 26 42 1.5
    endloop
  endfacet
  facet normal 0 0 1
    outer loop
      vertex -28.5 45 1.5
      vertex -26 10.75 1.5
      vertex -26 42 1.5
    endloop
  endfacet
  facet normal 0 0 1
    outer loop
      vertex -26 10.75 1.5
      vertex -28.5 45 1.5
      vertex -26 9.25 1.5
    endloop
  endfacet
  facet normal 0 0 1
    outer loop
      vertex -26 9.25 1.5
      vertex -28.5 45 1.5
      vertex -26 -9.25 1.5
    endloop
  endfacet
  facet normal 0 0 1
    outer loop
      vertex -28.5 -45 1.5
      vertex -26 -9.25 1.5
      vertex -28.5 45 1.5
    endloop
  endfacet
  facet normal 0 0 1
    outer loop
      vertex -26 -9.25 1.5
      vertex -28.5 -45 1.5
      vertex -26 -10.75 1.5
    endloop
  endfacet
  facet normal -0 0 1
    outer loop
      vertex -28.5 45 1.5
      vertex -26 42 1.5
      vertex 28.5 45 1.5
    endloop
  endfacet
  facet normal 0 0 1
    outer loop
      vertex 26 9.25 1.5
      vertex 28.5 45 1.5
      vertex 26 10.75 1.5
    endloop
  endfacet
  facet normal 0 0 1
    outer loop
      vertex 28.5 45 1.5
      vertex 26 9.25 1.5
      vertex 28.5 -45 1.5
    endloop
  endfacet
  facet normal -0 0 1
    outer loop
      vertex 26 -9.25 1.5
      vertex 28.5 -45 1.5
      vertex 26 9.25 1.5
    endloop
  endfacet
  facet normal -0 0 1
    outer loop
      vertex 26 -10.75 1.5
      vertex 28.5 -45 1.5
      vertex 26 -9.25 1.5
    endloop
  endfacet
  facet normal -0 0 1
    outer loop
      vertex 26 -42 1.5
      vertex 28.5 -45 1.5
      vertex 26 -10.75 1.5
    endloop
  endfacet
  facet normal -0 0 1
    outer loop
      vertex -26 -42 1.5
      vertex 28.5 -45 1.5
      vertex 26 -42 1.5
    endloop
  endfacet
  facet normal 0 0 1
    outer loop
      vertex -26 -42 1.5
      vertex -28.5 -45 1.5
      vertex 28.5 -45 1.5
    endloop
  endfacet
  facet normal 0 0 1
    outer loop
      vertex -26 -10.75 1.5
      vertex -28.5 -45 1.5
      vertex -26 -42 1.5
    endloop
  endfacet
  facet normal -1 0 0
    outer loop
      vertex 26 10.75 0.15
      vertex 26 42 1.5
      vertex 26 42 0.15
    endloop
  endfacet
  facet normal -1 -0 0
    outer loop
      vertex 26 42 1.5
      vertex 26 10.75 0.15
      vertex 26 10.75 1.5
    endloop
  endfacet
  facet normal -1 0 0
    outer loop
      vertex 26 -42 0.15
      vertex 26 -10.75 1.5
      vertex 26 -10.75 0.15
    endloop
  endfacet
  facet normal -1 -0 0
    outer loop
      vertex 26 -10.75 1.5
      vertex 26 -42 0.15
      vertex 26 -42 1.5
    endloop
  endfacet
  facet normal -1 0 0
    outer loop
      vertex 26 -9.25 0.15
      vertex 26 9.25 1.5
      vertex 26 9.25 0.15
    endloop
  endfacet
  facet normal -1 -0 0
    outer loop
      vertex 26 9.25 1.5
      vertex 26 -9.25 0.15
      vertex 26 -9.25 1.5
    endloop
  endfacet
  facet normal 1 -0 0
    outer loop
      vertex -26 10.75 1.5
      vertex -26 42 0.15
      vertex -26 42 1.5
    endloop
  endfacet
  facet normal 1 0 0
    outer loop
      vertex -26 42 0.15
      vertex -26 10.75 1.5
      vertex -26 10.75 0.15
    endloop
  endfacet
  facet normal 1 -0 0
    outer loop
      vertex -26 -42 1.5
      vertex -26 -10.75 0.15
      vertex -26 -10.75 1.5
    endloop
  endfacet
  facet normal 1 0 0
    outer loop
      vertex -26 -10.75 0.15
      vertex -26 -42 1.5
      vertex -26 -42 0.15
    endloop
  endfacet
  facet normal 1 -0 0
    outer loop
      vertex -26 -9.25 1.5
      vertex -26 9.25 0.15
      vertex -26 9.25 1.5
    endloop
  endfacet
  facet normal 1 0 0
    outer loop
      vertex -26 9.25 0.15
      vertex -26 -9.25 1.5
      vertex -26 -9.25 0.15
    endloop
  endfacet
  facet normal 0 -1 0
    outer loop
      vertex -26 42 0.15
      vertex 26 42 1.5
      vertex -26 42 1.5
    endloop
  endfacet
  facet normal 0 -1 -0
    outer loop
      vertex 26 42 1.5
      vertex -26 42 0.15
      vertex 26 42 0.15
    endloop
  endfacet
  facet normal 0 1 -0
    outer loop
      vertex 26 -42 0.15
      vertex -26 -42 1.5
      vertex 26 -42 1.5
    endloop
  endfacet
  facet normal 0 1 0
    outer loop
      vertex -26 -42 1.5
      vertex 26 -42 0.15
      vertex -26 -42 0.15
    endloop
  endfacet
  facet normal 1 -0 0
    outer loop
      vertex -19.25 10.75 1.5
      vertex -19.25 15 0.15
      vertex -19.25 15 1.5
    endloop
  endfacet
  facet normal 1 0 0
    outer loop
      vertex -19.25 15 0.15
      vertex -19.25 10.75 1.5
      vertex -19.25 10.75 0.15
    endloop
  endfacet
  facet normal 1 -0 0
    outer loop
      vertex -19.25 -15 1.5
      vertex -19.25 -10.75 0.15
      vertex -19.25 -10.75 1.5
    endloop
  endfacet
  facet normal 1 0 0
    outer loop
      vertex -19.25 -10.75 0.15
      vertex -19.25 -15 1.5
      vertex -19.25 -15 0.15
    endloop
  endfacet
  facet normal 1 -0 0
    outer loop
      vertex -19.25 -9.25 1.5
      vertex -19.25 9.25 0.15
      vertex -19.25 9.25 1.5
    endloop
  endfacet
  facet normal 1 0 0
    outer loop
      vertex -19.25 9.25 0.15
      vertex -19.25 -9.25 1.5
      vertex -19.25 -9.25 0.15
    endloop
  endfacet
  facet normal -1 0 0
    outer loop
      vertex -20.75 10.75 0.15
      vertex -20.75 15 1.5
      vertex -20.75 15 0.15
    endloop
  endfacet
  facet normal -1 -0 0
    outer loop
      vertex -20.75 15 1.5
      vertex -20.75 10.75 0.15
      vertex -20.75 10.75 1.5
    endloop
  endfacet
  facet normal -1 0 0
    outer loop
      vertex -20.75 -15 0.15
      vertex -20.75 -10.75 1.5
      vertex -20.75 -10.75 0.15
    endloop
  endfacet
  facet normal -1 -0 0
    outer loop
      vertex -20.75 -10.75 1.5
      vertex -20.75 -15 0.15
      vertex -20.75 -15 1.5
    endloop
  endfacet
  facet normal -1 0 0
    outer loop
      vertex -20.75 -9.25 0.15
      vertex -20.75 9.25 1.5
      vertex -20.75 9.25 0.15
    endloop
  endfacet
  facet normal -1 -0 0
    outer loop
      vertex -20.75 9.25 1.5
      vertex -20.75 -9.25 0.15
      vertex -20.75 -9.25 1.5
    endloop
  endfacet
  facet normal 0 1 -0
    outer loop
      vertex -19.25 15 0.15
      vertex -20.75 15 1.5
      vertex -19.25 15 1.5
    endloop
  endfacet
  facet normal 0 1 0
    outer loop
      vertex -20.75 15 1.5
      vertex -19.25 15 0.15
      vertex -20.75 15 0.15
    endloop
  endfacet
  facet normal 0 -1 0
    outer loop
      vertex -20.75 -15 0.15
      vertex -19.25 -15 1.5
      vertex -20.75 -15 1.5
    endloop
  endfacet
  facet normal 0 -1 -0
    outer loop
      vertex -19.25 -15 1.5
      vertex -20.75 -15 0.15
      vertex -19.25 -15 0.15
    endloop
  endfacet
  facet normal 1 -0 0
    outer loop
      vertex -14.25 10.75 1.5
      vertex -14.25 15 0.15
      vertex -14.25 15 1.5
    endloop
  endfacet
  facet normal 1 0 0
    outer loop
      vertex -14.25 15 0.15
      vertex -14.25 10.75 1.5
      vertex -14.25 10.75 0.15
    endloop
  endfacet
  facet normal 1 -0 0
    outer loop
      vertex -14.25 -15 1.5
      vertex -14.25 -10.75 0.15
      vertex -14.25 -10.75 1.5
    endloop
  endfacet
  facet normal 1 0 0
    outer loop
      vertex -14.25 -10.75 0.15
      vertex -14.25 -15 1.5
      vertex -14.25 -15 0.15
    endloop
  endfacet
  facet normal 1 -0 0
    outer loop
      vertex -14.25 -9.25 1.5
      vertex -14.25 9.25 0.15
      vertex -14.25 9.25 1.5
    endloop
  endfacet
  facet normal 1 0 0
    outer loop
      vertex -14.25 9.25 0.15
      vertex -14.25 -9.25 1.5
      vertex -14.25 -9.25 0.15
    endloop
  endfacet
  facet normal -1 0 0
    outer loop
      vertex -15.75 10.75 0.15
      vertex -15.75 15 1.5
      vertex -15.75 15 0.15
    endloop
  endfacet
  facet normal -1 -0 0
    outer loop
      vertex -15.75 15 1.5
      vertex -15.75 10.75 0.15
      vertex -15.75 10.75 1.5
    endloop
  endfacet
  facet normal -1 0 0
    outer loop
      vertex -15.75 -15 0.15
      vertex -15.75 -10.75 1.5
      vertex -15.75 -10.75 0.15
    endloop
  endfacet
  facet normal -1 -0 0
    outer loop
      vertex -15.75 -10.75 1.5
      vertex -15.75 -15 0.15
      vertex -15.75 -15 1.5
    endloop
  endfacet
  facet normal -1 0 0
    outer loop
      vertex -15.75 -9.25 0.15
      vertex -15.75 9.25 1.5
      vertex -15.75 9.25 0.15
    endloop
  endfacet
  facet normal -1 -0 0
    outer loop
      vertex -15.75 9.25 1.5
      vertex -15.75 -9.25 0.15
      vertex -15.75 -9.25 1.5
    endloop
  endfacet
  facet normal 0 1 -0
    outer loop
      vertex -14.25 15 0.15
      vertex -15.75 15 1.5
      vertex -14.25 15 1.5
    endloop
  endfacet
  facet normal 0 1 0
    outer loop
      vertex -15.75 15 1.5
      vertex -14.25 15 0.15
      vertex -15.75 15 0.15
    endloop
  endfacet
  facet normal 0 -1 0
    outer loop
      vertex -15.75 -15 0.15
      vertex -14.25 -15 1.5
      vertex -15.75 -15 1.5
    endloop
  endfacet
  facet normal 0 -1 -0
    outer loop
      vertex -14.25 -15 1.5
      vertex -15.75 -15 0.15
      vertex -14.25 -15 0.15
    endloop
  endfacet
  facet normal 1 -0 0
    outer loop
      vertex -9.25 10.75 1.5
      vertex -9.25 15 0.15
      vertex -9.25 15 1.5
    endloop
  endfacet
  facet normal 1 0 0
    outer loop
      vertex -9.25 15 0.15
      vertex -9.25 10.75 1.5
      vertex -9.25 10.75 0.15
    endloop
  endfacet
  facet normal 1 -0 0
    outer loop
      vertex -9.25 -15 1.5
      vertex -9.25 -10.75 0.15
      vertex -9.25 -10.75 1.5
    endloop
  endfacet
  facet normal 1 0 0
    outer loop
      vertex -9.25 -10.75 0.15
      vertex -9.25 -15 1.5
      vertex -9.25 -15 0.15
    endloop
  endfacet
  facet normal 1 -0 0
    outer loop
      vertex -9.25 -9.25 1.5
      vertex -9.25 9.25 0.15
      vertex -9.25 9.25 1.5
    endloop
  endfacet
  facet normal 1 0 0
    outer loop
      vertex -9.25 9.25 0.15
      vertex -9.25 -9.25 1.5
      vertex -9.25 -9.25 0.15
    endloop
  endfacet
  facet normal -1 0 0
    outer loop
      vertex -10.75 10.75 0.15
      vertex -10.75 15 1.5
      vertex -10.75 15 0.15
    endloop
  endfacet
  facet normal -1 -0 0
    outer loop
      vertex -10.75 15 1.5
      vertex -10.75 10.75 0.15
      vertex -10.75 10.75 1.5
    endloop
  endfacet
  facet normal -1 0 0
    outer loop
      vertex -10.75 -15 0.15
      vertex -10.75 -10.75 1.5
      vertex -10.75 -10.75 0.15
    endloop
  endfacet
  facet normal -1 -0 0
    outer loop
      vertex -10.75 -10.75 1.5
      vertex -10.75 -15 0.15
      vertex -10.75 -15 1.5
    endloop
  endfacet
  facet normal -1 0 0
    outer loop
      vertex -10.75 -9.25 0.15
      vertex -10.75 9.25 1.5
      vertex -10.75 9.25 0.15
    endloop
  endfacet
  facet normal -1 -0 0
    outer loop
      vertex -10.75 9.25 1.5
      vertex -10.75 -9.25 0.15
      vertex -10.75 -9.25 1.5
    endloop
  endfacet
  facet normal 0 1 -0
    outer loop
      vertex -9.25 15 0.15
      vertex -10.75 15 1.5
      vertex -9.25 15 1.5
    endloop
  endfacet
  facet normal 0 1 0
    outer loop
      vertex -10.75 15 1.5
      vertex -9.25 15 0.15
      vertex -10.75 15 0.15
    endloop
  endfacet
  facet normal 0 -1 0
    outer loop
      vertex -10.75 -15 0.15
      vertex -9.25 -15 1.5
      vertex -10.75 -15 1.5
    endloop
  endfacet
  facet normal 0 -1 -0
    outer loop
      vertex -9.25 -15 1.5
      vertex -10.75 -15 0.15
      vertex -9.25 -15 0.15
    endloop
  endfacet
  facet normal 1 -0 0
    outer loop
      vertex -4.25 10.75 1.5
      vertex -4.25 15 0.15
      vertex -4.25 15 1.5
    endloop
  endfacet
  facet normal 1 0 0
    outer loop
      vertex -4.25 15 0.15
      vertex -4.25 10.75 1.5
      vertex -4.25 10.75 0.15
    endloop
  endfacet
  facet normal 1 -0 0
    outer loop
      vertex -4.25 -15 1.5
      vertex -4.25 -10.75 0.15
      vertex -4.25 -10.75 1.5
    endloop
  endfacet
  facet normal 1 0 0
    outer loop
      vertex -4.25 -10.75 0.15
      vertex -4.25 -15 1.5
      vertex -4.25 -15 0.15
    endloop
  endfacet
  facet normal 1 -0 0
    outer loop
      vertex -4.25 -9.25 1.5
      vertex -4.25 9.25 0.15
      vertex -4.25 9.25 1.5
    endloop
  endfacet
  facet normal 1 0 0
    outer loop
      vertex -4.25 9.25 0.15
      vertex -4.25 -9.25 1.5
      vertex -4.25 -9.25 0.15
    endloop
  endfacet
  facet normal -1 0 0
    outer loop
      vertex -5.75 10.75 0.15
      vertex -5.75 15 1.5
      vertex -5.75 15 0.15
    endloop
  endfacet
  facet normal -1 -0 0
    outer loop
      vertex -5.75 15 1.5
      vertex -5.75 10.75 0.15
      vertex -5.75 10.75 1.5
    endloop
  endfacet
  facet normal -1 0 0
    outer loop
      vertex -5.75 -15 0.15
      vertex -5.75 -10.75 1.5
      vertex -5.75 -10.75 0.15
    endloop
  endfacet
  facet normal -1 -0 0
    outer loop
      vertex -5.75 -10.75 1.5
      vertex -5.75 -15 0.15
      vertex -5.75 -15 1.5
    endloop
  endfacet
  facet normal -1 0 0
    outer loop
      vertex -5.75 -9.25 0.15
      vertex -5.75 9.25 1.5
      vertex -5.75 9.25 0.15
    endloop
  endfacet
  facet normal -1 -0 0
    outer loop
      vertex -5.75 9.25 1.5
      vertex -5.75 -9.25 0.15
      vertex -5.75 -9.25 1.5
    endloop
  endfacet
  facet normal 0 1 -0
    outer loop
      vertex -4.25 15 0.15
      vertex -5.75 15 1.5
      vertex -4.25 15 1.5
    endloop
  endfacet
  facet normal 0 1 0
    outer loop
      vertex -5.75 15 1.5
      vertex -4.25 15 0.15
      vertex -5.75 15 0.15
    endloop
  endfacet
  facet normal 0 -1 0
    outer loop
      vertex -5.75 -15 0.15
      vertex -4.25 -15 1.5
      vertex -5.75 -15 1.5
    endloop
  endfacet
  facet normal 0 -1 -0
    outer loop
      vertex -4.25 -15 1.5
      vertex -5.75 -15 0.15
      vertex -4.25 -15 0.15
    endloop
  endfacet
  facet normal 1 -0 0
    outer loop
      vertex 0.75 10.75 1.5
      vertex 0.75 15 0.15
      vertex 0.75 15 1.5
    endloop
  endfacet
  facet normal 1 0 0
    outer loop
      vertex 0.75 15 0.15
      vertex 0.75 10.75 1.5
      vertex 0.75 10.75 0.15
    endloop
  endfacet
  facet normal 1 -0 0
    outer loop
      vertex 0.75 -15 1.5
      vertex 0.75 -10.75 0.15
      vertex 0.75 -10.75 1.5
    endloop
  endfacet
  facet normal 1 0 0
    outer loop
      vertex 0.75 -10.75 0.15
      vertex 0.75 -15 1.5
      vertex 0.75 -15 0.15
    endloop
  endfacet
  facet normal 1 -0 0
    outer loop
      vertex 0.75 -9.25 1.5
      vertex 0.75 9.25 0.15
      vertex 0.75 9.25 1.5
    endloop
  endfacet
  facet normal 1 0 0
    outer loop
      vertex 0.75 9.25 0.15
      vertex 0.75 -9.25 1.5
      vertex 0.75 -9.25 0.15
    endloop
  endfacet
  facet normal -1 0 0
    outer loop
      vertex -0.75 10.75 0.15
      vertex -0.75 15 1.5
      vertex -0.75 15 0.15
    endloop
  endfacet
  facet normal -1 -0 0
    outer loop
      vertex -0.75 15 1.5
      vertex -0.75 10.75 0.15
      vertex -0.75 10.75 1.5
    endloop
  endfacet
  facet normal -1 0 0
    outer loop
      vertex -0.75 -15 0.15
      vertex -0.75 -10.75 1.5
      vertex -0.75 -10.75 0.15
    endloop
  endfacet
  facet normal -1 -0 0
    outer loop
      vertex -0.75 -10.75 1.5
      vertex -0.75 -15 0.15
      vertex -0.75 -15 1.5
    endloop
  endfacet
  facet normal -1 0 0
    outer loop
      vertex -0.75 -9.25 0.15
      vertex -0.75 9.25 1.5
      vertex -0.75 9.25 0.15
    endloop
  endfacet
  facet normal -1 -0 0
    outer loop
      vertex -0.75 9.25 1.5
      vertex -0.75 -9.25 0.15
      vertex -0.75 -9.25 1.5
    endloop
  endfacet
  facet normal 0 1 -0
    outer loop
      vertex 0.75 15 0.15
      vertex -0.75 15 1.5
      vertex 0.75 15 1.5
    endloop
  endfacet
  facet normal 0 1 0
    outer loop
      vertex -0.75 15 1.5
      vertex 0.75 15 0.15
      vertex -0.75 15 0.15
    endloop
  endfacet
  facet normal 0 -1 0
    outer loop
      vertex -0.75 -15 0.15
      vertex 0.75 -15 1.5
      vertex -0.75 -15 1.5
    endloop
  endfacet
  facet normal 0 -1 -0
    outer loop
      vertex 0.75 -15 1.5
      vertex -0.75 -15 0.15
      vertex 0.75 -15 0.15
    endloop
  endfacet
  facet normal 1 -0 0
    outer loop
      vertex 5.75 10.75 1.5
      vertex 5.75 15 0.15
      vertex 5.75 15 1.5
    endloop
  endfacet
  facet normal 1 0 0
    outer loop
      vertex 5.75 15 0.15
      vertex 5.75 10.75 1.5
      vertex 5.75 10.75 0.15
    endloop
  endfacet
  facet normal 1 -0 0
    outer loop
      vertex 5.75 -15 1.5
      vertex 5.75 -10.75 0.15
      vertex 5.75 -10.75 1.5
    endloop
  endfacet
  facet normal 1 0 0
    outer loop
      vertex 5.75 -10.75 0.15
      vertex 5.75 -15 1.5
      vertex 5.75 -15 0.15
    endloop
  endfacet
  facet normal 1 -0 0
    outer loop
      vertex 5.75 -9.25 1.5
      vertex 5.75 9.25 0.15
      vertex 5.75 9.25 1.5
    endloop
  endfacet
  facet normal 1 0 0
    outer loop
      vertex 5.75 9.25 0.15
      vertex 5.75 -9.25 1.5
      vertex 5.75 -9.25 0.15
    endloop
  endfacet
  facet normal -1 0 0
    outer loop
      vertex 4.25 10.75 0.15
      vertex 4.25 15 1.5
      vertex 4.25 15 0.15
    endloop
  endfacet
  facet normal -1 -0 0
    outer loop
      vertex 4.25 15 1.5
      vertex 4.25 10.75 0.15
      vertex 4.25 10.75 1.5
    endloop
  endfacet
  facet normal -1 0 0
    outer loop
      vertex 4.25 -15 0.15
      vertex 4.25 -10.75 1.5
      vertex 4.25 -10.75 0.15
    endloop
  endfacet
  facet normal -1 -0 0
    outer loop
      vertex 4.25 -10.75 1.5
      vertex 4.25 -15 0.15
      vertex 4.25 -15 1.5
    endloop
  endfacet
  facet normal -1 0 0
    outer loop
      vertex 4.25 -9.25 0.15
      vertex 4.25 9.25 1.5
      vertex 4.25 9.25 0.15
    endloop
  endfacet
  facet normal -1 -0 0
    outer loop
      vertex 4.25 9.25 1.5
      vertex 4.25 -9.25 0.15
      vertex 4.25 -9.25 1.5
    endloop
  endfacet
  facet normal 0 1 -0
    outer loop
      vertex 5.75 15 0.15
      vertex 4.25 15 1.5
      vertex 5.75 15 1.5
    endloop
  endfacet
  facet normal 0 1 0
    outer loop
      vertex 4.25 15 1.5
      vertex 5.75 15 0.15
      vertex 4.25 15 0.15
    endloop
  endfacet
  facet normal 0 -1 0
    outer loop
      vertex 4.25 -15 0.15
      vertex 5.75 -15 1.5
      vertex 4.25 -15 1.5
    endloop
  endfacet
  facet normal 0 -1 -0
    outer loop
      vertex 5.75 -15 1.5
      vertex 4.25 -15 0.15
      vertex 5.75 -15 0.15
    endloop
  endfacet
  facet normal 1 -0 0
    outer loop
      vertex 10.75 10.75 1.5
      vertex 10.75 15 0.15
      vertex 10.75 15 1.5
    endloop
  endfacet
  facet normal 1 0 0
    outer loop
      vertex 10.75 15 0.15
      vertex 10.75 10.75 1.5
      vertex 10.75 10.75 0.15
    endloop
  endfacet
  facet normal 1 -0 0
    outer loop
      vertex 10.75 -15 1.5
      vertex 10.75 -10.75 0.15
      vertex 10.75 -10.75 1.5
    endloop
  endfacet
  facet normal 1 0 0
    outer loop
      vertex 10.75 -10.75 0.15
      vertex 10.75 -15 1.5
      vertex 10.75 -15 0.15
    endloop
  endfacet
  facet normal 1 -0 0
    outer loop
      vertex 10.75 -9.25 1.5
      vertex 10.75 9.25 0.15
      vertex 10.75 9.25 1.5
    endloop
  endfacet
  facet normal 1 0 0
    outer loop
      vertex 10.75 9.25 0.15
      vertex 10.75 -9.25 1.5
      vertex 10.75 -9.25 0.15
    endloop
  endfacet
  facet normal -1 0 0
    outer loop
      vertex 9.25 10.75 0.15
      vertex 9.25 15 1.5
      vertex 9.25 15 0.15
    endloop
  endfacet
  facet normal -1 -0 0
    outer loop
      vertex 9.25 15 1.5
      vertex 9.25 10.75 0.15
      vertex 9.25 10.75 1.5
    endloop
  endfacet
  facet normal -1 0 0
    outer loop
      vertex 9.25 -15 0.15
      vertex 9.25 -10.75 1.5
      vertex 9.25 -10.75 0.15
    endloop
  endfacet
  facet normal -1 -0 0
    outer loop
      vertex 9.25 -10.75 1.5
      vertex 9.25 -15 0.15
      vertex 9.25 -15 1.5
    endloop
  endfacet
  facet normal -1 0 0
    outer loop
      vertex 9.25 -9.25 0.15
      vertex 9.25 9.25 1.5
      vertex 9.25 9.25 0.15
    endloop
  endfacet
  facet normal -1 -0 0
    outer loop
      vertex 9.25 9.25 1.5
      vertex 9.25 -9.25 0.15
      vertex 9.25 -9.25 1.5
    endloop
  endfacet
  facet normal 0 1 -0
    outer loop
      vertex 10.75 15 0.15
      vertex 9.25 15 1.5
      vertex 10.75 15 1.5
    endloop
  endfacet
  facet normal 0 1 0
    outer loop
      vertex 9.25 15 1.5
      vertex 10.75 15 0.15
      vertex 9.25 15 0.15
    endloop
  endfacet
  facet normal 0 -1 0
    outer loop
      vertex 9.25 -15 0.15
      vertex 10.75 -15 1.5
      vertex 9.25 -15 1.5
    endloop
  endfacet
  facet normal 0 -1 -0
    outer loop
      vertex 10.75 -15 1.5
      vertex 9.25 -15 0.15
      vertex 10.75 -15 0.15
    endloop
  endfacet
  facet normal 1 -0 0
    outer loop
      vertex 15.75 10.75 1.5
      vertex 15.75 15 0.15
      vertex 15.75 15 1.5
    endloop
  endfacet
  facet normal 1 0 0
    outer loop
      vertex 15.75 15 0.15
      vertex 15.75 10.75 1.5
      vertex 15.75 10.75 0.15
    endloop
  endfacet
  facet normal 1 -0 0
    outer loop
      vertex 15.75 -15 1.5
      vertex 15.75 -10.75 0.15
      vertex 15.75 -10.75 1.5
    endloop
  endfacet
  facet normal 1 0 0
    outer loop
      vertex 15.75 -10.75 0.15
      vertex 15.75 -15 1.5
      vertex 15.75 -15 0.15
    endloop
  endfacet
  facet normal 1 -0 0
    outer loop
      vertex 15.75 -9.25 1.5
      vertex 15.75 9.25 0.15
      vertex 15.75 9.25 1.5
    endloop
  endfacet
  facet normal 1 0 0
    outer loop
      vertex 15.75 9.25 0.15
      vertex 15.75 -9.25 1.5
      vertex 15.75 -9.25 0.15
    endloop
  endfacet
  facet normal -1 0 0
    outer loop
      vertex 14.25 10.75 0.15
      vertex 14.25 15 1.5
      vertex 14.25 15 0.15
    endloop
  endfacet
  facet normal -1 -0 0
    outer loop
      vertex 14.25 15 1.5
      vertex 14.25 10.75 0.15
      vertex 14.25 10.75 1.5
    endloop
  endfacet
  facet normal -1 0 0
    outer loop
      vertex 14.25 -15 0.15
      vertex 14.25 -10.75 1.5
      vertex 14.25 -10.75 0.15
    endloop
  endfacet
  facet normal -1 -0 0
    outer loop
      vertex 14.25 -10.75 1.5
      vertex 14.25 -15 0.15
      vertex 14.25 -15 1.5
    endloop
  endfacet
  facet normal -1 0 0
    outer loop
      vertex 14.25 -9.25 0.15
      vertex 14.25 9.25 1.5
      vertex 14.25 9.25 0.15
    endloop
  endfacet
  facet normal -1 -0 0
    outer loop
      vertex 14.25 9.25 1.5
      vertex 14.25 -9.25 0.15
      vertex 14.25 -9.25 1.5
    endloop
  endfacet
  facet normal 0 1 -0
    outer loop
      vertex 15.75 15 0.15
      vertex 14.25 15 1.5
      vertex 15.75 15 1.5
    endloop
  endfacet
  facet normal 0 1 0
    outer loop
      vertex 14.25 15 1.5
      vertex 15.75 15 0.15
      vertex 14.25 15 0.15
    endloop
  endfacet
  facet normal 0 -1 0
    outer loop
      vertex 14.25 -15 0.15
      vertex 15.75 -15 1.5
      vertex 14.25 -15 1.5
    endloop
  endfacet
  facet normal 0 -1 -0
    outer loop
      vertex 15.75 -15 1.5
      vertex 14.25 -15 0.15
      vertex 15.75 -15 0.15
    endloop
  endfacet
  facet normal 1 -0 0
    outer loop
      vertex 20.75 10.75 1.5
      vertex 20.75 15 0.15
      vertex 20.75 15 1.5
    endloop
  endfacet
  facet normal 1 0 0
    outer loop
      vertex 20.75 15 0.15
      vertex 20.75 10.75 1.5
      vertex 20.75 10.75 0.15
    endloop
  endfacet
  facet normal 1 -0 0
    outer loop
      vertex 20.75 -15 1.5
      vertex 20.75 -10.75 0.15
      vertex 20.75 -10.75 1.5
    endloop
  endfacet
  facet normal 1 0 0
    outer loop
      vertex 20.75 -10.75 0.15
      vertex 20.75 -15 1.5
      vertex 20.75 -15 0.15
    endloop
  endfacet
  facet normal 1 -0 0
    outer loop
      vertex 20.75 -9.25 1.5
      vertex 20.75 9.25 0.15
      vertex 20.75 9.25 1.5
    endloop
  endfacet
  facet normal 1 0 0
    outer loop
      vertex 20.75 9.25 0.15
      vertex 20.75 -9.25 1.5
      vertex 20.75 -9.25 0.15
    endloop
  endfacet
  facet normal -1 0 0
    outer loop
      vertex 19.25 10.75 0.15
      vertex 19.25 15 1.5
      vertex 19.25 15 0.15
    endloop
  endfacet
  facet normal -1 -0 0
    outer loop
      vertex 19.25 15 1.5
      vertex 19.25 10.75 0.15
      vertex 19.25 10.75 1.5
    endloop
  endfacet
  facet normal -1 0 0
    outer loop
      vertex 19.25 -15 0.15
      vertex 19.25 -10.75 1.5
      vertex 19.25 -10.75 0.15
    endloop
  endfacet
  facet normal -1 -0 0
    outer loop
      vertex 19.25 -10.75 1.5
      vertex 19.25 -15 0.15
      vertex 19.25 -15 1.5
    endloop
  endfacet
  facet normal -1 0 0
    outer loop
      vertex 19.25 -9.25 0.15
      vertex 19.25 9.25 1.5
      vertex 19.25 9.25 0.15
    endloop
  endfacet
  facet normal -1 -0 0
    outer loop
      vertex 19.25 9.25 1.5
      vertex 19.25 -9.25 0.15
      vertex 19.25 -9.25 1.5
    endloop
  endfacet
  facet normal 0 1 -0
    outer loop
      vertex 20.75 15 0.15
      vertex 19.25 15 1.5
      vertex 20.75 15 1.5
    endloop
  endfacet
  facet normal 0 1 0
    outer loop
      vertex 19.25 15 1.5
      vertex 20.75 15 0.15
      vertex 19.25 15 0.15
    endloop
  endfacet
  facet normal 0 -1 0
    outer loop
      vertex 19.25 -15 0.15
      vertex 20.75 -15 1.5
      vertex 19.25 -15 1.5
    endloop
  endfacet
  facet normal 0 -1 -0
    outer loop
      vertex 20.75 -15 1.5
      vertex 19.25 -15 0.15
      vertex 20.75 -15 0.15
    endloop
  endfacet
  facet normal 0 1 -0
    outer loop
      vertex -20.75 -9.25 0.15
      vertex -26 -9.25 1.5
      vertex -20.75 -9.25 1.5
    endloop
  endfacet
  facet normal 0 1 0
    outer loop
      vertex -26 -9.25 1.5
      vertex -20.75 -9.25 0.15
      vertex -26 -9.25 0.15
    endloop
  endfacet
  facet normal 0 1 -0
    outer loop
      vertex -15.75 -9.25 0.15
      vertex -19.25 -9.25 1.5
      vertex -15.75 -9.25 1.5
    endloop
  endfacet
  facet normal 0 1 0
    outer loop
      vertex -19.25 -9.25 1.5
      vertex -15.75 -9.25 0.15
      vertex -19.25 -9.25 0.15
    endloop
  endfacet
  facet normal 0 1 -0
    outer loop
      vertex -10.75 -9.25 0.15
      vertex -14.25 -9.25 1.5
      vertex -10.75 -9.25 1.5
    endloop
  endfacet
  facet normal 0 1 0
    outer loop
      vertex -14.25 -9.25 1.5
      vertex -10.75 -9.25 0.15
      vertex -14.25 -9.25 0.15
    endloop
  endfacet
  facet normal 0 1 -0
    outer loop
      vertex -5.75 -9.25 0.15
      vertex -9.25 -9.25 1.5
      vertex -5.75 -9.25 1.5
    endloop
  endfacet
  facet normal 0 1 0
    outer loop
      vertex -9.25 -9.25 1.5
      vertex -5.75 -9.25 0.15
      vertex -9.25 -9.25 0.15
    endloop
  endfacet
  facet normal 0 1 -0
    outer loop
      vertex -0.75 -9.25 0.15
      vertex -4.25 -9.25 1.5
      vertex -0.75 -9.25 1.5
    endloop
  endfacet
  facet normal 0 1 0
    outer loop
      vertex -4.25 -9.25 1.5
      vertex -0.75 -9.25 0.15
      vertex -4.25 -9.25 0.15
    endloop
  endfacet
  facet normal 0 1 -0
    outer loop
      vertex 4.25 -9.25 0.15
      vertex 0.75 -9.25 1.5
      vertex 4.25 -9.25 1.5
    endloop
  endfacet
  facet normal 0 1 0
    outer loop
      vertex 0.75 -9.25 1.5
      vertex 4.25 -9.25 0.15
      vertex 0.75 -9.25 0.15
    endloop
  endfacet
  facet normal 0 1 -0
    outer loop
      vertex 9.25 -9.25 0.15
      vertex 5.75 -9.25 1.5
      vertex 9.25 -9.25 1.5
    endloop
  endfacet
  facet normal 0 1 0
    outer loop
      vertex 5.75 -9.25 1.5
      vertex 9.25 -9.25 0.15
      vertex 5.75 -9.25 0.15
    endloop
  endfacet
  facet normal 0 1 -0
    outer loop
      vertex 14.25 -9.25 0.15
      vertex 10.75 -9.25 1.5
      vertex 14.25 -9.25 1.5
    endloop
  endfacet
  facet normal 0 1 0
    outer loop
      vertex 10.75 -9.25 1.5
      vertex 14.25 -9.25 0.15
      vertex 10.75 -9.25 0.15
    endloop
  endfacet
  facet normal 0 1 -0
    outer loop
      vertex 19.25 -9.25 0.15
      vertex 15.75 -9.25 1.5
      vertex 19.25 -9.25 1.5
    endloop
  endfacet
  facet normal 0 1 0
    outer loop
      vertex 15.75 -9.25 1.5
      vertex 19.25 -9.25 0.15
      vertex 15.75 -9.25 0.15
    endloop
  endfacet
  facet normal 0 1 -0
    outer loop
      vertex 26 -9.25 0.15
      vertex 20.75 -9.25 1.5
      vertex 26 -9.25 1.5
    endloop
  endfacet
  facet normal 0 1 0
    outer loop
      vertex 20.75 -9.25 1.5
      vertex 26 -9.25 0.15
      vertex 20.75 -9.25 0.15
    endloop
  endfacet
  facet normal 0 -1 0
    outer loop
      vertex -26 -10.75 0.15
      vertex -20.75 -10.75 1.5
      vertex -26 -10.75 1.5
    endloop
  endfacet
  facet normal 0 -1 -0
    outer loop
      vertex -20.75 -10.75 1.5
      vertex -26 -10.75 0.15
      vertex -20.75 -10.75 0.15
    endloop
  endfacet
  facet normal 0 -1 0
    outer loop
      vertex -19.25 -10.75 0.15
      vertex -15.75 -10.75 1.5
      vertex -19.25 -10.75 1.5
    endloop
  endfacet
  facet normal 0 -1 -0
    outer loop
      vertex -15.75 -10.75 1.5
      vertex -19.25 -10.75 0.15
      vertex -15.75 -10.75 0.15
    endloop
  endfacet
  facet normal 0 -1 0
    outer loop
      vertex -14.25 -10.75 0.15
      vertex -10.75 -10.75 1.5
      vertex -14.25 -10.75 1.5
    endloop
  endfacet
  facet normal 0 -1 -0
    outer loop
      vertex -10.75 -10.75 1.5
      vertex -14.25 -10.75 0.15
      vertex -10.75 -10.75 0.15
    endloop
  endfacet
  facet normal 0 -1 0
    outer loop
      vertex -9.25 -10.75 0.15
      vertex -5.75 -10.75 1.5
      vertex -9.25 -10.75 1.5
    endloop
  endfacet
  facet normal 0 -1 -0
    outer loop
      vertex -5.75 -10.75 1.5
      vertex -9.25 -10.75 0.15
      vertex -5.75 -10.75 0.15
    endloop
  endfacet
  facet normal 0 -1 0
    outer loop
      vertex -4.25 -10.75 0.15
      vertex -0.75 -10.75 1.5
      vertex -4.25 -10.75 1.5
    endloop
  endfacet
  facet normal 0 -1 -0
    outer loop
      vertex -0.75 -10.75 1.5
      vertex -4.25 -10.75 0.15
      vertex -0.75 -10.75 0.15
    endloop
  endfacet
  facet normal 0 -1 0
    outer loop
      vertex 0.75 -10.75 0.15
      vertex 4.25 -10.75 1.5
      vertex 0.75 -10.75 1.5
    endloop
  endfacet
  facet normal 0 -1 -0
    outer loop
      vertex 4.25 -10.75 1.5
      vertex 0.75 -10.75 0.15
      vertex 4.25 -10.75 0.15
    endloop
  endfacet
  facet normal 0 -1 0
    outer loop
      vertex 5.75 -10.75 0.15
      vertex 9.25 -10.75 1.5
      vertex 5.75 -10.75 1.5
    endloop
  endfacet
  facet normal 0 -1 -0
    outer loop
      vertex 9.25 -10.75 1.5
      vertex 5.75 -10.75 0.15
      vertex 9.25 -10.75 0.15
    endloop
  endfacet
  facet normal 0 -1 0
    outer loop
      vertex 10.75 -10.75 0.15
      vertex 14.25 -10.75 1.5
      vertex 10.75 -10.75 1.5
    endloop
  endfacet
  facet normal 0 -1 -0
    outer loop
      vertex 14.25 -10.75 1.5
      vertex 10.75 -10.75 0.15
      vertex 14.25 -10.75 0.15
    endloop
  endfacet
  facet normal 0 -1 0
    outer loop
      vertex 15.75 -10.75 0.15
      vertex 19.25 -10.75 1.5
      vertex 15.75 -10.75 1.5
    endloop
  endfacet
  facet normal 0 -1 -0
    outer loop
      vertex 19.25 -10.75 1.5
      vertex 15.75 -10.75 0.15
      vertex 19.25 -10.75 0.15
    endloop
  endfacet
  facet normal 0 -1 0
    outer loop
      vertex 20.75 -10.75 0.15
      vertex 26 -10.75 1.5
      vertex 20.75 -10.75 1.5
    endloop
  endfacet
  facet normal 0 -1 -0
    outer loop
      vertex 26 -10.75 1.5
      vertex 20.75 -10.75 0.15
      vertex 26 -10.75 0.15
    endloop
  endfacet
  facet normal 0 1 -0
    outer loop
      vertex -20.75 10.75 0.15
      vertex -26 10.75 1.5
      vertex -20.75 10.75 1.5
    endloop
  endfacet
  facet normal 0 1 0
    outer loop
      vertex -26 10.75 1.5
      vertex -20.75 10.75 0.15
      vertex -26 10.75 0.15
    endloop
  endfacet
  facet normal 0 1 -0
    outer loop
      vertex -15.75 10.75 0.15
      vertex -19.25 10.75 1.5
      vertex -15.75 10.75 1.5
    endloop
  endfacet
  facet normal 0 1 0
    outer loop
      vertex -19.25 10.75 1.5
      vertex -15.75 10.75 0.15
      vertex -19.25 10.75 0.15
    endloop
  endfacet
  facet normal 0 1 -0
    outer loop
      vertex -10.75 10.75 0.15
      vertex -14.25 10.75 1.5
      vertex -10.75 10.75 1.5
    endloop
  endfacet
  facet normal 0 1 0
    outer loop
      vertex -14.25 10.75 1.5
      vertex -10.75 10.75 0.15
      vertex -14.25 10.75 0.15
    endloop
  endfacet
  facet normal 0 1 -0
    outer loop
      vertex -5.75 10.75 0.15
      vertex -9.25 10.75 1.5
      vertex -5.75 10.75 1.5
    endloop
  endfacet
  facet normal 0 1 0
    outer loop
      vertex -9.25 10.75 1.5
      vertex -5.75 10.75 0.15
      vertex -9.25 10.75 0.15
    endloop
  endfacet
  facet normal 0 1 -0
    outer loop
      vertex -0.75 10.75 0.15
      vertex -4.25 10.75 1.5
      vertex -0.75 10.75 1.5
    endloop
  endfacet
  facet normal 0 1 0
    outer loop
      vertex -4.25 10.75 1.5
      vertex -0.75 10.75 0.15
      vertex -4.25 10.75 0.15
    endloop
  endfacet
  facet normal 0 1 -0
    outer loop
      vertex 4.25 10.75 0.15
      vertex 0.75 10.75 1.5
      vertex 4.25 10.75 1.5
    endloop
  endfacet
  facet normal 0 1 0
    outer loop
      vertex 0.75 10.75 1.5
      vertex 4.25 10.75 0.15
      vertex 0.75 10.75 0.15
    endloop
  endfacet
  facet normal 0 1 -0
    outer loop
      vertex 9.25 10.75 0.15
      vertex 5.75 10.75 1.5
      vertex 9.25 10.75 1.5
    endloop
  endfacet
  facet normal 0 1 0
    outer loop
      vertex 5.75 10.75 1.5
      vertex 9.25 10.75 0.15
      vertex 5.75 10.75 0.15
    endloop
  endfacet
  facet normal 0 1 -0
    outer loop
      vertex 14.25 10.75 0.15
      vertex 10.75 10.75 1.5
      vertex 14.25 10.75 1.5
    endloop
  endfacet
  facet normal 0 1 0
    outer loop
      vertex 10.75 10.75 1.5
      vertex 14.25 10.75 0.15
      vertex 10.75 10.75 0.15
    endloop
  endfacet
  facet normal 0 1 -0
    outer loop
      vertex 19.25 10.75 0.15
      vertex 15.75 10.75 1.5
      vertex 19.25 10.75 1.5
    endloop
  endfacet
  facet normal 0 1 0
    outer loop
      vertex 15.75 10.75 1.5
      vertex 19.25 10.75 0.15
      vertex 15.75 10.75 0.15
    endloop
  endfacet
  facet normal 0 1 -0
    outer loop
      vertex 26 10.75 0.15
      vertex 20.75 10.75 1.5
      vertex 26 10.75 1.5
    endloop
  endfacet
  facet normal 0 1 0
    outer loop
      vertex 20.75 10.75 1.5
      vertex 26 10.75 0.15
      vertex 20.75 10.75 0.15
    endloop
  endfacet
  facet normal 0 -1 0
    outer loop
      vertex -26 9.25 0.15
      vertex -20.75 9.25 1.5
      vertex -26 9.25 1.5
    endloop
  endfacet
  facet normal 0 -1 -0
    outer loop
      vertex -20.75 9.25 1.5
      vertex -26 9.25 0.15
      vertex -20.75 9.25 0.15
    endloop
  endfacet
  facet normal 0 -1 0
    outer loop
      vertex -19.25 9.25 0.15
      vertex -15.75 9.25 1.5
      vertex -19.25 9.25 1.5
    endloop
  endfacet
  facet normal 0 -1 -0
    outer loop
      vertex -15.75 9.25 1.5
      vertex -19.25 9.25 0.15
      vertex -15.75 9.25 0.15
    endloop
  endfacet
  facet normal 0 -1 0
    outer loop
      vertex -14.25 9.25 0.15
      vertex -10.75 9.25 1.5
      vertex -14.25 9.25 1.5
    endloop
  endfacet
  facet normal 0 -1 -0
    outer loop
      vertex -10.75 9.25 1.5
      vertex -14.25 9.25 0.15
      vertex -10.75 9.25 0.15
    endloop
  endfacet
  facet normal 0 -1 0
    outer loop
      vertex -9.25 9.25 0.15
      vertex -5.75 9.25 1.5
      vertex -9.25 9.25 1.5
    endloop
  endfacet
  facet normal 0 -1 -0
    outer loop
      vertex -5.75 9.25 1.5
      vertex -9.25 9.25 0.15
      vertex -5.75 9.25 0.15
    endloop
  endfacet
  facet normal 0 -1 0
    outer loop
      vertex -4.25 9.25 0.15
      vertex -0.75 9.25 1.5
      vertex -4.25 9.25 1.5
    endloop
  endfacet
  facet normal 0 -1 -0
    outer loop
      vertex -0.75 9.25 1.5
      vertex -4.25 9.25 0.15
      vertex -0.75 9.25 0.15
    endloop
  endfacet
  facet normal 0 -1 0
    outer loop
      vertex 0.75 9.25 0.15
      vertex 4.25 9.25 1.5
      vertex 0.75 9.25 1.5
    endloop
  endfacet
  facet normal 0 -1 -0
    outer loop
      vertex 4.25 9.25 1.5
      vertex 0.75 9.25 0.15
      vertex 4.25 9.25 0.15
    endloop
  endfacet
  facet normal 0 -1 0
    outer loop
      vertex 5.75 9.25 0.15
      vertex 9.25 9.25 1.5
      vertex 5.75 9.25 1.5
    endloop
  endfacet
  facet normal 0 -1 -0
    outer loop
      vertex 9.25 9.25 1.5
      vertex 5.75 9.25 0.15
      vertex 9.25 9.25 0.15
    endloop
  endfacet
  facet normal 0 -1 0
    outer loop
      vertex 10.75 9.25 0.15
      vertex 14.25 9.25 1.5
      vertex 10.75 9.25 1.5
    endloop
  endfacet
  facet normal 0 -1 -0
    outer loop
      vertex 14.25 9.25 1.5
      vertex 10.75 9.25 0.15
      vertex 14.25 9.25 0.15
    endloop
  endfacet
  facet normal 0 -1 0
    outer loop
      vertex 15.75 9.25 0.15
      vertex 19.25 9.25 1.5
      vertex 15.75 9.25 1.5
    endloop
  endfacet
  facet normal 0 -1 -0
    outer loop
      vertex 19.25 9.25 1.5
      vertex 15.75 9.25 0.15
      vertex 19.25 9.25 0.15
    endloop
  endfacet
  facet normal 0 -1 0
    outer loop
      vertex 20.75 9.25 0.15
      vertex 26 9.25 1.5
      vertex 20.75 9.25 1.5
    endloop
  endfacet
  facet normal 0 -1 -0
    outer loop
      vertex 26 9.25 1.5
      vertex 20.75 9.25 0.15
      vertex 26 9.25 0.15
    endloop
  endfacet
  facet normal 0 0 1
    outer loop
      vertex 26 42 0.15
      vertex 20.75 15 0.15
      vertex 26 10.75 0.15
    endloop
  endfacet
  facet normal 0 0 1
    outer loop
      vertex 26 42 0.15
      vertex 19.25 15 0.15
      vertex 20.75 15 0.15
    endloop
  endfacet
  facet normal 0 0 1
    outer loop
      vertex 19.25 15 0.15
      vertex 15.75 15 0.15
      vertex 19.25 10.75 0.15
    endloop
  endfacet
  facet normal 0 0 1
    outer loop
      vertex 26 42 0.15
      vertex 15.75 15 0.15
      vertex 19.25 15 0.15
    endloop
  endfacet
  facet normal 0 0 1
    outer loop
      vertex 26 42 0.15
      vertex 14.25 15 0.15
      vertex 15.75 15 0.15
    endloop
  endfacet
  facet normal 0 0 1
    outer loop
      vertex 14.25 15 0.15
      vertex 10.75 15 0.15
      vertex 14.25 10.75 0.15
    endloop
  endfacet
  facet normal 0 0 1
    outer loop
      vertex 26 42 0.15
      vertex 10.75 15 0.15
      vertex 14.25 15 0.15
    endloop
  endfacet
  facet normal 0 0 1
    outer loop
      vertex 26 42 0.15
      vertex 9.25 15 0.15
      vertex 10.75 15 0.15
    endloop
  endfacet
  facet normal 0 0 1
    outer loop
      vertex 9.25 15 0.15
      vertex 5.75 15 0.15
      vertex 9.25 10.75 0.15
    endloop
  endfacet
  facet normal 0 0 1
    outer loop
      vertex 26 42 0.15
      vertex 5.75 15 0.15
      vertex 9.25 15 0.15
    endloop
  endfacet
  facet normal 0 0 1
    outer loop
      vertex 26 42 0.15
      vertex 4.25 15 0.15
      vertex 5.75 15 0.15
    endloop
  endfacet
  facet normal 0 0 1
    outer loop
      vertex 4.25 15 0.15
      vertex 0.75 15 0.15
      vertex 4.25 10.75 0.15
    endloop
  endfacet
  facet normal 0 0 1
    outer loop
      vertex 26 42 0.15
      vertex 0.75 15 0.15
      vertex 4.25 15 0.15
    endloop
  endfacet
  facet normal 0 0 1
    outer loop
      vertex 26 42 0.15
      vertex -0.75 15 0.15
      vertex 0.75 15 0.15
    endloop
  endfacet
  facet normal 0 0 1
    outer loop
      vertex -0.75 15 0.15
      vertex -4.25 15 0.15
      vertex -0.75 10.75 0.15
    endloop
  endfacet
  facet normal -0 0 1
    outer loop
      vertex -26 42 0.15
      vertex -0.75 15 0.15
      vertex 26 42 0.15
    endloop
  endfacet
  facet normal 0 0 1
    outer loop
      vertex -0.75 15 0.15
      vertex -26 42 0.15
      vertex -4.25 15 0.15
    endloop
  endfacet
  facet normal 0 0 1
    outer loop
      vertex -5.75 15 0.15
      vertex -9.25 15 0.15
      vertex -5.75 10.75 0.15
    endloop
  endfacet
  facet normal 0 0 1
    outer loop
      vertex -4.25 15 0.15
      vertex -26 42 0.15
      vertex -5.75 15 0.15
    endloop
  endfacet
  facet normal 0 0 1
    outer loop
      vertex -5.75 15 0.15
      vertex -26 42 0.15
      vertex -9.25 15 0.15
    endloop
  endfacet
  facet normal 0 0 1
    outer loop
      vertex -10.75 15 0.15
      vertex -14.25 15 0.15
      vertex -10.75 10.75 0.15
    endloop
  endfacet
  facet normal 0 0 1
    outer loop
      vertex -9.25 15 0.15
      vertex -26 42 0.15
      vertex -10.75 15 0.15
    endloop
  endfacet
  facet normal 0 0 1
    outer loop
      vertex -10.75 15 0.15
      vertex -26 42 0.15
      vertex -14.25 15 0.15
    endloop
  endfacet
  facet normal 0 0 1
    outer loop
      vertex -15.75 15 0.15
      vertex -19.25 15 0.15
      vertex -15.75 10.75 0.15
    endloop
  endfacet
  facet normal 0 0 1
    outer loop
      vertex -14.25 15 0.15
      vertex -26 42 0.15
      vertex -15.75 15 0.15
    endloop
  endfacet
  facet normal 0 0 1
    outer loop
      vertex -15.75 15 0.15
      vertex -26 42 0.15
      vertex -19.25 15 0.15
    endloop
  endfacet
  facet normal 0 0 1
    outer loop
      vertex -19.25 15 0.15
      vertex -26 42 0.15
      vertex -20.75 15 0.15
    endloop
  endfacet
  facet normal 0 0 1
    outer loop
      vertex -26 10.75 0.15
      vertex -20.75 15 0.15
      vertex -26 42 0.15
    endloop
  endfacet
  facet normal 0 0 1
    outer loop
      vertex -20.75 15 0.15
      vertex -26 10.75 0.15
      vertex -20.75 10.75 0.15
    endloop
  endfacet
  facet normal 0 0 1
    outer loop
      vertex 26 10.75 0.15
      vertex 20.75 15 0.15
      vertex 20.75 10.75 0.15
    endloop
  endfacet
  facet normal 0 0 1
    outer loop
      vertex 19.25 10.75 0.15
      vertex 15.75 15 0.15
      vertex 15.75 10.75 0.15
    endloop
  endfacet
  facet normal 0 0 1
    outer loop
      vertex 14.25 10.75 0.15
      vertex 10.75 15 0.15
      vertex 10.75 10.75 0.15
    endloop
  endfacet
  facet normal 0 0 1
    outer loop
      vertex 9.25 10.75 0.15
      vertex 5.75 15 0.15
      vertex 5.75 10.75 0.15
    endloop
  endfacet
  facet normal 0 0 1
    outer loop
      vertex 4.25 10.75 0.15
      vertex 0.75 15 0.15
      vertex 0.75 10.75 0.15
    endloop
  endfacet
  facet normal 0 0 1
    outer loop
      vertex -0.75 10.75 0.15
      vertex -4.25 15 0.15
      vertex -4.25 10.75 0.15
    endloop
  endfacet
  facet normal 0 0 1
    outer loop
      vertex -5.75 10.75 0.15
      vertex -9.25 15 0.15
      vertex -9.25 10.75 0.15
    endloop
  endfacet
  facet normal 0 0 1
    outer loop
      vertex -10.75 10.75 0.15
      vertex -14.25 15 0.15
      vertex -14.25 10.75 0.15
    endloop
  endfacet
  facet normal 0 0 1
    outer loop
      vertex -15.75 10.75 0.15
      vertex -19.25 15 0.15
      vertex -19.25 10.75 0.15
    endloop
  endfacet
  facet normal 0 0 1
    outer loop
      vertex -20.75 -10.75 0.15
      vertex -26 -10.75 0.15
      vertex -20.75 -15 0.15
    endloop
  endfacet
  facet normal 0 0 1
    outer loop
      vertex -15.75 -10.75 0.15
      vertex -19.25 -10.75 0.15
      vertex -15.75 -15 0.15
    endloop
  endfacet
  facet normal 0 0 1
    outer loop
      vertex -10.75 -10.75 0.15
      vertex -14.25 -10.75 0.15
      vertex -10.75 -15 0.15
    endloop
  endfacet
  facet normal 0 0 1
    outer loop
      vertex -5.75 -10.75 0.15
      vertex -9.25 -10.75 0.15
      vertex -5.75 -15 0.15
    endloop
  endfacet
  facet normal 0 0 1
    outer loop
      vertex -0.75 -10.75 0.15
      vertex -4.25 -10.75 0.15
      vertex -0.75 -15 0.15
    endloop
  endfacet
  facet normal 0 0 1
    outer loop
      vertex 4.25 -10.75 0.15
      vertex 0.75 -10.75 0.15
      vertex 4.25 -15 0.15
    endloop
  endfacet
  facet normal 0 0 1
    outer loop
      vertex 9.25 -10.75 0.15
      vertex 5.75 -10.75 0.15
      vertex 9.25 -15 0.15
    endloop
  endfacet
  facet normal 0 0 1
    outer loop
      vertex 14.25 -10.75 0.15
      vertex 10.75 -10.75 0.15
      vertex 14.25 -15 0.15
    endloop
  endfacet
  facet normal 0 0 1
    outer loop
      vertex 19.25 -10.75 0.15
      vertex 15.75 -10.75 0.15
      vertex 19.25 -15 0.15
    endloop
  endfacet
  facet normal 0 0 1
    outer loop
      vertex 20.75 -15 0.15
      vertex 26 -10.75 0.15
      vertex 20.75 -10.75 0.15
    endloop
  endfacet
  facet normal 0 0 1
    outer loop
      vertex 26 -10.75 0.15
      vertex 20.75 -15 0.15
      vertex 26 -42 0.15
    endloop
  endfacet
  facet normal -0 0 1
    outer loop
      vertex 19.25 -15 0.15
      vertex 26 -42 0.15
      vertex 20.75 -15 0.15
    endloop
  endfacet
  facet normal 0 0 1
    outer loop
      vertex 15.75 -15 0.15
      vertex 19.25 -15 0.15
      vertex 15.75 -10.75 0.15
    endloop
  endfacet
  facet normal 0 0 1
    outer loop
      vertex 19.25 -15 0.15
      vertex 15.75 -15 0.15
      vertex 26 -42 0.15
    endloop
  endfacet
  facet normal -0 0 1
    outer loop
      vertex 14.25 -15 0.15
      vertex 26 -42 0.15
      vertex 15.75 -15 0.15
    endloop
  endfacet
  facet normal 0 0 1
    outer loop
      vertex 10.75 -15 0.15
      vertex 14.25 -15 0.15
      vertex 10.75 -10.75 0.15
    endloop
  endfacet
  facet normal 0 0 1
    outer loop
      vertex 14.25 -15 0.15
      vertex 10.75 -15 0.15
      vertex 26 -42 0.15
    endloop
  endfacet
  facet normal -0 0 1
    outer loop
      vertex 9.25 -15 0.15
      vertex 26 -42 0.15
      vertex 10.75 -15 0.15
    endloop
  endfacet
  facet normal 0 0 1
    outer loop
      vertex 5.75 -15 0.15
      vertex 9.25 -15 0.15
      vertex 5.75 -10.75 0.15
    endloop
  endfacet
  facet normal 0 0 1
    outer loop
      vertex 9.25 -15 0.15
      vertex 5.75 -15 0.15
      vertex 26 -42 0.15
    endloop
  endfacet
  facet normal -0 0 1
    outer loop
      vertex 4.25 -15 0.15
      vertex 26 -42 0.15
      vertex 5.75 -15 0.15
    endloop
  endfacet
  facet normal 0 0 1
    outer loop
      vertex 0.75 -15 0.15
      vertex 4.25 -15 0.15
      vertex 0.75 -10.75 0.15
    endloop
  endfacet
  facet normal 0 0 1
    outer loop
      vertex 4.25 -15 0.15
      vertex 0.75 -15 0.15
      vertex 26 -42 0.15
    endloop
  endfacet
  facet normal -0 0 1
    outer loop
      vertex -0.75 -15 0.15
      vertex 26 -42 0.15
      vertex 0.75 -15 0.15
    endloop
  endfacet
  facet normal 0 0 1
    outer loop
      vertex -4.25 -15 0.15
      vertex -0.75 -15 0.15
      vertex -4.25 -10.75 0.15
    endloop
  endfacet
  facet normal 0 0 1
    outer loop
      vertex -26 -42 0.15
      vertex -0.75 -15 0.15
      vertex -4.25 -15 0.15
    endloop
  endfacet
  facet normal 0 0 1
    outer loop
      vertex -26 -42 0.15
      vertex -4.25 -15 0.15
      vertex -5.75 -15 0.15
    endloop
  endfacet
  facet normal 0 0 1
    outer loop
      vertex -9.25 -15 0.15
      vertex -5.75 -15 0.15
      vertex -9.25 -10.75 0.15
    endloop
  endfacet
  facet normal 0 0 1
    outer loop
      vertex -26 -42 0.15
      vertex -5.75 -15 0.15
      vertex -9.25 -15 0.15
    endloop
  endfacet
  facet normal 0 0 1
    outer loop
      vertex -26 -42 0.15
      vertex -9.25 -15 0.15
      vertex -10.75 -15 0.15
    endloop
  endfacet
  facet normal 0 0 1
    outer loop
      vertex -14.25 -15 0.15
      vertex -10.75 -15 0.15
      vertex -14.25 -10.75 0.15
    endloop
  endfacet
  facet normal 0 0 1
    outer loop
      vertex -26 -42 0.15
      vertex -10.75 -15 0.15
      vertex -14.25 -15 0.15
    endloop
  endfacet
  facet normal 0 0 1
    outer loop
      vertex -26 -42 0.15
      vertex -14.25 -15 0.15
      vertex -15.75 -15 0.15
    endloop
  endfacet
  facet normal 0 0 1
    outer loop
      vertex -19.25 -15 0.15
      vertex -15.75 -15 0.15
      vertex -19.25 -10.75 0.15
    endloop
  endfacet
  facet normal 0 0 1
    outer loop
      vertex -26 -42 0.15
      vertex -15.75 -15 0.15
      vertex -19.25 -15 0.15
    endloop
  endfacet
  facet normal 0 0 1
    outer loop
      vertex -26 -42 0.15
      vertex -19.25 -15 0.15
      vertex -20.75 -15 0.15
    endloop
  endfacet
  facet normal 0 0 1
    outer loop
      vertex -0.75 -15 0.15
      vertex -26 -42 0.15
      vertex 26 -42 0.15
    endloop
  endfacet
  facet normal 0 0 1
    outer loop
      vertex -26 -42 0.15
      vertex -20.75 -15 0.15
      vertex -26 -10.75 0.15
    endloop
  endfacet
  facet normal -0 0 1
    outer loop
      vertex -26 9.25 0.15
      vertex -20.75 -9.25 0.15
      vertex -20.75 9.25 0.15
    endloop
  endfacet
  facet normal 0 0 1
    outer loop
      vertex -20.75 -9.25 0.15
      vertex -26 9.25 0.15
      vertex -26 -9.25 0.15
    endloop
  endfacet
  facet normal -0 0 1
    outer loop
      vertex -19.25 9.25 0.15
      vertex -15.75 -9.25 0.15
      vertex -15.75 9.25 0.15
    endloop
  endfacet
  facet normal 0 0 1
    outer loop
      vertex -15.75 -9.25 0.15
      vertex -19.25 9.25 0.15
      vertex -19.25 -9.25 0.15
    endloop
  endfacet
  facet normal -0 0 1
    outer loop
      vertex -14.25 9.25 0.15
      vertex -10.75 -9.25 0.15
      vertex -10.75 9.25 0.15
    endloop
  endfacet
  facet normal 0 0 1
    outer loop
      vertex -10.75 -9.25 0.15
      vertex -14.25 9.25 0.15
      vertex -14.25 -9.25 0.15
    endloop
  endfacet
  facet normal -0 0 1
    outer loop
      vertex -9.25 9.25 0.15
      vertex -5.75 -9.25 0.15
      vertex -5.75 9.25 0.15
    endloop
  endfacet
  facet normal 0 0 1
    outer loop
      vertex -5.75 -9.25 0.15
      vertex -9.25 9.25 0.15
      vertex -9.25 -9.25 0.15
    endloop
  endfacet
  facet normal -0 0 1
    outer loop
      vertex -4.25 9.25 0.15
      vertex -0.75 -9.25 0.15
      vertex -0.75 9.25 0.15
    endloop
  endfacet
  facet normal 0 0 1
    outer loop
      vertex -0.75 -9.25 0.15
      vertex -4.25 9.25 0.15
      vertex -4.25 -9.25 0.15
    endloop
  endfacet
  facet normal -0 0 1
    outer loop
      vertex 0.75 9.25 0.15
      vertex 4.25 -9.25 0.15
      vertex 4.25 9.25 0.15
    endloop
  endfacet
  facet normal 0 0 1
    outer loop
      vertex 4.25 -9.25 0.15
      vertex 0.75 9.25 0.15
      vertex 0.75 -9.25 0.15
    endloop
  endfacet
  facet normal -0 0 1
    outer loop
      vertex 5.75 9.25 0.15
      vertex 9.25 -9.25 0.15
      vertex 9.25 9.25 0.15
    endloop
  endfacet
  facet normal 0 0 1
    outer loop
      vertex 9.25 -9.25 0.15
      vertex 5.75 9.25 0.15
      vertex 5.75 -9.25 0.15
    endloop
  endfacet
  facet normal -0 0 1
    outer loop
      vertex 10.75 9.25 0.15
      vertex 14.25 -9.25 0.15
      vertex 14.25 9.25 0.15
    endloop
  endfacet
  facet normal 0 0 1
    outer loop
      vertex 14.25 -9.25 0.15
      vertex 10.75 9.25 0.15
      vertex 10.75 -9.25 0.15
    endloop
  endfacet
  facet normal -0 0 1
    outer loop
      vertex 15.75 9.25 0.15
      vertex 19.25 -9.25 0.15
      vertex 19.25 9.25 0.15
    endloop
  endfacet
  facet normal 0 0 1
    outer loop
      vertex 19.25 -9.25 0.15
      vertex 15.75 9.25 0.15
      vertex 15.75 -9.25 0.15
    endloop
  endfacet
  facet normal -0 0 1
    outer loop
      vertex 20.75 9.25 0.15
      vertex 26 -9.25 0.15
      vertex 26 9.25 0.15
    endloop
  endfacet
  facet normal 0 0 1
    outer loop
      vertex 26 -9.25 0.15
      vertex 20.75 9.25 0.15
      vertex 20.75 -9.25 0.15
    endloop
  endfacet
endsolid OpenSCAD_Model
