<?xml version="1.0" encoding="UTF-8" standalone="no"?>
<svg
   xmlns:dc="http://purl.org/dc/elements/1.1/"
   xmlns:cc="http://creativecommons.org/ns#"
   xmlns:rdf="http://www.w3.org/1999/02/22-rdf-syntax-ns#"
   xmlns:svg="http://www.w3.org/2000/svg"
   xmlns="http://www.w3.org/2000/svg"
   height="1000"
   width="600"
   xml:space="preserve"
   enable-background="new -39.2521 50.555 2068.2522 1887.9537"
   viewBox="-39.2521 50.555 600 999.99998"
   y="0px"
   x="0px"
   id="Layer_1"
   version="1.1"><metadata
   id="metadata485"><rdf:RDF><cc:Work
       rdf:about=""><dc:format>image/svg+xml</dc:format><dc:type
         rdf:resource="http://purl.org/dc/dcmitype/StillImage" /><dc:title></dc:title></cc:Work></rdf:RDF></metadata><defs
   id="defs483">
	
	
	
	
	
	
	
	
	
	
	
	
	
	
	
	
	
	
	
	
	
	
	
	
	
	
	
	
	
	
	
	
	
	
	
	
	
	
	
	
	
	
	
	
	
	
	
	
	
	
	
	
	
	
	
	
	
	
	
	
	
	
	
	
	
	
	
	
	
	
	
	
	
	
	
	
	
	
	
	
	
	
	
	
	
	
	
	
	
	
	
	
	
	
	
	
	
	
	
	
	
	
	
	
	
	
	
	
	
	
	
	
	
	
	
	
	
	
	
	
	
	
	
	
	
	
	
	
	
	
	
	
	
	
	
	
	
	
	
	
	
	
	
	
	
	
	
	
	
	
	
	
	
	
	
	
	
	
	
	
	
	
	
	
	
	
	
	
	
	
	
	
	
	
	
	
	
	
	
	
	
	
	
	
	
	
	
	
	
	
	
	
	
	
	
	
	
	
	
	
	
	
	
	
	
	
	
	
	
	
	
	
	
	
	
	
	
	
	
	
	
	
	
	
	
	
	
	
	
	
	
	
	
	
	
	
	
	
</defs>

<path
   style="fill:#ff0000;fill-opacity:1;stroke:none;stroke-width:4.75444984px;stroke-linecap:butt;stroke-linejoin:miter;stroke-opacity:1"
   d="m 84.61122,719.65503 c -0.28107,0.8719 -0.19136,1.81442 0.35284,2.83103 5.72305,10.85705 2.42736,13.06734 -7.44177,28.90529 -9.86913,15.83738 39.72947,23.35212 39.72947,23.35212 0,0 -14.21135,11.12737 -16.71765,32.11127 -2.5051,20.98334 9.08393,14.66887 20.48339,12.87423 11.39826,-1.7947 3.32559,12.08355 19.92125,13.08049 13.82085,-11.30082 11.238,-41.47093 11.238,-41.47093 0,0 9.64607,10.31108 30.86679,18.4495 21.2196,8.13967 20.84164,-5.38153 13.75451,-3.95471 -7.08774,1.42512 9.04983,-12.98657 11.18354,-24.92547 2.13196,-11.94066 -18.05124,-22.37853 -18.05124,-22.37853 0,0 29.56315,-12.52313 33.25412,-18.69766 3.69159,-6.17396 -5.60045,-8.04756 -9.34107,-12.028 -3.74062,-3.97983 2.00817,-1.39457 -0.59205,-14.07857 -2.60135,-12.68042 -40.76704,5.65843 -40.76704,5.65843 0,0 1.3414,-39.93341 -16.31518,-30.35252 -17.65475,9.58089 -6.87065,-11.37076 -20.60957,-11.54716 -13.73892,-0.1794 -4.6837,45.33892 -7.98596,38.32951 -2.99429,-6.35274 -40.25334,-4.6191 -42.9546,3.84168 z m 50.73843,27.05981 a 12.816943,12.816943 0 0 1 16.93773,-6.44667 12.816943,12.816943 0 0 1 6.44546,16.93715 12.816943,12.816943 0 0 1 -16.93772,6.44609 12.816943,12.816943 0 0 1 -6.44547,-16.93657 z"
   id="path557" /><path
   style="fill:#ff0000;fill-opacity:1;stroke:none;stroke-width:2.32111669px;stroke-linecap:butt;stroke-linejoin:miter;stroke-opacity:1"
   d="m 8.05147,626.9535 c -0.28705,0.34089 -0.44851,0.76845 -0.41861,1.3282 0.34086,5.98203 -1.56801,6.29656 -9.15929,11.33193 -7.59306,5.03651 12.91784,18.4202 12.91784,18.4202 0,0 -8.56723,2.06496 -13.93028,10.87796 -5.36245,8.81363 1.06447,8.35558 6.49151,9.86737 5.42644,1.51179 -0.9676,6.04121 6.19907,9.84582 8.4291,-2.21868 13.39207,-16.14596 13.39207,-16.14596 0,0 2.19534,6.53395 9.97378,14.44757 7.77726,7.91299 10.34755,1.83052 6.91132,1.02619 -3.43741,-0.80014 6.64999,-3.93618 10.01625,-8.80705 3.36506,-4.87145 -3.48646,-13.59659 -3.48646,-13.59659 0,0 15.66933,0.42461 18.55896,-1.56978 2.88844,-1.99683 -0.85816,-4.70945 -1.71273,-7.23546 -0.87789,-2.51769 1.17272,-0.21529 2.58704,-6.37372 1.41312,-6.15899 -19.25506,-5.74339 -19.25506,-5.74339 0,0 8.68385,-17.46696 -1.09916,-16.78699 -9.78302,0.67934 -0.74932,-6.4431 -6.81624,-9.30462 -6.06631,-2.86033 -11.26311,19.19165 -11.30976,15.4092 -0.0598,-3.42785 -16.9455,-10.20463 -19.85905,-6.99383 z m 17.05733,22.29601 a 6.257216,6.257216 0 0 1 8.82977,0.56813 6.257216,6.257216 0 0 1 -0.56812,8.82859 6.257216,6.257216 0 0 1 -8.82977,-0.56813 6.257216,6.257216 0 0 1 0.56812,-8.82916 z"
   id="path557-6" /><path
   style="fill:#ff0000;fill-opacity:1;stroke:none;stroke-width:4.47631741px;stroke-linecap:butt;stroke-linejoin:miter;stroke-opacity:1"
   d="m 327.41162,589.10002 c 0.299,-0.80314 0.28109,-1.69301 -0.15548,-2.68031 -4.7154,-10.5509 -1.48368,-12.42569 8.75502,-26.70282 10.23869,-14.27894 -35.90456,-24.36453 -35.90456,-24.36453 0,0 14.03254,-9.58866 17.66671,-29.14931 3.63417,-19.56122 -7.64029,-14.33511 -18.45908,-13.34481 -10.81998,0.99031 -2.39208,-11.55495 -17.9173,-13.5057 -13.6785,9.77223 -13.08826,38.27807 -13.08826,38.27807 0,0 -8.43385,-10.27514 -27.87491,-19.21738 -19.43981,-8.94156 -19.90988,3.78551 -13.16302,2.8825 6.74447,-0.91022 -9.29441,11.64998 -12.02738,22.73608 -2.73116,11.08792 15.59461,22.12556 15.59461,22.12556 0,0 -28.54054,9.96361 -32.38285,15.53838 -3.84525,5.57596 4.76981,7.90404 8.04161,11.87128 3.30767,3.93736 -1.96809,1.18949 -0.299,13.26289 1.67027,12.07165 38.64704,-2.82921 38.64704,-2.82921 0,0 -3.69635,37.4355 13.47637,29.51231 17.17215,-7.92377 5.76193,11.10225 18.65883,12.10571 12.89689,1.00471 7.16551,-42.31114 9.84044,-35.52478 2.42438,6.1518 37.5377,6.7977 40.59121,-0.98792 z m -46.01945,-28.51656 a 12.067159,12.067159 0 0 1 -16.30564,5.02511 12.067159,12.067159 0 0 1 -5.02455,-16.30439 12.067159,12.067159 0 0 1 16.30564,-5.02517 12.067159,12.067159 0 0 1 5.02517,16.30502 z"
   id="path557-6-7" /><path
   style="fill:#ff0000;fill-opacity:1;stroke:none;stroke-width:3.02815795px;stroke-linecap:butt;stroke-linejoin:miter;stroke-opacity:1"
   d="m 92.64264,544.92248 c 0,0.58009 0.2093,1.14103 0.71762,1.66846 5.4372,5.61722 3.81717,7.55663 0.60938,18.99972 -3.20838,11.44553 28.45799,7.18881 28.45799,7.18881 0,0 -6.70321,9.33925 -4.49053,22.61649 2.21267,13.27548 8.17134,7.34673 14.82073,4.21545 6.64879,-3.13178 4.19213,6.79232 14.51336,4.4427 6.43589,-9.37394 -0.53224,-27.36062 -0.53224,-27.36062 0,0 7.73719,4.58145 22.16442,5.77213 14.42603,1.18944 11.78279,-7.01003 7.70133,-4.87626 -4.07675,2.13848 3.21551,-9.55521 2.39027,-17.23495 -0.82763,-7.68099 -15.03004,-10.46061 -15.03004,-10.46061 0,0 15.84213,-12.93216 16.99393,-17.36589 1.15599,-4.43431 -4.85949,-3.92184 -7.85739,-5.68717 -3.01342,-1.73847 0.97659,-1.21279 -2.87647,-8.50148 -3.85305,-7.28806 -23.91543,10.73507 -23.91543,10.73507 0,0 -6.30612,-24.65515 -15.39125,-15.64659 -9.08572,9.00618 -6.22957,-5.72662 -14.66106,-3.38181 -8.43089,2.34423 5.22729,28.55487 1.95851,24.85909 -2.95422,-3.35966 -25.43619,4.35778 -25.57732,10.01389 z m 35.85011,7.489 a 8.1632418,8.1632418 0 0 1 9.20353,-6.96451 8.1632418,8.1632418 0 0 1 6.96515,9.20349 8.1632418,8.1632418 0 0 1 -9.20413,6.96514 8.1632418,8.1632418 0 0 1 -6.96574,-9.20349 z"
   id="path557-6-7-5" /><path
   style="fill:#ff0000;fill-opacity:1;stroke:none;stroke-width:3.02815795px;stroke-linecap:butt;stroke-linejoin:miter;stroke-opacity:1"
   d="m 226.41976,440.42561 c -0.1734,-0.55017 -0.58605,-1.00288 -1.21818,-1.34853 -7.00396,-3.4733 -6.12612,-5.84325 -6.93339,-17.70021 -0.80734,-11.85814 -29.22351,2.7509 -29.22351,2.7509 0,0 3.19108,-11.04484 -3.33693,-22.81507 -6.528,-11.76904 -10.1586,-4.18794 -15.3775,0.98793 -5.21952,5.17467 -6.22359,-4.99706 -15.1634,0.67097 -2.92671,10.98803 9.65683,25.60544 9.65683,25.60544 0,0 -8.82379,-1.72828 -22.81747,1.97885 -13.99307,3.70772 -8.75681,10.54968 -5.62557,7.17265 3.12585,-3.38061 0.16744,10.08024 3.51636,17.04119 3.35071,6.96036 17.66432,4.82662 17.66432,4.82662 0,0 -10.59991,17.4885 -10.20282,22.0526 0.39469,4.56469 5.89289,2.06855 9.30819,2.72936 3.42187,0.62969 -0.5143,1.47052 5.5556,7.04886 6.06991,5.57896 18.94289,-18.12001 18.94289,-18.12001 0,0 14.19403,21.12205 19.74006,9.59286 5.54603,-11.52865 7.78744,3.31124 14.94814,-1.71933 7.16064,-5.03054 -14.48408,-25.1593 -10.1658,-22.77081 3.91526,2.16304 22.51128,-12.62062 20.75015,-17.99742 z m -36.28966,4.94145 a 8.1632418,8.1632418 0 0 1 -6.3414,9.64367 8.1632418,8.1632418 0 0 1 -9.6437,-6.342 8.1632418,8.1632418 0 0 1 6.34265,-9.64428 8.1632418,8.1632418 0 0 1 9.64364,6.34141 z"
   id="path557-6-7-5-3" /><path
   style="fill:#ff0000;fill-opacity:1;stroke:none;stroke-width:3.02815795px;stroke-linecap:butt;stroke-linejoin:miter;stroke-opacity:1"
   d="m 324.47896,714.76743 c 0.20332,-0.54421 0.19136,-1.14465 -0.10169,-1.81442 -3.19046,-7.13734 -1.00465,-8.40574 5.92098,-18.06377 6.92688,-9.65923 -24.28738,-16.48266 -24.28738,-16.48266 0,0 9.4924,-6.48611 11.95142,-19.71914 2.45726,-13.23235 -5.16869,-9.69749 -12.48725,-9.02766 -7.31975,0.67095 -1.61943,-7.81613 -12.12244,-9.13536 -9.25201,6.60991 -8.85313,25.89423 -8.85313,25.89423 0,0 -5.70627,-6.95018 -18.85677,-13.00034 -13.15106,-6.04898 -13.4686,2.56071 -8.90449,1.94955 4.56286,-0.61597 -6.28761,7.88068 -8.13729,15.38108 -1.84667,7.50097 10.54966,14.96787 10.54966,14.96787 0,0 -19.30768,6.7379 -21.90608,10.51139 -2.60135,3.77169 3.22752,5.34571 5.44082,8.03022 2.23716,2.66358 -1.3312,0.8079 -0.20332,8.97268 1.12963,8.16597 26.14364,-1.91486 26.14364,-1.91486 0,0 -2.50034,25.32559 9.11683,19.96491 11.61654,-5.36005 3.89729,7.51111 12.62238,8.18989 8.72395,0.67935 4.84695,-28.62306 6.65599,-24.03265 1.64216,4.16223 25.39372,4.59936 27.45987,-0.66801 z M 293.3466,695.47585 a 8.1632418,8.1632418 0 0 1 -11.02988,3.39979 8.1632418,8.1632418 0 0 1 -3.39916,-11.02988 8.1632418,8.1632418 0 0 1 11.0305,-3.39978 8.1632418,8.1632418 0 0 1 3.39973,11.02987 z"
   id="path557-6-7-5-3-5" /><path
   style="fill:#ff0000;fill-opacity:1;stroke:none;stroke-width:3.65779185px;stroke-linecap:butt;stroke-linejoin:miter;stroke-opacity:1"
   d="m 433.47592,413.03509 c 0.24515,-0.65782 0.22724,-1.38382 -0.12561,-2.19175 -3.85364,-8.62106 -1.21279,-10.15378 7.15356,-21.81876 8.36566,-11.66858 -29.33829,-19.91109 -29.33829,-19.91109 0,0 11.46582,-7.83407 14.43561,-23.81855 2.96973,-15.98389 -6.24215,-11.71402 -15.08327,-10.9055 -8.84112,0.81092 -1.95556,-9.44095 -14.64132,-11.03527 -11.17702,7.98477 -10.69504,31.27885 -10.69504,31.27885 0,0 -6.89157,-8.3956 -22.77798,-15.70341 -15.88522,-7.30721 -16.26851,3.09356 -10.75599,2.3556 5.51134,-0.74453 -7.59483,9.51929 -9.82785,18.5781 -2.23121,9.06001 12.7426,18.07995 12.7426,18.07995 0,0 -23.32281,8.13786 -26.46117,12.69777 -3.14205,4.55571 3.89785,6.45742 6.57164,9.70048 2.70361,3.21556 -1.6099,0.97059 -0.24521,10.83732 1.36408,9.86495 31.57965,-2.31314 31.57965,-2.31314 0,0 -3.0212,30.59113 11.01134,24.11696 14.03254,-6.47476 4.70825,9.07137 15.24714,9.89245 10.53832,0.82049 5.8558,-34.57514 8.04036,-29.02909 1.98487,5.02636 30.67425,5.55441 33.16983,-0.80793 z m -37.6047,-23.30305 a 9.8605951,9.8605951 0 0 1 -13.32389,4.1048 9.8605951,9.8605951 0 0 1 -4.10486,-13.32449 9.8605951,9.8605951 0 0 1 13.32388,-4.11019 9.8605951,9.8605951 0 0 1 4.10487,13.32449 z"
   id="path557-6-7-5-3-5-6" /><path
   style="fill:#ff0000;fill-opacity:1;stroke:none;stroke-width:3.21704793px;stroke-linecap:butt;stroke-linejoin:miter;stroke-opacity:1"
   d="m 233.78321,196.25692 c -0.53225,-0.31097 -1.16019,-0.41862 -1.91605,-0.23921 -8.06791,1.96868 -8.97631,-0.55615 -17.74386,-9.64248 -8.77179,-9.08452 -21.86963,22.23141 -21.86963,22.23141 0,0 -4.96299,-11.16026 -18.32094,-16.25898 -13.35918,-5.09872 -11.12617,3.53729 -11.82167,11.32471 -0.69729,7.77726 -8.47694,0.19735 -11.86412,10.91985 5.13879,10.9342 25.36865,14.20358 25.36865,14.20358 0,0 -8.35557,4.63226 -17.19132,17.2206 -8.83516,12.58713 0.10166,14.56478 0.33489,9.67836 0.22725,-4.88583 7.03271,8.07925 14.51814,11.44371 7.48544,3.36327 17.65832,-8.16357 17.65832,-8.16357 0,0 3.35195,21.46533 6.79713,24.90276 3.44519,3.43921 6.20327,-2.35321 9.43199,-4.15027 3.21137,-1.82994 0.58604,1.54469 9.33806,1.92742 8.75025,0.38274 2.99671,-27.68714 2.99671,-27.68714 0,0 25.9881,7.45552 22.60753,-5.70989 -3.38125,-13.16482 8.59415,-2.63668 10.97127,-11.62492 2.3783,-8.98765 -28.98544,-10.53772 -23.84124,-11.55076 4.66155,-0.92394 9.65979,-25.65866 4.5509,-28.82458 z m -26.11195,28.84491 a 8.6724478,8.6724478 0 0 1 1.44241,12.17749 8.6724478,8.6724478 0 0 1 -12.17691,1.44182 8.6724478,8.6724478 0 0 1 -1.44899,-12.17748 8.6724478,8.6724478 0 0 1 12.17867,-1.44243 z"
   id="path557-6-7-5-3-5-6-2" /><path
   style="fill:#ff0000;fill-opacity:1;stroke:none;stroke-width:2.54163766px;stroke-linecap:butt;stroke-linejoin:miter;stroke-opacity:1"
   d="m 374.34605,283.70722 c 0.40069,0.28107 0.89043,0.3947 1.49444,0.30499 6.47359,-1.06926 7.03872,0.97597 13.40342,8.65574 6.36713,7.68098 18.55481,-16.20694 18.55481,-16.20694 0,0 3.24306,9.08811 13.4626,13.90337 10.21896,4.81466 8.97392,-2.12955 9.99053,-8.2144 1.01366,-6.08486 6.6895,0.35283 9.9983,-7.89447 -3.39553,-8.91947 -19.13542,-12.70434 -19.13542,-12.70434 0,0 6.85751,-3.15097 14.57313,-12.5369 7.71267,-9.38832 0.78942,-11.4802 0.31096,-7.64509 -0.47239,3.8351 -5.05861,-6.78334 -10.75298,-9.88228 -5.69493,-3.09775 -14.39854,5.3756 -14.39854,5.3756 0,0 -1.35393,-17.11056 -3.86679,-20.02352 -2.5063,-2.91714 -5.02699,1.4819 -7.67856,2.70425 -2.6391,1.24986 -0.3469,-1.25823 -7.24084,-2.07632 -6.87009,-0.82228 -4.01514,21.63338 -4.01514,21.63338 0,0 -20.02767,-7.42622 -18.15112,3.14738 1.87723,10.5724 -6.92801,1.56442 -9.33086,8.51043 -2.41124,6.93703 22.20446,10.03299 18.09189,10.52276 -3.72747,0.44851 -9.14375,19.63779 -5.30745,22.43653 z m 22.29362,-21.16394 a 6.8516918,6.8516918 0 0 1 -0.4067,-9.67955 6.8516918,6.8516918 0 0 1 9.67957,-0.40666 6.8516918,6.8516918 0 0 1 0.41265,9.67956 6.8516918,6.8516918 0 0 1 -9.67895,0.40665 z"
   id="path557-6-7-5-3-5-6-2-9" /><path
   style="fill:#ff0000;fill-opacity:1;stroke:none;stroke-width:2.54163766px;stroke-linecap:butt;stroke-linejoin:miter;stroke-opacity:1"
   d="m 501.61254,298.76358 c 0.40665,-0.28705 0.64347,-0.73437 0.73201,-1.33837 0.87189,-6.50347 2.99308,-6.44427 12.20077,-10.28117 9.20831,-3.83869 -10.06468,-22.48735 -10.06468,-22.48735 0,0 9.6395,-0.44254 17.23496,-8.80346 7.59545,-8.36152 0.59205,-9.20413 -4.92949,-11.95622 -5.52211,-2.75089 2.29401,-6.29416 -4.6221,-11.87249 -9.52347,0.63628 -17.74986,14.57913 -17.74986,14.57913 0,0 -1.00527,-7.47944 -7.72401,-17.60392 -6.71937,-10.12269 -10.74584,-4.11558 -7.21869,-2.5374 3.5301,1.57399 -7.96746,2.84777 -12.59613,7.38913 -4.63106,4.53838 0.92517,15.34162 0.92517,15.34162 0,0 -16.75774,-3.71371 -20.27888,-2.16424 -3.52233,1.5423 -0.0598,5.24045 0.34089,8.13428 0.4186,2.88963 -1.30433,0 -4.10424,6.31628 -2.79815,6.32826 19.50981,10.17173 19.50981,10.17173 0,0 -12.96327,16.9766 -2.30416,18.2767 10.6603,1.30069 -0.53225,7.08235 5.39775,11.4186 5.92818,4.33565 16.09273,-18.29524 15.35716,-14.22093 -0.66144,3.69637 16.09988,14.49064 19.89911,11.64226 z m -13.71143,-27.51312 a 6.8516918,6.8516918 0 0 1 -9.37394,-2.44291 6.8516918,6.8516918 0 0 1 2.4423,-9.37397 6.8516918,6.8516918 0 0 1 9.37694,2.43693 6.8516918,6.8516918 0 0 1 -2.44348,9.37457 z"
   id="path557-6-7-5-3-5-6-2-9-1" /><path
   style="fill:#ff0000;fill-opacity:1;stroke:none;stroke-width:3.21704793px;stroke-linecap:butt;stroke-linejoin:miter;stroke-opacity:1"
   d="m 295.59872,340.24705 c -0.37076,-0.49636 -0.91616,-0.82706 -1.68342,-0.94726 -8.21438,-1.22475 -8.0996,-3.90747 -12.78626,-15.63166 -4.6879,-11.72538 -28.64636,12.31982 -28.64636,12.31982 0,0 -0.37677,-12.20739 -10.81941,-21.97725 -10.44139,-9.76806 -11.63802,-0.91916 -15.22435,6.01669 -3.58452,6.93643 -7.92377,-3.02061 -15.11139,5.62856 0.62674,12.06446 18.12063,22.73553 18.12063,22.73553 0,0 -9.48459,1.13206 -22.42281,9.44813 -12.93634,8.31547 -5.40965,13.52363 -3.3465,9.08752 2.05838,-4.43731 3.46253,10.13585 9.11745,16.08136 5.65905,5.94253 19.43385,-0.88626 19.43385,-0.88626 0,0 -5.00782,21.14002 -3.11569,25.62456 1.89151,4.48516 6.63145,0.16745 10.30088,-0.27508 3.66404,-0.4844 -0.0598,1.65233 7.91719,5.31161 7.95726,3.65929 13.23597,-24.50148 13.23597,-24.50148 0,0 21.24465,16.72184 23.08957,3.25442 1.84372,-13.46562 8.95295,0.80553 14.54982,-6.6165 5.59807,-7.42262 -22.85512,-20.70944 -17.71097,-19.70237 4.66517,0.90959 18.63972,-20.10604 15.10481,-24.96795 z m -35.07568,16.84085 a 8.6724478,8.6724478 0 0 1 -3.26579,11.81868 8.6724478,8.6724478 0 0 1 -11.81805,-3.26579 8.6724478,8.6724478 0 0 1 3.25978,-11.82287 8.6724478,8.6724478 0 0 1 11.81987,3.26639 z"
   id="path557-6-7-5-3-5-6-2-2" /></svg>