<?xml version="1.0" encoding="UTF-8" standalone="no"?>
<svg
   xmlns:dc="http://purl.org/dc/elements/1.1/"
   xmlns:cc="http://creativecommons.org/ns#"
   xmlns:rdf="http://www.w3.org/1999/02/22-rdf-syntax-ns#"
   xmlns:svg="http://www.w3.org/2000/svg"
   xmlns="http://www.w3.org/2000/svg"
   height="1000"
   width="600"
   xml:space="preserve"
   enable-background="new -39.2521 50.555 2068.2522 1887.9537"
   viewBox="-39.2521 50.555 600 999.99998"
   y="0px"
   x="0px"
   id="Layer_1"
   version="1.1"><metadata
   id="metadata485"><rdf:RDF><cc:Work
       rdf:about=""><dc:format>image/svg+xml</dc:format><dc:type
         rdf:resource="http://purl.org/dc/dcmitype/StillImage" /><dc:title></dc:title></cc:Work></rdf:RDF></metadata><defs
   id="defs483">
	
	
	
	
	
	
	
	
	
	
	
	
	
	
	
	
	
	
	
	
	
	
	
	
	
	
	
	
	
	
	
	
	
	
	
	
	
	
	
	
	
	
	
	
	
	
	
	
	
	
	
	
	
	
	
	
	
	
	
	
	
	
	
	
	
	
	
	
	
	
	
	
	
	
	
	
	
	
	
	
	
	
	
	
	
	
	
	
	
	
	
	
	
	
	
	
	
	
	
	
	
	
	
	
	
	
	
	
	
	
	
	
	
	
	
	
	
	
	
	
	
	
	
	
	
	
	
	
	
	
	
	
	
	
	
	
	
	
	
	
	
	
	
	
	
	
	
	
	
	
	
	
	
	
	
	
	
	
	
	
	
	
	
	
	
	
	
	
	
	
	
	
	
	
	
	
	
	
	
	
	
	
	
	
	
	
	
	
	
	
	
	
	
	
	
	
	
	
	
	
	
	
	
	
	
	
	
	
	
	
	
	
	
	
	
	
	
	
	
	
	
	
	
	
	
	
	
	
	
	
	
	
	
	
	
	
	
	
</defs>
<path
   style="fill:#000000;stroke-width:1.91366482"
   d="m 197.32079,1012.5911 c -6.20446,-0.9556 -15.92467,-1.9459 -21.6005,-2.2013 -13.17318,-0.592 -13.52721,-0.7858 -16.2201,-8.8794 -2.84717,-8.54393 -15.03961,-84.03737 -13.81367,-85.50852 0.49636,-0.6022 0.35882,-1.91248 -0.31096,-2.92013 -1.44901,-2.17442 -5.92399,-50.86103 -5.2291,-56.90405 0.26313,-2.30354 1.18947,-3.87099 2.0536,-3.48345 0.86594,0.38873 2.09667,-0.2392 2.73655,-1.39457 0.63868,-1.15718 3.6539,-5.22968 6.69723,-9.05521 3.04392,-3.82616 7.55538,-12.41969 10.0264,-19.09841 2.46923,-6.67866 5.14956,-11.84679 5.95509,-11.48555 0.80374,0.36476 1.36887,5.56933 1.25345,11.57409 -0.49037,25.3901 3.0822,87.91194 5.31698,93.05614 0.63633,1.46276 1.77492,6.45618 2.52608,11.09806 1.76176,10.83851 10.42943,35.33647 17.1853,48.56757 2.89621,5.6723 5.80977,11.5011 6.47353,12.9531 0.66563,1.4508 2.68456,5.1891 4.48815,8.3059 8.55828,14.78673 7.1607,17.63933 -7.53684,15.37513 z M 433.4808,338.41655 c -1.16376,-3.98402 -1.93821,-7.71805 -1.71874,-8.29993 0.22129,-0.58008 -1.16194,-2.83402 -3.0738,-5.00423 -3.34894,-3.80461 -3.20661,-4.54017 3.93975,-20.46904 4.07731,-9.08632 8.29872,-16.63812 9.38113,-16.78225 3.77889,-0.50233 1.4843,32.47191 -3.33692,47.93612 l -3.07386,9.86254 z m -79.15102,138.21743 c -17.04178,23.22712 -24.22396,31.72077 -27.8719,32.96287 -4.82123,1.64216 -4.91396,1.52738 -4.9211,-6.04541 0,-7.49138 0.50232,-8.37943 17.40415,-30.3184 9.5767,-12.42985 20.57194,-27.10945 24.43392,-32.61961 6.63507,-9.46846 7.07221,-9.75431 7.94411,-5.19919 0.50833,2.65162 2.05781,5.97004 3.44757,7.37538 2.33471,2.36159 0.80376,4.89719 -20.43613,33.84317 z M 232.90061,646.60629 c -6.43289,9.62153 -16.56638,26.39962 -22.51843,37.28416 -5.95273,10.88578 -12.687,21.22792 -14.96486,22.98311 l -4.14369,3.18745 0.2392,-7.19777 c 0.13156,-3.95947 -0.30501,-9.92234 -0.9682,-13.24974 -1.15061,-5.7625 -0.60282,-7.07817 11.46826,-27.57347 13.26528,-22.52149 31.88522,-51.61457 36.24357,-56.62715 2.20128,-2.52846 2.6026,-1.91606 2.93686,4.46542 0.21528,4.06949 1.36889,9.63706 2.56853,12.37184 1.19964,2.73473 1.87898,5.39712 1.50578,5.91679 -0.37076,0.5203 -5.93833,8.81664 -12.37059,18.43754 z m 50.26596,-174.10403 c -1.68762,-0.0957 -5.02516,2.75986 -7.41843,6.33961 l -4.35121,6.51067 -0.1196,-19.69223 c -0.10764,-18.12659 -3.11926,-55.22 -5.05328,-62.28201 -0.63151,-2.29999 0.74396,-2.28803 5.97007,0.0598 6.43589,2.88783 6.9101,3.81417 9.11921,17.80724 1.28216,8.11873 2.91355,23.01183 3.62521,33.09505 1.04472,14.79322 0.70264,18.30121 -1.77253,18.16366 z M 96.468263,702.25328 c -3.723275,-0.14352 -7.830481,0.46644 -9.126989,1.35568 -3.642542,2.48481 -31.955813,-25.64188 -30.061882,-29.8651 1.416115,-3.15395 43.555608,22.45387 45.543428,27.67697 0.25117,0.59206 -2.63248,0.97121 -6.354557,0.83245 z M 246.49119,311.89016 c -7.33653,-1.07226 -8.41237,-3.2933 -14.60181,-30.14262 -3.13723,-13.60974 -2.68932,-17.12251 2.12233,-16.64051 2.3592,0.23921 5.2494,7.12541 14.65327,34.92618 l 4.3333,12.8078 z"
   id="path551" />
</svg>