<?xml version="1.0" encoding="UTF-8" standalone="no"?>
<svg
   xmlns:dc="http://purl.org/dc/elements/1.1/"
   xmlns:cc="http://creativecommons.org/ns#"
   xmlns:rdf="http://www.w3.org/1999/02/22-rdf-syntax-ns#"
   xmlns:svg="http://www.w3.org/2000/svg"
   xmlns="http://www.w3.org/2000/svg"
   height="1000"
   width="600"
   xml:space="preserve"
   enable-background="new -39.2521 50.555 2068.2522 1887.9537"
   viewBox="-39.2521 50.555 600 999.99998"
   y="0px"
   x="0px"
   id="Layer_1"
   version="1.1"><metadata
   id="metadata485"><rdf:RDF><cc:Work
       rdf:about=""><dc:format>image/svg+xml</dc:format><dc:type
         rdf:resource="http://purl.org/dc/dcmitype/StillImage" /><dc:title></dc:title></cc:Work></rdf:RDF></metadata><defs
   id="defs483">
	
	
	
	
	
	
	
	
	
	
	
	
	
	
	
	
	
	
	
	
	
	
	
	
	
	
	
	
	
	
	
	
	
	
	
	
	
	
	
	
	
	
	
	
	
	
	
	
	
	
	
	
	
	
	
	
	
	
	
	
	
	
	
	
	
	
	
	
	
	
	
	
	
	
	
	
	
	
	
	
	
	
	
	
	
	
	
	
	
	
	
	
	
	
	
	
	
	
	
	
	
	
	
	
	
	
	
	
	
	
	
	
	
	
	
	
	
	
	
	
	
	
	
	
	
	
	
	
	
	
	
	
	
	
	
	
	
	
	
	
	
	
	
	
	
	
	
	
	
	
	
	
	
	
	
	
	
	
	
	
	
	
	
	
	
	
	
	
	
	
	
	
	
	
	
	
	
	
	
	
	
	
	
	
	
	
	
	
	
	
	
	
	
	
	
	
	
	
	
	
	
	
	
	
	
	
	
	
	
	
	
	
	
	
	
	
	
	
	
	
	
	
	
	
	
	
	
	
	
	
	
	
	
	
	
	
	
	
</defs>

<path
   style="fill:#ff0000;fill-opacity:1;stroke:none;stroke-width:4.23410225px;stroke-linecap:butt;stroke-linejoin:miter;stroke-opacity:1"
   d="m 202.22856,715.78178 c -9.21364,-6.07192 -37.3872,13.32233 -37.3872,13.32233 0,0 2.45433,-15.88521 -8.69974,-31.04144 -11.15542,-15.15712 -14.83423,-4.0092 -21.1498,4.11492 -6.31031,8.1116 -9.52225,-5.81769 -20.90728,3.63823 -2.09891,15.76193 17.96271,33.78563 17.96271,33.78563 0,0 -12.54727,-0.82315 -31.29171,6.81778 -18.742939,7.64001 -10.259543,16.19555 -6.521502,10.95306 3.730933,-5.24595 2.030123,13.94994 7.919292,23.00455 5.89003,9.0533 25.35877,3.53889 25.35877,3.53889 0,0 -11.57634,26.14506 -10.21101,32.40322 1.36406,6.26011 8.54155,1.8126 13.39497,2.12287 4.85766,0.2615 -0.44964,2.12868 8.96487,8.785 9.41254,6.65505 23.03367,-28.51193 23.03367,-28.51193 0,0 23.45437,26.76022 29.08837,9.7808 5.63273,-16.97924 11.38943,3.2014 20.42144,-5.0543 9.03288,-8.25416 -24.5784,-32.30574 -18.16318,-29.7636 5.81756,2.29704 28.96623,-21.51909 25.56611,-28.66154 l -0.006,-0.006 c -0.36767,-0.72323 -0.98666,-1.28852 -1.95105,-1.62822 -10.33184,-3.5665 -9.53949,-7.00829 -12.77298,-23.30914 -0.40493,-2.03774 -1.33342,-3.42337 -2.64967,-4.29077 z m -17.12034,28.59963 a 6.2987685,6.2987685 0 0 1 1.8873,8.70627 6.2987685,6.2987685 0 0 1 -8.70411,1.88867 6.2987685,6.2987685 0 0 1 -0.70399,-0.53537 l -7.07345,5.21204 a 11.414201,11.414201 0 0 1 -1.86896,9.01912 l 6.3233,7.48889 a 5.8656395,5.8656395 0 0 1 5.66765,0.3698 5.8656395,5.8656395 0 0 1 1.75917,8.10725 5.8656395,5.8656395 0 0 1 -8.10588,1.75701 5.8656395,5.8656395 0 0 1 -2.23631,-7.19463 l -6.4229,-7.60494 a 11.414201,11.414201 0 0 1 -2.54801,1.25226 11.414201,11.414201 0 0 1 -6.28973,0.31202 l -4.2566,7.72746 a 5.4959405,5.4959405 0 0 1 0.51132,6.6166 5.4959405,5.4959405 0 0 1 -7.59568,1.64817 5.4959405,5.4959405 0 0 1 -1.64815,-7.59567 5.4959405,5.4959405 0 0 1 4.95842,-2.50438 l 4.17839,-7.58215 a 11.414201,11.414201 0 0 1 -4.36107,-5.69755 11.414201,11.414201 0 0 1 -0.33609,-1.19745 l -9.84332,1.02732 a 5.9888723,5.9888723 0 0 1 -0.55107,1.10349 5.9888723,5.9888723 0 0 1 -8.27564,1.79756 5.9888723,5.9888723 0 0 1 -1.79615,-8.27778 5.9888723,5.9888723 0 0 1 8.27778,-1.79617 5.9888723,5.9888723 0 0 1 2.3677,2.95697 l 9.66539,-1.0073 a 11.414201,11.414201 0 0 1 3.91823,-7.04954 l -2.56416,-8.49987 a 5.9079263,5.9079263 0 0 1 -2.10426,-0.83425 5.9079263,5.9079263 0 0 1 -1.77149,-8.16411 5.9079263,5.9079263 0 0 1 8.16549,-1.77365 5.9079263,5.9079263 0 0 1 1.77011,8.16626 5.9079263,5.9079263 0 0 1 -1.91081,1.84868 l 2.15802,7.15953 a 11.414201,11.414201 0 0 1 9.75842,1.20449 11.414201,11.414201 0 0 1 3.32303,3.25374 l 6.67037,-4.91812 a 6.2987685,6.2987685 0 0 1 0.90003,-4.50115 6.2987685,6.2987685 0 0 1 8.70767,-1.88944 z"
   id="path557-6-7-5-3-5-6-2-3" /><path
   style="fill:#ff0000;fill-opacity:1;stroke:none;stroke-width:1.65918636px;stroke-linecap:butt;stroke-linejoin:miter;stroke-opacity:1"
   d="m 22.039912,701.05128 c 4.321999,-0.13124 8.979006,-12.69931 8.979006,-12.69931 0,0 2.794923,5.64463 9.787024,7.98739 6.992735,2.34277 5.658349,-2.05961 5.850808,-6.08735 0.193599,-4.02255 4.363594,-0.28234 5.88056,-5.87991 -2.881044,-5.52497 -13.374552,-6.77845 -13.374552,-6.77845 0,0 4.207031,-2.56514 8.491929,-9.24028 4.284622,-6.67451 -0.3633,-7.50388 -0.379363,-4.98085 -0.01297,2.52253 -3.795871,-4.01329 -7.724856,-5.58751 -3.928968,-1.57364 -8.925459,4.58326 -8.925459,4.58326 0,0 -2.184519,-10.98962 -4.033102,-12.68755 -1.848616,-1.69885 -3.14627,1.34487 -4.77176,2.3397 -1.615854,1.01141 -0.33583,-0.78363 -4.853971,-0.79437 -4.517223,-0.0111 -0.953946,14.33143 -0.953946,14.33143 0,0 -13.5506666,-3.28862 -11.5281325,3.42361 2.0229014,6.71188 -4.37214806,1.54184 -5.40557306,6.22422 -1.03404804,4.68207 15.16123956,4.81254 12.53197956,5.44418 -2.3824456,0.57544 -4.4319842,13.42778 -1.731869,14.95036 l 0.00329,3.7e-4 c 0.280902,0.14895 0.606743,0.19054 0.992423,0.0819 4.115505,-1.18639 4.637554,0.0953 9.349154,4.5908 0.589218,0.56181 1.199212,0.79657 1.816642,0.7778 z M 21.078844,688.025 a 2.4682519,2.4682519 0 0 1 -2.567837,-2.36487 2.4682519,2.4682519 0 0 1 2.363867,-2.56778 2.4682519,2.4682519 0 0 1 0.346338,0.0127 l 1.091934,-3.26534 a 4.4727985,4.4727985 0 0 1 -1.43448,-3.31204 l -3.715113,-0.97454 a 2.2985248,2.2985248 0 0 1 -1.899876,1.15933 2.2985248,2.2985248 0 0 1 -2.391713,-2.20177 2.2985248,2.2985248 0 0 1 2.201817,-2.39071 2.2985248,2.2985248 0 0 1 2.338875,1.80169 l 3.7732,0.98928 a 4.4727985,4.4727985 0 0 1 0.534306,-0.97584 4.4727985,4.4727985 0 0 1 1.945528,-1.51812 l -0.378011,-3.43637 a 2.1536536,2.1536536 0 0 1 -1.655685,-2.00536 2.1536536,2.1536536 0 0 1 2.062835,-2.24079 2.1536536,2.1536536 0 0 1 2.240788,2.06283 2.1536536,2.1536536 0 0 1 -1.024541,1.92061 l 0.370315,3.37217 a 4.4727985,4.4727985 0 0 1 2.68233,0.84282 4.4727985,4.4727985 0 0 1 0.3777,0.30801 l 2.923191,-2.54857 a 2.3468152,2.3468152 0 0 1 -0.07218,-0.47793 2.3468152,2.3468152 0 0 1 2.247084,-2.44198 2.3468152,2.3468152 0 0 1 2.442014,2.2481 2.3468152,2.3468152 0 0 1 -2.248083,2.44201 2.3468152,2.3468152 0 0 1 -1.425546,-0.41389 l -2.870677,2.50204 a 4.4727985,4.4727985 0 0 1 0.333613,3.14283 l 2.738237,2.14611 a 2.3150954,2.3150954 0 0 1 0.862515,-0.20705 2.3150954,2.3150954 0 0 1 2.408482,2.2172 2.3150954,2.3150954 0 0 1 -2.217171,2.40949 2.3150954,2.3150954 0 0 1 -2.408524,-2.21821 2.3150954,2.3150954 0 0 1 0.19561,-1.02333 l -2.305869,-1.8081 a 4.4727985,4.4727985 0 0 1 -3.399174,1.81413 4.4727985,4.4727985 0 0 1 -1.798642,-0.29361 l -1.029015,3.08021 a 2.4682519,2.4682519 0 0 1 0.726385,1.64555 2.4682519,2.4682519 0 0 1 -2.364834,2.56884 z"
   id="path557-6-7-5-3-5-6-2-3-5" /><path
   style="fill:#ff0000;fill-opacity:1;stroke:none;stroke-width:1.65918636px;stroke-linecap:butt;stroke-linejoin:miter;stroke-opacity:1"
   d="m 52.545509,657.63672 c 2.590402,3.46218 15.552882,0.0536 15.552882,0.0536 0,0 -3.014484,5.53049 -0.915097,12.59947 2.099742,7.06951 4.936517,3.44816 8.343813,1.29176 3.403703,-2.15249 2.737972,3.40942 8.191112,1.43527 2.867062,-5.53224 -2.135458,-14.84136 -2.135458,-14.84136 0,0 4.516514,1.96981 12.441819,1.64217 7.92464,-0.3275 5.933251,-4.60833 3.858911,-3.172 -2.07217,1.43855 1.10418,-5.41257 0.1355,-9.53285 -0.96916,-4.11994 -8.87909,-4.67247 -8.87909,-4.67247 0,0 7.74007,-8.10156 8.06782,-10.59009 0.32849,-2.48909 -2.908307,-1.80262 -4.656423,-2.56156 -1.75615,-0.74154 0.448472,-0.72508 -2.138401,-4.42937 -2.586051,-3.70375 -12.278399,7.45257 -12.278399,7.45257 0,0 -5.09308,-12.98061 -9.425137,-7.46898 -4.331559,5.51172 -3.773797,-2.69285 -8.200053,-0.84869 -4.42636,1.84346 4.771014,15.17435 2.743508,13.38517 -1.839712,-1.61946 -13.536883,4.08663 -13.231912,7.17141 l 0.0016,0.003 c 0.03946,0.31549 0.192615,0.60609 0.50311,0.85936 3.335417,2.68698 2.586263,3.85061 1.613476,10.28974 -0.12134,0.80504 0.03695,1.43919 0.407024,1.93378 z m 10.109954,-8.27022 a 2.4682519,2.4682519 0 0 1 0.460442,-3.4604 2.4682519,2.4682519 0 0 1 3.45978,0.45966 2.4682519,2.4682519 0 0 1 0.188576,0.29077 l 3.300014,-0.98218 a 4.4727985,4.4727985 0 0 1 1.886818,-3.07689 l -1.33666,-3.60071 a 2.2985248,2.2985248 0 0 1 -2.040393,-0.88903 2.2985248,2.2985248 0 0 1 0.428126,-3.22254 2.2985248,2.2985248 0 0 1 3.22175,0.42874 2.2985248,2.2985248 0 0 1 -0.131014,2.94945 l 1.357965,3.65673 a 4.4727985,4.4727985 0 0 1 1.105689,-0.12329 4.4727985,4.4727985 0 0 1 2.360292,0.72027 l 2.595523,-2.28359 a 2.1536536,2.1536536 0 0 1 0.69021,-2.50727 2.1536536,2.1536536 0 0 1 3.019195,0.40112 2.1536536,2.1536536 0 0 1 -0.40111,3.01919 2.1536536,2.1536536 0 0 1 -2.160627,0.26479 l -2.547395,2.24041 a 4.4727985,4.4727985 0 0 1 0.85114,2.6797 4.4727985,4.4727985 0 0 1 -0.03512,0.4861 l 3.765388,0.9285 a 2.3468152,2.3468152 0 0 1 0.349721,-0.33365 2.3468152,2.3468152 0 0 1 3.289721,0.43634 2.3468152,2.3468152 0 0 1 -0.43715,3.29033 2.3468152,2.3468152 0 0 1 -3.29032,-0.43714 2.3468152,2.3468152 0 0 1 -0.480202,-1.40459 l -3.697133,-0.91225 a 4.4727985,4.4727985 0 0 1 -2.380765,2.07861 l -0.183491,3.4742 a 2.3150954,2.3150954 0 0 1 0.664985,0.58703 2.3150954,2.3150954 0 0 1 -0.431122,3.24513 2.3150954,2.3150954 0 0 1 -3.245942,-0.43052 2.3150954,2.3150954 0 0 1 0.431924,-3.24575 2.3150954,2.3150954 0 0 1 0.94998,-0.42779 l 0.155222,-2.92612 a 4.4727985,4.4727985 0 0 1 -3.437695,-1.74003 4.4727985,4.4727985 0 0 1 -0.792995,-1.64087 l -3.112338,0.92732 a 2.4682519,2.4682519 0 0 1 -0.929585,1.53991 2.4682519,2.4682519 0 0 1 -3.461203,-0.45983 z"
   id="path557-6-7-5-3-5-6-2-3-5-6" /><path
   style="fill:#ff0000;fill-opacity:1;stroke:none;stroke-width:2.68429327px;stroke-linecap:butt;stroke-linejoin:miter;stroke-opacity:1"
   d="m 224.40854,595.69175 c 4.19085,5.60125 25.16204,0.0867 25.16204,0.0867 0,0 -4.87695,8.94743 -1.48048,20.38389 3.39704,11.43732 7.98649,5.57856 13.49893,2.08986 5.50663,-3.48238 4.42959,5.51589 13.25188,2.32203 4.63845,-8.95026 -3.45481,-24.0109 -3.45481,-24.0109 0,0 7.30698,3.18683 20.12884,2.65676 12.82078,-0.52984 9.59903,-7.45553 6.24309,-5.13178 -3.35244,2.32734 1.78638,-8.75665 0.21921,-15.4226 -1.56794,-6.66539 -14.36492,-7.55929 -14.36492,-7.55929 0,0 12.52217,-13.10701 13.05242,-17.13304 0.53144,-4.02695 -4.70517,-2.91635 -7.53333,-4.14419 -2.84116,-1.19969 0.72555,-1.17306 -3.4596,-7.166 -4.18381,-5.99206 -19.86445,12.05704 -19.86445,12.05704 0,0 -8.23977,-21.00051 -15.24833,-12.08359 -7.00775,8.91707 -6.10539,-4.35659 -13.26636,-1.37304 -7.16113,2.98242 7.71874,24.54963 4.43855,21.65502 -2.97635,-2.62002 -21.90046,6.61151 -21.40707,11.60218 l 0.003,0.005 c 0.0639,0.51041 0.31162,0.98056 0.81395,1.39031 5.39617,4.34709 4.18415,6.22966 2.61034,16.64712 -0.19631,1.30242 0.0597,2.32838 0.6585,3.12854 z m 16.35627,-13.37986 a 3.9932297,3.9932297 0 0 1 0.74492,-5.59837 3.9932297,3.9932297 0 0 1 5.59736,0.74366 3.9932297,3.9932297 0 0 1 0.30509,0.47042 l 5.33888,-1.58901 a 7.2362597,7.2362597 0 0 1 3.05257,-4.97791 l -2.1625,-5.82536 a 3.7186389,3.7186389 0 0 1 -3.30104,-1.43831 3.7186389,3.7186389 0 0 1 0.69265,-5.21354 3.7186389,3.7186389 0 0 1 5.21226,0.69363 3.7186389,3.7186389 0 0 1 -0.21195,4.77173 l 2.19696,5.91599 a 7.2362597,7.2362597 0 0 1 1.78883,-0.19946 7.2362597,7.2362597 0 0 1 3.81856,1.16528 l 4.19915,-3.69448 a 3.4842609,3.4842609 0 0 1 1.11664,-4.05635 3.4842609,3.4842609 0 0 1 4.88456,0.64894 3.4842609,3.4842609 0 0 1 -0.64893,4.88456 3.4842609,3.4842609 0 0 1 -3.49555,0.42839 l -4.12126,3.62462 a 7.2362597,7.2362597 0 0 1 1.37701,4.33532 7.2362597,7.2362597 0 0 1 -0.0568,0.78643 l 6.09179,1.50216 a 3.7967649,3.7967649 0 0 1 0.56579,-0.53979 3.7967649,3.7967649 0 0 1 5.32223,0.70592 3.7967649,3.7967649 0 0 1 -0.70724,5.32322 3.7967649,3.7967649 0 0 1 -5.3232,-0.70722 3.7967649,3.7967649 0 0 1 -0.77689,-2.2724 l -5.98137,-1.47587 a 7.2362597,7.2362597 0 0 1 -3.85168,3.36285 l -0.29686,5.62069 a 3.7454474,3.7454474 0 0 1 1.07583,0.94972 3.7454474,3.7454474 0 0 1 -0.69748,5.25009 3.7454474,3.7454474 0 0 1 -5.2514,-0.69651 3.7454474,3.7454474 0 0 1 0.69878,-5.25109 3.7454474,3.7454474 0 0 1 1.53691,-0.6921 l 0.25112,-4.73398 a 7.2362597,7.2362597 0 0 1 -5.56162,-2.81509 7.2362597,7.2362597 0 0 1 -1.28295,-2.65466 l -5.03524,1.50026 a 3.9932297,3.9932297 0 0 1 -1.50393,2.49132 3.9932297,3.9932297 0 0 1 -5.59965,-0.74393 z"
   id="path557-6-7-5-3-5-6-2-3-5-6-2" /><path
   style="fill:#ff0000;fill-opacity:1;stroke:none;stroke-width:1.77045476px;stroke-linecap:butt;stroke-linejoin:miter;stroke-opacity:1"
   d="m 258.25628,503.20273 c -0.81623,4.5412 11.27795,12.17518 11.27795,12.17518 0,0 -6.50955,1.67298 -10.4976,8.45615 -3.98821,6.78382 0.90227,6.36169 5.06485,7.45097 4.15692,1.08933 -0.66765,4.61795 4.84173,7.43628 6.40361,-1.78928 10.02672,-12.46823 10.02672,-12.46823 0,0 1.75015,4.95798 7.77405,10.90375 6.02331,5.94537 7.91432,1.27576 5.28378,0.70251 -2.63071,-0.56994 5.02715,-3.07779 7.53724,-6.83251 2.50948,-3.75484 -2.81642,-10.32923 -2.81642,-10.32923 0,0 11.95519,0.14318 14.13558,-1.41229 2.18135,-1.5553 -0.71013,-3.58139 -1.39024,-5.49784 -0.69953,-1.91006 0.8922,-0.17779 1.89992,-4.89244 1.0079,-4.71362 -14.75188,-4.15686 -14.75188,-4.15686 0,0 6.42211,-13.42182 -1.03168,-12.79069 -7.45349,0.63159 -0.64539,-4.90467 -5.30596,-7.01633 -4.6601,-2.11224 -8.36832,14.76717 -8.44786,11.88285 -0.0753,-2.61423 -13.04135,-7.58867 -15.22648,-5.10553 l -8.3e-4,0.004 c -0.21746,0.26041 -0.33275,0.59143 -0.3044,1.01805 0.33091,4.55833 -1.12235,4.82067 -6.85491,8.74815 -0.7165,0.49124 -1.09616,1.07629 -1.21272,1.72506 z m 13.81166,1.8697 a 2.6337779,2.6337779 0 0 1 3.03533,-2.15928 2.6337779,2.6337779 0 0 1 2.15943,3.03427 2.6337779,2.6337779 0 0 1 -0.0896,0.35878 l 3.16824,1.86019 a 4.7727535,4.7727535 0 0 1 3.77422,-0.76711 l 1.83683,-3.6637 a 2.4526686,2.4526686 0 0 1 -0.79132,-2.23923 2.4526686,2.4526686 0 0 1 2.8262,-2.01136 2.4526686,2.4526686 0 0 1 2.01031,2.82603 2.4526686,2.4526686 0 0 1 -2.39684,2.04445 l -1.86506,3.72109 a 4.7727535,4.7727535 0 0 1 0.90096,0.77306 4.7727535,4.7727535 0 0 1 1.15584,2.36601 l 3.67101,0.36327 a 2.298082,2.298082 0 0 1 2.45882,-1.28627 2.298082,2.298082 0 0 1 1.88443,2.64786 2.298082,2.298082 0 0 1 -2.64785,1.88445 2.298082,2.298082 0 0 1 -1.77919,-1.49325 l -3.60228,-0.35714 a 4.7727535,4.7727535 0 0 1 -1.47153,2.61451 4.7727535,4.7727535 0 0 1 -0.40489,0.32638 l 2.01603,3.61397 a 2.5041974,2.5041974 0 0 1 0.51488,0.0301 2.5041974,2.5041974 0 0 1 2.05386,2.88459 2.5041974,2.5041974 0 0 1 -2.88566,2.05367 2.5041974,2.5041974 0 0 1 -2.05368,-2.88565 2.5041974,2.5041974 0 0 1 0.74653,-1.397 l -1.97903,-3.54889 a 4.7727535,4.7727535 0 0 1 -3.35475,-0.34489 l -2.84452,2.38543 a 2.4703504,2.4703504 0 0 1 0.0259,0.94615 2.4703504,2.4703504 0 0 1 -2.846,2.02548 2.4703504,2.4703504 0 0 1 -2.02654,-2.8462 2.4703504,2.4703504 0 0 1 2.84708,-2.0253 2.4703504,2.4703504 0 0 1 1.02523,0.42992 l 2.39626,-2.00858 a 4.7727535,4.7727535 0 0 1 -1.14425,-3.94892 4.7727535,4.7727535 0 0 1 0.70322,-1.81306 l -2.98883,-1.75367 a 2.6337779,2.6337779 0 0 1 -1.8782,0.39541 2.6337779,2.6337779 0 0 1 -2.16033,-3.0355 z"
   id="path557-6-7-5-3-5-6-2-3-5-6-2-9" /><path
   style="fill:#ff0000;fill-opacity:1;stroke:none;stroke-width:2.2613678px;stroke-linecap:butt;stroke-linejoin:miter;stroke-opacity:1"
   d="m 237.25106,334.76811 c -3.52711,4.72131 5.92699,20.35228 5.92699,20.35228 0,0 -8.39213,-1.80819 -16.8236,3.66199 -8.43202,5.47083 -2.60414,7.78286 1.52864,11.40558 4.1263,3.61953 -3.40123,4.89389 1.28216,11.26131 8.33757,1.6148 18.57806,-8.51427 18.57806,-8.51427 0,0 -0.83353,6.66377 2.65072,16.89784 3.4838,10.23326 8.31208,5.97935 5.63459,3.82149 -2.67957,-2.15418 7.50136,-0.6436 12.51411,-3.49866 5.01211,-2.85555 2.68441,-13.40891 2.68441,-13.40891 0,0 13.57532,6.99437 16.95486,6.46326 3.38053,-0.53037 1.23506,-4.49698 1.55312,-7.07485 0.29223,-2.58166 1.1208,0.30667 4.96577,-4.50338 3.84459,-4.80876 -14.47686,-13.17735 -14.47686,-13.17735 0,0 15.00514,-11.66318 6.12963,-15.20105 -8.87544,-3.53717 2.06509,-5.97165 -2.05243,-11.04682 -4.11664,-5.07556 -17.9971,12.08804 -16.43996,8.74767 1.40765,-3.02943 -10.562,-16.12039 -14.47698,-14.53226 l -0.003,0.004 c -0.39721,0.17323 -0.71804,0.48549 -0.92942,0.98905 -2.22645,5.39632 -4.03649,4.86566 -12.82917,6.07687 -1.09917,0.15179 -1.86717,0.60319 -2.371,1.27772 z m 14.70961,10.02739 a 3.3640738,3.3640738 0 0 1 4.70118,-0.73239 3.3640738,3.3640738 0 0 1 0.73316,4.70006 3.3640738,3.3640738 0 0 1 -0.30735,0.35866 l 2.55642,3.93523 a 6.0961461,6.0961461 0 0 1 4.74982,1.28015 l 4.19164,-3.13576 a 3.1327464,3.1327464 0 0 1 0.37545,-3.01014 3.1327464,3.1327464 0 0 1 4.37776,-0.6829 3.1327464,3.1327464 0 0 1 0.6818,4.37696 3.1327464,3.1327464 0 0 1 -3.90619,0.96603 l -4.25667,3.18519 a 6.0961461,6.0961461 0 0 1 0.58752,1.39789 6.0961461,6.0961461 0 0 1 -0.0315,3.36324 l 3.98606,2.51248 a 2.9352959,2.9352959 0 0 1 3.54378,-0.0645 2.9352959,2.9352959 0 0 1 0.6398,4.10151 2.9352959,2.9352959 0 0 1 -4.10151,0.63982 2.9352959,2.9352959 0 0 1 -1.17927,-2.7224 l -3.91106,-2.4662 a 6.0961461,6.0961461 0 0 1 -3.17485,2.14593 6.0961461,6.0961461 0 0 1 -0.64901,0.1415 l 0.23812,5.28034 a 3.1985631,3.1985631 0 0 1 0.57096,0.32862 3.1985631,3.1985631 0 0 1 0.69809,4.46875 3.1985631,3.1985631 0 0 1 -4.46986,0.69726 3.1985631,3.1985631 0 0 1 -0.69728,-4.46985 3.1985631,3.1985631 0 0 1 1.65101,-1.16934 l -0.23305,-5.18486 a 6.0961461,6.0961461 0 0 1 -3.63527,-2.31078 l -4.61242,1.09976 a 3.155331,3.155331 0 0 1 -0.51099,1.09565 3.155331,3.155331 0 0 1 -4.40845,0.68772 3.155331,3.155331 0 0 1 -0.68882,-4.40929 3.155331,3.155331 0 0 1 4.40958,-0.6869 3.155331,3.155331 0 0 1 0.92554,1.07691 l 3.88503,-0.92538 a 6.0961461,6.0961461 0 0 1 0.94913,-5.16487 6.0961461,6.0961461 0 0 1 1.83926,-1.66938 l -2.41233,-3.71104 a 3.3640738,3.3640738 0 0 1 -2.3715,-0.62144 3.3640738,3.3640738 0 0 1 -0.7335,-4.70197 z"
   id="path557-6-7-5-3-5-6-2-3-5-6-2-9-1" /><path
   style="fill:#ff0000;fill-opacity:1;stroke:none;stroke-width:2.2613678px;stroke-linecap:butt;stroke-linejoin:miter;stroke-opacity:1"
   d="m 365.94274,381.37909 c -3.67793,4.6048 5.26579,20.53329 5.26579,20.53329 0,0 -8.32928,-2.07861 -16.93321,3.11608 -8.60452,5.19532 -2.85444,7.69459 1.15903,11.44904 4.0071,3.75107 -3.5577,4.78135 0.91735,11.29688 8.28099,1.88356 18.84366,-7.90909 18.84366,-7.90909 0,0 -1.04857,6.63334 2.10293,16.97472 3.15109,10.34056 8.11439,6.245 5.50807,4.00169 -2.6085,-2.2397 7.51825,-0.4007 12.6207,-3.09219 5.10183,-2.69198 3.11659,-13.31509 3.11659,-13.31509 0,0 13.34206,7.42967 16.737,7.00812 3.39591,-0.42078 1.37983,-4.45469 1.78108,-7.02093 0.37556,-2.57086 1.1103,0.34275 5.10879,-4.34045 3.99807,-4.68194 -14.0432,-13.63858 -14.0432,-13.63858 0,0 15.37444,-11.17188 6.61796,-14.99489 -8.75642,-3.82232 2.25711,-5.90176 -1.69415,-11.10742 -3.95037,-5.20602 -18.37856,11.49978 -16.71422,8.21151 1.50487,-2.98233 -10.03522,-16.45349 -13.99951,-14.99278 l -0.003,0.004 c -0.40261,0.1603 -0.73337,0.46203 -0.96092,0.95849 -2.39978,5.3215 -4.19171,4.73259 -13.01896,5.65885 -1.10351,0.11617 -1.88569,0.5425 -2.41108,1.20039 z m 14.37767,10.49779 a 3.3640738,3.3640738 0 0 1 4.72241,-0.57999 3.3640738,3.3640738 0 0 1 0.58079,4.7213 3.3640738,3.3640738 0 0 1 -0.31878,0.34854 l 2.42784,4.01583 a 6.0961461,6.0961461 0 0 1 4.70594,1.43307 l 4.29084,-2.99858 a 3.1327464,3.1327464 0 0 1 0.47259,-2.99643 3.1327464,3.1327464 0 0 1 4.39755,-0.54098 3.1327464,3.1327464 0 0 1 0.53991,4.39672 3.1327464,3.1327464 0 0 1 -3.93538,0.83921 l -4.35744,3.04589 a 6.0961461,6.0961461 0 0 1 0.54201,1.41615 6.0961461,6.0961461 0 0 1 -0.14021,3.36047 l 3.90273,2.64006 a 2.9352959,2.9352959 0 0 1 3.54402,0.0501 2.9352959,2.9352959 0 0 1 0.50684,4.12005 2.9352959,2.9352959 0 0 1 -4.12005,0.50687 2.9352959,2.9352959 0 0 1 -1.09064,-2.7591 l -3.82926,-2.59138 a 6.0961461,6.0961461 0 0 1 -3.24258,2.04214 6.0961461,6.0961461 0 0 1 -0.65325,0.12045 l 0.0673,5.28528 a 3.1985631,3.1985631 0 0 1 0.56003,0.34691 3.1985631,3.1985631 0 0 1 0.55323,4.48898 3.1985631,3.1985631 0 0 1 -4.49007,0.55236 3.1985631,3.1985631 0 0 1 -0.55238,-4.49006 3.1985631,3.1985631 0 0 1 1.68795,-1.11534 l -0.0653,-5.18969 a 6.0961461,6.0961461 0 0 1 -3.55865,-2.42711 l -4.64556,0.95003 a 3.155331,3.155331 0 0 1 -0.54616,1.07856 3.155331,3.155331 0 0 1 -4.42838,0.54481 3.155331,3.155331 0 0 1 -0.54588,-4.42925 3.155331,3.155331 0 0 1 4.42949,-0.54396 3.155331,3.155331 0 0 1 0.89022,1.10627 l 3.91292,-0.79927 a 6.0961461,6.0961461 0 0 1 1.11565,-5.13148 6.0961461,6.0961461 0 0 1 1.89227,-1.60903 l -2.29106,-3.7871 a 3.3640738,3.3640738 0 0 1 -2.35017,-0.6978 3.3640738,3.3640738 0 0 1 -0.58108,-4.72323 z"
   id="path557-6-7-5-3-5-6-2-3-5-6-2-9-1-2" /><path
   style="fill:#ff0000;fill-opacity:1;stroke:none;stroke-width:1.54258132px;stroke-linecap:butt;stroke-linejoin:miter;stroke-opacity:1"
   d="m 412.05738,324.72894 c -4.01404,-0.2209 -9.32392,11.05235 -9.32392,11.05235 0,0 -2.14175,-5.45032 -8.43315,-8.17457 -6.29198,-2.72433 -5.40476,1.45951 -5.90221,5.17529 -0.4981,3.71091 -4.06454,-0.0842 -5.91333,4.9808 2.23101,5.34629 11.85222,7.339 11.85222,7.339 0,0 -4.10041,2.0428 -8.59864,7.88669 -4.49792,5.84333 -0.25809,6.97992 -0.0432,4.64401 0.21194,-2.33568 3.19823,4.01845 6.71305,5.78806 3.51486,1.76907 8.63119,-3.53837 8.63119,-3.53837 0,0 1.15275,10.35323 2.73062,12.07257 1.57783,1.72018 3.02109,-0.99648 4.60566,-1.78923 1.57698,-0.80885 0.24901,0.75252 4.43348,1.12049 4.1836,0.36824 2.01934,-13.20015 2.01934,-13.20015 0,0 12.29191,4.12019 10.95025,-2.25789 -1.34202,-6.37777 4.17227,-1.0818 5.50062,-5.33739 1.3289,-4.25523 -13.66308,-5.65946 -11.17743,-6.03622 2.25254,-0.34427 5.16956,-12.08747 2.789,-13.71185 l -0.003,-9e-5 c -0.24841,-0.16023 -0.54696,-0.22458 -0.91285,-0.15452 -3.90635,0.77289 -4.28837,-0.45577 -8.29668,-4.99348 -0.50129,-0.56711 -1.04773,-0.83294 -1.62118,-0.86447 z m -0.14198,12.14291 a 2.294787,2.294787 0 0 1 2.19129,2.39416 2.294787,2.294787 0 0 1 -2.39323,2.19129 2.294787,2.294787 0 0 1 -0.31981,-0.0392 l -1.27024,2.93828 a 4.1584572,4.1584572 0 0 1 1.06634,3.18174 l 3.36422,1.19714 a 2.1369881,2.1369881 0 0 1 1.85182,-0.92338 2.1369881,2.1369881 0 0 1 2.04104,2.22912 2.1369881,2.1369881 0 0 1 -2.22907,2.04012 2.1369881,2.1369881 0 0 1 -2.02382,-1.8543 l -3.41686,-1.21542 a 4.1584572,4.1584572 0 0 1 -0.57228,0.86162 4.1584572,4.1584572 0 0 1 -1.92252,1.25212 l 0.0779,3.2132 a 2.0022982,2.0022982 0 0 1 1.37484,1.98884 2.0022982,2.0022982 0 0 1 -2.08845,1.91225 2.0022982,2.0022982 0 0 1 -1.91226,-2.08844 2.0022982,2.0022982 0 0 1 1.10126,-1.69795 l -0.0758,-3.15311 a 4.1584572,4.1584572 0 0 1 -2.41795,-0.9933 4.1584572,4.1584572 0 0 1 -0.32547,-0.31526 l -2.90979,2.12922 a 2.1818847,2.1818847 0 0 1 0.0289,0.44845 2.1818847,2.1818847 0 0 1 -2.27506,2.08403 2.1818847,2.1818847 0 0 1 -2.08398,-2.276 2.1818847,2.1818847 0 0 1 2.27599,-2.084 2.1818847,2.1818847 0 0 1 1.28774,0.49637 l 2.85748,-2.09028 a 4.1584572,4.1584572 0 0 1 -0.06,-2.93775 l -2.36647,-2.205 a 2.1523941,2.1523941 0 0 1 -0.81539,0.12343 2.1523941,2.1523941 0 0 1 -2.05538,-2.24472 2.1523941,2.1523941 0 0 1 2.24479,-2.05631 2.1523941,2.1523941 0 0 1 2.05534,2.24568 2.1523941,2.1523941 0 0 1 -0.2623,0.93243 l 1.99274,1.85764 a 4.1584572,4.1584572 0 0 1 3.29254,-1.41112 4.1584572,4.1584572 0 0 1 1.64289,0.41449 l 1.19729,-2.77176 a 2.294787,2.294787 0 0 1 -0.54246,-1.5819 2.294787,2.294787 0 0 1 2.39418,-2.19222 z"
   id="path557-6-7-5-3-5-6-2-3-5-6-2-9-1-2-7" /><path
   style="fill:#ff0000;fill-opacity:1;stroke:none;stroke-width:2.2613678px;stroke-linecap:butt;stroke-linejoin:miter;stroke-opacity:1"
   d="m 239.48961,207.28499 c -5.48848,-2.14658 -18.04734,11.11926 -18.04734,11.11926 0,0 -0.48551,-8.57098 -7.99846,-15.24692 -7.51372,-6.67629 -8.19497,-0.44367 -10.59003,4.50281 -2.39369,4.93939 -5.62143,-1.97938 -10.51639,4.22687 0.65746,8.46702 13.14243,15.64972 13.14243,15.64972 0,0 -6.64584,0.96615 -15.58706,7.04321 -8.94056,6.07642 -3.55712,9.60158 -2.18783,6.44716 1.36518,-3.15545 2.61268,7.06105 6.69648,11.13555 4.08411,4.07375 13.64031,-0.97309 13.64031,-0.97309 0,0 -3.13789,14.94537 -1.72833,18.0625 1.40912,3.11828 4.6635,-0.004 7.23327,-0.38158 2.56656,-0.40389 0.002,1.162 5.66045,3.59145 5.65712,2.42943 8.85942,-17.4566 8.85942,-17.4566 0,0 15.22938,11.36882 16.28306,1.87246 1.05303,-9.49611 6.30565,0.40499 10.10505,-4.91252 3.8,-5.31676 -16.43358,-14.1405 -12.79962,-13.5264 3.29448,0.55255 12.73646,-14.46393 10.16563,-17.81655 l -0.005,-0.002 c -0.2725,-0.33694 -0.65875,-0.56332 -1.20037,-0.63338 -5.79383,-0.71335 -5.76293,-2.59932 -9.26578,-10.75458 -0.43826,-1.01939 -1.07741,-1.63993 -1.86152,-1.94652 z m -5.76076,16.84443 a 3.3640738,3.3640738 0 0 1 1.95462,4.33785 3.3640738,3.3640738 0 0 1 -4.33657,1.95506 3.3640738,3.3640738 0 0 1 -0.4274,-0.20106 l -3.11499,3.50973 a 6.0961461,6.0961461 0 0 1 0.0273,4.91923 l 4.13636,3.20833 a 3.1327464,3.1327464 0 0 1 3.00175,-0.43746 3.1327464,3.1327464 0 0 1 1.82102,4.03919 3.1327464,3.1327464 0 0 1 -4.03872,1.81974 3.1327464,3.1327464 0 0 1 -1.96873,-3.50936 l -4.20129,-3.2579 a 6.0961461,6.0961461 0 0 1 -1.19165,0.93767 6.0961461,6.0961461 0 0 1 -3.25083,0.86283 l -1.36365,4.51018 a 2.9352959,2.9352959 0 0 1 1.00333,3.39939 2.9352959,2.9352959 0 0 1 -3.78431,1.70609 2.9352959,2.9352959 0 0 1 -1.70611,-3.7843 2.9352959,2.9352959 0 0 1 2.31145,-1.85993 l 1.33895,-4.42558 a 6.0961461,6.0961461 0 0 1 -2.91204,-2.49092 6.0961461,6.0961461 0 0 1 -0.30878,-0.58813 l -5.02748,1.63191 a 3.1985631,3.1985631 0 0 1 -0.16519,0.63773 3.1985631,3.1985631 0 0 1 -4.12287,1.85982 3.1985631,3.1985631 0 0 1 -1.85932,-4.12417 3.1985631,3.1985631 0 0 1 4.12415,-1.85933 3.1985631,3.1985631 0 0 1 1.56582,1.28117 l 4.93678,-1.60166 a 6.0961461,6.0961461 0 0 1 1.26235,-4.11842 l -2.28522,-4.15471 a 3.155331,3.155331 0 0 1 -1.19201,-0.20166 3.155331,3.155331 0 0 1 -1.83381,-4.0675 3.155331,3.155331 0 0 1 4.06801,-1.83509 3.155331,3.155331 0 0 1 1.83332,4.0688 3.155331,3.155331 0 0 1 -0.79243,1.17831 l 1.92392,3.49975 a 6.0961461,6.0961461 0 0 1 5.23147,-0.45662 6.0961461,6.0961461 0 0 1 2.0979,1.32986 l 2.93711,-3.31127 a 3.3640738,3.3640738 0 0 1 -0.0307,-2.45138 3.3640738,3.3640738 0 0 1 4.33832,-1.9559 z"
   id="path557-6-7-5-3-5-6-2-3-5-6-2-9-1-0" /><path
   style="fill:#ff0000;fill-opacity:1;stroke:none;stroke-width:1.7358731px;stroke-linecap:butt;stroke-linejoin:miter;stroke-opacity:1"
   d="m 432.55934,235.72875 c -4.21307,-1.64776 -13.85352,8.53538 -13.85352,8.53538 0,0 -0.37268,-6.57926 -6.13978,-11.70385 -5.76769,-5.12486 -6.29063,-0.34057 -8.12913,3.45645 -1.83745,3.79158 -4.31512,-1.51942 -8.07259,3.24464 0.50467,6.49945 10.08839,12.01304 10.08839,12.01304 0,0 -5.10148,0.74164 -11.96495,5.40652 -6.86295,4.66438 -2.73052,7.37037 -1.67943,4.94897 1.04795,-2.42218 2.00556,5.42021 5.14037,8.54789 3.13505,3.12709 10.47058,-0.74696 10.47058,-0.74696 0,0 -2.40871,11.47237 -1.3267,13.86515 1.08167,2.39366 3.5798,-0.003 5.55241,-0.29291 1.97014,-0.31004 10e-4,0.89198 4.34507,2.75688 4.34253,1.86487 6.80069,-13.40005 6.80069,-13.40005 0,0 11.69038,8.72693 12.49921,1.43733 0.80833,-7.28942 4.84035,0.31088 7.75686,-3.77095 2.91695,-4.08127 -12.61477,-10.85455 -9.82527,-10.38316 2.52891,0.42415 9.77677,-11.10281 7.80336,-13.67635 l -0.004,-0.001 c -0.20918,-0.25865 -0.50567,-0.43241 -0.92144,-0.4862 -4.44745,-0.54758 -4.42374,-1.99529 -7.1126,-8.25545 -0.33641,-0.78249 -0.82704,-1.25884 -1.42894,-1.49418 z m -4.42208,12.93014 a 2.5823332,2.5823332 0 0 1 1.50041,3.32983 2.5823332,2.5823332 0 0 1 -3.32885,1.50074 2.5823332,2.5823332 0 0 1 -0.32807,-0.15434 l -2.39114,2.69414 a 4.679529,4.679529 0 0 1 0.0209,3.77611 l 3.17515,2.46278 a 2.4047615,2.4047615 0 0 1 2.30421,-0.3358 2.4047615,2.4047615 0 0 1 1.39786,3.10057 2.4047615,2.4047615 0 0 1 -3.10021,1.39686 2.4047615,2.4047615 0 0 1 -1.51123,-2.69386 l -3.225,-2.50083 a 4.679529,4.679529 0 0 1 -0.91474,0.71978 4.679529,4.679529 0 0 1 -2.4954,0.66233 l -1.04677,3.46211 a 2.2531944,2.2531944 0 0 1 0.77018,2.60945 2.2531944,2.2531944 0 0 1 -2.90492,1.30962 2.2531944,2.2531944 0 0 1 -1.30965,-2.90491 2.2531944,2.2531944 0 0 1 1.77432,-1.42772 l 1.0278,-3.39717 a 4.679529,4.679529 0 0 1 -2.23534,-1.91209 4.679529,4.679529 0 0 1 -0.23702,-0.45145 l -3.8592,1.25269 a 2.4552838,2.4552838 0 0 1 -0.12681,0.48953 2.4552838,2.4552838 0 0 1 -3.16481,1.42764 2.4552838,2.4552838 0 0 1 -1.42726,-3.1658 2.4552838,2.4552838 0 0 1 3.16579,-1.42726 2.4552838,2.4552838 0 0 1 1.20197,0.98345 l 3.78956,-1.22947 a 4.679529,4.679529 0 0 1 0.96901,-3.16138 l -1.75418,-3.18925 a 2.422098,2.422098 0 0 1 -0.91502,-0.1548 2.422098,2.422098 0 0 1 -1.40766,-3.12229 2.422098,2.422098 0 0 1 3.12268,-1.40865 2.422098,2.422098 0 0 1 1.40729,3.12329 2.422098,2.422098 0 0 1 -0.60828,0.90449 l 1.47685,2.68649 a 4.679529,4.679529 0 0 1 4.01578,-0.35052 4.679529,4.679529 0 0 1 1.61039,1.02084 l 2.25458,-2.54181 a 2.5823332,2.5823332 0 0 1 -0.0236,-1.88172 2.5823332,2.5823332 0 0 1 3.33019,-1.5014 z"
   id="path557-6-7-5-3-5-6-2-3-5-6-2-9-1-0-9" /><path
   style="fill:#ff0000;fill-opacity:1;stroke:none;stroke-width:1.59621847px;stroke-linecap:butt;stroke-linejoin:miter;stroke-opacity:1"
   d="m 494.46509,271.89249 c -0.87691,-4.0664 -13.57933,-6.28372 -13.57933,-6.28372 0,0 4.8539,-3.62752 5.85273,-10.65114 0.99875,-7.02422 -2.93418,-4.99495 -6.77855,-4.47556 -3.83967,0.51741 -1.02713,-4.07945 -6.58749,-4.53983 -4.72568,3.68816 -4.08409,13.83492 -4.08409,13.83492 0,0 -3.15971,-3.53373 -10.22169,-6.42532 -7.06134,-2.89146 -7.03655,1.65065 -4.64659,1.22642 2.38897,-0.42702 -3.13607,4.29045 -3.94124,8.28203 -0.8046,3.99148 5.89097,7.64661 5.89097,7.64661 0,0 -10.0174,3.98089 -11.30195,6.02567 -1.28539,2.04495 1.82044,2.74261 3.0448,4.10731 1.23836,1.35269 -0.68304,0.45413 0.0938,4.73095 0.77626,4.27591 13.72587,-1.59344 13.72587,-1.59344 0,0 -0.7515,13.39376 5.24705,10.3111 5.99815,-3.08295 2.22029,3.86818 6.83054,4.03045 4.61004,0.16293 1.91284,-15.18302 2.96839,-12.80534 0.95941,2.15393 13.47663,1.85467 14.44695,-0.9652 l -10e-4,-0.004 c 0.092,-0.29171 0.0745,-0.60725 -0.0953,-0.95327 -1.83929,-3.68725 -0.71753,-4.40441 2.7153,-9.64527 0.42894,-0.65532 0.54486,-1.27336 0.41953,-1.85428 z m -12.15749,3.17802 a 2.3745791,2.3745791 0 0 1 -1.79029,2.84145 2.3745791,2.3745791 0 0 1 -2.84122,-1.78938 2.3745791,2.3745791 0 0 1 -0.0483,-0.32987 l -3.27968,-0.46443 a 4.3030512,4.3030512 0 0 1 -2.88388,1.93408 l -0.27501,3.68477 a 2.2112934,2.2112934 0 0 1 1.42779,1.59569 2.2112934,2.2112934 0 0 1 -1.66665,2.64638 2.2112934,2.2112934 0 0 1 -2.64545,-1.66688 2.2112934,2.2112934 0 0 1 1.29732,-2.52671 l 0.27887,-3.74233 a 4.3030512,4.3030512 0 0 1 -1.01637,-0.33557 4.3030512,4.3030512 0 0 1 -1.7752,-1.57638 l -3.1855,0.95615 a 2.0719202,2.0719202 0 0 1 -1.60902,1.9158 2.0719202,2.0719202 0 0 1 -2.47938,-1.5615 2.0719202,2.0719202 0 0 1 1.56148,-2.4794 2.0719202,2.0719202 0 0 1 1.99563,0.63487 l 3.12609,-0.9377 a 4.3030512,4.3030512 0 0 1 0.33027,-2.68468 4.3030512,4.3030512 0 0 1 0.22565,-0.41099 l -2.92044,-2.3219 a 2.2577511,2.2577511 0 0 1 -0.43966,0.15144 2.2577511,2.2577511 0 0 1 -2.70184,-1.70076 2.2577511,2.2577511 0 0 1 1.70172,-2.70206 2.2577511,2.2577511 0 0 1 2.70206,1.70171 2.2577511,2.2577511 0 0 1 -0.14333,1.42087 l 2.86729,2.28033 a 4.3030512,4.3030512 0 0 1 2.91549,-0.86301 l 1.55364,-2.96457 a 2.2272351,2.2272351 0 0 1 -0.34612,-0.78001 2.2272351,2.2272351 0 0 1 1.67834,-2.66495 2.2272351,2.2272351 0 0 1 2.66589,1.67813 2.2272351,2.2272351 0 0 1 -1.67928,2.66517 2.2272351,2.2272351 0 0 1 -1.00229,-0.006 l -1.30913,2.49661 a 4.3030512,4.3030512 0 0 1 2.30844,2.90017 4.3030512,4.3030512 0 0 1 0.0354,1.75294 l 3.09355,0.43713 a 2.3745791,2.3745791 0 0 1 1.43044,-0.97386 2.3745791,2.3745791 0 0 1 2.84239,1.79008 z"
   id="path557-6-7-5-3-5-6-2-3-5-6-2-9-1-0-9-3" /></svg>